<svg width="204" height="84" viewBox="0 0 204 84" fill="none" xmlns="http://www.w3.org/2000/svg">
<path fill-rule="evenodd" clip-rule="evenodd" d="M135.969 53.5253C134.708 53.2644 101.727 53.4408 98.798 53.4416C95.0368 53.4421 90.1865 53.1737 86.5422 53.4684L86.5059 54.4081C88.3735 54.5968 90.884 54.4568 92.822 54.4568C98.0349 54.4568 134.911 54.6531 135.996 54.3302L135.969 53.5253Z" fill="#A7CF48"/>
<path fill-rule="evenodd" clip-rule="evenodd" d="M133.237 56.9889C136.29 56.9889 136.024 57.2554 135.982 55.9749L104.481 55.9971L104.537 57.0126L133.237 56.9889Z" fill="#A7CF48"/>
<path fill-rule="evenodd" clip-rule="evenodd" d="M179.394 58.5407C179.283 59.3158 179.148 59.4668 179.929 59.5533L204 59.5344V59.0709L203.985 58.4939L179.394 58.5407Z" fill="#A7CF48"/>
<path fill-rule="evenodd" clip-rule="evenodd" d="M135.957 59.4654C136.068 58.5191 136.089 58.4934 135.146 58.4819L116.649 58.5536C116.566 59.8504 116.785 59.5581 118.138 59.5338C118.975 59.5181 119.818 59.5358 120.658 59.5358C122.388 59.5358 124.117 59.5386 125.847 59.5351C128.295 59.5297 133.887 59.8335 135.957 59.4654Z" fill="#A7CF48"/>
<path fill-rule="evenodd" clip-rule="evenodd" d="M179.414 56.9849L195.035 56.9882L195.031 55.9648L179.347 56.0094L179.414 56.9849Z" fill="#A7CF48"/>
<path fill-rule="evenodd" clip-rule="evenodd" d="M179.382 53.4848C179.22 54.7552 179.601 54.4793 180.883 54.4682L188.909 54.4656L188.921 53.4387L179.382 53.4848Z" fill="#A7CF48"/>
<path fill-rule="evenodd" clip-rule="evenodd" d="M166.527 56.3232L166.541 53.273C167.693 53.2871 168.762 53.3225 168.845 54.6936C168.936 56.1799 167.863 56.3503 166.527 56.3232ZM168.432 56.7298C171.2 56.3867 172.161 51.6882 164.903 52.7224L164.939 59.979L166.525 59.9511L166.586 57.0896L168.786 59.9823L170.657 59.9828C170.604 59.5798 168.999 57.6011 168.432 56.7298Z" fill="#5B5B5B"/>
<path fill-rule="evenodd" clip-rule="evenodd" d="M152.942 58.624C152.942 58.8728 152.765 60.5051 153.388 59.9132C153.718 59.5993 153.545 58.5143 153.543 57.9947C153.541 56.8827 153.422 55.136 153.621 54.1876C154.273 54.4434 154.435 55.0466 154.884 55.6798C155.306 56.2731 155.611 56.7191 155.977 57.2675C156.921 58.6788 157.518 60.0885 158.52 60.0017C158.704 59.3328 158.792 53.2912 158.557 52.7029C157.845 52.7075 157.985 52.6324 157.979 53.5705L158.012 57.3507C157.616 57.1208 156.441 55.1603 156.074 54.6684C155.401 53.767 154.94 52.3551 153.347 52.6595C152.693 53.0599 152.942 57.6098 152.942 58.624Z" fill="#5B5B5B"/>
<path fill-rule="evenodd" clip-rule="evenodd" d="M173.426 54.3777C173.426 52.2808 175.328 53.7182 176.631 53.2399C177.147 53.0511 177.016 52.7772 176.499 52.6751C176.145 52.6049 173.988 52.6535 173.491 52.6676C172.572 52.6947 171.982 53.0058 171.826 53.7946C171.659 54.6437 171.689 58.847 172.001 59.3342C172.694 60.4179 176.741 59.9432 176.871 59.8822C176.848 59.1658 176.837 59.3701 176.011 59.3694C172.894 59.3653 173.414 59.6163 173.414 56.512C174.067 56.5223 176.003 56.8049 176.275 56.2652C176.344 55.5055 175.073 56.1136 173.435 55.8511L173.426 54.3777Z" fill="#5B5B5B"/>
<path fill-rule="evenodd" clip-rule="evenodd" d="M148.649 55.9099C148.531 55.0271 148.276 53.4177 149.272 53.2817C150.632 53.095 151.78 53.6857 152.07 52.9625C151.876 52.5113 151.899 52.6629 151.184 52.6574C150.429 52.6506 148.337 52.6081 147.854 52.7914C146.612 53.2628 146.976 55.0602 146.976 56.422C146.976 57.8655 146.617 59.5147 148.004 59.9003C148.119 59.9329 152.027 60.2548 152.069 59.7244C151.927 59.2774 152.331 59.4687 151.497 59.3585C148.623 58.9783 148.599 60.6863 148.599 56.5153L150.064 56.5181C151.733 56.5181 151.269 56.6182 151.462 56.2651C151.319 55.8321 151.481 56.018 151.012 55.9051L148.649 55.9099Z" fill="#5B5B5B"/>
<path fill-rule="evenodd" clip-rule="evenodd" d="M145.907 58.0631C145.196 58.0293 145.368 58.5887 144.694 59.0719C140.316 62.2065 139.882 50.7471 144.523 53.4713C145.822 54.2338 144.613 54.5816 145.768 54.3378C145.637 53.7196 144.926 53.0735 144.285 52.7652C143.538 52.4052 142.614 52.3809 141.805 52.7145C137.009 54.6911 140.562 62.187 144.747 59.7524C145.24 59.4654 145.991 58.8248 145.907 58.0631Z" fill="#5B5B5B"/>
<path fill-rule="evenodd" clip-rule="evenodd" d="M160.286 52.6708C159.514 52.6708 159.727 52.5106 159.502 52.9625C159.745 53.2398 158.783 53.2677 160.943 53.2833L161.003 59.9762L162.58 59.9525L162.589 53.269C163.007 53.2798 163.68 53.4042 163.939 53.1337C164.657 52.3829 161.285 52.6708 160.286 52.6708Z" fill="#5B5B5B"/>
<path fill-rule="evenodd" clip-rule="evenodd" d="M88.2604 33.5291L90.618 33.5102L90.5862 32.423L82.7223 32.3947L82.5342 33.3053C82.6457 33.3506 82.5166 33.3655 82.915 33.4175C82.9705 33.4249 83.1566 33.4283 83.2196 33.4303L85.1494 33.4499L85.138 45.6338L88.0379 45.6656C87.948 43.6329 88.002 41.4836 88.0055 39.4382C88.0075 38.3895 88.0048 37.3417 88.0081 36.2932C88.0108 35.3029 87.8073 33.6786 88.2604 33.5291Z" fill="#5B5B5B"/>
<path fill-rule="evenodd" clip-rule="evenodd" d="M93.9835 41.5661L93.9489 38.211C95.437 38.0924 96.5059 38.384 96.5147 39.9103C96.5236 41.4058 95.3668 41.669 93.9835 41.5661ZM92.1203 45.635L93.9102 45.7042L93.9529 42.4896C94.4582 42.8426 96.0533 45.1434 96.4104 45.6954L98.5374 45.7008C98.3898 45.117 97.7343 44.3707 97.3422 43.8775C97.0492 43.5089 96.9754 43.3994 96.7366 43.0801L96.0568 42.0389C98.8789 41.8638 99.4222 37.5649 95.341 37.4918C94.4223 37.4756 92.9139 37.3179 92.1123 37.6157L92.1203 45.635Z" fill="#5B5B5B"/>
<path fill-rule="evenodd" clip-rule="evenodd" d="M134.409 45.3367L134.413 49.353L136.23 49.3368L136.256 41.5812L134.403 41.5817C134.407 43.0626 134.764 45.3436 132.942 45.2197C129.731 45.0013 130.239 36.0009 134.377 38.2975C135.666 39.0119 134.917 39.4321 135.93 39.4197C135.855 38.7407 135.073 38.0784 134.584 37.7652C131.25 35.6296 126.568 40.5955 130.322 44.7085C132.274 46.8467 133.754 45.6244 134.409 45.3367Z" fill="#5B5B5B"/>
<path fill-rule="evenodd" clip-rule="evenodd" d="M111.063 45.6765L111.628 45.6778L111.645 39.2487C112.437 39.3988 112.744 40.2795 113.131 40.8323L115.536 44.3913C116.071 45.1691 116.09 45.7941 117.216 45.7372C117.399 44.994 117.443 38.3314 117.252 37.4954L116.691 37.5075L116.36 42.4958C115.213 41.2023 113.587 37.5988 112.13 37.4107C110.516 37.2017 110.968 39.8033 110.97 41.0108C110.97 41.9484 110.79 45.0508 111.063 45.6765Z" fill="#5B5B5B"/>
<path fill-rule="evenodd" clip-rule="evenodd" d="M121.915 45.6959C122.437 45.525 122.113 45.9199 122.274 45.2571L122.323 39.2128C122.919 39.3643 122.752 39.2492 123.153 39.9271C123.372 40.2964 123.506 40.5155 123.771 40.8768L126.186 44.4398C126.653 45.123 126.965 45.8516 127.851 45.6913C128.09 44.7348 127.958 40.9235 127.967 39.4381C127.969 39.1222 128.007 38.5991 127.993 38.3192C127.94 37.272 128.103 37.7183 127.575 37.4789C126.986 37.822 127.269 39.2906 127.267 39.9103C127.264 40.8743 127.271 41.8374 127.27 42.8006C126.245 41.9667 124.312 37.6488 122.819 37.4228C121.031 37.153 121.596 41.0143 121.594 43.5273C121.593 43.946 121.573 44.3925 121.577 44.8037C121.584 45.5877 121.432 45.5147 121.915 45.6959Z" fill="#5B5B5B"/>
<path fill-rule="evenodd" clip-rule="evenodd" d="M101.384 42.5043C101.465 41.8589 101.662 41.2178 101.827 40.5966C102.228 39.0748 102.021 39.0768 102.572 38.8123C103.078 39.028 102.861 38.7898 103.076 39.5705L103.765 42.4962L101.384 42.5043ZM99.7412 45.6905C100.641 45.6993 100.485 45.7439 100.709 44.7949C100.834 44.268 100.933 43.7301 101.156 43.2458L103.987 43.2005L104.756 45.7082L106.637 45.6824C106.54 44.5919 105.76 42.3197 105.437 41.1244C105.04 39.6577 104.947 37.3747 103.203 37.3651C101.444 37.3552 101.383 39.4967 100.974 40.9817C100.657 42.1296 99.7993 44.7211 99.7412 45.6905Z" fill="#5B5B5B"/>
<path fill-rule="evenodd" clip-rule="evenodd" d="M118.529 39.7526L118.527 44.7848L118.558 45.7028L120.321 45.6899L120.388 44.9432L120.376 42.8982V38.6519L120.38 37.4871L118.522 37.4858L118.529 39.7526Z" fill="#5B5B5B"/>
<path fill-rule="evenodd" clip-rule="evenodd" d="M107.943 45.6973L109.708 45.6729L109.733 37.5087L108.015 37.4954C107.765 38.2947 107.851 44.5285 107.943 45.6973Z" fill="#5B5B5B"/>
<path fill-rule="evenodd" clip-rule="evenodd" d="M118.987 33.506C117.741 33.962 118.172 36.3654 119.975 35.6491C121.274 35.1324 120.365 33.0029 118.987 33.506Z" fill="#5B5B5B"/>
<path fill-rule="evenodd" clip-rule="evenodd" d="M88.2601 33.5291C87.807 33.6786 88.0106 35.3029 88.0079 36.2932C88.0046 37.3417 88.0072 38.3895 88.0052 39.4382C88.0018 41.4836 87.9477 43.6329 88.0376 45.6656L85.1378 45.6338L85.1491 33.4499L83.2193 33.4303C83.1563 33.4283 82.9702 33.4249 82.9148 33.4175C82.5164 33.3655 82.6455 33.3506 82.5339 33.3053L82.7221 32.3947C82.2248 32.5881 82.358 33.0393 82.54 33.5258L85.0139 33.5624L85.0111 45.6256C85.8168 45.9679 87.2239 45.8185 88.1006 45.7313C88.3035 44.0645 88.1486 41.3733 88.1479 39.5957C88.1473 38.3009 87.9578 34.5187 88.2601 33.5291Z" fill="#5B5B5B"/>
<path fill-rule="evenodd" clip-rule="evenodd" d="M109.709 35.5524C110.816 32.2391 106.599 33.3774 107.811 35.2864C108.203 35.9034 109.064 35.7037 109.709 35.5524Z" fill="#5B5B5B"/>
<path fill-rule="evenodd" clip-rule="evenodd" d="M48.9848 41.7582L61.2057 41.7584L73.4272 41.7582L79.5378 52.2409L85.6484 62.7237L79.5375 73.2066L73.4273 83.6891L61.2064 83.6888L48.9849 83.6889L42.8743 73.2063L36.7637 62.7236L42.8746 52.2407L48.9848 41.7582Z" fill="#B2D01B"/>
<path fill-rule="evenodd" clip-rule="evenodd" d="M12.2211 20.965L24.442 20.9652L36.6635 20.9651L42.7741 31.4478L48.8848 41.9305L42.7739 52.4134L36.6636 62.8958L24.4428 62.8956L12.2213 62.8958L6.11062 52.4131L0 41.9303L6.11088 31.4475L12.2211 20.965Z" fill="#B2D01B"/>
<path fill-rule="evenodd" clip-rule="evenodd" d="M48.8852 0L61.1061 0.000254656L73.3276 0.000130434L79.4382 10.4828L85.5488 20.9655L79.4379 31.4484L73.3277 41.9309L61.1068 41.9306L48.8853 41.9308L42.7747 31.4481L36.6641 20.9654L42.7749 10.4825L48.8852 0Z" fill="#B2D01B"/>
<path fill-rule="evenodd" clip-rule="evenodd" d="M66.002 54.4818L65.5607 54.7755L61.2335 65.135L57.0807 54.5379H54.0048L53.5635 54.8316V70.5208H54.6817L55.123 70.2271L55.1731 58.9474L60.0793 70.6609L60.5205 70.3672L65.5607 58.2553V70.4931H68.3295L68.7707 70.1994V54.4818H66.002Z" fill="#799634"/>
<path fill-rule="evenodd" clip-rule="evenodd" d="M54.7369 57.9083L54.6808 70.5209H53.5625V54.8317H56.6384L60.9455 65.8223L65.5597 54.7756H68.3285V70.4932H65.5597V57.4889L60.0783 70.661L54.7369 57.9083Z" fill="white"/>
<path fill-rule="evenodd" clip-rule="evenodd" d="M22.4626 55.0233L22.4767 37.2782L22.8969 36.9499H26.9104L26.8962 54.6949L26.476 55.0233H22.4626ZM26.0487 33.3178L26.4689 32.9895C27.0682 32.5213 27.4536 31.7916 27.4536 30.9723C27.4536 29.5594 26.3077 28.4136 24.8949 28.4136C24.3013 28.4136 23.755 28.6158 23.3209 28.9551L22.9007 29.2834C22.3014 29.7516 21.916 30.4813 21.916 31.3006C21.916 32.7134 23.0619 33.8593 24.4747 33.8593C25.0683 33.8593 25.6146 33.6571 26.0487 33.3178Z" fill="#799634"/>
<path fill-rule="evenodd" clip-rule="evenodd" d="M22.4629 55.0233L22.477 37.2782H26.4906L26.4763 55.0233H22.4629Z" fill="white"/>
<path d="M24.4747 33.8592C25.8879 33.8592 27.0334 32.7137 27.0334 31.3005C27.0334 29.8874 25.8879 28.7418 24.4747 28.7418C23.0616 28.7418 21.916 29.8874 21.916 31.3005C21.916 32.7137 23.0616 33.8592 24.4747 33.8592Z" fill="white"/>
<path fill-rule="evenodd" clip-rule="evenodd" d="M54.9424 12.51L54.9695 10.8317L55.3396 10.3252H67.1981L67.2258 12.0875L66.8557 12.594H63.4504V30.0699L63.0803 30.5764H58.7448V12.51H54.9424Z" fill="#799634"/>
<path fill-rule="evenodd" clip-rule="evenodd" d="M54.9434 12.51L54.9705 10.8317H66.8289L66.8566 12.5939H63.0812V30.5764H58.7457V12.51H54.9434Z" fill="white"/>
<path d="M36.9311 23.6466C37.9178 23.6466 38.7177 22.8468 38.7177 21.8602C38.7177 20.8735 37.9178 20.0737 36.9311 20.0737C35.9444 20.0737 35.1445 20.8735 35.1445 21.8602C35.1445 22.8468 35.9444 23.6466 36.9311 23.6466Z" fill="#5B5B5B" stroke="#5B5B5B" stroke-width="0.905706" stroke-miterlimit="22.9256"/>
<path d="M48.8848 43.7169C49.8713 43.7169 50.671 42.9172 50.671 41.9307C50.671 40.9442 49.8713 40.1445 48.8848 40.1445C47.8984 40.1445 47.0986 40.9442 47.0986 41.9307C47.0986 42.9172 47.8984 43.7169 48.8848 43.7169Z" fill="#5B5B5B" stroke="#5B5B5B" stroke-width="0.905706" stroke-miterlimit="22.9256"/>
<path d="M72.3546 43.5957C73.341 43.5957 74.1408 42.796 74.1408 41.8095C74.1408 40.823 73.341 40.0233 72.3546 40.0233C71.3681 40.0233 70.5684 40.823 70.5684 41.8095C70.5684 42.796 71.3681 43.5957 72.3546 43.5957Z" fill="#5B5B5B" stroke="#5B5B5B" stroke-width="0.905706" stroke-miterlimit="22.9256"/>
<path d="M38.1114 63.7936C39.0979 63.7936 39.8976 62.9939 39.8976 62.0074C39.8976 61.0209 39.0979 60.2212 38.1114 60.2212C37.1249 60.2212 36.3252 61.0209 36.3252 62.0074C36.3252 62.9939 37.1249 63.7936 38.1114 63.7936Z" fill="#5B5B5B" stroke="#5B5B5B" stroke-width="0.905706" stroke-miterlimit="22.9256"/>
<line x1="36.8416" y1="20.9508" x2="48.6497" y2="41.0245" stroke="#5B5B5B" stroke-width="1.19817"/>
<line x1="49.3135" y1="41.9101" x2="72.9296" y2="41.9101" stroke="#5B5B5B" stroke-width="1.19817"/>
<line x1="48.6623" y1="42.7895" x2="38.035" y2="62.8632" stroke="#5B5B5B" stroke-width="1.19817"/>
</svg>
