<?xml version="1.0" encoding="utf-8"?>
<!-- Generator: Adobe Illustrator 27.5.0, SVG Export Plug-In . SVG Version: 6.00 Build 0)  -->
<svg version="1.1" xmlns="http://www.w3.org/2000/svg" xmlns:xlink="http://www.w3.org/1999/xlink" x="0px" y="0px"
	 viewBox="0 0 500 500" style="enable-background:new 0 0 500 500;" xml:space="preserve">
<g id="Background_Simple">
	<g>
		<path style="fill:#C6FF00;" d="M294.681,389.433c41.438-8.128,78.571-27.053,104.497-59.942
			c41.288-52.376,49.308-150.594-6.186-207.74c-25.43-26.187-63.279-40.576-97.075-48.635
			c-36.329-8.663-77.425-11.396-110.036,3.261c-52.54,23.615-76.065,108.696-109.785,144.296
			c-33.72,35.6-29.015,111.387,32.152,139.391c32.345,14.809,66.602,25.595,100.957,30.869c15.914,2.443,31.96,3.692,47.72,2.961
			C269.769,393.299,282.414,391.839,294.681,389.433z"/>
		<path style="opacity:0.7;fill:#FFFFFF;" d="M294.681,389.433c41.438-8.128,78.571-27.053,104.497-59.942
			c41.288-52.376,49.308-150.594-6.186-207.74c-25.43-26.187-63.279-40.576-97.075-48.635
			c-36.329-8.663-77.425-11.396-110.036,3.261c-52.54,23.615-76.065,108.696-109.785,144.296
			c-33.72,35.6-29.015,111.387,32.152,139.391c32.345,14.809,66.602,25.595,100.957,30.869c15.914,2.443,31.96,3.692,47.72,2.961
			C269.769,393.299,282.414,391.839,294.681,389.433z"/>
	</g>
</g>
<g id="Screen">
	<g>
		
			<rect id="XMLID_5_" x="175.475" y="68" style="fill:#FFFFFF;stroke:#263238;stroke-linecap:round;stroke-linejoin:round;stroke-miterlimit:10;" width="203.774" height="301.842"/>
		
			<rect id="XMLID_72_" x="372.804" y="68" style="fill:#C6FF00;stroke:#263238;stroke-linecap:round;stroke-linejoin:round;stroke-miterlimit:10;" width="6.445" height="301.842"/>
		
			<rect id="XMLID_73_" x="372.804" y="192.528" style="fill:#FFFFFF;stroke:#263238;stroke-linecap:round;stroke-linejoin:round;stroke-miterlimit:10;" width="6.445" height="59.173"/>
		
			<rect id="XMLID_8_" x="175.475" y="68" style="fill:#263238;stroke:#263238;stroke-linecap:round;stroke-linejoin:round;stroke-miterlimit:10;" width="203.774" height="23.283"/>
		<path id="XMLID_13_" style="fill:#FFFFFF;stroke:#263238;stroke-linecap:round;stroke-linejoin:round;stroke-miterlimit:10;" d="
			M364.067,84.881H195.481c-1.726,0-3.125-1.399-3.125-3.125v-3.798c0-1.726,1.399-3.125,3.125-3.125h168.585
			c1.726,0,3.125,1.399,3.125,3.125v3.798C367.192,83.482,365.792,84.881,364.067,84.881z"/>
		<g>
			<path style="fill:#263238;" d="M344.704,274.237c0,2.821-32.525,5.107-72.646,5.107c-40.121,0-72.646-2.287-72.646-5.107
				c0-2.821,32.525-5.107,72.646-5.107C312.18,269.13,344.704,271.416,344.704,274.237z"/>
			<g>
				<polygon style="fill:#C6FF00;stroke:#263238;stroke-linecap:round;stroke-linejoin:round;stroke-miterlimit:10;" points="
					348.081,172.396 348.314,172.225 347.855,172.225 274.143,116.809 200.43,172.225 199.971,172.225 200.206,172.394 
					199.971,172.571 200.451,172.571 274.799,226.049 347.842,172.571 348.314,172.571 				"/>
				<g>
					
						<rect x="223.204" y="122.352" style="fill:#FFFFFF;stroke:#263238;stroke-linecap:round;stroke-linejoin:round;stroke-miterlimit:10;" width="99.5" height="123.5"/>
					<g>
						<path style="fill:#263238;" d="M294.172,155.968c0,14.309-6.504,22.547-13.225,22.547c-3.469,0-5.492-1.734-5.709-4.914
							c-1.445,3.18-3.902,4.986-7.443,4.914c-5.42-0.072-7.299-4.625-6.648-11.057l0.795-7.227
							c0.65-6.576,3.613-10.695,8.961-10.551c3.252,0,5.348,1.734,6.215,4.77l0.506-4.481h4.914l-2.168,20.74
							c-0.217,1.662,0.289,3.107,2.096,3.107c5.565,0,7.443-10.623,7.371-17.705c0-10.045-4.697-16.549-15.537-16.549
							c-14.453,0-21.174,11.996-21.174,28.184c0,12.502,5.709,20.018,18.283,20.018c5.059,0,9.684-1.012,14.236-4.553l-0.434,4.986
							c-4.408,3.035-9.033,3.902-14.092,3.902c-15.898,0-22.836-9.756-22.836-24.643c0-17.199,8.238-32.303,26.16-32.303
							C288.969,135.156,294.172,144.044,294.172,155.968z M266.783,160.738l-0.65,6.504c-0.434,3.758,0.723,6.432,4.119,6.504
							c3.324,0.072,5.131-2.529,5.564-6.432l0.723-6.938c0.361-3.396-1.012-5.781-4.191-5.781
							C269.023,154.523,267.217,156.835,266.783,160.738z"/>
					</g>
				</g>
				<polygon style="fill:#C6FF00;stroke:#263238;stroke-linecap:round;stroke-linejoin:round;stroke-miterlimit:10;" points="
					199.971,172.225 199.971,258.212 348.314,258.212 348.314,172.225 274.143,215.219 				"/>
				<polyline style="fill:none;stroke:#263238;stroke-linecap:round;stroke-linejoin:round;stroke-miterlimit:10;" points="
					199.971,258.212 274.143,215.219 348.314,258.212 				"/>
			</g>
			
				<rect x="231.24" y="295.976" style="fill:#C6FF00;stroke:#263238;stroke-linecap:round;stroke-linejoin:round;stroke-miterlimit:10;" width="82.592" height="17.471"/>
			
				<rect x="231.24" y="320.595" style="fill:#C6FF00;stroke:#263238;stroke-linecap:round;stroke-linejoin:round;stroke-miterlimit:10;" width="82.592" height="17.471"/>
			<g>
				
					<line style="fill:none;stroke:#263238;stroke-linecap:round;stroke-linejoin:round;stroke-miterlimit:10;" x1="201.094" y1="147.606" x2="208.528" y2="153.256"/>
				
					<line style="fill:none;stroke:#263238;stroke-linecap:round;stroke-linejoin:round;stroke-miterlimit:10;" x1="194.954" y1="142.94" x2="197.983" y2="145.241"/>
				
					<line style="fill:none;stroke:#263238;stroke-linecap:round;stroke-linejoin:round;stroke-miterlimit:10;" x1="204.727" y1="106.562" x2="217.215" y2="118.507"/>
				
					<line style="fill:none;stroke:#263238;stroke-linecap:round;stroke-linejoin:round;stroke-miterlimit:10;" x1="243.874" y1="106.725" x2="245.448" y2="111.449"/>
				
					<line style="fill:none;stroke:#263238;stroke-linecap:round;stroke-linejoin:round;stroke-miterlimit:10;" x1="242.191" y1="101.676" x2="243.114" y2="104.445"/>
				
					<line style="fill:none;stroke:#263238;stroke-linecap:round;stroke-linejoin:round;stroke-miterlimit:10;" x1="350.237" y1="142.94" x2="336.663" y2="153.256"/>
				
					<line style="fill:none;stroke:#263238;stroke-linecap:round;stroke-linejoin:round;stroke-miterlimit:10;" x1="336.297" y1="110.548" x2="327.976" y2="118.507"/>
				
					<line style="fill:none;stroke:#263238;stroke-linecap:round;stroke-linejoin:round;stroke-miterlimit:10;" x1="340.464" y1="106.562" x2="337.678" y2="109.227"/>
				
					<line style="fill:none;stroke:#263238;stroke-linecap:round;stroke-linejoin:round;stroke-miterlimit:10;" x1="303.001" y1="101.676" x2="299.743" y2="111.449"/>
				
					<line style="fill:none;stroke:#263238;stroke-linecap:round;stroke-linejoin:round;stroke-miterlimit:10;" x1="274.224" y1="101.676" x2="274.224" y2="109.277"/>
			</g>
		</g>
	</g>
</g>
<g id="Plants">
	<g>
		<g>
			<ellipse style="fill:#C6FF00;" cx="395.074" cy="422.149" rx="27.745" ry="7.399"/>
			<ellipse style="opacity:0.5;fill:#FFFFFF;" cx="395.074" cy="422.149" rx="27.745" ry="7.399"/>
		</g>
		<path style="fill:#263238;" d="M353.576,262.514c-0.552-2.303,0.808-4.75,3.254-5.081c3.395-0.459,7.567,4.098,8.887,6.858
			c0.114,0.239,1.469,4.174,1.406,4.175c-0.004,0-6.018,0.136-8.476-0.938C356.553,266.613,354.14,264.866,353.576,262.514z
			 M440.808,252.051c-0.5,2.366-2.865,4.178-4.933,5.149c-2.12,0.995-6.967,1.142-8.17,1.163c-0.654,0.774-1.345,1.608-2.088,2.547
			c-1.294,1.662-2.739,3.55-4.172,5.708c-0.383,0.574-0.772,1.207-1.16,1.814c0.866-0.887,2.072-2.087,2.202-2.191
			c2.392-1.906,8.135-4.185,10.989-2.289c2.056,1.365,2.211,4.161,0.709,5.992c-1.534,1.869-4.468,2.387-6.751,2.296
			c-2.382-0.095-6.852-2.266-7.825-2.751c-0.839,1.357-1.669,2.771-2.448,4.295c-1.35,2.629-2.652,5.502-3.593,8.591
			c0.096,0.05,0.078,0.04,0.174,0.09c0.699-0.916,2.213-2.805,2.355-2.947c2.168-2.158,7.626-5.053,10.671-3.482
			c2.194,1.131,2.655,3.893,1.362,5.878c-1.32,2.027-4.179,2.864-6.458,3.024c-2.626,0.184-8.059-1.866-8.264-1.944
			c-0.844,2.893-1.491,5.928-1.975,9.048c-0.354,2.26-0.619,4.564-0.863,6.878c0.474-0.656,2.459-3.138,2.622-3.301
			c2.168-2.158,7.627-5.053,10.671-3.482c2.194,1.131,2.655,3.893,1.363,5.877c-1.32,2.027-4.179,2.864-6.458,3.024
			c-2.564,0.18-7.779-1.761-8.217-1.926c-0.111,1.051-0.225,2.1-0.327,3.155c-0.336,3.442-0.657,6.893-1.078,10.29
			c-0.146,1.177-0.333,2.331-0.515,3.488c0.741-0.961,2.122-2.685,2.258-2.819c2.169-2.158,7.627-5.053,10.672-3.483
			c2.194,1.132,2.654,3.893,1.362,5.878c-1.32,2.027-4.179,2.864-6.458,3.024c-2.29,0.161-6.71-1.377-7.948-1.828
			c-0.318,1.923-0.675,3.824-1.116,5.678c-0.207,0.795-0.368,1.621-0.611,2.373c-0.228,0.763-0.454,1.519-0.678,2.267
			c-0.517,1.531-0.993,2.957-1.511,4.369c-0.257,0.716-0.516,1.386-0.774,2.078c0.605-1.086,1.591-2.792,1.699-2.937
			c1.816-2.461,6.773-6.15,10.021-5.059c2.34,0.786,3.214,3.446,2.237,5.603c-0.998,2.203-3.697,3.464-5.926,3.968
			c-2.457,0.555-7.73-0.516-8.375-0.651c-0.641,1.692-1.281,3.333-1.909,4.857c-1.974,4.829-3.802,8.775-5.12,11.521
			c-0.074,0.155-0.142,0.293-0.213,0.441h9.606l-3.315,64.686c-0.252,4.916-4.311,8.773-9.234,8.773l0,0
			c-4.923,0-8.982-3.857-9.234-8.773l-3.315-64.686h10.31c-0.048-0.447-0.1-0.922-0.161-1.453c-0.345-2.99-0.899-7.261-1.796-12.348
			c-0.255-1.468-0.551-3.019-0.87-4.611c-0.665,0.089-5.991,0.761-8.397,0.025c-2.185-0.668-4.783-2.127-5.613-4.398
			c-0.813-2.224,0.257-4.811,2.648-5.421c3.32-0.846,7.988,3.202,9.616,5.792c0.104,0.166,1.116,2.264,1.609,3.346
			c-0.196-0.961-0.388-1.916-0.609-2.913c-0.306-1.437-0.678-2.945-1.029-4.409c-0.21-0.752-0.422-1.512-0.636-2.279
			c-0.2-0.779-0.485-1.496-0.727-2.259c-0.379-1.108-0.825-2.232-1.267-3.355c-1.444,0.401-5.702,1.502-7.891,1.183
			c-2.261-0.329-5.05-1.377-6.215-3.497c-1.141-2.076-0.475-4.795,1.796-5.76c3.153-1.339,8.381,1.955,10.382,4.268
			c0.065,0.075,0.437,0.608,0.873,1.244c-0.466-1.083-0.926-2.166-1.435-3.247c-1.441-3.069-3.006-6.15-4.56-9.244
			c-0.324-0.645-0.638-1.294-0.959-1.94c-1.214,0.343-5.815,1.578-8.11,1.244c-2.261-0.329-5.05-1.377-6.215-3.497
			c-1.141-2.075-0.475-4.795,1.797-5.76c3.153-1.339,8.381,1.954,10.383,4.268c0.071,0.083,0.514,0.72,1.004,1.437
			c-0.82-1.693-1.617-3.391-2.355-5.1c-1.295-2.988-2.408-6.002-3.255-9.006c-0.427,0.126-5.793,1.682-8.343,1.31
			c-2.261-0.33-5.05-1.378-6.215-3.497c-1.141-2.076-0.475-4.795,1.797-5.76c3.153-1.339,8.381,1.955,10.383,4.268
			c0.142,0.164,1.728,2.481,2.267,3.328c-0.01-0.036-0.024-0.072-0.034-0.107c-0.86-3.162-1.291-6.287-1.556-9.27
			c-0.268-2.976-0.268-5.801-0.2-8.4c0.061-2.601,0.277-4.976,0.485-7.076c0.122-1.136,0.254-2.174,0.388-3.14
			c-0.012,0.008-0.06,0.041-0.06,0.041c-0.052,0.035-1.202-3.965-1.245-4.226c-0.503-3.018,0.297-9.144,3.341-10.717
			c2.192-1.133,4.711,0.09,5.581,2.293c0.888,2.249-0.085,5.065-1.274,7.016c-1.219,1.999-5.181,4.796-6.173,5.478
			c-0.119,1.006-0.234,2.083-0.336,3.276c-0.162,2.1-0.326,4.472-0.331,7.062c-0.003,0.69,0.022,1.433,0.033,2.153
			c0.233-1.217,0.577-2.884,0.628-3.042c0.943-2.91,4.477-7.978,7.903-7.972c2.468,0.004,4.14,2.251,3.897,4.607
			c-0.249,2.406-2.41,4.456-4.364,5.64c-2.039,1.235-6.965,1.891-8.044,2.022c0.049,1.594,0.137,3.232,0.328,4.933
			c0.324,2.939,0.824,6.053,1.743,9.149c0.107-0.012,0.087-0.009,0.194-0.021c0.078-1.149,0.298-3.562,0.339-3.759
			c0.618-2.996,3.574-8.422,6.98-8.792c2.454-0.267,4.362,1.783,4.379,4.151c0.017,2.418-1.905,4.694-3.718,6.085
			c-2.089,1.603-7.752,2.89-7.965,2.938c0.892,2.879,2.026,5.767,3.344,8.636c0.952,2.081,2.002,4.148,3.075,6.213
			c0.033-0.809,0.319-3.974,0.366-4.2c0.618-2.996,3.574-8.422,6.98-8.792c2.454-0.267,4.362,1.783,4.379,4.151
			c0.017,2.418-1.905,4.694-3.718,6.085c-2.039,1.565-7.459,2.823-7.917,2.927c0.488,0.938,0.971,1.876,1.467,2.812
			c1.619,3.056,3.255,6.111,4.777,9.177c0.527,1.062,1.008,2.128,1.495,3.194c0.087-1.211,0.289-3.41,0.328-3.597
			c0.618-2.996,3.574-8.422,6.98-8.792c2.454-0.266,4.362,1.783,4.379,4.151c0.017,2.418-1.905,4.694-3.718,6.085
			c-1.821,1.397-6.356,2.553-7.637,2.861c0.796,1.779,1.546,3.561,2.201,5.351c0.266,0.778,0.587,1.555,0.799,2.316
			c0.231,0.762,0.46,1.517,0.686,2.265c0.413,1.563,0.803,3.014,1.15,4.478c0.181,0.739,0.334,1.44,0.501,2.16
			c-0.095-1.24-0.213-3.206-0.204-3.387c0.157-3.055,2.257-8.866,5.567-9.747c2.385-0.635,4.582,1.101,4.957,3.439
			c0.048,0.297,0.065,0.597,0.056,0.897c1.436,2.322,2.158,5.626,2.111,7.658c-0.004,0.196-0.319,2.504-0.504,3.679
			c0.366-0.91,0.733-1.812,1.099-2.766c0.537-1.367,1.059-2.83,1.574-4.245c0.24-0.743,0.482-1.494,0.727-2.252
			c0.263-0.76,0.421-1.516,0.64-2.285c0.296-1.133,0.543-2.316,0.794-3.497c-1.425-0.462-5.585-1.892-7.235-3.366
			c-1.704-1.522-3.452-3.935-3.255-6.345c0.193-2.361,2.249-4.262,4.676-3.813c3.369,0.623,5.912,6.253,6.305,9.287
			c0.013,0.099,0.029,0.748,0.042,1.519c0.209-1.16,0.422-2.318,0.595-3.5c0.491-3.355,0.886-6.788,1.297-10.226
			c0.085-0.716,0.182-1.431,0.27-2.147c-1.201-0.383-5.721-1.892-7.45-3.436c-1.704-1.522-3.452-3.935-3.254-6.345
			c0.193-2.36,2.249-4.262,4.676-3.813c3.369,0.623,5.912,6.253,6.305,9.287c0.014,0.109,0.032,0.885,0.045,1.753
			c0.25-1.864,0.522-3.721,0.849-5.553c0.569-3.206,1.303-6.334,2.254-9.307c-0.425-0.131-5.76-1.793-7.681-3.51
			c-1.704-1.522-3.452-3.935-3.254-6.345c0.194-2.36,2.249-4.262,4.676-3.813c3.369,0.623,5.912,6.254,6.305,9.288
			c0.028,0.215,0.072,3.023,0.055,4.026c0.012-0.035,0.019-0.073,0.031-0.109c1.027-3.112,2.391-5.956,3.816-8.59
			c1.418-2.63,2.977-4.987,4.467-7.117c1.485-2.136,2.976-3.997,4.308-5.634c0.729-0.881,1.411-1.673,2.056-2.405
			c-0.014,0-0.073,0.001-0.073,0.001c-0.063,0,1.185-3.97,1.293-4.212c1.245-2.795,5.292-7.463,8.698-7.096
			C439.872,247.324,441.298,249.734,440.808,252.051z M401.522,334.249c-0.582-0.283-5.075-2.505-6.828-4.404
			c-2.013,1.125-4.285,2.044-4.685,2.203c0.398,1.764,0.77,3.487,1.088,5.104c1.017,5.116,1.67,9.416,2.085,12.433
			c0.088,0.643,0.163,1.216,0.23,1.74h0.228c0.229-0.441,0.475-0.92,0.75-1.461c1.361-2.684,3.256-6.552,5.314-11.29
			C400.301,337.21,400.91,335.753,401.522,334.249z M419.47,268.851c0.053,0.033,1.094-3.996,1.13-4.258
			c0.422-3.03-0.544-9.133-3.629-10.623c-2.222-1.074-4.707,0.218-5.517,2.443c-0.827,2.273,0.222,5.061,1.463,6.98
			C414.376,265.644,419.466,268.848,419.47,268.851z"/>
	</g>
</g>
<g id="Character">
	<g>
		<g>
			<ellipse style="fill:#C6FF00;" cx="146.059" cy="422.992" rx="43.777" ry="10.215"/>
			<ellipse style="opacity:0.5;fill:#FFFFFF;" cx="146.059" cy="422.992" rx="43.777" ry="10.215"/>
		</g>
		<g>
			<g>
				<g>
					<path style="fill:#263238;stroke:#263238;stroke-linecap:round;stroke-linejoin:round;stroke-miterlimit:10;" d="M162.204,182
						c0,0,6,3.5,7,10.5s3.897,37.022,3.897,37.022s10.282,4.944,10.603,6.978s0.29,8.269-8.355,12.385
						c-8.645,4.115-11.772,0.173-16.145-8.385C154.831,231.942,162.204,182,162.204,182z"/>
					<path style="fill:#FFFFFF;stroke:#263238;stroke-linecap:round;stroke-linejoin:round;stroke-miterlimit:10;" d="
						M184.025,238.534c0,0-1.984,5.161-5.807,5.161c-3.823,0-2.498-7.854-0.586-9.766c1.912-1.912,3.935-3.587,6.939-0.856
						C187.575,235.803,184.025,238.534,184.025,238.534z"/>
					<path style="fill:none;stroke:#263238;stroke-linecap:round;stroke-linejoin:round;stroke-miterlimit:10;" d="M171.577,231.78
						c0,0-4.883,1.172-5.86,6.641"/>
				</g>
				<path style="fill:#FFFFFF;stroke:#263238;stroke-linecap:round;stroke-linejoin:round;stroke-miterlimit:10;" d="
					M188.121,229.795c0,0,0-4.37,0-6.281c0-1.912,1.365-4.643-0.273-4.643s-2.731,2.185-2.731,3.55c0,1.365,0,3.55,0,3.55
					L188.121,229.795z"/>
			</g>
			<g>
				<g>
					
						<path id="XMLID_146_" style="fill:#263238;stroke:#263238;stroke-linecap:round;stroke-linejoin:round;stroke-miterlimit:10;" d="
						M144.535,408.281c0,0,16.303,5.351,18.418,5.725c2.116,0.373,1.493,2.613-0.996,4.231c-2.489,1.618-6.222,2.116-15.058,0.871
						c-8.836-1.244-10.454-2.862-11.076-2.613c-0.622,0.249-2.116,1.493-4.231,0.498c-2.116-0.996-3.111-4.978-0.996-6.845
						S144.535,408.281,144.535,408.281z"/>
					<path style="fill:#263238;stroke:#263238;stroke-linecap:round;stroke-linejoin:round;stroke-miterlimit:10;" d="
						M164.228,415.257c-4.798,3.831-17.408,2.532-23.706,0.794c-4.748-1.31-8.767-1.059-10.578-0.832
						c0.383,0.792,0.953,1.445,1.649,1.772c2.116,0.996,3.609-0.249,4.231-0.498c0.622-0.249,2.24,1.369,11.076,2.613
						c8.836,1.245,12.569,0.747,15.058-0.871C163.414,417.289,164.225,416.131,164.228,415.257z"/>
				</g>
				<g>
					
						<path id="XMLID_145_" style="fill:#263238;stroke:#263238;stroke-linecap:round;stroke-linejoin:round;stroke-miterlimit:10;" d="
						M133.21,412.139c0,0,5.725,5.227,10.329,7.84c4.605,2.613,6.222,4.356,3.982,6.969c-2.24,2.613-3.982,1.991-13.191,0
						c-9.209-1.991-14.685-5.849-14.685-5.849s-0.373,1.244-3.36,0.373c-2.987-0.871-2.738-3.236-1.991-5.227
						C115.041,414.254,124.623,408.032,133.21,412.139z"/>
					<path style="fill:#263238;stroke:#263238;stroke-linecap:round;stroke-linejoin:round;stroke-miterlimit:10;" d="
						M147.521,426.948c0.345-0.403,0.588-0.783,0.753-1.151c-1.101,0.592-2.626,1.175-4.403,1.198
						c-3.65,0.047-15.186-3.573-19.875-6.253c-3.854-2.202-8.606-2.142-10.179-2.051c0.053,1.196,0.675,2.259,2.469,2.782
						c2.987,0.871,3.36-0.373,3.36-0.373s5.476,3.858,14.685,5.849C143.539,428.939,145.281,429.561,147.521,426.948z"/>
				</g>
			</g>
			<g>
				
					<path id="XMLID_142_" style="fill:#263238;stroke:#263238;stroke-linecap:round;stroke-linejoin:round;stroke-miterlimit:10;" d="
					M160.961,280.848c0,0-0.995,14.934-4.48,37.583s-12.445,39.574-12.943,48.161c-0.498,8.587-0.249,25.512-0.249,28.996
					s1.12,2.364,1.245,5.476c0.124,3.111,0,7.218,0,7.218s-3.858,1.867-6.347,2.489c-2.489,0.622-3.733,0.747-3.733,0.747
					s0.498,0.996-2.116-5.351c-2.613-6.347-3.733-17.422-3.733-28.249c0-10.827,4.729-30.116,6.471-41.067
					c1.742-10.951,6.72-38.952,7.218-44.801s2.365-11.574,2.365-11.574s4.48,0.747,9.458,0
					C159.095,279.728,160.961,280.848,160.961,280.848z"/>
				
					<path id="XMLID_143_" style="fill:#263238;stroke:#263238;stroke-linecap:round;stroke-linejoin:round;stroke-miterlimit:10;" d="
					M110.063,279.105c0,0,2.862,53.636,0.995,62.348c-1.867,8.711-2.987,10.205-2.862,17.547c0.124,7.342,1.369,36.09,2.862,44.552
					c1.493,8.462,2.987,8.836,2.738,11.076c-0.249,2.24,0.498,3.858,0.995,4.231c0.498,0.373,0.373,1.867,7.218-0.622
					c6.845-2.489,12.818-5.476,12.818-5.476s0.373-1.991,0.373-7.84c0-5.849-2.987-10.205-2.987-14.685
					c0-4.48-0.995-24.64,2.738-38.703c3.733-14.062,8.587-44.303,9.831-53.139c1.244-8.836,1.742-13.814,1.742-13.814
					s-8.96,0.124-19.538-2.862c-10.578-2.987-17.174-4.605-17.423-3.733C109.316,278.857,110.063,279.105,110.063,279.105z"/>
				<g>
					
						<path style="fill:none;stroke:#FFFFFF;stroke-width:0.75;stroke-linecap:round;stroke-linejoin:round;stroke-miterlimit:10;" d="
						M136.797,407.397c-0.094,1.458-0.094,2.485-0.094,2.485"/>
					
						<path style="fill:none;stroke:#FFFFFF;stroke-width:0.75;stroke-linecap:round;stroke-linejoin:round;stroke-miterlimit:10;" d="
						M146.618,293.678c0,0-5.291,27.627-8.3,47.23c-3.009,19.604-8.274,39.207-2.257,58.135c0,0,1.432,2.482,1.036,5.327"/>
				</g>
			</g>
			<g>
				
					<path id="XMLID_124_" style="fill:#263238;stroke:#263238;stroke-linecap:round;stroke-linejoin:round;stroke-miterlimit:10;" d="
					M123.112,167.409c0,0-20.504,8.1-24.61,10.216c-4.107,2.116-4.777,5.989-4.902,8.726C93.475,189.089,104.704,239,104.704,239
					l-2.855,41.599c0,0,28.249,10.08,34.098,10.329s10.205,0.249,10.205,0.249l2.987-7.342l1.618,6.969c0,0,5.102-1.867,9.707-3.982
					c4.605-2.116,10.205-7.716,10.578-7.591c0.373,0.124-6.471-33.227-6.471-33.227s1.022-58.077-0.596-62.806
					s-21.515-12.383-21.515-12.383s-7.258-0.6-11.365-1.222C126.988,168.97,124.232,166.787,123.112,167.409z"/>
				
					<path style="fill:none;stroke:#FFFFFF;stroke-width:0.75;stroke-linecap:round;stroke-linejoin:round;stroke-miterlimit:10;" d="
					M111.085,284.077c0,0,11.705,4.215,18.283,5.533c6.579,1.318,15.878,1.443,15.878,1.443l3.893-7.219l1.618,6.969l8.443-3.358"/>
				
					<path style="fill:none;stroke:#FFFFFF;stroke-width:0.75;stroke-linecap:round;stroke-linejoin:round;stroke-miterlimit:10;" d="
					M163.744,193.232c0,0,3.357,15.494,2.841,24.533"/>
			</g>
			
				<path id="XMLID_128_" style="fill:#FFFFFF;stroke:#263238;stroke-linecap:round;stroke-linejoin:round;stroke-miterlimit:10;" d="
				M131.094,169.593c-4.107-0.622-7.094-0.996-8.213-0.373c0,0-0.237,0.149-0.655,0.409l14.22,48.249l5.102,7.716l4.107-11.574
				c0,0,1.369-18.169,1.369-26.134c0-5.383-0.511-10.87-0.843-13.868c-1.954-0.89-3.264-1.439-3.264-1.439
				S135.201,170.215,131.094,169.593z"/>
			
				<path id="XMLID_121_" style="fill:#263238;stroke:#263238;stroke-linecap:round;stroke-linejoin:round;stroke-miterlimit:10;" d="
				M132.339,183.406l6.596,8.214l-2.489,26.258l5.102,7.716c0,0,3.609-11.698,3.609-11.325c0,0.373-4.231-24.018-4.231-24.018
				l4.231-7.591l-4.604-8.587L132.339,183.406z"/>
			
				<polygon id="XMLID_120_" style="fill:#FFFFFF;stroke:#263238;stroke-linecap:round;stroke-linejoin:round;stroke-miterlimit:10;" points="
				141.05,178.304 147.023,187.886 146.774,171.833 142.419,167.602 			"/>
			
				<path id="XMLID_119_" style="fill:#FFFFFF;stroke:#263238;stroke-linecap:round;stroke-linejoin:round;stroke-miterlimit:10;" d="
				M127.112,148.81c0,0,0.124,19.662,0.124,20.534c0,0.871,12.942,15.058,12.942,15.058l5.102-21.903c0,0-9.707-3.111-12.445-7.093
				C130.099,151.423,127.734,147.939,127.112,148.81z"/>
			
				<polygon id="XMLID_114_" style="fill:#FFFFFF;stroke:#263238;stroke-linecap:round;stroke-linejoin:round;stroke-miterlimit:10;" points="
				126.365,163.246 138.063,176.562 131.343,189.628 121.885,168.473 			"/>
			
				<polygon id="XMLID_123_" style="fill:#FFFFFF;stroke:#263238;stroke-linecap:round;stroke-linejoin:round;stroke-miterlimit:10;" points="
				138.063,176.562 140.179,184.402 135.574,181.54 			"/>
			<g>
				<g>
					<polygon style="fill:#FFFFFF;stroke:#263238;stroke-linecap:round;stroke-linejoin:round;stroke-miterlimit:10;" points="
						141.028,241.907 141.11,241.387 141.934,236.155 137.423,237.119 					"/>
					<polygon style="fill:#C6FF00;stroke:#263238;stroke-linecap:round;stroke-linejoin:round;stroke-miterlimit:10;" points="
						138.271,243.891 139.384,241.798 136.763,242.013 					"/>
					<g>
						<path style="fill:#FFFFFF;stroke:#263238;stroke-linecap:round;stroke-linejoin:round;stroke-miterlimit:10;" d="
							M136.594,229.941c0.494-0.449,6.227-1.112,8.674-1.779c2.447-0.667,8.451-0.89,8.451-0.89l11.565,5.338
							c0,0,1.557,0.89-0.445,1.557c-2.002,0.667-10.008-2.224-10.008-2.224s3.558,3.781,3.558,4.671s-5.56,5.338-7.339,6.005
							c-1.779,0.667-5.783,0-6.45-0.222c-0.667-0.222-1.779-1.557-0.222-1.557c1.557,0,1.557,0,1.557,0s-2.891-1.334-4.448-1.779
							c-1.557-0.445-3.114-2.224-3.114-2.224h-2.891C135.482,236.835,134.147,232.165,136.594,229.941z"/>
						<path style="fill:none;stroke:#263238;stroke-linecap:round;stroke-linejoin:round;stroke-miterlimit:10;" d="
							M150.828,232.832c0,0,4.448,3.336,4.448,4.226s-0.222,2.669-0.222,2.669"/>
						<path style="fill:none;stroke:#263238;stroke-linecap:round;stroke-linejoin:round;stroke-miterlimit:10;" d="
							M147.936,235.056c0,0,2.891,2.224,3.559,3.336c0.667,1.112-0.445,4.226-0.445,4.226"/>
						
							<line style="fill:none;stroke:#263238;stroke-linecap:round;stroke-linejoin:round;stroke-miterlimit:10;" x1="154.831" y1="231.942" x2="152.829" y2="230.385"/>
					</g>
					
						<path id="XMLID_126_" style="fill:#FFFFFF;stroke:#263238;stroke-linecap:round;stroke-linejoin:round;stroke-miterlimit:10;" d="
						M134.572,229.134l4.566,0.163c0,0-1.312,1.798-0.538,5.74c0.775,3.942,2.427,6.87,2.427,6.87l-5.451,0.294
						C135.578,242.201,129.697,235.153,134.572,229.134z"/>
					
						<path id="XMLID_125_" style="fill:#263238;stroke:#263238;stroke-linecap:round;stroke-linejoin:round;stroke-miterlimit:10;" d="
						M115.991,203.972l-2.78,26.108l22.138-1.068c0,0-0.983,5.69-0.162,8.908c0.821,3.217,3.083,5.971,3.083,5.971
						s-8.689,3.787-20.193,5.106c-5.603,0.642-16.47,1.25-20.374,1.003c-3.845-0.242-6.911-3.287-7.162-7.132
						c-1.048-16.049,1.96-57.499,2.232-60.265c0.34-3.45,4.271-4.713,6.269-4.489c1.998,0.224,8.66,4.766,11.186,10.653"/>
				</g>
				<g>
					
						<polyline style="fill:none;stroke:#FFFFFF;stroke-width:0.75;stroke-linecap:round;stroke-linejoin:round;stroke-miterlimit:10;" points="
						115.897,208.779 113.212,230.081 134.572,229.134 					"/>
					
						<path style="fill:none;stroke:#FFFFFF;stroke-width:0.75;stroke-linecap:round;stroke-linejoin:round;stroke-miterlimit:10;" d="
						M113.212,230.081c0,0-6.697,0.831-9.584,4.199"/>
					
						<path style="fill:none;stroke:#FFFFFF;stroke-width:0.75;stroke-linecap:round;stroke-linejoin:round;stroke-miterlimit:10;" d="
						M104.35,230.671c0,0-5.774,2.646-6.736,6.495"/>
					
						<path style="fill:none;stroke:#FFFFFF;stroke-width:0.75;stroke-linecap:round;stroke-linejoin:round;stroke-miterlimit:10;" d="
						M137.789,244.624c0,0-21.651,4.811-31.274,5.052"/>
				</g>
			</g>
			<g>
				<g>
					
						<path id="XMLID_107_" style="fill:#FFFFFF;stroke:#263238;stroke-linecap:round;stroke-linejoin:round;stroke-miterlimit:10;" d="
						M161.179,130.177c0,0-0.703,6.702-3.112,20.051c-2.408,13.349-5.37,20.655-10.291,19.894
						c-4.921-0.761-16.069-5.555-18.478-9.024c-2.409-3.47-2.449-8.156-2.449-8.156s-4.096,0.273-4.848-4.668
						c-0.752-4.941,1.637-7.671,3.629-8.197c1.992-0.526,5.891,1.695,6.786-2.569c0.896-4.264-2.961-8.122-0.059-10.886
						c2.901-2.764,10.28-3.709,16.994-2.372c6.714,1.338,11.55,5.372,11.55,5.372L161.179,130.177z"/>
					<path style="fill:none;stroke:#263238;stroke-linecap:round;stroke-linejoin:round;stroke-miterlimit:10;" d="M148.446,146.072
						v2.349c0,0-3.132,1.958-5.481-1.174"/>
					<path style="fill:none;stroke:#263238;stroke-linecap:round;stroke-linejoin:round;stroke-miterlimit:10;" d="M157.84,147.241
						v2.349c0,0-1.762,1.101-3.634,0.33"/>
					<path style="fill:none;stroke:#263238;stroke-linecap:round;stroke-linejoin:round;stroke-miterlimit:10;" d="M151.578,159.384
						c0,0-2.741-0.783-5.09-1.566"/>
					<g>
						
							<path id="XMLID_109_" style="fill:none;stroke:#263238;stroke-linecap:round;stroke-linejoin:round;stroke-miterlimit:10;" d="
							M153.524,147.256c0,0,1.29,7.567,0.846,8.625c-0.444,1.058-3.967-0.412-3.967-0.412"/>
						
							<path id="XMLID_116_" style="fill:none;stroke:#263238;stroke-linecap:round;stroke-linejoin:round;stroke-miterlimit:10;" d="
							M142.095,140.515c0,0,2.478-3.22,7.011-1.011"/>
						
							<path id="XMLID_118_" style="fill:none;stroke:#263238;stroke-linecap:round;stroke-linejoin:round;stroke-miterlimit:10;" d="
							M154.384,141.088c0,0,2.869-1.885,4.22,1.141"/>
					</g>
				</g>
			</g>
			<path style="fill:#C6FF00;stroke:#263238;stroke-linecap:round;stroke-linejoin:round;stroke-miterlimit:10;" d="
				M165.266,205.632l-11.223,37.408c-0.66,2.2,1.13,4.364,3.415,4.127l18.896-1.955c1.254-0.13,2.317-0.98,2.72-2.174l11.725-34.796
				c0.689-2.043-0.787-4.173-2.942-4.245l-19.399-0.658C166.998,203.29,165.686,204.231,165.266,205.632z"/>
			<g>
				<path style="fill:#FFFFFF;stroke:#263238;stroke-linecap:round;stroke-linejoin:round;stroke-miterlimit:10;" d="
					M186.483,225.425c0,0-4.916-2.731-6.827-2.185c-1.912,0.546-1.639,2.458-1.639,2.458l6.554,2.731c0,0-9.285-1.639-10.651-1.639
					c-1.365,0-2.185,2.185-0.819,2.731c0.011,0.005,0.023,0.009,0.035,0.014c1.461,0.559,9.25,2.171,9.25,2.171
					s-9.831-2.185-10.105-0.819c-0.273,1.365,3.004,2.185,3.004,2.185s-0.546,2.185,0.546,2.458
					c1.092,0.273,4.916,1.912,4.916,1.912s1.365,0.546,3.277,1.092c1.912,0.546,3.55-5.189,4.37-7.374
					C189.214,228.976,186.483,225.425,186.483,225.425z"/>
				
					<line style="fill:#FFFFFF;stroke:#263238;stroke-linecap:round;stroke-linejoin:round;stroke-miterlimit:10;" x1="175.286" y1="233.072" x2="181.294" y2="234.984"/>
			</g>
			<g>
				<path style="fill:#263238;stroke:#263238;stroke-linecap:round;stroke-linejoin:round;stroke-miterlimit:10;" d="
					M126.946,139.82c0,0,2.971,2.377,3.268,3.566c0.297,1.189,1.189,2.674,2.674,1.189c1.486-1.486,0.891-3.566,3.863-6.834
					c2.971-3.269-0.891-5.348-0.891-8.023c0-2.674,5.051-4.457,10.102-3.863c5.051,0.594,5.348,3.268,7.726,3.565
					c2.377,0.297,7.212,0.2,7.212,0.2l-0.378,3.068c0,0,2.08,0.594,6.24-3.566c4.16-4.16-2.674-8.617-2.674-8.617
					s0-0.594-5.051-5.943c-5.051-5.348-10.697-5.943-21.096-3.268c-10.4,2.674-16.936,9.508-18.719,12.48
					c-1.783,2.971,4.754,16.045,4.754,16.045H126.946z"/>
				<g>
					<path style="fill:none;stroke:#FFFFFF;stroke-linecap:round;stroke-linejoin:round;stroke-miterlimit:10;" d="M153.688,129.42
						c0,0,5.051-0.891,6.24-5.943c1.189-5.051-1.486-9.508-7.725-11.291"/>
					<path style="fill:none;stroke:#FFFFFF;stroke-linecap:round;stroke-linejoin:round;stroke-miterlimit:10;" d="M152.797,127.638
						c0,0,1.486-8.914-5.348-11.291c-6.834-2.377-16.639,2.08-21.691,6.537"/>
					<path style="fill:none;stroke:#FFFFFF;stroke-linecap:round;stroke-linejoin:round;stroke-miterlimit:10;" d="M125.472,134.135
						c-0.914,1.093-1.497,1.822-1.497,1.822"/>
					<path style="fill:none;stroke:#FFFFFF;stroke-linecap:round;stroke-linejoin:round;stroke-miterlimit:10;" d="M142.397,125.855
						c0,0-6.414-2.629-10.041,0.766c-1.516,1.419-3.229,3.283-4.71,4.972"/>
				</g>
			</g>
		</g>
	</g>
</g>
</svg>
