<?xml version="1.0" encoding="utf-8"?>
<!-- Generator: Adobe Illustrator 27.5.0, SVG Export Plug-In . SVG Version: 6.00 Build 0)  -->
<svg version="1.1" xmlns="http://www.w3.org/2000/svg" xmlns:xlink="http://www.w3.org/1999/xlink" x="0px" y="0px"
	 viewBox="0 0 3710 3710" style="enable-background:new 0 0 3710 3710;" xml:space="preserve">
<g id="Background">
	<g>
		<g>
			<rect style="fill:#FFFFFF;" width="3710" height="3710"/>
		</g>
	</g>
</g>
<g id="Illustration">
	<g>
		<linearGradient id="SVGID_1_" gradientUnits="userSpaceOnUse" x1="3426.3843" y1="3274.3455" x2="1378.2867" y2="1482.2615">
			<stop  offset="0" style="stop-color:#B37CFF"/>
			<stop  offset="1" style="stop-color:#F895E7"/>
		</linearGradient>
		<path style="opacity:0.3;fill:url(#SVGID_1_);" d="M3078.314,2343.636c-264.697,623.254-969.787,972.405-1581.243,878.223
			c-99.496-15.326-372.268-60.977-613.77-276.347C418.394,2530.91,318.97,1709.944,693.997,1131.389
			c272.953-421.086,762.25-659.786,1227.178-647.846c100.146,2.572,483.945,18.422,821.237,296.547
			c49.542,40.851,158.811,137.924,257.288,291.925C3230.944,1433.636,3250.82,1937.454,3078.314,2343.636z"/>
		<g>
			<g>
				
					<linearGradient id="SVGID_00000083769177788840217670000004608022691546799235_" gradientUnits="userSpaceOnUse" x1="5607.6821" y1="2489.3787" x2="5415.5972" y2="1721.036" gradientTransform="matrix(-1 0 0 1 8143.6094 0)">
					<stop  offset="0" style="stop-color:#B37CFF"/>
					<stop  offset="1" style="stop-color:#F895E7"/>
				</linearGradient>
				<path style="fill:url(#SVGID_00000083769177788840217670000004608022691546799235_);" d="M2444.83,3143.557
					c135.759,27.144,309.128-120.866,364.979-282.564c57.476-166.402-47.907-236.11-47.094-467.016
					c0.924-262.301,137.369-301.832,227.621-655.391c20.363-79.77,138.201-541.394-7.849-627.92
					c-135.038-80.003-514.346,149.598-580.827,443.469c-47.404,209.544,99.137,297.525,43.17,541.581
					c-49.108,214.143-178.172,217.241-227.621,423.846C2157.008,2771.086,2266.577,3107.918,2444.83,3143.557z"/>
				
					<linearGradient id="SVGID_00000083087582325987064670000007264459741614267027_" gradientUnits="userSpaceOnUse" x1="2444.748" y1="2377.8281" x2="2721.27" y2="2377.8281">
					<stop  offset="0" style="stop-color:#CE1567"/>
					<stop  offset="1" style="stop-color:#7A1DBC"/>
				</linearGradient>
				<path style="fill:url(#SVGID_00000083087582325987064670000007264459741614267027_);" d="M2454.689,3207.104
					c-36.597-282.608,34.797-718.605,101.134-1034.599c71.82-342.116,153.334-621.173,154.148-623.954l11.298,3.315
					c-0.814,2.775-82.218,281.462-153.943,623.141c-66.14,315.074-137.344,749.63-100.96,1030.586L2454.689,3207.104z"/>
			</g>
			<g>
				
					<linearGradient id="SVGID_00000014618290195200816880000000850456192720907693_" gradientUnits="userSpaceOnUse" x1="-81.9114" y1="1761.407" x2="-1488.4432" y2="4234.4253" gradientTransform="matrix(1 0 0 1 3344.7734 0)">
					<stop  offset="0" style="stop-color:#A737D5"/>
					<stop  offset="1" style="stop-color:#EF497A"/>
				</linearGradient>
				<path style="fill:url(#SVGID_00000014618290195200816880000000850456192720907693_);" d="M2480.533,3132.241
					c-178.081-92.789-239.035-411.413-137.808-514.967c68.398-69.969,166.483,3.626,261.11-68.904
					c120.816-92.605,31.942-267.013,126.929-493.208c80.835-192.493,274.732-374.641,388.038-337.267
					c118.606,39.122,181.076,329.394,79.783,504.087c-65.872,113.605-166.705,119.185-188.579,224.845
					c-25.382,122.602,97.248,178.513,97.916,297.375C3109.123,2957.713,2716.121,3254.993,2480.533,3132.241z"/>
				
					<linearGradient id="SVGID_00000124872599996940793690000013005074556974118326_" gradientUnits="userSpaceOnUse" x1="2569.3809" y1="2677.1868" x2="2890.5542" y2="2677.1868">
					<stop  offset="0" style="stop-color:#CE1567"/>
					<stop  offset="1" style="stop-color:#7A1DBC"/>
				</linearGradient>
				<path style="fill:url(#SVGID_00000124872599996940793690000013005074556974118326_);" d="M2576.631,3213.84
					c-1.063,0-2.141-0.234-3.161-0.73c-3.605-1.75-5.109-6.088-3.359-9.691c236.087-486.482,305.315-1050.844,305.988-1056.488
					c0.473-3.979,4.087-6.823,8.059-6.345c3.977,0.473,6.819,4.082,6.345,8.059c-0.675,5.668-70.2,572.455-307.341,1061.106
					C2581.907,3212.335,2579.322,3213.84,2576.631,3213.84z"/>
				<path style="fill:#F0F0F0;" d="M3060.996,2293.085c-0.745,0-1.496-0.241-2.129-0.731c-1.51-1.178-1.781-3.354-0.604-4.864
					c74.52-95.654,157.111-239.359,127.38-380.779c-17.705-84.223-67.545-128.15-68.046-128.584
					c-1.447-1.252-1.606-3.439-0.354-4.888c1.254-1.448,3.444-1.608,4.89-0.352c2.119,1.831,52.111,45.907,70.294,132.398
					c16.712,79.491,7.949,211.067-128.694,386.462C3063.049,2292.624,3062.027,2293.085,3060.996,2293.085z"/>
				<path style="fill:#F0F0F0;" d="M2464.478,3089.758c-1.105,0-2.192-0.528-2.862-1.506
					c-114.522-167.139-153.575-296.285-116.073-383.846c33.343-77.849,117.53-92.336,118.376-92.476
					c1.894-0.294,3.668,0.979,3.976,2.867c0.306,1.885-0.975,3.669-2.864,3.977c-0.809,0.132-81.361,14.095-113.152,88.444
					c-36.443,85.238,2.4,212.116,115.453,377.113c1.083,1.581,0.68,3.737-0.898,4.821
					C2465.835,3089.562,2465.153,3089.758,2464.478,3089.758z"/>
			</g>
		</g>
		<g>
			
				<linearGradient id="SVGID_00000134213582413604111860000013511622720334832822_" gradientUnits="userSpaceOnUse" x1="-6321.167" y1="1799.6301" x2="-4529.917" y2="1799.6301" gradientTransform="matrix(-0.9998 -0.0221 -0.0221 0.9998 -3617.1572 -79.3674)">
				<stop  offset="0" style="stop-color:#2B3582"/>
				<stop  offset="1" style="stop-color:#150E42"/>
			</linearGradient>
			<path style="fill:url(#SVGID_00000134213582413604111860000013511622720334832822_);" d="M2661.472,604.974
				c-0.42,445.165-3.822,1980.658-30.462,2524.227c-2.823,57.585-43.331,102.959-92.626,103.755
				c-243.809,3.932-1137.363,7.799-1535.381-20.579c-82.901-5.911-147.157-86.014-146.729-183.204
				c2.059-467.221,12.875-1781.224,69.616-2382.021c6.801-71.984,56.445-128.331,118.148-134.17
				c265.98-25.173,1164.533-81.211,1508.193-47.456C2614.209,471.613,2661.541,532.181,2661.472,604.974z"/>
			
				<linearGradient id="SVGID_00000083786764728637492370000010853370658628401853_" gradientUnits="userSpaceOnUse" x1="-4963.1826" y1="1087.5476" x2="-8652.5205" y2="5807.1211" gradientTransform="matrix(-0.9998 -0.0221 -0.0221 0.9998 -3617.1572 -79.3674)">
				<stop  offset="0" style="stop-color:#FDF53F"/>
				<stop  offset="1" style="stop-color:#D93C65"/>
			</linearGradient>
			<path style="fill:url(#SVGID_00000083786764728637492370000010853370658628401853_);" d="M2549.754,739.082
				c5.162,359.436,20.068,1555.141-2.84,1996.658c-3.347,64.535-48.01,115.786-103.233,118.341
				c-227.369,10.516-1002.682,27.637-1334.981-10.928c-59.836-6.945-105.632-64.714-107.313-135.055
				c-8.762-366.774-32.582-1480.366-10.328-1916.944c3.552-69.647,50.956-125.539,110.461-130.461
				c246.177-20.359,1070.588-63.518,1353.153-39.193C2507.717,626.067,2548.862,676.855,2549.754,739.082z"/>
			<g style="opacity:0.3;">
				<path style="fill:#FFFFFF;" d="M2460.569,843.715c4.572,318.295,17.772,1377.144-2.514,1768.127
					c-2.965,57.149-42.515,102.533-91.418,104.796c-201.346,9.313-887.918,24.474-1182.182-9.678
					c-52.988-6.15-93.542-57.307-95.03-119.597c-7.76-324.794-28.853-1310.927-9.146-1697.536
					c3.145-61.675,45.123-111.17,97.818-115.53c218.001-18.028,948.052-56.247,1198.275-34.707
					C2423.344,743.635,2459.78,788.61,2460.569,843.715z"/>
			</g>
			<path style="opacity:0.5;fill:#FFFFFF;" d="M2060.745,532.432L2060.745,532.432c-0.302,13.653-9.647,24.713-21.317,25.167
				c-57.616,2.25-219.921,8.636-292.466,11.948c-14.303,0.655-25.18-14.612-22.109-30.987l0.525-2.794
				c2.098-11.171,10.234-19.435,19.977-20.263c49.082-4.165,197.15-15.448,294.951-9.192
				C2052.052,507.064,2061.05,518.667,2060.745,532.432z"/>
			<g>
				
					<linearGradient id="SVGID_00000057830631761845659820000009612376451378285453_" gradientUnits="userSpaceOnUse" x1="1825.8521" y1="657.9965" x2="998.2363" y2="1538.0394">
					<stop  offset="0" style="stop-color:#FDF53F"/>
					<stop  offset="0.6645" style="stop-color:#E57A58"/>
					<stop  offset="1" style="stop-color:#D93C65"/>
				</linearGradient>
				<path style="fill:url(#SVGID_00000057830631761845659820000009612376451378285453_);" d="M1713.126,1320.688
					c0,26.947-24.213,48.791-54.08,48.791H1197.05c-29.867,0-54.079-21.844-54.079-48.791V841.312
					c0-26.946,24.212-48.791,54.079-48.791h461.997c29.867,0,54.08,21.845,54.08,48.791V1320.688z"/>
			</g>
			<g>
				
					<linearGradient id="SVGID_00000067927906347822136320000009955150281890902201_" gradientUnits="userSpaceOnUse" x1="2510.8752" y1="657.9965" x2="1683.2595" y2="1538.0394">
					<stop  offset="0" style="stop-color:#FDF53F"/>
					<stop  offset="0.6645" style="stop-color:#E57A58"/>
					<stop  offset="1" style="stop-color:#D93C65"/>
				</linearGradient>
				<path style="fill:url(#SVGID_00000067927906347822136320000009955150281890902201_);" d="M2398.149,1320.688
					c0,26.947-24.212,48.791-54.08,48.791h-461.997c-29.867,0-54.08-21.844-54.08-48.791V841.312
					c0-26.946,24.213-48.791,54.08-48.791h461.997c29.867,0,54.08,21.845,54.08,48.791V1320.688z"/>
			</g>
			<g>
				
					<linearGradient id="SVGID_00000142880573437130940540000017446313727111558547_" gradientUnits="userSpaceOnUse" x1="1825.8521" y1="1338.2603" x2="998.2363" y2="2218.3032">
					<stop  offset="0" style="stop-color:#FDF53F"/>
					<stop  offset="0.6645" style="stop-color:#E57A58"/>
					<stop  offset="1" style="stop-color:#D93C65"/>
				</linearGradient>
				<path style="fill:url(#SVGID_00000142880573437130940540000017446313727111558547_);" d="M1713.126,2000.952
					c0,26.947-24.213,48.791-54.08,48.791H1197.05c-29.867,0-54.079-21.845-54.079-48.791v-479.376
					c0-26.947,24.212-48.791,54.079-48.791h461.997c29.867,0,54.08,21.844,54.08,48.791V2000.952z"/>
			</g>
			<g>
				
					<linearGradient id="SVGID_00000044164291574422088480000012619505624094062467_" gradientUnits="userSpaceOnUse" x1="2510.8752" y1="1338.2603" x2="1683.2595" y2="2218.3032">
					<stop  offset="0" style="stop-color:#FDF53F"/>
					<stop  offset="0.6645" style="stop-color:#E57A58"/>
					<stop  offset="1" style="stop-color:#D93C65"/>
				</linearGradient>
				<path style="fill:url(#SVGID_00000044164291574422088480000012619505624094062467_);" d="M2398.149,2000.952
					c0,26.947-24.212,48.791-54.08,48.791h-461.997c-29.867,0-54.08-21.845-54.08-48.791v-479.376
					c0-26.947,24.213-48.791,54.08-48.791h461.997c29.867,0,54.08,21.844,54.08,48.791V2000.952z"/>
			</g>
			<g>
				
					<linearGradient id="SVGID_00000112610133974333665170000008138543556621562810_" gradientUnits="userSpaceOnUse" x1="1825.8521" y1="2018.524" x2="998.2363" y2="2898.5669">
					<stop  offset="0" style="stop-color:#FDF53F"/>
					<stop  offset="0.6645" style="stop-color:#E57A58"/>
					<stop  offset="1" style="stop-color:#D93C65"/>
				</linearGradient>
				<path style="fill:url(#SVGID_00000112610133974333665170000008138543556621562810_);" d="M1713.126,2681.216
					c0,26.947-24.213,48.791-54.08,48.791H1197.05c-29.867,0-54.079-21.844-54.079-48.791V2201.84
					c0-26.947,24.212-48.791,54.079-48.791h461.997c29.867,0,54.08,21.844,54.08,48.791V2681.216z"/>
			</g>
			<g>
				
					<linearGradient id="SVGID_00000057834224641497014830000014876374597385490580_" gradientUnits="userSpaceOnUse" x1="2510.8752" y1="2018.524" x2="1683.2595" y2="2898.5669">
					<stop  offset="0" style="stop-color:#FDF53F"/>
					<stop  offset="0.6645" style="stop-color:#E57A58"/>
					<stop  offset="1" style="stop-color:#D93C65"/>
				</linearGradient>
				<path style="fill:url(#SVGID_00000057834224641497014830000014876374597385490580_);" d="M2398.149,2681.216
					c0,26.947-24.212,48.791-54.08,48.791h-461.997c-29.867,0-54.08-21.844-54.08-48.791V2201.84
					c0-26.947,24.213-48.791,54.08-48.791h461.997c29.867,0,54.08,21.844,54.08,48.791V2681.216z"/>
			</g>
			<g>
				<path style="fill:#FFFFFF;" d="M2109.944,1247.963c-90.752,0-164.584-73.832-164.584-164.583s73.832-164.583,164.584-164.583
					c90.752,0,164.583,73.832,164.583,164.583S2200.696,1247.963,2109.944,1247.963z M2109.944,946.377
					c-75.544,0-137.004,61.459-137.004,137.003s61.459,137.003,137.004,137.003c75.543,0,137.003-61.459,137.003-137.003
					S2185.488,946.377,2109.944,946.377z"/>
				<path style="fill-rule:evenodd;clip-rule:evenodd;fill:#FFFFFF;" d="M2058.386,1146.762v-118.323
					c0-12.643,13.762-20.479,24.635-14.027l99.703,59.162c10.65,6.319,10.65,21.736,0,28.055l-99.703,59.162
					C2072.148,1167.241,2058.386,1159.405,2058.386,1146.762z"/>
			</g>
			<g>
				<g>
					<path style="fill:#FFFFFF;" d="M1968.16,1857.505h235.353c6.13,0,11.532-3.553,13.274-9.432l67.667-228.077l71.071-9.209
						c7.582-0.995,12.919-7.884,11.924-15.466s-7.944-12.917-15.526-11.895l-79.989,10.512c-5.424,0.708-9.918,4.428-11.473,9.674
						l-67.285,226.91H1979.63l-31.093-164.236c-1.422-7.512-8.666-12.423-16.178-10.963c-7.512,1.417-12.449,8.695-11.029,16.207
						l33.226,175.168C1955.795,1853.238,1961.506,1857.505,1968.16,1857.505z"/>
				</g>
				<g>
					<path style="fill:#FFFFFF;" d="M1936.354,1682.127h315.65c7.647,0,13.844-5.844,13.844-13.491s-6.198-13.491-13.844-13.491
						h-315.65c-7.647,0-13.844,5.844-13.844,13.491S1928.707,1682.127,1936.354,1682.127z"/>
				</g>
				<g>
					<g>
						<path style="fill:#FFFFFF;" d="M2148.604,1844.622c7.647,0,15.177-6.198,15.177-13.844v-160.594
							c0-7.647-7.53-13.844-15.177-13.844c-7.647,0-15.177,6.197-15.177,13.844v160.594
							C2133.427,1838.425,2140.957,1844.622,2148.604,1844.622z"/>
					</g>
					<g>
						<path style="fill:#FFFFFF;" d="M2032.248,1844.622c7.647,0,13.491-6.198,13.491-13.844v-160.594
							c0-7.647-5.844-13.844-13.491-13.844c-7.647,0-13.491,6.197-13.491,13.844v160.594
							C2018.757,1838.425,2024.601,1844.622,2032.248,1844.622z"/>
					</g>
				</g>
				<g>
					<path style="fill:#FFFFFF;" d="M1952.967,1769.816h271.348c7.647,0,13.844-5.844,13.844-13.491
						c0-7.647-6.198-13.49-13.844-13.49h-271.348c-7.647,0-13.844,5.844-13.844,13.49
						C1939.123,1763.972,1945.32,1769.816,1952.967,1769.816z"/>
				</g>
				<g>
					<g>
						<circle style="fill:#FFFFFF;" cx="2165.311" cy="1911.58" r="27.819"/>
					</g>
					<g>
						<circle style="fill:#FFFFFF;" cx="1995.749" cy="1911.58" r="27.819"/>
					</g>
				</g>
			</g>
			<g>
				<g>
					<path style="fill:#FFFFFF;" d="M1617.412,1193.23c0,22.276-18.06,40.335-40.337,40.335h-297.062
						c-22.278,0-40.337-18.059-40.337-40.335V973.734c0-22.276,18.06-40.335,40.337-40.335h297.062
						c22.278,0,40.337,18.058,40.337,40.335V1193.23z M1593.803,977.506c0-7.596-6.159-13.753-13.756-13.753h-299.636
						c-7.597,0-13.755,6.157-13.755,13.753v218.697c0,7.596,6.159,13.753,13.755,13.753h299.636c7.597,0,13.756-6.157,13.756-13.753
						V977.506z"/>
				</g>
				<g>
					<path style="fill:#FFFFFF;" d="M1426.584,1088.473c-2.692,0-5.386-0.815-7.689-2.45l-166.312-117.941
						c-5.986-4.247-7.398-12.543-3.151-18.529c4.247-5.991,12.546-7.398,18.529-3.151l158.618,112.484l156.547-111.197
						c5.986-4.257,14.282-2.845,18.532,3.141c4.252,5.981,2.845,14.277-3.138,18.529l-164.238,116.659
						C1431.975,1087.653,1429.281,1088.473,1426.584,1088.473z"/>
				</g>
				<g>
					<path style="fill:#FFFFFF;" d="M1262.358,1223.251l-3.922-26.286l1.835,13.161l-11.136-7.237
						c3.076-4.943,63.059-109.857,102.625-179.172c3.639-6.381,11.749-8.603,18.132-4.953c6.375,3.64,8.592,11.754,4.956,18.13
						c0,0-25.658,44.945-51.365,89.895c-12.857,22.48-25.728,44.966-35.408,61.828
						C1268.778,1222.234,1268.778,1222.234,1262.358,1223.251z"/>
				</g>
				<g>
					<path style="fill:#FFFFFF;" d="M1589.82,1223.251c-6.42-1.017-6.42-1.017-25.717-34.634
						c-9.68-16.863-22.55-39.348-35.408-61.828c-25.707-44.95-51.365-89.895-51.365-89.895c-3.637-6.375-1.42-14.49,4.956-18.13
						c6.373-3.645,14.493-1.428,18.132,4.953c39.566,69.315,99.549,174.23,102.625,179.172l-11.136,7.237L1589.82,1223.251z"/>
				</g>
			</g>
			<g>
				<g>
					<path style="fill:#FFFFFF;" d="M1651.138,1848.95c0,30.802-24.969,55.772-55.77,55.772h-283.06
						c-30.801,0-55.77-24.97-55.77-55.772v-188.621c0-30.802,24.969-55.773,55.77-55.773h283.06c30.801,0,55.77,24.97,55.77,55.773
						V1848.95z M1627.53,1662.559c0-17.133-13.888-31.021-31.019-31.021h-281.972c-17.131,0-31.019,13.889-31.019,31.021v184.161
						c0,17.133,13.888,31.021,31.019,31.021h281.972c17.131,0,31.019-13.889,31.019-31.021V1662.559z"/>
				</g>
				<g>
					<path style="fill:#FFFFFF;" d="M1590.431,1598.728c0,10.67-8.65,19.319-19.319,19.319h-45.677
						c-10.67,0-19.319-8.65-19.319-19.319v-1.833c0-10.67,8.65-19.319,19.319-19.319h45.677c10.67,0,19.319,8.65,19.319,19.319
						V1598.728z"/>
				</g>
				<g>
					<path style="fill:#FFFFFF;" d="M1573.567,1688.066c0,7.896-6.401,14.298-14.298,14.298h-48.976
						c-7.896,0-14.298-6.401-14.298-14.298v-1.759c0-7.896,6.401-14.298,14.298-14.298h48.976c7.896,0,14.298,6.401,14.298,14.298
						V1688.066z"/>
				</g>
				<g>
					<path style="fill:#FFFFFF;" d="M1499.369,1763.383c0,46.394-37.609,84.004-84.002,84.004h-7.374
						c-46.393,0-84.002-37.61-84.002-84.004v-7.369c0-46.394,37.609-84.004,84.002-84.004h7.374
						c46.393,0,84.002,37.61,84.002,84.004V1763.383z M1472.388,1751.498c0-32.725-26.527-59.253-59.251-59.253h-9.659
						c-32.723,0-59.251,26.528-59.251,59.253v9.654c0,32.725,26.528,59.253,59.251,59.253h9.659
						c32.723,0,59.251-26.528,59.251-59.253V1751.498z"/>
				</g>
			</g>
			<g>
				<path style="fill:#FFFFFF;" d="M1417.457,2609.704c-2.912,0-5.826-0.064-8.755-0.193
					c-100.103-4.414-178.213-84.114-174.121-177.669c1.988-45.495,22.852-87.376,58.747-117.934
					c35.644-30.347,81.928-45.857,130.22-43.751c100.103,4.413,178.216,84.113,174.124,177.668v0.007
					c-1.991,45.489-22.856,87.37-58.749,117.928C1505.437,2594.265,1462.591,2609.704,1417.457,2609.704z M1414.802,2293.909
					c-39.453,0-76.818,13.428-105.952,38.233c-30.771,26.196-48.652,61.974-50.347,100.741
					c-3.514,80.371,64.337,148.876,151.251,152.706c42.244,1.824,82.626-11.652,113.645-38.064
					c30.771-26.196,48.654-61.974,50.35-100.746c3.513-80.367-64.34-148.872-151.254-152.702
					C1419.926,2293.967,1417.358,2293.909,1414.802,2293.909z"/>
				<g>
					<g>
						<path style="fill:#FFFFFF;" d="M1459.49,2440.596c-0.041,27.844-1.943,55.744-6.831,83.193
							c-1.238,6.857-2.672,13.681-4.382,20.44c-1.714,6.756-3.693,13.453-6.117,20.002c-2.443,6.531-5.28,12.969-9.126,18.853
							c-1.938,2.92-4.137,5.719-6.851,8.021c-1.356,1.144-2.845,2.157-4.484,2.901c-1.634,0.738-3.421,1.205-5.234,1.238
							c-1.811,0.052-3.625-0.303-5.292-0.977c-1.674-0.667-3.199-1.637-4.588-2.742c-2.779-2.23-5.026-4.997-6.998-7.894
							c-3.915-5.842-6.79-12.267-9.259-18.787c-2.455-6.537-4.452-13.23-6.182-19.982c-1.726-6.755-3.175-13.575-4.423-20.43
							c-2.49-13.713-4.188-27.556-5.333-41.438c-1.139-13.885-1.709-27.813-1.779-41.744c-0.033-6.964,0.155-13.927,0.402-20.886
							c0.26-6.959,0.641-13.913,1.152-20.858c1.026-13.887,2.559-27.745,4.837-41.489c1.144-6.87,2.477-13.711,4.08-20.491
							c1.608-6.778,3.475-13.503,5.793-20.081c1.164-3.286,2.437-6.537,3.89-9.712c1.451-3.175,3.074-6.279,4.98-9.215
							c1.911-2.923,4.109-5.712,6.846-7.945c1.368-1.107,2.874-2.071,4.526-2.723c1.645-0.662,3.429-0.996,5.204-0.927
							c1.776,0.051,3.527,0.495,5.142,1.209c1.618,0.717,3.104,1.693,4.469,2.8c2.729,2.226,4.989,4.949,6.993,7.807
							c3.984,5.758,6.988,12.107,9.59,18.568c2.583,6.478,4.716,13.123,6.575,19.838c1.85,6.718,3.418,13.511,4.774,20.343
							C1457.229,2384.844,1459.411,2412.747,1459.49,2440.596z M1457.437,2440.596c0.026-13.873-0.499-27.751-1.648-41.578
							c-1.132-13.825-2.848-27.609-5.403-41.243c-1.276-6.815-2.763-13.593-4.531-20.295c-1.775-6.697-3.824-13.328-6.318-19.786
							c-2.511-6.44-5.426-12.768-9.291-18.484c-1.942-2.838-4.134-5.534-6.765-7.727c-1.314-1.09-2.741-2.048-4.286-2.753
							c-1.544-0.697-3.204-1.154-4.895-1.198c-1.688-0.054-3.376,0.288-4.938,0.933c-1.568,0.639-3.007,1.579-4.318,2.665
							c-2.626,2.19-4.753,4.943-6.602,7.84c-1.844,2.909-3.416,5.994-4.818,9.152c-1.402,3.158-2.631,6.396-3.751,9.671
							c-2.229,6.556-4.015,13.262-5.54,20.023c-1.522,6.764-2.775,13.588-3.839,20.442c-2.12,13.711-3.498,27.533-4.369,41.382
							c-0.88,13.849-1.184,27.731-1.16,41.607c-0.036,13.873,0.426,27.749,1.453,41.585c1.035,13.833,2.621,27.632,4.994,41.295
							c1.189,6.83,2.578,13.625,4.242,20.35c1.667,6.723,3.601,13.383,5.983,19.876c2.394,6.474,5.192,12.845,8.975,18.583
							c1.904,2.844,4.071,5.543,6.696,7.682c1.312,1.062,2.74,1.98,4.283,2.608c1.539,0.632,3.19,0.981,4.845,0.925
							c1.653-0.042,3.283-0.48,4.795-1.177c1.515-0.701,2.912-1.667,4.196-2.765c2.569-2.213,4.689-4.946,6.559-7.815
							c3.716-5.784,6.475-12.169,8.842-18.654c2.348-6.504,4.261-13.169,5.911-19.896c1.645-6.729,3.018-13.528,4.195-20.36
							c2.357-13.665,3.923-27.465,4.964-41.298C1456.956,2468.351,1457.442,2454.473,1457.437,2440.596z"/>
						<path style="fill:#FFFFFF;" d="M1416.07,2599.309c-2.114,0-4.333-0.44-6.404-1.277c-1.905-0.761-3.738-1.851-5.591-3.328
							c-2.777-2.227-5.259-5.017-7.824-8.786c-3.56-5.312-6.638-11.542-9.7-19.634c-2.313-6.161-4.378-12.838-6.319-20.414
							c-1.666-6.514-3.132-13.291-4.486-20.712c-2.385-13.147-4.146-26.826-5.385-41.832c-1.119-13.635-1.721-27.785-1.791-42.057
							c-0.037-7.457,0.182-14.824,0.403-21.048c0.266-7.077,0.655-14.146,1.163-21.013c1.113-15.087,2.709-28.776,4.88-41.856
							c1.24-7.455,2.592-14.245,4.134-20.769c1.807-7.619,3.742-14.324,5.915-20.49c1.318-3.724,2.634-7.014,4.027-10.053
							c1.692-3.701,3.414-6.887,5.265-9.74c2.506-3.824,4.943-6.64,7.684-8.875c1.829-1.482,3.705-2.604,5.591-3.348
							c2.173-0.877,4.541-1.289,6.84-1.21c2.194,0.064,4.433,0.583,6.617,1.55c1.835,0.812,3.594,1.91,5.38,3.356
							c2.73,2.227,5.191,4.964,7.76,8.631c3.635,5.251,6.819,11.403,10.031,19.38c2.451,6.142,4.647,12.771,6.721,20.276
							c1.802,6.534,3.385,13.282,4.844,20.638c5.098,25.981,7.618,53.417,7.706,83.884v0.016c-0.045,30.658-2.3,58.103-6.895,83.902
							c-1.338,7.417-2.79,14.194-4.442,20.728c-1.917,7.569-3.96,14.245-6.245,20.419c-3.037,8.111-6.066,14.356-9.538,19.665
							c-2.518,3.797-4.934,6.614-7.618,8.892c-1.802,1.514-3.572,2.656-5.426,3.5c-2.27,1.022-4.562,1.557-6.833,1.595
							C1416.38,2599.305,1416.226,2599.309,1416.07,2599.309z M1413.964,2291.586c-1.016,0-2.063,0.215-3.063,0.63
							c-1.077,0.44-2.177,1.125-3.284,2.045c-1.991,1.656-3.827,3.851-5.773,6.897c-1.582,2.497-3.065,5.319-4.527,8.615
							c-1.247,2.806-2.432,5.861-3.622,9.339c-1.995,5.865-3.77,12.281-5.421,19.599c-1.425,6.336-2.663,12.934-3.785,20.173
							c-1.986,12.83-3.401,26.246-4.328,41.008c-0.804,12.62-1.181,26.144-1.153,41.344c-0.037,14.031,0.448,27.916,1.441,41.293
							c1.099,14.681,2.716,28.062,4.945,40.901c1.252,7.179,2.62,13.745,4.185,20.069c1.801,7.263,3.716,13.623,5.851,19.448
							c2.742,7.413,5.459,13.055,8.554,17.748c1.992,2.976,3.863,5.135,5.872,6.772c1.109,0.899,2.205,1.573,3.251,1.998
							c1.115,0.455,2.159,0.618,3.195,0.634c1.053-0.028,2.133-0.302,3.242-0.813c1.06-0.491,2.157-1.221,3.257-2.164
							c1.978-1.704,3.821-3.911,5.802-6.951c3.032-4.716,5.715-10.386,8.432-17.827c2.109-5.844,4.002-12.22,5.78-19.476
							c1.54-6.288,2.894-12.858,4.139-20.082c2.194-12.724,3.803-26.105,4.916-40.908c1.019-13.346,1.532-27.234,1.525-41.285
							v-0.008c0.026-13.995-0.522-27.868-1.634-41.234c-1.205-14.708-2.955-28.063-5.349-40.83
							c-1.33-7.112-2.791-13.655-4.466-20.007c-1.907-7.196-3.927-13.528-6.177-19.356c-2.862-7.338-5.68-12.961-8.866-17.672
							c-2.048-2.988-3.959-5.179-6.004-6.883c-1.138-0.942-2.277-1.681-3.379-2.183c-1.158-0.524-2.281-0.808-3.325-0.832
							C1414.118,2291.586,1414.041,2291.586,1413.964,2291.586z"/>
					</g>
					<g>
						<path style="fill:#FFFFFF;" d="M1529.461,2440.596c-0.096,17.931-2.392,35.869-7.173,53.161
							c-4.866,17.251-12.199,33.847-22.156,48.748c-4.978,7.442-10.62,14.447-16.922,20.804c-6.3,6.353-13.267,12.055-20.83,16.833
							c-7.571,4.761-15.747,8.571-24.305,11.156c-8.555,2.592-17.483,3.943-26.422,3.953c-8.938-0.002-17.869-1.345-26.428-3.929
							c-8.563-2.578-16.746-6.383-24.324-11.138c-7.571-4.773-14.548-10.47-20.858-16.82c-6.314-6.353-11.965-13.356-16.956-20.799
							c-9.976-14.903-17.325-31.506-22.213-48.766c-2.406-8.646-4.194-17.464-5.378-26.358c-1.178-8.896-1.771-17.868-1.811-26.843
							c0.045-8.975,0.643-17.947,1.827-26.841c1.19-8.893,2.985-17.708,5.397-26.35c4.899-17.254,12.26-33.847,22.243-48.733
							c4.992-7.435,10.644-14.431,16.957-20.775c6.311-6.342,13.283-12.033,20.853-16.792c7.575-4.743,15.756-8.518,24.305-11.096
							c8.543-2.588,17.46-3.938,26.386-3.946c8.927,0.017,17.842,1.373,26.38,3.968c8.544,2.583,16.719,6.367,24.286,11.115
							c7.561,4.764,14.524,10.46,20.824,16.805c6.301,6.346,11.943,13.344,16.924,20.78c9.964,14.884,17.309,31.47,22.186,48.714
							C1527.044,2404.729,1529.353,2422.666,1529.461,2440.596z M1527.107,2440.596c-0.026-17.728-2.225-35.473-6.886-52.585
							c-4.684-17.086-11.738-33.58-21.45-48.415c-4.854-7.409-10.366-14.393-16.54-20.741c-6.176-6.338-12.998-12.073-20.46-16.84
							c-7.469-4.74-15.536-8.555-23.994-11.136c-8.455-2.582-17.282-3.939-26.125-3.969c-8.842,0.037-17.667,1.402-26.117,3.992
							c-8.454,2.586-16.514,6.409-23.976,11.153c-7.452,4.772-14.264,10.511-20.431,16.853
							c-6.162,6.352-11.663,13.336-16.505,20.746c-9.692,14.832-16.732,31.32-21.394,48.397c-2.322,8.548-4.004,17.265-5.144,26.046
							c-1.142,8.783-1.705,17.64-1.725,26.499c0.026,8.859,0.595,17.715,1.742,26.496c1.145,8.78,2.833,17.494,5.162,26.039
							c4.673,17.071,11.725,33.547,21.423,48.364c4.844,7.402,10.346,14.379,16.509,20.722c6.166,6.331,12.972,12.066,20.425,16.823
							c7.459,4.732,15.516,8.526,23.957,11.113c8.434,2.593,17.244,3.963,26.074,4.009c8.832-0.037,17.644-1.4,26.083-3.985
							c8.443-2.579,16.508-6.367,23.976-11.095c7.459-4.752,14.276-10.481,20.453-16.809c6.173-6.341,11.686-13.317,16.54-20.719
							c9.718-14.82,16.785-31.303,21.482-48.382C1524.858,2476.066,1527.07,2458.323,1527.107,2440.596z"/>
						<path style="fill:#FFFFFF;" d="M1411.659,2599.309c-9.296,0-18.58-1.38-27.597-4.102c-8.722-2.624-17.236-6.522-25.303-11.586
							c-7.626-4.806-14.885-10.656-21.577-17.395c-6.312-6.352-12.183-13.552-17.448-21.398
							c-9.906-14.795-17.557-31.593-22.748-49.922c-2.432-8.746-4.28-17.8-5.495-26.929c-1.185-8.936-1.805-18.141-1.848-27.362
							c0.05-9.271,0.675-18.477,1.864-27.4c1.221-9.133,3.076-18.184,5.509-26.905c5.209-18.338,12.872-35.123,22.784-49.904
							c5.254-7.83,11.125-15.021,17.45-21.377c6.705-6.74,13.96-12.581,21.568-17.364c8.016-5.021,16.523-8.9,25.287-11.543
							c8.992-2.722,18.26-4.109,27.543-4.116c9.304,0.016,18.57,1.41,27.556,4.141c8.749,2.647,17.248,6.533,25.256,11.558
							c7.604,4.794,14.851,10.639,21.543,17.379c6.313,6.361,12.174,13.553,17.416,21.382c9.899,14.788,17.543,31.565,22.72,49.872
							c4.775,17.214,7.249,35.452,7.363,54.235v0.048c-0.1,18.777-2.563,37.021-7.322,54.222
							c-5.167,18.329-12.801,35.119-22.692,49.923c-5.247,7.847-11.107,15.05-17.415,21.406
							c-6.683,6.74-13.932,12.597-21.542,17.407c-8.064,5.067-16.57,8.971-25.293,11.605
							C1430.242,2597.907,1420.963,2599.297,1411.659,2599.309z M1411.641,2290.969c-8.378,0.036-16.773,1.315-24.925,3.811
							c-7.878,2.414-15.614,6.016-22.992,10.703c-6.835,4.375-13.468,9.847-19.702,16.258c-5.807,5.983-11.198,12.763-16.021,20.142
							c-9.091,13.913-16.112,29.805-20.873,47.24c-2.189,8.06-3.883,16.642-5.035,25.499c-1.103,8.488-1.672,17.229-1.692,25.982
							c0.027,8.749,0.602,17.49,1.709,25.962c1.153,8.84,2.853,17.419,5.051,25.494c4.773,17.423,11.807,33.305,20.905,47.206
							c4.819,7.37,10.209,14.138,16.023,20.117c6.242,6.407,12.868,11.872,19.699,16.234c7.324,4.644,15.055,8.229,22.966,10.656
							c8.135,2.499,16.517,3.791,24.918,3.832c8.366-0.036,16.749-1.316,24.882-3.809c7.928-2.425,15.667-6.007,23.001-10.646
							c6.827-4.348,13.464-9.807,19.721-16.219c5.817-5.976,11.221-12.744,16.055-20.11c9.11-13.896,16.162-29.786,20.96-47.229
							c4.457-16.322,6.736-33.649,6.773-51.5c-0.027-17.843-2.294-35.175-6.741-51.512c-4.781-17.443-11.826-33.344-20.93-47.256
							c-4.829-7.371-10.232-14.147-16.054-20.134c-6.232-6.395-12.873-11.864-19.738-16.25c-7.369-4.676-15.111-8.27-22.998-10.675
							C1428.447,2292.272,1420.049,2290.996,1411.641,2290.969z"/>
					</g>
					<g>
						<path style="fill:#FFFFFF;" d="M1274.182,2379.398l35.379-0.287l35.379-0.162l70.757-0.131l70.759,0.144l35.379,0.178
							l35.379,0.311c0.058,0,0.103,0.047,0.103,0.105c0,0-0.046,0.103-0.103,0.104l-35.379,0.31l-35.379,0.177l-70.759,0.145
							l-70.757-0.131l-35.379-0.162l-35.379-0.287c-0.085,0-0.153-0.071-0.153-0.071
							C1274.03,2379.468,1274.099,2379.4,1274.182,2379.398z"/>
						<polygon style="fill:#FFFFFF;" points="1415.707,2384.348 1309.543,2384.056 1272.467,2383.75 1269.991,2381.273 
							1269.989,2379.459 1270.083,2375.496 1274.15,2375.341 1344.919,2374.89 1415.691,2374.759 1521.855,2375.084 
							1561.257,2375.429 1561.359,2383.611 1557.214,2383.715 1486.476,2384.201 						"/>
					</g>
					<g>
						<path style="fill:#FFFFFF;" d="M1315.226,2319.913c8.373-0.133,16.745-0.19,25.117-0.288l25.118-0.162
							c8.373-0.07,16.746-0.062,25.119-0.083l25.117-0.048l50.237,0.144l25.118,0.177c8.373,0.106,16.745,0.168,25.118,0.31
							c0.057,0.001,0.102,0.048,0.102,0.048c-0.001,0.113-0.046,0.159-0.102,0.16c-8.373,0.144-16.745,0.204-25.118,0.311
							l-25.118,0.177l-50.237,0.144l-25.117-0.048c-8.373-0.02-16.746-0.013-25.119-0.083l-25.118-0.162
							c-8.372-0.097-16.745-0.154-25.117-0.287c-0.085-0.001-0.154-0.071-0.152-0.157
							C1315.075,2319.982,1315.143,2319.915,1315.226,2319.913z"/>
						<path style="fill:#FFFFFF;" d="M1415.71,2324.863l-31.648-0.063c-6.211-0.008-12.422-0.019-18.633-0.071l-33.494-0.25
							c-5.591-0.056-11.183-0.106-16.773-0.198l-3.977-0.063l-0.154-8.211l4.132-0.15c5.411-0.087,10.822-0.138,16.232-0.195
							l34.043-0.256c5.893-0.048,11.794-0.061,17.693-0.068l32.561-0.064l84.535,0.425c5.337,0.058,10.675,0.114,16.013,0.206
							l4.117,0.071l-0.183,8.15l-4.003,0.104c-5.521,0.095-11.114,0.154-16.705,0.214l-33.503,0.274L1415.71,2324.863z"/>
					</g>
					<g>
						<path style="fill:#FFFFFF;" d="M1261.887,2438.885l38.453-0.286l38.452-0.164l76.905-0.131l76.907,0.145l38.453,0.178
							l38.452,0.31c0.057,0,0.104,0.047,0.103,0.105c0,0-0.046,0.103-0.103,0.104l-38.452,0.309l-38.453,0.177l-76.907,0.144
							l-76.905-0.13l-38.452-0.164l-38.453-0.286c-0.085-0.001-0.154-0.071-0.153-0.157
							C1261.734,2438.954,1261.803,2438.886,1261.887,2438.885z"/>
						<polygon style="fill:#FFFFFF;" points="1415.707,2443.833 1300.323,2443.539 1257.847,2443.223 1257.693,2434.981 
							1261.859,2434.827 1338.776,2434.378 1415.693,2434.248 1531.074,2434.569 1571.235,2434.889 1573.677,2437.382 
							1573.52,2443.1 1569.507,2443.203 1492.621,2443.691 						"/>
					</g>
					<g>
						<path style="fill:#FFFFFF;" d="M1274.182,2498.371l35.379-0.287l35.379-0.163l70.757-0.131l70.759,0.145l35.379,0.178
							l35.379,0.309c0.058,0,0.103,0.047,0.103,0.047c-0.001,0.115-0.046,0.161-0.103,0.161l-35.379,0.31l-35.379,0.178
							l-70.759,0.145l-70.757-0.132l-35.379-0.163l-35.379-0.287c-0.085,0-0.153-0.071-0.153-0.156
							C1274.03,2498.439,1274.099,2498.372,1274.182,2498.371z"/>
						<polygon style="fill:#FFFFFF;" points="1415.707,2503.317 1309.543,2503.024 1272.467,2502.727 1269.994,2500.25 
							1269.989,2498.432 1270.078,2494.466 1274.148,2494.315 1344.921,2493.864 1415.691,2493.733 1521.855,2494.053 
							1561.257,2494.398 1561.359,2502.584 1557.214,2502.688 1486.476,2503.175 						"/>
					</g>
					<g>
						<path style="fill:#FFFFFF;" d="M1521.232,2558.557h-200.944c-0.299,0-0.543-0.245-0.543-0.545c0-0.3,0.244-0.545,0.543-0.545
							h200.944c0.3,0,0.542,0.245,0.542,0.545C1521.774,2558.313,1521.532,2558.557,1521.232,2558.557z"/>
						<path style="fill:#FFFFFF;" d="M1521.231,2562.612H1320.29c-2.529,0-4.585-2.064-4.585-4.6s2.057-4.601,4.585-4.601h200.941
							c2.529,0,4.585,2.065,4.585,4.601S1523.76,2562.612,1521.231,2562.612z"/>
					</g>
				</g>
			</g>
			<g>
				<g>
					<path style="fill:#FFFFFF;" d="M1988.879,2596.115h-53.982c-11.857,0-20.692-9.331-20.692-21.347v-103.574
						c0-12.016,8.835-23.475,20.692-23.475h53.982c11.683,0,16.388,11.255,16.388,23.475v103.574
						C2005.266,2586.988,2000.562,2596.115,1988.879,2596.115z M1985.031,2575.155v10.702V2575.155L1985.031,2575.155
						L1985.031,2575.155z M1934.911,2471.327c0.008,0,2.902-0.395,2.902-0.133v103.574c0,0.303-1.346,0.403-1.346,0.403
						l50.926-0.016c0.018-0.107-2.363-0.235-2.363-0.387v-103.574c0-0.151,3.267,0.133,3.248,0.133H1934.911z"/>
				</g>
				<g>
					<path style="fill:#FFFFFF;" d="M2089.213,2596.115h-50.637c-11.489,0-26.564-9.331-26.564-21.347v-162.437
						c0-12.017,15.075-18.575,26.564-18.575h50.637c11.298,0,17.233,5.947,17.233,18.575v162.437
						C2106.446,2587.396,2100.511,2596.115,2089.213,2596.115z M2039.197,2575.879h48.096c0.008,0,2.289-0.973,2.289-1.112v-162.437
						c0-0.138-2.281-5.084-2.289-5.084h-48.096c-0.029,0-0.204,4.922-0.204,5.084v162.437
						C2038.993,2574.93,2039.168,2575.879,2039.197,2575.879z"/>
				</g>
				<g>
					<path style="fill:#FFFFFF;" d="M2214.371,2577.697c0,12.035-9.756,21.791-21.791,21.791h-57.597
						c-12.035,0-21.791-9.756-21.791-21.791v-216.111c0-12.035,9.756-21.792,21.791-21.792h57.597
						c12.035,0,21.791,9.756,21.791,21.792V2577.697z M2197.508,2357.044c0-0.214-0.173-0.387-0.387-0.387h-56.562
						c-0.213,0-0.387,0.173-0.387,0.387v215.076c0,0.214,0.173,0.387,0.387,0.387h56.562c0.213,0,0.387-0.173,0.387-0.387V2357.044z
						"/>
				</g>
				<g>
					<path style="fill:#FFFFFF;" d="M2325.668,2574.324c0,12.035-9.756,21.791-21.791,21.791h-57.597
						c-12.035,0-21.791-9.756-21.791-21.791v-259.956c0-12.035,9.756-21.791,21.791-21.791h57.597
						c12.035,0,21.791,9.756,21.791,21.791V2574.324z M2302.06,2306.454c0-0.214-0.173-0.387-0.387-0.387h-56.562
						c-0.214,0-0.387,0.173-0.387,0.387v258.92c0,0.214,0.173,0.387,0.387,0.387h56.562c0.214,0,0.387-0.173,0.387-0.387V2306.454z"
						/>
				</g>
			</g>
		</g>
		<g>
			
				<linearGradient id="SVGID_00000023964175522377192240000005806698470113538444_" gradientUnits="userSpaceOnUse" x1="477.4564" y1="887.8683" x2="2996.8252" y2="887.8683">
				<stop  offset="0" style="stop-color:#53D8FF"/>
				<stop  offset="1" style="stop-color:#3840F7"/>
			</linearGradient>
			<path style="fill:url(#SVGID_00000023964175522377192240000005806698470113538444_);" d="M2996.825,769.08
				c0-37.773-30.621-68.394-68.394-68.394H545.85c-37.773,0-68.394,30.621-68.394,68.394v237.576
				c0,37.773,30.621,68.394,68.394,68.394h2382.582c37.773,0,68.394-30.621,68.394-68.394V769.08z"/>
			<g>
				<path style="fill:#FFFFFF;" d="M705.303,797.672c-30.401-27.464-77.665-24.69-105.13,5.712
					c-27.464,30.401-25.479,77.748,4.923,105.212c26.779,24.192,67.866,23.547,93.787,4.778l20.48,18.501
					c0.241,5.49,1.791,12.165,6.455,16.378l68.252,61.658c8.631,7.796,21.629,5.02,29.426-3.611l0.454-0.502
					c7.796-8.631,7.604-20.03-1.027-27.827l-68.251-61.657c-4.663-4.213-11.461-5.08-14.324-7.667l-20.48-18.501
					C735.916,862.456,732.082,821.864,705.303,797.672z M618.974,898.373c-23.445-21.18-25.281-57.356-4.101-80.801
					c21.18-23.445,57.356-25.281,80.801-4.101c23.445,21.18,25.281,57.355,4.101,80.801
					C678.594,917.717,642.418,919.554,618.974,898.373z"/>
				<g>
					<path style="fill:#FFFFFF;" d="M632.289,880.002c-0.176,0.195-0.366,0.38-0.571,0.553c-2.476,2.094-6.178,1.783-8.271-0.692
						c-13.665-16.164-13.257-40.212,0.951-55.939c2.174-2.406,5.884-2.595,8.29-0.421c2.406,2.173,2.594,5.884,0.421,8.29
						c-10.286,11.387-10.586,28.794-0.699,40.492C634.329,874.554,634.227,877.855,632.289,880.002z"/>
				</g>
			</g>
			<path style="fill:#FFFFFF;" d="M2922.627,951.297c0,23.643-19.167,42.81-42.81,42.81H975.574c-23.643,0-42.81-19.167-42.81-42.81
				V821.067c0-23.643,19.167-42.81,42.81-42.81h1904.243c23.643,0,42.81,19.167,42.81,42.81V951.297z"/>
			
				<linearGradient id="SVGID_00000005981903623655941660000016111206493623745206_" gradientUnits="userSpaceOnUse" x1="838.3178" y1="518.8381" x2="1353.61" y2="1688.0186">
				<stop  offset="0" style="stop-color:#53D8FF"/>
				<stop  offset="1" style="stop-color:#3840F7"/>
			</linearGradient>
			<path style="fill:url(#SVGID_00000005981903623655941660000016111206493623745206_);" d="M1010.335,947.752
				c0,5.112-4.144,9.256-9.256,9.256h-1.724c-5.112,0-9.256-4.144-9.256-9.256v-123.14c0-5.112,4.144-9.256,9.256-9.256h1.724
				c5.112,0,9.256,4.144,9.256,9.256V947.752z"/>
		</g>
		<g>
			<g>
				<defs>
					
						<ellipse id="SVGID_00000041258162088844985640000010624659015297830018_" cx="1832.149" cy="1944.467" rx="415.897" ry="408.395"/>
				</defs>
				<clipPath id="SVGID_00000002352051303519671350000000517354618437780874_">
					<use xlink:href="#SVGID_00000041258162088844985640000010624659015297830018_"  style="overflow:visible;"/>
				</clipPath>
			</g>
			<g>
				<g>
					<g>
						
							<linearGradient id="SVGID_00000160175284850076282030000009253445727333969314_" gradientUnits="userSpaceOnUse" x1="1966.9063" y1="3246.1309" x2="2150.2678" y2="3246.1309" gradientTransform="matrix(1 0 0 1 -1140.7335 0)">
							<stop  offset="0" style="stop-color:#53D8FF"/>
							<stop  offset="1" style="stop-color:#3840F7"/>
						</linearGradient>
						<path style="fill:url(#SVGID_00000160175284850076282030000009253445727333969314_);" d="M1004.357,3237.262
							c-31.412,2.715-85.93,7.126-128.908,9.018c-25.836,1.137-40.71-1.393-49.276-4.823c0.014,0.966,0.042,1.879,0.079,2.726
							c0.203,4.522,3.878,8.141,8.446,8.396c81.211,4.533,145.797,1.569,168.791,0.169c4.755-0.29,7.588-5.456,5.157-9.509
							C1007.429,3241.212,1005.957,3239.226,1004.357,3237.262z"/>
						
							<linearGradient id="SVGID_00000018931200750168666850000006666266497534037891_" gradientUnits="userSpaceOnUse" x1="1966.8958" y1="3210.1948" x2="2145.0901" y2="3210.1948" gradientTransform="matrix(1 0 0 1 -1140.7335 0)">
							<stop  offset="0" style="stop-color:#2B3582"/>
							<stop  offset="1" style="stop-color:#150E42"/>
						</linearGradient>
						<path style="fill:url(#SVGID_00000018931200750168666850000006666266497534037891_);" d="M875.448,3246.28
							c42.979-1.892,97.496-6.303,128.908-9.018c-30.883-37.89-128.908-63.428-128.908-63.428h-27.685
							c-19.042,27.448-21.798,53.581-21.59,67.624C834.739,3244.887,849.612,3247.417,875.448,3246.28z"/>
						
							<linearGradient id="SVGID_00000146485056787606830980000006321735800012043938_" gradientUnits="userSpaceOnUse" x1="1983.8347" y1="3160.0222" x2="2035.4839" y2="3160.0222" gradientTransform="matrix(1 0 0 1 -1140.7335 0)">
							<stop  offset="0" style="stop-color:#F9B776"/>
							<stop  offset="1" style="stop-color:#F47960"/>
						</linearGradient>
						<path style="fill:url(#SVGID_00000146485056787606830980000006321735800012043938_);" d="M843.101,3128.636l2.59,51.268
							c0.281,5.552,4.437,10.217,9.997,11.012c5.532,0.791,12.941,0.892,20.798-1.723c4.832-1.609,8.421-5.681,9.312-10.649
							l8.952-49.908H843.101z"/>
					</g>
					<g>
						<g>
							
								<linearGradient id="SVGID_00000180351185525527439360000003969720708750757306_" gradientUnits="userSpaceOnUse" x1="1601.3588" y1="3242.1768" x2="1671.626" y2="3242.1768" gradientTransform="matrix(1 0 0 1 -1140.7335 0)">
								<stop  offset="0" style="stop-color:#53D8FF"/>
								<stop  offset="1" style="stop-color:#3840F7"/>
							</linearGradient>
							<path style="fill:url(#SVGID_00000180351185525527439360000003969720708750757306_);" d="M483.506,3245.895
								c-13.622-1.9-19.786-8.976-22.37-16.542c-0.017,0.068-0.034,0.136-0.051,0.203c-2.004,7.981,2.642,16.252,11.93,20.185
								c11.227,4.754,23.502,5.564,33.032,5.171c10.224-0.421,19.609-4.652,24.767-11.423l0.078-0.102
								C520.63,3248.465,506.224,3249.063,483.506,3245.895z"/>
							
								<linearGradient id="SVGID_00000023960423567107102100000013076039838000118436_" gradientUnits="userSpaceOnUse" x1="1601.8698" y1="3188.073" x2="1705.0085" y2="3188.073" gradientTransform="matrix(1 0 0 1 -1140.7335 0)">
								<stop  offset="0" style="stop-color:#2B3582"/>
								<stop  offset="1" style="stop-color:#150E42"/>
							</linearGradient>
							<path style="fill:url(#SVGID_00000023960423567107102100000013076039838000118436_);" d="M547.732,3128.307h-22.831
								c-34.777-0.711-56.616,72.641-63.764,101.046c2.584,7.565,8.747,14.642,22.37,16.542c22.718,3.168,37.124,2.57,47.386-2.508
								c18.788-24.725,28.103-60.935,32.581-82.068C568.566,3137.285,547.732,3128.307,547.732,3128.307z"/>
						</g>
						
							<linearGradient id="SVGID_00000085934980109590593240000012604595108106527617_" gradientUnits="userSpaceOnUse" x1="1655.4794" y1="3116.9656" x2="1717.2062" y2="3116.9656" gradientTransform="matrix(1 0 0 1 -1140.7335 0)">
							<stop  offset="0" style="stop-color:#F9B776"/>
							<stop  offset="1" style="stop-color:#F47960"/>
						</linearGradient>
						<path style="fill:url(#SVGID_00000085934980109590593240000012604595108106527617_);" d="M527.835,3080.722l-12.678,50.424
							c-1.554,6.183,1.405,12.578,7.121,15.511c7.092,3.639,17.078,7.464,26.255,6.357c4.316-0.521,7.901-3.561,9.327-7.625
							l18.614-53.052L527.835,3080.722z"/>
					</g>
					
						<linearGradient id="SVGID_00000138574273924838807390000006850541824914720189_" gradientUnits="userSpaceOnUse" x1="935.1307" y1="3950.7009" x2="1745.9994" y2="3033.2937" gradientTransform="matrix(1 0 0 1 -1140.7335 0)">
						<stop  offset="0" style="stop-color:#53D8FF"/>
						<stop  offset="1" style="stop-color:#3840F7"/>
					</linearGradient>
					<path style="fill:url(#SVGID_00000138574273924838807390000006850541824914720189_);" d="M512.713,3095.297
						c15.773,13.992,67.079,15.839,67.079,15.839c184.81-443.562,260.41-506.576,260.41-506.576
						c-26.685,167.42-4.302,538.069-4.302,538.069c30.497,13.457,69.815,0,69.815,0c2.477-274.09,44.606-513.123,94.374-701.571
						c-124.909-2.808-191.334-45.551-213.024-62.706C682.944,2546.214,512.713,3095.297,512.713,3095.297z"/>
					
						<linearGradient id="SVGID_00000145777588418372732840000014502684398087056015_" gradientUnits="userSpaceOnUse" x1="2431.7341" y1="1828.4283" x2="1016.6851" y2="3059.1621" gradientTransform="matrix(1 0 0 1 -1140.7335 0)">
						<stop  offset="0" style="stop-color:#CE1567"/>
						<stop  offset="1" style="stop-color:#7A1DBC"/>
					</linearGradient>
					<path style="fill:url(#SVGID_00000145777588418372732840000014502684398087056015_);" d="M818.786,1868.253
						c-23.642,117.929-15.169,329.002-9.603,425.278c1.564,27.061-17.326,64.574-32.595,90.166
						c-2.395,4.014-0.916,9.154,3.241,11.291c25.563,13.138,112.165,53.856,212.533,58.922c6.692,0.338,12.668-4.221,14.402-10.694
						c74.451-277.992,160.927-455.63,160.927-455.63C1072.218,1835.126,818.786,1868.253,818.786,1868.253z"/>
					
						<linearGradient id="SVGID_00000134240739394024733510000017471992403336569487_" gradientUnits="userSpaceOnUse" x1="1177.796" y1="1589.4224" x2="710.4283" y2="3151.7668">
						<stop  offset="0" style="stop-color:#53D8FF"/>
						<stop  offset="1" style="stop-color:#3840F7"/>
					</linearGradient>
					<path style="fill:url(#SVGID_00000134240739394024733510000017471992403336569487_);" d="M852.812,2594.058
						c-1.049,0-2.113-0.283-3.076-0.867c-2.789-1.706-3.673-5.341-1.977-8.127c0.994-1.636,24.901-40.275,73.277-63.615
						c2.94-1.41,6.48-0.191,7.904,2.757c1.419,2.942,0.184,6.486-2.76,7.902c-45.099,21.762-68.083,58.743-68.311,59.113
						C856.754,2593.046,854.807,2594.058,852.812,2594.058z"/>
					<g>
						
							<linearGradient id="SVGID_00000150812958259274936320000011785846806825525173_" gradientUnits="userSpaceOnUse" x1="1938.2753" y1="2217.228" x2="1718.5406" y2="2411.8081" gradientTransform="matrix(1 0 0 1 -1140.7335 0)">
							<stop  offset="0" style="stop-color:#F9B776"/>
							<stop  offset="1" style="stop-color:#F47960"/>
						</linearGradient>
						<path style="fill:url(#SVGID_00000150812958259274936320000011785846806825525173_);" d="M670.489,2206.71
							c7.595,54.938,30.032,114.861,74.917,178.512l17.062-13.91c0,0-19.697-79.915-8.499-170.61
							C726.281,2195.302,693.581,2200.869,670.489,2206.71z"/>
						
							<linearGradient id="SVGID_00000156584763085875236980000014309521299867686816_" gradientUnits="userSpaceOnUse" x1="2313.7654" y1="1698.0044" x2="905.0965" y2="2923.1892" gradientTransform="matrix(1 0 0 1 -1140.7335 0)">
							<stop  offset="0" style="stop-color:#CE1567"/>
							<stop  offset="1" style="stop-color:#7A1DBC"/>
						</linearGradient>
						<path style="fill:url(#SVGID_00000156584763085875236980000014309521299867686816_);" d="M845.194,2013.763l-26.408-145.51
							c0,0-176.439,134.867-148.298,338.457c23.092-5.841,55.792-11.409,83.48-6.007
							C762.036,2135.37,786.129,2064.444,845.194,2013.763z"/>
					</g>
					<g>
						
							<linearGradient id="SVGID_00000110433497271616416620000002972764580116195480_" gradientUnits="userSpaceOnUse" x1="2535.2061" y1="1952.6084" x2="1126.5394" y2="3177.7913" gradientTransform="matrix(1 0 0 1 -1140.7335 0)">
							<stop  offset="0" style="stop-color:#CE1567"/>
							<stop  offset="1" style="stop-color:#7A1DBC"/>
						</linearGradient>
						<path style="fill:url(#SVGID_00000110433497271616416620000002972764580116195480_);" d="M1167.691,1987.587l-68.105,146.674
							c11.012,88.552,58.581,126.84,109.873,141.526c3.198-40.357,13.403-72.963,22.872-95.517
							C1166.794,2112.606,1167.691,1987.587,1167.691,1987.587z"/>
						
							<linearGradient id="SVGID_00000062911739986718916600000006489083913719030946_" gradientUnits="userSpaceOnUse" x1="2350.1929" y1="2235.6333" x2="2523.2419" y2="2235.6333" gradientTransform="matrix(1 0 0 1 -1140.7335 0)">
							<stop  offset="0" style="stop-color:#F9B776"/>
							<stop  offset="1" style="stop-color:#F47960"/>
						</linearGradient>
						<path style="fill:url(#SVGID_00000062911739986718916600000006489083913719030946_);" d="M1232.331,2180.271
							c-9.469,22.553-19.674,55.159-22.872,95.517c136.844,53.094,173.049-49.875,173.049-49.875l-25.29-4.462
							C1300.105,2227.467,1260.211,2209.055,1232.331,2180.271z"/>
					</g>
					
						<linearGradient id="SVGID_00000085953610039093698190000017650526548725989815_" gradientUnits="userSpaceOnUse" x1="2181.9841" y1="1773.1813" x2="2180.0942" y2="2096.3389" gradientTransform="matrix(1 0 0 1 -1140.7335 0)">
						<stop  offset="0" style="stop-color:#F9B776"/>
						<stop  offset="1" style="stop-color:#F47960"/>
					</linearGradient>
					<path style="fill:url(#SVGID_00000085953610039093698190000017650526548725989815_);" d="M1104.944,1806.505l-32.88,120.868
						c-3.693,13.578-18.38,20.869-31.446,15.646c-14.1-5.636-31.989-13.33-47.389-21.645c-16.439-8.875-21.582-30.021-11.176-45.536
						l68.358-101.926L1104.944,1806.505z"/>
				</g>
				
					<linearGradient id="SVGID_00000122681441317468002200000006211935581046067878_" gradientUnits="userSpaceOnUse" x1="1700.9938" y1="2362.3992" x2="2607.1792" y2="2362.3992" gradientTransform="matrix(1 0 0 1 -1140.7335 0)">
					<stop  offset="0" style="stop-color:#2B3582"/>
					<stop  offset="1" style="stop-color:#150E42"/>
				</linearGradient>
				<path style="fill:url(#SVGID_00000122681441317468002200000006211935581046067878_);" d="M1445.229,2145.031l-842.501,306.637
					c-35.335,12.861-52.225,53.095-36.658,87.323l2.555,5.621c13.773,30.284,49.568,43.567,79.763,29.599l818.057-378.438
					L1445.229,2145.031z"/>
				<ellipse style="opacity:0.2;fill:#FFFFFF;" cx="1832.476" cy="1960.58" rx="415.897" ry="408.395"/>
				
					<linearGradient id="SVGID_00000081605867350559402720000015922968628495860882_" gradientUnits="userSpaceOnUse" x1="1259.8491" y1="2585.4465" x2="3162.7048" y2="508.9968">
					<stop  offset="0" style="stop-color:#2B3582"/>
					<stop  offset="1" style="stop-color:#150E42"/>
				</linearGradient>
				<path style="fill:url(#SVGID_00000081605867350559402720000015922968628495860882_);" d="M1832.476,1506.146
					c-255.588,0-462.782,203.457-462.782,454.433c0,250.979,207.194,454.435,462.782,454.435
					c255.588,0,462.782-203.456,462.782-454.435C2295.258,1709.604,2088.063,1506.146,1832.476,1506.146z M1832.476,2348.259
					c-218.043,0-394.802-173.569-394.802-387.679c0-214.109,176.759-387.68,394.802-387.68s394.802,173.571,394.802,387.68
					C2227.277,2174.69,2050.519,2348.259,1832.476,2348.259z"/>
				<path style="fill:#FFFFFF;" d="M1404.879,2016.542c-1.377,0-2.573-1.025-2.752-2.424c-1.375-10.771-2.343-21.726-2.877-32.563
					c-0.076-1.529,1.106-2.831,2.638-2.907c1.464-0.233,2.834,1.101,2.91,2.636c0.526,10.69,1.481,21.499,2.839,32.129
					c0.193,1.524-0.881,2.912-2.403,3.108C1405.115,2016.537,1404.995,2016.542,1404.879,2016.542z M1408.057,1889.471
					c-0.163,0-0.328-0.016-0.494-0.043c-1.508-0.271-2.514-1.714-2.243-3.221c5.236-29.2,13.629-57.928,24.948-85.376l0.003-0.011
					c66.662-161.711,224.536-266.21,402.203-266.21c82.846,0,163.384,23.017,232.908,66.562c1.299,0.813,1.692,2.527,0.878,3.829
					c-0.816,1.302-2.527,1.698-3.829,0.879c-68.636-42.992-148.155-65.716-229.957-65.716
					c-175.408,0-331.267,103.149-397.07,262.783l-0.003,0.005c-11.167,27.085-19.449,55.422-24.614,84.232
					C1410.546,1888.527,1409.377,1889.471,1408.057,1889.471z"/>
				<g>
					
						<linearGradient id="SVGID_00000137844994508212075630000005594499243770740654_" gradientUnits="userSpaceOnUse" x1="1944.0114" y1="3514.7915" x2="1784.9387" y2="3725.2314" gradientTransform="matrix(0.9897 -0.1428 0.1428 0.9897 -1279.7882 -1480.9402)">
						<stop  offset="0" style="stop-color:#F9B776"/>
						<stop  offset="1" style="stop-color:#F47960"/>
					</linearGradient>
					<path style="fill:url(#SVGID_00000137844994508212075630000005594499243770740654_);" d="M1176.876,1714.676
						c0.3,2.075-27.423,137.928-27.423,137.928l-77.234-17.478l7.146-132.664
						C1079.364,1702.462,1171.862,1679.927,1176.876,1714.676z"/>
					
						<linearGradient id="SVGID_00000174589763786931241780000004057510228401958322_" gradientUnits="userSpaceOnUse" x1="1001.0837" y1="1754.676" x2="1552.9977" y2="1824.4583">
						<stop  offset="0" style="stop-color:#2B3582"/>
						<stop  offset="1" style="stop-color:#150E42"/>
					</linearGradient>
					<path style="fill:url(#SVGID_00000174589763786931241780000004057510228401958322_);" d="M1096.735,1732.024l-9.231,69.542
						c-0.119,0.892-0.117,1.773,0.01,2.664c0.779,5.451,4.834,24.009,23.567,18.702c16.999-4.815,32.584-8.957,43.35-5.664
						c4.834,1.478,7.75,6.375,6.738,11.327c-2.522,12.342-8.719,40.05-17.777,63.301c-1.838,4.718-7.005,7.196-11.866,5.778
						c-14.648-4.27-45.29-14.141-68.08-27.856c-3.088-1.858-4.928-5.217-4.776-8.817c0.741-17.556,2.794-70.922,1.066-85.882
						c-1.622-14.042-18.854-22.453-26.341-25.469c-2.455-0.989-4.378-2.922-5.36-5.38c-3.467-8.688-8.247-28.794,17.09-37.032
						c5.303-1.724,8.098-7.442,6.212-12.689c-3.751-10.448-5.334-26.391,14.266-35.175c19.922-8.929,34.801,1.692,42.835,10.323
						c3.248,3.49,8.46,4.022,12.491,1.475c2.294-1.45,5.25-1.925,8.822,0.3c4.812,2.998,11.185,0.955,13.669-4.142
						c4.772-9.793,14.494-20.282,33.998-16.942c34.609,5.927,38.529,44.278,29.399,66.752c-9.131,22.474-46.288,13.915-64.928,2.585
						c-14.172-8.614-32.557,0.415-40.555,5.238C1098.801,1726.489,1097.125,1729.091,1096.735,1732.024z"/>
					
						<linearGradient id="SVGID_00000040533646651088927970000005025448194028340897_" gradientUnits="userSpaceOnUse" x1="1711.0313" y1="3681.4446" x2="1838.6215" y2="3550.5403" gradientTransform="matrix(0.9897 -0.1428 0.1428 0.9897 -1279.7882 -1480.9402)">
						<stop  offset="0" style="stop-color:#F9B776"/>
						<stop  offset="1" style="stop-color:#F47960"/>
					</linearGradient>
					<path style="fill:url(#SVGID_00000040533646651088927970000005025448194028340897_);" d="M1056.629,1800.473
						c0,0,14.228-39.843-0.39-49.6c-14.618-9.758-36.268-4.691-31.501,24.172
						C1030.667,1810.946,1056.629,1800.473,1056.629,1800.473z"/>
				</g>
				
					<linearGradient id="SVGID_00000175324268232378488060000016591115011412106401_" gradientUnits="userSpaceOnUse" x1="2025.0487" y1="2315.2192" x2="1805.3142" y2="2509.7991" gradientTransform="matrix(1 0 0 1 -1140.7335 0)">
					<stop  offset="0" style="stop-color:#F9B776"/>
					<stop  offset="1" style="stop-color:#F47960"/>
				</linearGradient>
				<path style="fill:url(#SVGID_00000175324268232378488060000016591115011412106401_);" d="M755.433,2368.89l79.646-6.491
					l34.493,31.796c0,0-8.161,11.28-33.673,4.797c-25.512-6.484-60.458-8.074-60.458-8.074s-35.22,15.878-35.649-13.831
					L755.433,2368.89z"/>
				
					<linearGradient id="SVGID_00000163065413387552149220000009565907594546607802_" gradientUnits="userSpaceOnUse" x1="2504.8574" y1="2215.3096" x2="2566.8281" y2="2215.3096" gradientTransform="matrix(1 0 0 1 -1140.7335 0)">
					<stop  offset="0" style="stop-color:#F9B776"/>
					<stop  offset="1" style="stop-color:#F47960"/>
				</linearGradient>
				<path style="fill:url(#SVGID_00000163065413387552149220000009565907594546607802_);" d="M1372.365,2244.752
					c6.888,5.381,30.486-5.854,44.927-13.621c7.038-3.785,10.447-12.015,8.031-19.632c-3.475-10.958-9.266-25.104-16.4-26.888
					C1397.084,2181.652,1343.98,2222.577,1372.365,2244.752z"/>
				<path style="fill:#FFFFFF;" d="M619.351,2562.093c-0.301,0-0.607-0.049-0.908-0.152c-32.739-11.319-40.348-30.626-40.963-44.836
					c-0.9-20.766,12.151-40.042,32.473-47.965l101.158-39.445c1.416-0.564,3.037,0.146,3.596,1.578
					c0.556,1.427-0.149,3.037-1.578,3.596l-101.158,39.445c-18.109,7.062-29.74,24.162-28.942,42.552
					c0.789,18.158,13.314,31.559,37.232,39.824c1.448,0.499,2.218,2.083,1.716,3.531
					C621.577,2561.372,620.503,2562.093,619.351,2562.093z"/>
				<path style="fill:#FFFFFF;" d="M743.291,2422.906c-1.109,0-2.159-0.673-2.587-1.768c-0.559-1.427,0.149-3.037,1.578-3.596
					l13.111-5.114c1.426-0.569,3.037,0.152,3.596,1.578c0.559,1.426-0.149,3.037-1.578,3.596l-13.111,5.114
					C743.968,2422.846,743.627,2422.906,743.291,2422.906z"/>
			</g>
		</g>
	</g>
</g>
</svg>
