<?xml version="1.0" encoding="utf-8"?>
<!-- Generator: Adobe Illustrator 27.5.0, SVG Export Plug-In . SVG Version: 6.00 Build 0)  -->
<svg version="1.1" id="Capa_1" xmlns="http://www.w3.org/2000/svg" xmlns:xlink="http://www.w3.org/1999/xlink" x="0px" y="0px"
	 viewBox="0 0 334.162 376.48" style="enable-background:new 0 0 334.162 376.48;" xml:space="preserve">
<rect x="0" style="fill:#9AD3D4;" width="334.162" height="376.48"/>
<g>
	<g>
		<g>
			<g>
				<g>
					<path style="fill:#C6C6C6;" d="M85.47,181.017c0.346,0.534,10.184,14.403,13.355,17.556c4.918,4.891,9.876,8.374,14.312,12.102
						l-8.036,14.682c-3.056-2.057-9.849-6.12-17.158-14.325c-4.263-3.457-15.322-18.772-16.81-21.365c0,0-3.726-5.662,2.7-10.875
						C78.496,175.009,83.943,178.663,85.47,181.017z"/>
					<g>
						<g>
							
								<rect x="136.142" y="188.795" transform="matrix(0.3283 -0.9446 0.9446 0.3283 -89.8685 260.8885)" style="fill:#F1B584;" width="4.714" height="9.674"/>
							<path style="fill:#F1B584;" d="M152.343,176.167c-0.664-0.42-1.431-0.214-1.852,0.449l-2.508,4.103l0.003-0.025
								c0,0-0.466,0.711-0.928,0.526c-0.349-0.142-0.265-0.651-0.175-0.886l4.009-9.017c0.345-0.77-0.014-1.674-0.785-2.019
								c-0.769-0.345-1.681-0.002-2.025,0.769l-4.237,9.454c-0.142,0.271-0.416,0.679-0.724,0.572
								c-0.436-0.149-0.373-0.658-0.31-0.917l3.744-11.188c0.268-0.801-0.165-1.665-0.964-1.934
								c-0.802-0.267-1.666,0.164-1.935,0.964l-3.919,11.719c-0.078,0.202-0.249,0.564-0.459,0.499l-0.118-0.038
								c-0.21-0.068-0.132-0.556-0.104-0.716l2.548-10.892c0.193-0.822-0.31-1.668-1.131-1.86c-0.823-0.191-1.641,0.308-1.833,1.128
								l-2.935,12.133c-0.213,0.53-0.929,1.909-2.179,0.489c-0.014-0.015-0.026-0.027-0.036-0.034
								c-0.463-0.684-0.922-1.369-1.206-1.804c-1.769-2.719-3.306-1.828-4.326-1.113c0,0,1.082,1.974,1.602,2.906
								c0.263,0.476,0.702,1.203,1.195,2.003c0.271,0.568,0.642,1.309,1.132,2.335c1.385,3.656-1.354,5.922,3.571,7.483l7.804,2.476
								c1.602,0.508,2.426-1.055,2.79-1.894c1.483-3.407,3.548-8.437,3.898-9.294l2.83-4.418
								C153.203,177.46,153.004,176.587,152.343,176.167z"/>
						</g>
						<path style="fill:#C6C6C6;" d="M108.277,208.136c0,0,17.376-0.702,24.649-15.775l10.172,4.215
							c-8.214,17.41-14.792,20.105-17.887,22.682c-4.945,4.121-14.476,6.135-20.435,5.916
							C104.777,225.173,108.155,208.17,108.277,208.136z"/>
					</g>
				</g>
				<path style="fill:#F9BA87;" d="M81.188,156.649v12.395c0,3.347,2.712,6.061,6.06,6.061c3.347,0,6.06-2.713,6.06-6.061v-12.395
					H81.188z"/>
				<path style="fill:#DADADA;" d="M87.34,163.443c-2.095,0-4.149-0.26-6.152-0.739v3.03c2.003,0.48,4.057,0.741,6.152,0.741
					c2.03,0,4.023-0.246,5.968-0.699v-3.031C91.364,163.197,89.371,163.443,87.34,163.443z"/>
				<g>
					<path style="fill:#3C3C3B;" d="M59.254,234.211v17.439c0,3.206,2.599,5.805,5.806,5.805h44.024
						c3.208,0,5.807-2.599,5.807-5.805v-17.439H59.254z"/>
					<g>
						<rect x="59.259" y="235.901" style="fill:#282727;" width="55.611" height="5.952"/>
						<rect x="81.643" y="235.615" style="fill:#F39200;" width="10.844" height="6.401"/>
						<g>
							<g>
								<rect x="62.582" y="235.453" style="fill:#3C3C3B;" width="1.548" height="7.093"/>
								<rect x="73.223" y="235.453" style="fill:#3C3C3B;" width="1.549" height="7.093"/>
							</g>
							<g>
								<rect x="97.889" y="235.453" style="fill:#3C3C3B;" width="1.548" height="7.093"/>
								<rect x="108.529" y="235.453" style="fill:#3C3C3B;" width="1.551" height="7.093"/>
							</g>
						</g>
					</g>
					<path style="fill:#E7E7E7;" d="M107.467,174.601l-14.197-6.114c0,0-2.685,2.649-6.198,2.649c-3.403,0-5.997-2.649-5.997-2.649
						l-14.397,6.114c0,0-7.541,2.964-7.541,10.931l0.083,49.454h55.707l0.083-49.454
						C115.01,177.564,107.467,174.601,107.467,174.601z"/>
					<g>
						<polygon style="fill:#E8412C;" points="93.191,221.896 87.481,228.695 80.955,221.896 83.672,174.658 90.862,174.658 						
							"/>
						
							<rect x="84.668" y="172.099" transform="matrix(0.707 -0.7073 0.7073 0.707 -97.9721 112.8858)" style="fill:#BE3822;" width="5.143" height="5.143"/>
					</g>
					<g>
						<g>
							<path style="fill:#FFFFFF;" d="M87.07,171.097l3.443,3.403l5.463-4.82l-2.709-1.296
								C93.267,168.384,90.02,171.016,87.07,171.097z"/>
						</g>
						<g>
							<path style="fill:#FFFFFF;" d="M87.075,171.097l-3.442,3.403l-5.463-4.82l2.709-1.296
								C80.878,168.384,84.125,171.016,87.075,171.097z"/>
						</g>
					</g>
					<g>
						<g>
							<polygon style="fill:#3C3C3B;" points="88.698,252.044 92.281,296.22 110.643,296.246 114.883,251.712 							"/>
							<polygon style="fill:#3C3C3B;" points="95.68,337.688 92.281,296.179 110.642,296.205 106.175,337.704 							"/>
						</g>
						<path style="fill:#282727;" d="M105.756,337.399H95.601c-1.874,4.035-1.616,9.315-1.153,12.79h26.011
							C120.459,344.163,114.125,337.399,105.756,337.399z"/>
					</g>
					<g>
						<g>
							<polygon style="fill:#3C3C3B;" points="85.359,252.044 81.775,296.22 63.413,296.246 59.173,251.712 							"/>
							<polygon style="fill:#3C3C3B;" points="78.376,337.688 81.776,296.179 63.414,296.205 67.882,337.704 							"/>
						</g>
						<path style="fill:#282727;" d="M68.3,337.399h10.155c1.874,4.035,1.616,9.315,1.153,12.79H53.597
							C53.597,344.163,59.931,337.399,68.3,337.399z"/>
					</g>
				</g>
				<g>
					<g>
						<path style="fill:#FFFFFF;" d="M204.297,256.152c0,2.166-1.755,3.923-3.921,3.923h-70.93c-2.167,0-3.923-1.757-3.923-3.923
							V145.216c0-2.167,1.756-3.922,3.923-3.922h70.93c2.166,0,3.921,1.755,3.921,3.922V256.152z"/>
						<path style="fill:#B2B2B2;" d="M200.375,141.294h-70.93c-2.167,0-3.923,1.755-3.923,3.922v4.576h78.774v-4.576
							C204.297,143.049,202.542,141.294,200.375,141.294z"/>
						<rect x="132.851" y="153.317" style="fill:#B2B2B2;" width="64.119" height="2.538"/>
						<rect x="143.104" y="156.93" style="fill:#B2B2B2;" width="43.61" height="2.539"/>
						<g>
							<g>
								<g>
									<rect x="132.407" y="168.493" style="fill:#FFFFFF;" width="30.891" height="46.896"/>
									<path style="fill:#878787;" d="M163.568,215.616h-31.432v-47.349h31.432V215.616z M132.678,215.163h30.348v-46.444h-30.348
										V215.163z"/>
								</g>
								<g>
									<polygon style="fill:#878787;" points="163.104,215.551 132.216,168.653 132.6,168.333 163.489,215.23 									"/>
								</g>
								<g>
									<polygon style="fill:#878787;" points="132.6,215.551 132.216,215.23 163.104,168.333 163.489,168.653 									"/>
								</g>
							</g>
							<g>
								<g>
									<rect x="167.497" y="217.552" style="fill:#FFFFFF;" width="29.924" height="29.925"/>
									<path style="fill:#878787;" d="M197.684,247.739h-30.449V217.29h30.449V247.739z M167.76,247.213h29.398v-29.398H167.76
										V247.213z"/>
								</g>
							</g>
							<g>
								<rect x="167.458" y="169.685" style="fill:#C6C6C6;" width="30.226" height="1.919"/>
								<rect x="167.458" y="174.718" style="fill:#C6C6C6;" width="30.226" height="1.92"/>
								<rect x="167.458" y="179.751" style="fill:#C6C6C6;" width="30.226" height="1.92"/>
								<rect x="167.458" y="184.784" style="fill:#C6C6C6;" width="30.226" height="1.921"/>
								<rect x="167.458" y="189.817" style="fill:#C6C6C6;" width="30.226" height="1.92"/>
								<rect x="167.458" y="194.853" style="fill:#C6C6C6;" width="30.226" height="1.919"/>
								<rect x="167.458" y="199.885" style="fill:#C6C6C6;" width="30.226" height="1.92"/>
								<rect x="167.458" y="204.919" style="fill:#C6C6C6;" width="30.226" height="1.92"/>
								<rect x="167.458" y="209.952" style="fill:#C6C6C6;" width="30.226" height="1.92"/>
							</g>
							<g>
								<rect x="132.585" y="218.917" style="fill:#C6C6C6;" width="30.225" height="1.92"/>
								<rect x="132.585" y="223.95" style="fill:#C6C6C6;" width="30.225" height="1.921"/>
								<rect x="132.585" y="228.983" style="fill:#C6C6C6;" width="30.225" height="1.921"/>
								<rect x="132.585" y="234.017" style="fill:#C6C6C6;" width="30.225" height="1.92"/>
								<rect x="132.585" y="239.051" style="fill:#C6C6C6;" width="30.225" height="1.92"/>
								<rect x="132.585" y="244.084" style="fill:#C6C6C6;" width="30.225" height="1.92"/>
							</g>
						</g>
						<g>
							<rect x="130.139" y="143.866" style="fill:#FFFFFF;" width="34.001" height="3.88"/>
							<path style="fill:#FFFFFF;" d="M168.162,143.882c-0.349-0.708-1.206-0.999-1.914-0.651c-0.707,0.35-1,1.206-0.649,1.913
								c0.296,0.6,0.955,0.9,1.58,0.767l1.031,2.088l0.626-0.309l-1.031-2.09C168.293,145.188,168.458,144.482,168.162,143.882z
								 M167.214,145.191c-0.373,0.185-0.827,0.031-1.011-0.343c-0.185-0.375-0.031-0.829,0.343-1.013
								c0.375-0.184,0.828-0.03,1.012,0.344C167.743,144.554,167.588,145.007,167.214,145.191z"/>
						</g>
					</g>
					<g>
						<g>
							<g>
								<path style="fill:#E6301B;" d="M169.551,230.552c-0.069,0-0.136-0.031-0.181-0.088c-0.076-0.101-0.058-0.245,0.042-0.32
									l3.655-2.802c0.04-0.031,0.089-0.048,0.14-0.048h4.054l1.463-3.335c0.036-0.083,0.119-0.137,0.208-0.137h2.92l1.805-2.877
									c0.042-0.067,0.116-0.107,0.194-0.107h3.548c0.081,0,0.155,0.041,0.197,0.11l1.394,2.324l3.707-0.06
									c0.122-0.001,0.23,0.1,0.232,0.225c0.001,0.127-0.099,0.23-0.226,0.232l-3.837,0.061c-0.08,0.004-0.159-0.041-0.2-0.109
									l-1.396-2.327h-3.293l-1.805,2.878c-0.042,0.067-0.115,0.106-0.194,0.106h-2.898l-1.463,3.336
									c-0.036,0.083-0.118,0.137-0.209,0.137h-4.126l-3.593,2.755C169.648,230.537,169.6,230.552,169.551,230.552z"/>
							</g>
							<g>
								<path style="fill:#004060;" d="M183.208,221.065c0,0.356,0.288,0.644,0.645,0.644c0.355,0,0.644-0.288,0.644-0.644
									c0-0.356-0.288-0.645-0.644-0.645C183.496,220.42,183.208,220.709,183.208,221.065z"/>
							</g>
							<g>
								<path style="fill:#004060;" d="M186.634,221.065c0,0.356,0.288,0.644,0.645,0.644c0.355,0,0.644-0.288,0.644-0.644
									c0-0.356-0.288-0.645-0.644-0.645C186.922,220.42,186.634,220.709,186.634,221.065z"/>
							</g>
							<g>
								<path style="fill:#004060;" d="M188.249,223.456c0,0.357,0.287,0.645,0.644,0.645c0.354,0,0.644-0.288,0.644-0.645
									c0-0.355-0.289-0.644-0.644-0.644C188.536,222.812,188.249,223.1,188.249,223.456z"/>
							</g>
							<g>
								<path style="fill:#004060;" d="M192.365,223.456c0,0.357,0.29,0.645,0.645,0.645c0.356,0,0.645-0.288,0.645-0.645
									c0-0.355-0.289-0.644-0.645-0.644C192.654,222.812,192.365,223.1,192.365,223.456z"/>
							</g>
							<g>
								<path style="fill:#004060;" d="M181.278,224.101c0,0.355,0.289,0.644,0.643,0.644c0.357,0,0.645-0.289,0.645-0.644
									c0-0.357-0.288-0.645-0.645-0.645C181.566,223.456,181.278,223.744,181.278,224.101z"/>
							</g>
							<g>
								<path style="fill:#004060;" d="M178.292,224.101c0,0.355,0.289,0.644,0.645,0.644c0.355,0,0.644-0.289,0.644-0.644
									c0-0.357-0.288-0.645-0.644-0.645C178.581,223.456,178.292,223.744,178.292,224.101z"/>
							</g>
							<g>
								<path style="fill:#004060;" d="M176.785,227.42c0,0.356,0.288,0.645,0.644,0.645c0.355,0,0.645-0.289,0.645-0.645
									c0-0.355-0.29-0.645-0.645-0.645C177.073,226.776,176.785,227.065,176.785,227.42z"/>
							</g>
							<g>
								<path style="fill:#004060;" d="M172.612,227.42c0,0.356,0.288,0.645,0.645,0.645c0.355,0,0.645-0.289,0.645-0.645
									c0-0.355-0.29-0.645-0.645-0.645C172.9,226.776,172.612,227.065,172.612,227.42z"/>
							</g>
						</g>
						<g>
							<g>
								<rect x="171.491" y="230.098" style="fill:#004060;" width="2.332" height="14.511"/>
							</g>
							<g>
								<rect x="175.711" y="228.656" style="fill:#004060;" width="2.332" height="15.953"/>
							</g>
							<g>
								<rect x="179.931" y="226.398" style="fill:#004060;" width="2.332" height="18.21"/>
							</g>
							<g>
								<rect x="184.151" y="222.812" style="fill:#004060;" width="2.333" height="21.797"/>
							</g>
							<g>
								<rect x="188.37" y="225.695" style="fill:#004060;" width="2.334" height="18.914"/>
							</g>
							<g>
								<rect x="192.591" y="225.118" style="fill:#004060;" width="2.333" height="19.491"/>
							</g>
						</g>
					</g>
				</g>
				<g>
					<path style="fill:#70311C;" d="M108.693,87.544c2.728-1.671-10.271-7.869-19.266-8.313c-8.422-0.416-13.9-0.438-19.925,2.837
						c-13.135,7.14-15.581,14.925-15.581,14.925c-12.988,5.661-5.467,40.367-0.606,41.515c-3.339-6.828-5.263-14.177-5.263-20.861
						c0-19.992,17.137-36.199,38.274-36.199C94.74,81.447,108.693,87.544,108.693,87.544z"/>
					<path style="fill:#F9BA87;" d="M124.599,117.646c0,19.993-5.767,45.973-38.273,45.973c-21.137,0-38.274-25.98-38.274-45.973
						c0-19.992,17.137-36.199,38.274-36.199C107.464,81.447,124.599,97.654,124.599,117.646z"/>
					<path style="fill:#70311C;" d="M70.887,158.867c0,0,16.891-29.823,17.419-47.637c0.114-3.864-28.905-10.011-33.885-14.071
						c0,0-7.09,5.239-7.238,17.97C47.182,115.129,44.496,145.408,70.887,158.867z"/>
					<path style="fill:#70311C;" d="M56.48,103.582c0,0,27.911,9.882,40.535,11.937c0,0-4.014-2.752-5.014-4.75
						c0,0,10.872,5.886,23.093,4.553c0,0-1.634-0.073-4.785-3.33c0,0,8.361,3.971,15.913,0.251c0,0-3.954-31.979-39.462-31.979
						c0,0-25.898,1.406-33.43,19.767L56.48,103.582z"/>
					<path style="fill:#F9BA87;" d="M86.574,129.127c2.139,3.953,1.504,8.439-1.419,10.021c-2.923,1.582-7.027-0.339-9.166-4.292
						c-2.139-3.953-1.504-8.439,1.419-10.021C80.331,123.253,84.435,125.174,86.574,129.127z"/>
					<path style="fill:#F9BA87;stroke:#DEA77A;stroke-width:0.5278;stroke-miterlimit:10;" d="M121.911,122.446l2.895,16.386
						l-3.422,0.364"/>
				</g>
				<g>
					<path style="fill:#DADADA;" d="M71.746,177.85c0.347,0.534,10.184,14.403,13.355,17.556c4.918,4.891,9.876,8.374,14.313,12.102
						l-8.036,14.681c-3.056-2.057-9.849-6.121-17.158-14.325c-4.263-3.457-15.322-18.772-16.81-21.364c0,0-3.726-5.662,2.699-10.875
						C64.773,171.842,70.22,175.495,71.746,177.85z"/>
					<g>
						<g>
							
								<rect x="122.418" y="185.628" transform="matrix(0.3283 -0.9446 0.9446 0.3283 -96.0959 245.7977)" style="fill:#F9BA87;" width="4.714" height="9.675"/>
							<path style="fill:#F9BA87;" d="M138.62,173c-0.663-0.421-1.43-0.214-1.852,0.449l-2.508,4.102l0.003-0.024
								c0,0-0.465,0.711-0.927,0.525c-0.35-0.142-0.265-0.651-0.176-0.885l4.009-9.018c0.345-0.77-0.014-1.674-0.785-2.019
								c-0.768-0.345-1.68-0.002-2.024,0.768l-4.238,9.455c-0.142,0.271-0.415,0.679-0.724,0.572
								c-0.435-0.15-0.372-0.658-0.309-0.917l3.744-11.189c0.268-0.8-0.164-1.665-0.964-1.933c-0.801-0.267-1.666,0.163-1.935,0.963
								l-3.919,11.718c-0.078,0.203-0.249,0.565-0.46,0.499l-0.117-0.038c-0.211-0.068-0.133-0.557-0.104-0.716l2.548-10.892
								c0.192-0.822-0.311-1.668-1.132-1.861c-0.823-0.191-1.641,0.308-1.832,1.129l-2.936,12.133
								c-0.213,0.53-0.929,1.909-2.179,0.488c-0.015-0.015-0.026-0.026-0.035-0.033c-0.463-0.685-0.922-1.369-1.206-1.804
								c-1.77-2.72-3.306-1.828-4.325-1.113c0,0,1.081,1.973,1.602,2.905c0.264,0.476,0.702,1.203,1.195,2.004
								c0.271,0.568,0.642,1.31,1.132,2.335c1.384,3.656-1.354,5.923,3.571,7.484l7.803,2.476c1.602,0.508,2.426-1.055,2.791-1.895
								c1.483-3.407,3.548-8.437,3.898-9.294l2.831-4.418C139.479,174.292,139.281,173.42,138.62,173z"/>
						</g>
						<path style="fill:#DADADA;" d="M94.554,204.969c0,0,17.375-0.701,24.649-15.775l10.172,4.215
							c-8.214,17.41-14.793,20.105-17.887,22.682c-4.945,4.121-14.476,6.136-20.436,5.916
							C91.052,222.006,94.432,205.003,94.554,204.969z"/>
					</g>
				</g>
			</g>
		</g>
	</g>
	<g>
		<g>
			<g>
				
					<rect x="236.807" y="250.201" transform="matrix(0.8389 -0.5443 0.5443 0.8389 -123.5768 184.1788)" style="fill:#002E47;" width="25.112" height="101.317"/>
				
					<rect x="224.638" y="272.19" transform="matrix(0.8389 -0.5443 0.5443 0.8389 -115.3394 174.5641)" style="fill:#B6CBD8;" width="25.111" height="19.834"/>
				<path style="fill:#004060;" d="M242.305,195.652c-15.433-23.793-47.235-30.564-71.026-15.127
					c-23.79,15.435-30.562,47.239-15.125,71.029c15.436,23.791,47.237,30.563,71.03,15.127
					C250.974,251.244,257.75,219.441,242.305,195.652z M219.987,255.591c-17.666,11.461-41.276,6.433-52.737-11.23
					c-11.463-17.668-6.438-41.278,11.228-52.741c17.665-11.465,41.277-6.438,52.738,11.23
					C242.684,220.516,237.655,244.128,219.987,255.591z"/>
			</g>
			<g>
				
					<rect x="237.898" y="253.596" transform="matrix(0.8389 -0.5443 0.5443 0.8389 -126.2764 181.9078)" style="fill:#001B2C;" width="12.467" height="101.317"/>
				<polygon style="fill:#7199AD;" points="231.793,273.788 242.594,290.424 232.127,297.214 221.336,280.573 				"/>
				<path style="fill:#002E43;" d="M171.279,180.527l7.198,11.093c-17.598,11.48-22.602,35.049-11.155,52.69
					c11.445,17.638,35.008,22.675,52.661,11.275l7.201,11.096c-23.787,15.374-55.533,8.593-70.954-15.175
					C140.807,227.741,147.547,195.983,171.279,180.527z"/>
			</g>
		</g>
		<path style="opacity:0.5;fill:#CDEAFC;" d="M167.115,244.382c11.461,17.664,35.071,22.693,52.737,11.23
			c17.669-11.462,22.696-35.075,11.231-52.741c-11.461-17.666-35.076-22.693-52.74-11.23
			C160.678,203.104,155.651,226.716,167.115,244.382z"/>
	</g>
</g>
<g>
	<g>
		<g>
			<polygon style="fill:#CD2D17;" points="207.336,90.064 197.68,90.064 197.68,79.267 207.336,79.267 204.247,84.839 			"/>
			<polygon style="fill:#98240B;" points="197.684,88.019 197.684,90.057 200.835,88.019 			"/>
		</g>
		<g>
			<polygon style="fill:#CD2D17;" points="126.826,90.064 136.482,90.064 136.482,79.267 126.826,79.267 129.917,84.839 			"/>
			<polygon style="fill:#98240B;" points="136.477,88.019 136.477,90.057 133.329,88.019 			"/>
		</g>
		<rect x="133.385" y="77.221" style="fill:#E6301B;" width="67.438" height="10.798"/>
	</g>
	<g>
		<path style="fill:#004060;" d="M134.962,60.466h4.652c0,5.926,0.637,10.386,5.353,10.386c3.696,0,5.543-2.294,5.543-5.989
			c0-3.377-3.377-6.563-6.053-8.794l0.064,0.064c-4.27-3.059-9.176-8.029-9.176-13.891c0-5.926,3.759-10.514,9.94-10.514
			c8.602,0,9.494,6.436,9.494,14.464h-4.651c0-4.97-0.319-9.813-4.843-9.813c-3.505,0-5.289,2.804-5.289,6.181
			c0,3.505,3.441,6.436,6.882,9.495v-0.064c4.142,3.696,8.284,7.52,8.284,12.808c0,6.754-3.313,10.705-10.195,10.705
			C137.001,75.504,134.962,70.279,134.962,60.466z M153.442,64.799c0-9.303-15.229-13.573-15.229-22.239
			c0-4.333,2.421-7.965,7.073-7.965c6.181,0,6.563,5.48,6.627,9.877h1.083c0-6.627-1.338-11.024-7.71-11.024
			c-5.098,0-8.156,3.887-8.156,8.793c0,5.161,4.524,9.622,8.475,12.489h-0.064c2.995,2.485,6.754,6.563,6.754,10.132
			c0,4.843-2.421,7.773-7.328,7.773c-6.308,0-7.073-6.053-7.073-10.386h-1.211c0,7.009,1.848,11.47,8.284,11.47
			C150.702,73.72,153.442,70.47,153.442,64.799z"/>
		<path style="fill:#004060;" d="M161.855,36.762v14.656h8.411v4.651h-8.411V70.47h12.617v4.651h-17.141l-0.064-42.948h17.205v4.588
			H161.855z M172.688,33.894h-13.7l0.064,39.443h13.636v-1.083h-12.553v-17.97h8.411v-1.083h-8.411v-18.16h12.553V33.894z"/>
		<path style="fill:#004060;" d="M174.665,63.46V43.771c0-6.5,3.314-12.043,10.577-12.043c7.328,0,10.514,5.543,10.514,12.043V63.46
			c0,6.882-2.995,12.043-10.514,12.043C177.851,75.504,174.665,70.215,174.665,63.46z M193.973,63.46V43.771
			c0-5.544-2.613-10.387-8.73-10.387c-6.053,0-8.793,4.843-8.793,10.387V63.46c0,5.735,2.612,10.323,8.793,10.323
			C191.551,73.784,193.973,69.323,193.973,63.46z M192.826,44.408v18.734c0,5.098-1.848,9.431-7.583,9.431
			c-5.734,0-7.646-4.588-7.646-9.622V44.344c0-4.843,2.039-9.686,7.646-9.686C191.042,34.659,192.826,39.375,192.826,44.408z
			 M179.317,44.344v18.606c0,4.078,1.529,7.901,5.926,7.901c4.461,0,5.799-3.568,5.799-7.71V44.408c0-4.078-1.338-7.965-5.799-7.965
			C180.91,36.443,179.317,40.33,179.317,44.344z"/>
	</g>
	<g>
		<g>
			
				<path style="fill:#FFFFFF;stroke:#FFFFFF;stroke-width:0.2662;stroke-linecap:round;stroke-linejoin:round;stroke-miterlimit:10;" d="
				M137.313,78.747h0.108c0.247,0.08,0.432,0.212,0.552,0.396l0.12,0.24c-0.016,0.184-0.04,0.276-0.072,0.276
				c-0.064,0-0.116-0.128-0.156-0.384c-0.16-0.232-0.336-0.348-0.528-0.348c0-0.016-0.016-0.024-0.048-0.024
				c-0.224,0.032-0.336,0.208-0.336,0.528v0.24c0,0.04-0.008,0.072-0.024,0.096c0.016,0.016,0.032,0.112,0.048,0.288h-0.024
				c0.016,0.024,0.032,0.092,0.048,0.204h-0.024c0.048,0.176,0.092,0.404,0.132,0.684c0.056,0.144,0.096,0.312,0.12,0.504h-0.024
				c0.04,0.088,0.112,0.372,0.216,0.852l0.252,0.924h-0.024c0.056,0.176,0.16,0.636,0.312,1.38h-0.024
				c0.04,0.064,0.092,0.308,0.156,0.732h-0.024c0.04,0.184,0.068,0.384,0.084,0.6c0,0.504-0.14,0.833-0.42,0.984
				c-0.056,0.04-0.16,0.068-0.312,0.084c-0.192,0-0.404-0.12-0.636-0.36c-0.08-0.12-0.156-0.4-0.228-0.84h0.024l-0.024-0.048v-0.06
				c0-0.2,0.036-0.32,0.108-0.36c0.024,0,0.048,0.024,0.072,0.072v0.036c0,0.104-0.016,0.156-0.048,0.156
				c0.032,0.232,0.056,0.368,0.072,0.408l-0.024,0.036c0.088,0.336,0.22,0.568,0.396,0.696c0.128,0.056,0.216,0.084,0.264,0.084
				l0.12-0.024v0.024c0.12,0,0.26-0.148,0.42-0.444c0.024-0.136,0.036-0.248,0.036-0.336v-0.012
				c-0.024-0.432-0.06-0.736-0.108-0.912l0.024-0.048c-0.296-1.4-0.548-2.472-0.756-3.216c-0.144-0.584-0.26-1.208-0.348-1.872
				l0.012-0.216l-0.012-0.312C136.784,78.983,136.96,78.747,137.313,78.747z"/>
			
				<path style="fill:#FFFFFF;stroke:#FFFFFF;stroke-width:0.2662;stroke-linecap:round;stroke-linejoin:round;stroke-miterlimit:10;" d="
				M139.28,78.567h0.036l0.072,0.048h0.108c0.048,0,0.072-0.008,0.072-0.024l0.108,0.024h0.516c0.144,0.032,0.216,0.06,0.216,0.084
				v0.048l-0.024,0.048c-0.216-0.016-0.332-0.032-0.348-0.048c-0.032,0.016-0.064,0.024-0.096,0.024h-0.132
				c-0.032,0-0.06-0.008-0.084-0.024c-0.032,0.016-0.064,0.024-0.096,0.024h-0.024c-0.008,0-0.012-0.008-0.012-0.024l-0.048,0.024
				h-0.204c0,0.056-0.008,0.084-0.024,0.084c0,0.016,0.008,0.024,0.024,0.024c0,0.017-0.008,0.041-0.024,0.072l0.024,0.108
				c-0.056,0.432-0.084,0.676-0.084,0.732l0.024,0.048l-0.024,0.156c0.016,0.256,0.024,0.404,0.024,0.444
				c0,0.016-0.008,0.024-0.024,0.024l0.024,0.108v0.396c0,0.032,0.008,0.064,0.024,0.096c-0.016,0.024-0.024,0.052-0.024,0.084
				v0.288l-0.024,0.132c0.016,0.024,0.024,0.06,0.024,0.108v0.048c0,0.032-0.008,0.06-0.024,0.084l0.024,0.048
				c0,0.032-0.016,0.092-0.048,0.18c0.016,0.024,0.024,0.052,0.024,0.084c-0.016,0.112-0.024,0.172-0.024,0.18l0.024,0.048
				l-0.024,0.132v0.18c0,0.016-0.008,0.024-0.024,0.024l0.048,0.084l0.048-0.024h0.744c0.024,0,0.048,0.024,0.072,0.072
				c0,0.064-0.26,0.1-0.78,0.108c-0.024-0.016-0.068-0.024-0.132-0.024v0.024c0.016,0.08,0.024,0.148,0.024,0.204v0.084
				c0,0.12-0.008,0.276-0.024,0.468c0.016,0.024,0.024,0.044,0.024,0.06h-0.024l0.024,0.048c0,0.048-0.008,0.085-0.024,0.108
				c0.016,0.32,0.04,0.616,0.072,0.888h-0.024l0.048,0.12l-0.024,0.132c0.016,0.136,0.024,0.268,0.024,0.396h-0.024
				c0.024,0.056,0.036,0.136,0.036,0.24v0.132c0,0.016-0.004,0.024-0.012,0.024l0.012,0.048V85.9c0,0.017-0.004,0.024-0.012,0.024
				l0.012,0.036c0,0.016-0.004,0.024-0.012,0.024c0,0.016,0.004,0.024,0.012,0.024l-0.012,0.108v0.072l0.036,0.06
				c0,0.04-0.008,0.072-0.024,0.096l0.048,0.372h0.6l0.132-0.024c0.064,0.016,0.096,0.032,0.096,0.048l0.036-0.024h0.156
				c0.024,0,0.048,0.024,0.072,0.072v0.06c-0.048,0-0.072,0.016-0.072,0.048l-0.048-0.024H140.3c-0.048,0-0.072,0.008-0.072,0.024
				c-0.16-0.016-0.24-0.032-0.24-0.048l-0.048,0.024h-0.108c-0.032,0-0.06-0.008-0.085-0.024c-0.032,0.016-0.144,0.032-0.336,0.048
				c-0.032-0.016-0.056-0.024-0.072-0.024c0,0.032-0.012,0.048-0.036,0.048c-0.056,0-0.104-0.104-0.144-0.312
				c0-0.016,0.008-0.024,0.024-0.024l-0.024-0.108v-0.108c0-0.16-0.004-0.272-0.012-0.336c0.008-0.112,0.012-0.236,0.012-0.372
				v-0.312c0-0.04-0.004-0.072-0.012-0.096c0-0.016,0.004-0.024,0.012-0.024l-0.012-0.156v-0.108c-0.032-0.48-0.048-0.74-0.048-0.78
				v-0.24c0-0.032-0.008-0.06-0.024-0.084c0.016-0.032,0.024-0.064,0.024-0.096v-0.036l-0.024-0.12h0.024
				c-0.016-0.024-0.024-0.044-0.024-0.06L139.1,83.5c-0.016-0.024-0.024-0.044-0.024-0.06h0.024c0-0.016-0.008-0.024-0.024-0.024
				l0.024-0.228v-0.132l-0.024-0.108h0.024l-0.024-0.048v-0.048c0-0.008,0.008-0.012,0.024-0.012c0-0.016-0.008-0.024-0.024-0.024
				l0.024-0.12v-0.42l0.024-0.132c-0.016-0.024-0.024-0.044-0.024-0.06h0.024c0-0.016-0.008-0.024-0.024-0.024
				c0.032-0.144,0.048-0.344,0.048-0.6v-0.288c0-0.016,0.004-0.024,0.012-0.024l-0.012-0.048c-0.016-0.496-0.032-0.76-0.048-0.792
				c0-0.016,0.008-0.024,0.024-0.024l-0.024-0.108c0-0.4,0.028-0.78,0.084-1.14c0-0.016-0.008-0.024-0.024-0.024
				C139.184,78.715,139.224,78.567,139.28,78.567z"/>
			
				<path style="fill:#FFFFFF;stroke:#FFFFFF;stroke-width:0.2662;stroke-linecap:round;stroke-linejoin:round;stroke-miterlimit:10;" d="
				M142.341,78.627l0.084,0.156c0,0.104,0.024,0.268,0.072,0.492v0.204c0,0.032,0.008,0.065,0.024,0.096l-0.024,0.036
				c0.016,0.032,0.024,0.056,0.024,0.072c0,0.032-0.008,0.048-0.024,0.048c0.096,0.944,0.196,1.792,0.3,2.544
				c0,0.017-0.008,0.024-0.024,0.024c0.144,0.992,0.216,1.556,0.216,1.692h-0.024l0.432,2.641c-0.016,0.104-0.036,0.156-0.059,0.156
				h-0.025c-0.056,0-0.12-0.292-0.192-0.876l-0.204-1.176h0.024l-0.024-0.048c0-0.016,0.008-0.024,0.024-0.024
				c-0.016-0.152-0.064-0.408-0.144-0.768c0.016-0.032,0.024-0.056,0.024-0.072c-0.016-0.168-0.04-0.296-0.072-0.384
				c0-0.016,0.008-0.024,0.024-0.024l-0.084-0.625h-0.168c-0.232,0-0.432,0.02-0.6,0.06v0.024c-0.08,1.017-0.164,1.705-0.252,2.064
				l0.024,0.048c-0.072,0.4-0.12,0.6-0.144,0.6l0.024,0.048c-0.008,0.2-0.032,0.3-0.072,0.3l0.024,0.048
				c-0.016,0.32-0.04,0.512-0.072,0.576l0.024,0.096c-0.024,0.152-0.052,0.228-0.084,0.228h-0.024c-0.024,0-0.048-0.024-0.072-0.072
				v-0.18c0-0.016,0.008-0.024,0.024-0.024c0-0.016-0.008-0.024-0.024-0.024l0.144-0.816l-0.024-0.036
				c0.04-0.2,0.076-0.416,0.108-0.648h0.024l-0.024-0.048c0.08-0.448,0.164-1.08,0.252-1.896c0-0.016-0.004-0.024-0.012-0.024
				c0.008-0.248,0.028-0.372,0.06-0.372l-0.024-0.048l0.024-0.048c0-0.016-0.008-0.024-0.024-0.024l0.024-0.228v-0.168
				c0-0.016,0.008-0.024,0.024-0.024l-0.024-0.036v-0.024c0-0.016,0.008-0.024,0.024-0.024c0-0.016-0.008-0.024-0.024-0.024
				c0.024-0.296,0.048-0.444,0.072-0.444c0-0.016-0.008-0.024-0.024-0.024c0.048-0.448,0.088-0.724,0.12-0.828
				c0-0.016-0.008-0.024-0.024-0.024c0.048-0.368,0.092-0.652,0.132-0.852l-0.012-0.048c0-0.048,0.012-0.112,0.036-0.192
				c0-0.016-0.008-0.024-0.024-0.024c0.064-0.68,0.12-1.02,0.168-1.02C142.301,78.631,142.325,78.627,142.341,78.627z
				 M142.245,79.551l0.024,0.048c-0.064,0.496-0.112,0.804-0.144,0.924c0,0.016,0.008,0.024,0.024,0.024
				c-0.032,0.216-0.052,0.324-0.06,0.324l0.012,0.036c-0.016,0.312-0.036,0.468-0.06,0.468c0,0.016,0.008,0.024,0.024,0.024
				c-0.016,0.104-0.032,0.156-0.048,0.156c0,0.016,0.008,0.024,0.024,0.024c-0.032,0.24-0.064,0.612-0.096,1.116
				c0.12-0.048,0.252-0.072,0.396-0.072h0.3l0.048-0.024l-0.072-0.396l0.024-0.084c-0.032-0.072-0.08-0.328-0.144-0.768
				c0.016-0.024,0.024-0.056,0.024-0.096l-0.048-0.06v-0.192c0-0.056-0.02-0.24-0.06-0.552h0.012
				c-0.056-0.271-0.084-0.66-0.084-1.164C142.317,79.287,142.285,79.376,142.245,79.551z"/>
			
				<path style="fill:#FFFFFF;stroke:#FFFFFF;stroke-width:0.2662;stroke-linecap:round;stroke-linejoin:round;stroke-miterlimit:10;" d="
				M144.477,78.627c0.344,0.056,0.572,0.152,0.684,0.288c0.328,0.384,0.492,0.76,0.492,1.128c0.032,0,0.068,0.2,0.108,0.6h-0.012
				l0.036,0.096c-0.016,0.024-0.024,0.052-0.024,0.084c0.016,0,0.024,0.008,0.024,0.024l-0.036,0.024
				c0.008,0.032,0.02,0.112,0.036,0.24c0,0.016-0.008,0.024-0.024,0.024l0.024,0.108c0,0.256-0.012,0.384-0.036,0.384
				c0,0.008,0.004,0.012,0.012,0.012c0,0.056-0.028,0.168-0.084,0.336c0.016,0.032,0.024,0.056,0.024,0.072
				c-0.032,0.016-0.108,0.2-0.228,0.552c-0.032,0.008-0.12,0.128-0.264,0.36c-0.232,0.176-0.38,0.264-0.444,0.264v0.024
				c0.08,0.152,0.192,0.424,0.336,0.816c0.048,0,0.204,0.408,0.468,1.224c0.064,0.096,0.24,0.496,0.528,1.2
				c-0.016,0-0.024,0.008-0.024,0.024c0.024,0,0.076,0.096,0.156,0.288c-0.024,0.056-0.044,0.084-0.06,0.084
				c-0.088-0.048-0.132-0.092-0.132-0.132c-0.096-0.24-0.32-0.772-0.672-1.596c-0.264-0.76-0.516-1.384-0.756-1.873l-0.216,0.024
				c0,0.064-0.008,0.096-0.024,0.096l0.024,0.036l-0.024,0.048c0.016,0.032,0.024,0.052,0.024,0.06c0,0.016-0.008,0.04-0.024,0.072
				l0.024,0.084c-0.016,0.152-0.024,0.264-0.024,0.337c0,0.032,0.008,0.048,0.024,0.048l-0.024,0.108v0.492
				c0,0.032-0.008,0.06-0.024,0.084c0.016,0.024,0.024,0.056,0.024,0.096v0.156c0,0.008-0.008,0.012-0.024,0.012
				c0.032,0.056,0.048,0.104,0.048,0.144v0.588l0.024,0.228h-0.024c0.024,0.048,0.036,0.092,0.036,0.132v0.048l-0.012,0.036
				c0.04,0,0.06,0.196,0.06,0.588l-0.084,0.06c0-0.032-0.032-0.048-0.096-0.048v-0.036c0-0.056-0.008-0.124-0.024-0.204
				c0-0.016,0.008-0.024,0.024-0.024c-0.024-0.24-0.036-0.484-0.036-0.732l0.012-0.048c-0.024-0.064-0.036-0.18-0.036-0.348v-0.732
				c0-0.032-0.008-0.064-0.024-0.096c0-0.008,0.008-0.012,0.024-0.012c0-0.016-0.008-0.04-0.024-0.072
				c0.016-0.192,0.024-0.348,0.024-0.468v-0.108c0-0.016,0.008-0.024,0.024-0.024l-0.024-0.048v-0.132
				c0-0.016,0.008-0.025,0.024-0.025c-0.032-0.056-0.048-0.1-0.048-0.132c0.016-0.152,0.024-0.268,0.024-0.348
				c-0.032,0-0.048-0.016-0.048-0.048c0.048-0.056,0.072-0.176,0.072-0.36c0-0.008-0.008-0.052-0.024-0.132l0.036-0.024
				c0-0.008-0.004-0.012-0.012-0.012l0.012-0.228v-0.216c0-0.016,0.008-0.024,0.024-0.024l-0.024-0.048l0.024-0.36
				c0-0.008-0.008-0.012-0.024-0.012l0.024-0.12v-0.444c0.008-0.104,0.024-0.156,0.048-0.156l-0.024-0.036v-0.288
				c0-0.016,0.008-0.024,0.024-0.024l-0.024-0.048v-0.132c0-0.016,0.008-0.024,0.024-0.024l-0.024-0.048l0.024-0.144l-0.024-0.12
				c0-0.016,0.008-0.024,0.024-0.024c-0.016-0.16-0.032-0.26-0.048-0.3l0.024-0.048l-0.024-0.108h0.024l-0.024-0.048v-0.024
				c0-0.032,0.008-0.06,0.024-0.084c-0.016-0.032-0.024-0.056-0.024-0.072l0.024-0.048l-0.024-0.036l0.024-0.132
				c0-0.039-0.008-0.072-0.024-0.096c0.016-0.056,0.032-0.084,0.048-0.084l-0.048-0.228
				C144.313,78.699,144.373,78.627,144.477,78.627z M144.501,78.807l-0.024,0.108v0.492c0,0.032,0.008,0.06,0.024,0.084
				c-0.016,0.024-0.024,0.052-0.024,0.084v0.072c0,0.032,0.008,0.06,0.024,0.084l-0.024,0.048l0.024,0.108l-0.024,0.048l0.024,0.132
				c0,0.016-0.008,0.024-0.024,0.024l0.024,0.048v0.108c0,0.016-0.008,0.024-0.024,0.024l0.048,0.192
				c-0.016,0.152-0.032,0.228-0.048,0.228c0.016,0.024,0.024,0.044,0.024,0.06l-0.024,0.048l0.024,0.048l-0.024,0.084
				c0,0.016,0.008,0.024,0.024,0.024c-0.016,0.16-0.032,0.24-0.048,0.24l0.024,0.048c0,0.016-0.008,0.024-0.024,0.024l0.024,0.048
				v0.036c0,0.016-0.008,0.024-0.024,0.024l0.024,0.048c0,0.016-0.008,0.024-0.024,0.024c0,0.017,0.008,0.024,0.024,0.024
				l-0.048,0.612l0.024,0.048c-0.016,0.048-0.028,0.072-0.036,0.072c0.008,0.04,0.02,0.06,0.036,0.06
				c-0.024,0.344-0.044,0.516-0.06,0.516c0,0.016,0.008,0.024,0.024,0.024l-0.024,0.216v0.084c0.016,0,0.036,0.008,0.06,0.024
				c0.384-0.104,0.644-0.272,0.78-0.504c0.24-0.456,0.36-0.82,0.36-1.092h0.012l-0.012-0.048l0.012-0.036
				c0-0.016-0.004-0.024-0.012-0.024l0.012-0.156v-0.18c0-0.016,0.008-0.024,0.024-0.024l-0.024-0.036
				c0-0.936-0.184-1.612-0.552-2.028C144.861,78.871,144.677,78.807,144.501,78.807z"/>
			
				<path style="fill:#FFFFFF;stroke:#FFFFFF;stroke-width:0.2662;stroke-linecap:round;stroke-linejoin:round;stroke-miterlimit:10;" d="
				M148.042,78.639h0.072c0.408,0.032,0.612,0.18,0.612,0.444v0.144c0,0.024-0.016,0.036-0.048,0.036h-0.024
				c-0.032,0-0.052-0.076-0.06-0.228c-0.128-0.176-0.272-0.264-0.432-0.264c-0.36,0-0.632,0.308-0.816,0.924
				c0,0.016,0.008,0.024,0.024,0.024c-0.016,0.152-0.032,0.228-0.048,0.228c0,0.016,0.008,0.024,0.024,0.024
				c-0.032,0.152-0.048,0.392-0.048,0.72v0.072c0,0.016-0.008,0.024-0.024,0.024c0,0.008,0.008,0.012,0.024,0.012l-0.024,0.12v0.252
				c0,0.024-0.016,0.036-0.048,0.036c0.032,0.056,0.048,0.096,0.048,0.12h-0.024c0,0.016,0.008,0.024,0.024,0.024l-0.024,0.264
				l0.024,0.168l-0.024,0.132c0.016,0.024,0.024,0.052,0.024,0.084h-0.024l0.024,0.048v0.132l-0.048,0.072l0.072,0.252l-0.024,0.048
				c0.016,0.024,0.024,0.044,0.024,0.06h-0.024c0.016,0.032,0.024,0.056,0.024,0.072c0,0.072,0.008,0.352,0.024,0.84l0.024,0.036
				l-0.024,0.048l0.024,0.144c0,0.008-0.008,0.012-0.024,0.012l0.048,0.408c0,0.016-0.008,0.024-0.024,0.024l0.132,1.152h-0.024
				l0.096,0.66h-0.024c0.104,0.56,0.268,0.84,0.492,0.84c0.272,0,0.5-0.236,0.684-0.708h0.072c0.008,0.08,0.012,0.128,0.012,0.144
				c-0.08,0.296-0.236,0.512-0.468,0.648c-0.072,0.048-0.184,0.072-0.336,0.072h-0.072c-0.208,0-0.388-0.3-0.54-0.9
				c0-0.016,0.008-0.024,0.024-0.024c-0.032-0.216-0.048-0.452-0.048-0.708v-0.06c-0.048-0.16-0.072-0.252-0.072-0.276h0.024
				l-0.024-0.048v-0.156c0-0.032-0.008-0.064-0.024-0.096l0.024-0.036c-0.016-0.168-0.036-0.268-0.06-0.3v-0.18
				c0-0.016,0.004-0.024,0.012-0.024c-0.008-0.016-0.02-0.104-0.036-0.264h0.024c-0.016-0.032-0.024-0.056-0.024-0.072
				c0-0.416-0.024-1.108-0.072-2.076l0.024-0.048c-0.016-0.032-0.024-0.056-0.024-0.072c0.016-0.272,0.024-0.444,0.024-0.516h0.024
				l-0.024-0.048v-0.024c0-0.016,0.008-0.024,0.024-0.024l-0.024-0.048v-0.156c0-0.016,0.008-0.024,0.024-0.024l-0.024-0.036
				l0.024-0.168l-0.024-0.036c0.016-0.032,0.024-0.064,0.024-0.096c0-0.048-0.008-0.072-0.024-0.072
				c0.04-0.568,0.108-0.952,0.204-1.152c0.144-0.232,0.288-0.42,0.432-0.564C147.913,78.659,148.001,78.639,148.042,78.639z"/>
			
				<path style="fill:#FFFFFF;stroke:#FFFFFF;stroke-width:0.2662;stroke-linecap:round;stroke-linejoin:round;stroke-miterlimit:10;" d="
				M150.106,78.591c-0.016,0-0.036,0.02-0.06,0.06v0.204c-0.032,0.216-0.048,0.336-0.048,0.36c0,0.16,0.016,0.336,0.048,0.528
				h-0.024l0.024,0.048v0.084c0,0.016-0.008,0.024-0.024,0.024l0.024,0.048v0.264c0,0.032-0.008,0.06-0.024,0.084
				c0.016,0.032,0.024,0.064,0.024,0.096c0,0.017-0.008,0.025-0.024,0.025l0.024,0.036c0,0.032-0.008,0.064-0.024,0.096
				c0,0.008,0.008,0.012,0.024,0.012c-0.016,0.136-0.032,0.204-0.048,0.204l0.024,0.048c0,0.032-0.008,0.048-0.024,0.048
				l0.024,0.216v0.24c0,0.016-0.008,0.024-0.024,0.024l0.024,0.048v0.24c0,0.152,0.008,0.376,0.024,0.672
				c-0.016,0-0.024,0.008-0.024,0.024h0.288c0.016,0,0.024,0.004,0.024,0.012l0.036-0.012l0.048,0.012l0.048-0.012
				c0.024,0.008,0.044,0.012,0.06,0.012c0.032,0,0.048-0.004,0.048-0.012l0.156,0.012h0.024c0.072,0,0.184-0.004,0.336-0.012v-0.252
				c0-0.056-0.008-0.136-0.024-0.24l0.024-0.048l-0.024-0.132v-0.06c0-0.016,0.008-0.024,0.024-0.024
				c0-0.016-0.008-0.024-0.024-0.024c0.016-0.352,0.028-0.536,0.036-0.552c-0.008-0.08-0.012-0.156-0.012-0.228
				c0-0.552,0.02-0.92,0.06-1.104l-0.024-0.048c0.032-0.088,0.048-0.148,0.048-0.18c0-0.016-0.008-0.024-0.024-0.024
				c0.016-0.192,0.032-0.288,0.048-0.288c0-0.016-0.008-0.024-0.024-0.024l0.024-0.108l-0.024-0.108h0.024l-0.024-0.048v-0.18
				c0-0.008,0.008-0.012,0.024-0.012c0-0.016-0.008-0.024-0.024-0.024l0.18-0.072c0,0.048,0.008,0.072,0.024,0.072l-0.024,0.108
				v0.288c0,0.016-0.008,0.024-0.024,0.024c0,0.016,0.008,0.024,0.024,0.024c-0.032,0-0.064,0.488-0.096,1.464h-0.012l0.012,0.036
				v0.024c0,0.032-0.012,0.048-0.036,0.048l0.024,0.048v0.156c0,0.016-0.008,0.024-0.024,0.024l0.024,0.036v0.228
				c0,0.048-0.008,0.112-0.024,0.192c0,0.016,0.008,0.024,0.024,0.024l-0.024,0.108v0.048l0.024,0.132l-0.024,0.048l0.024,0.048
				c-0.016,0.024-0.024,0.044-0.024,0.06s0.008,0.04,0.024,0.072c0,0.016-0.008,0.036-0.024,0.06l0.036,0.444l-0.012,0.048
				c0.024,0.432,0.044,0.86,0.06,1.284l-0.024,0.048l0.024,0.132v0.264c0,0.016-0.008,0.024-0.024,0.024l0.024,0.048v0.024
				c0,0.032-0.008,0.06-0.024,0.084l0.024,0.048c0,0.016-0.008,0.024-0.024,0.024l0.024,0.216v0.384c0,0.032,0.008,0.06,0.024,0.084
				c-0.016,0.024-0.024,0.052-0.024,0.085c0,0.016,0.008,0.024,0.024,0.024l-0.024,0.12v0.132c0,0.032,0.008,0.06,0.024,0.084
				c-0.016,0.16-0.032,0.24-0.048,0.24l0.024,0.048c0.016,0.52,0.04,0.896,0.072,1.128l-0.072,0.048h-0.06
				c-0.064-0.128-0.096-0.208-0.096-0.24c0.032-0.064,0.048-0.116,0.048-0.156c-0.016-0.024-0.024-0.056-0.024-0.096h0.024
				l-0.024-0.036V86.38c0-0.016,0.008-0.024,0.024-0.024l-0.024-0.036v-0.336l-0.024-0.156h0.024l-0.024-0.048v-0.24
				c0-0.016,0.008-0.024,0.024-0.024l-0.024-0.048V85.12c0-0.032,0.008-0.064,0.024-0.096c0-0.016-0.008-0.024-0.024-0.024
				l0.024-0.132c-0.016-0.256-0.024-0.476-0.024-0.66v-0.156l0.048-0.072c-0.048-0.008-0.072-0.064-0.072-0.168v-0.024
				c0-0.016,0.008-0.024,0.024-0.024c-0.016-0.032-0.024-0.056-0.024-0.072c0-0.032,0.008-0.06,0.024-0.084l-0.048-0.288
				c0-0.016,0.008-0.024,0.024-0.024l-0.024-0.108v-0.024c0-0.032,0.008-0.06,0.024-0.084c0-0.016-0.008-0.024-0.024-0.024
				c0-0.016,0.008-0.04,0.024-0.072c-0.016-0.192-0.024-0.348-0.024-0.468l-0.012-0.036l-0.048,0.012h-0.708
				c-0.032,0-0.064,0.008-0.096,0.024c-0.024-0.016-0.052-0.024-0.084-0.024h-0.108c0,0.112,0.008,0.284,0.024,0.516
				c0,0.032-0.008,0.112-0.024,0.24c0.024,0.216,0.036,0.448,0.036,0.696v0.06c0,0.016-0.004,0.024-0.012,0.024l0.012,0.048v0.288
				l0.024,0.156h-0.024l0.024,0.036c0,0.16,0.016,0.408,0.048,0.744c0,0.008-0.008,0.012-0.024,0.012
				c0.016,0.144,0.032,0.236,0.048,0.276l-0.024,0.036c0,0.016,0.008,0.024,0.024,0.024l-0.024,0.108v0.336l0.024,0.156h-0.024
				c0,0.016,0.008,0.024,0.024,0.024l-0.024,0.108c0.016,0.328,0.024,0.508,0.024,0.54l-0.108,0.084
				c-0.032-0.064-0.064-0.1-0.096-0.108l0.024-0.12v-0.192c0-0.016,0.008-0.024,0.024-0.024l-0.024-0.048
				c0.016-0.232,0.024-0.372,0.024-0.42l-0.024-0.048l0.024-0.036c-0.016-0.152-0.024-0.272-0.024-0.36
				c0-0.04,0.008-0.06,0.024-0.06l-0.024-0.12v-0.036c0-0.136-0.008-0.328-0.024-0.576c0-0.016,0.008-0.024,0.024-0.024l-0.024-0.12
				V84.52l-0.024-0.156h0.024l-0.024-0.048v-0.348l-0.024-0.144c0-0.008,0.008-0.012,0.024-0.012
				c-0.024-0.176-0.036-0.384-0.036-0.624V83.08c0-0.016,0.004-0.024,0.012-0.024c0-0.016-0.004-0.024-0.012-0.024
				c0-0.016,0.004-0.04,0.012-0.072c-0.008-0.336-0.028-0.504-0.06-0.504l0.024-0.156c-0.016-0.408-0.024-0.692-0.024-0.852h0.024
				l-0.024-0.036c0-0.064,0.008-0.096,0.024-0.096l-0.024-0.156v-0.684c0-0.12,0.008-0.276,0.024-0.468l-0.024-0.036
				c0-0.016,0.008-0.024,0.024-0.024l-0.024-0.156v-0.132c0-0.016,0.008-0.024,0.024-0.024c-0.016-0.032-0.032-0.1-0.048-0.204
				l0.024-0.048c-0.016-0.08-0.024-0.144-0.024-0.192v-0.024c0.032-0.216,0.048-0.336,0.048-0.36v-0.264L150.106,78.591z"/>
			
				<path style="fill:#FFFFFF;stroke:#FFFFFF;stroke-width:0.2662;stroke-linecap:round;stroke-linejoin:round;stroke-miterlimit:10;" d="
				M153.562,78.567h0.036l0.072,0.048h0.108c0.048,0,0.072-0.008,0.072-0.024l0.108,0.024h0.516c0.144,0.032,0.216,0.06,0.216,0.084
				v0.048l-0.024,0.048c-0.216-0.016-0.332-0.032-0.348-0.048c-0.032,0.016-0.064,0.024-0.096,0.024h-0.132
				c-0.032,0-0.06-0.008-0.084-0.024c-0.032,0.016-0.064,0.024-0.096,0.024h-0.024c-0.008,0-0.012-0.008-0.012-0.024l-0.048,0.024
				h-0.204c0,0.056-0.008,0.084-0.024,0.084c0,0.016,0.008,0.024,0.024,0.024c0,0.017-0.008,0.041-0.024,0.072l0.024,0.108
				c-0.056,0.432-0.084,0.676-0.084,0.732l0.024,0.048l-0.024,0.156c0.016,0.256,0.024,0.404,0.024,0.444
				c0,0.016-0.008,0.024-0.024,0.024l0.024,0.108v0.396c0,0.032,0.008,0.064,0.024,0.096c-0.016,0.024-0.024,0.052-0.024,0.084
				v0.288l-0.024,0.132c0.016,0.024,0.024,0.06,0.024,0.108v0.048c0,0.032-0.008,0.06-0.024,0.084l0.024,0.048
				c0,0.032-0.016,0.092-0.048,0.18c0.016,0.024,0.024,0.052,0.024,0.084c-0.016,0.112-0.024,0.172-0.024,0.18l0.024,0.048
				l-0.024,0.132v0.18c0,0.016-0.008,0.024-0.024,0.024l0.048,0.084l0.048-0.024h0.744c0.024,0,0.048,0.024,0.072,0.072
				c0,0.064-0.26,0.1-0.78,0.108c-0.024-0.016-0.068-0.024-0.132-0.024v0.024c0.016,0.08,0.024,0.148,0.024,0.204v0.084
				c0,0.12-0.008,0.276-0.024,0.468c0.016,0.024,0.024,0.044,0.024,0.06h-0.024l0.024,0.048c0,0.048-0.008,0.085-0.024,0.108
				c0.016,0.32,0.04,0.616,0.072,0.888h-0.024l0.048,0.12l-0.024,0.132c0.016,0.136,0.024,0.268,0.024,0.396h-0.024
				c0.024,0.056,0.036,0.136,0.036,0.24v0.132c0,0.016-0.004,0.024-0.012,0.024l0.012,0.048V85.9c0,0.017-0.004,0.024-0.012,0.024
				l0.012,0.036c0,0.016-0.004,0.024-0.012,0.024c0,0.016,0.004,0.024,0.012,0.024l-0.012,0.108v0.072l0.036,0.06
				c0,0.04-0.008,0.072-0.024,0.096l0.048,0.372h0.6l0.132-0.024c0.064,0.016,0.096,0.032,0.096,0.048l0.036-0.024h0.156
				c0.024,0,0.048,0.024,0.072,0.072v0.06c-0.048,0-0.072,0.016-0.072,0.048l-0.048-0.024h-0.036c-0.048,0-0.072,0.008-0.072,0.024
				c-0.16-0.016-0.24-0.032-0.24-0.048l-0.048,0.024h-0.108c-0.032,0-0.06-0.008-0.085-0.024c-0.032,0.016-0.144,0.032-0.336,0.048
				c-0.032-0.016-0.056-0.024-0.072-0.024c0,0.032-0.012,0.048-0.036,0.048c-0.056,0-0.104-0.104-0.144-0.312
				c0-0.016,0.008-0.024,0.024-0.024l-0.024-0.108v-0.108c0-0.16-0.004-0.272-0.012-0.336c0.008-0.112,0.012-0.236,0.012-0.372
				v-0.312c0-0.04-0.004-0.072-0.012-0.096c0-0.016,0.004-0.024,0.012-0.024l-0.012-0.156v-0.108c-0.032-0.48-0.048-0.74-0.048-0.78
				v-0.24c0-0.032-0.008-0.06-0.024-0.084c0.016-0.032,0.024-0.064,0.024-0.096v-0.036l-0.024-0.12h0.024
				c-0.016-0.024-0.024-0.044-0.024-0.06l0.024-0.048c-0.016-0.024-0.024-0.044-0.024-0.06h0.024c0-0.016-0.008-0.024-0.024-0.024
				l0.024-0.228v-0.132l-0.024-0.108h0.024l-0.024-0.048v-0.048c0-0.008,0.008-0.012,0.024-0.012c0-0.016-0.008-0.024-0.024-0.024
				l0.024-0.12v-0.42l0.024-0.132c-0.016-0.024-0.024-0.044-0.024-0.06h0.024c0-0.016-0.008-0.024-0.024-0.024
				c0.032-0.144,0.048-0.344,0.048-0.6v-0.288c0-0.016,0.004-0.024,0.012-0.024L153.43,81.1c-0.016-0.496-0.032-0.76-0.048-0.792
				c0-0.016,0.008-0.024,0.024-0.024l-0.024-0.108c0-0.4,0.028-0.78,0.084-1.14c0-0.016-0.008-0.024-0.024-0.024
				C153.466,78.715,153.506,78.567,153.562,78.567z"/>
			
				<path style="fill:#FFFFFF;stroke:#FFFFFF;stroke-width:0.2662;stroke-linecap:round;stroke-linejoin:round;stroke-miterlimit:10;" d="
				M155.65,78.543h0.036c0.12,0.088,0.244,0.324,0.372,0.708c0.52,1.017,1.008,1.937,1.464,2.761h0.024l-0.024-0.108v-0.408
				c0-0.056-0.008-0.096-0.024-0.12l0.024-0.132V80.92c0-0.008,0.008-0.012,0.024-0.012c-0.032-0.064-0.048-0.148-0.048-0.252
				v-0.048c0-0.016,0.008-0.024,0.024-0.024l-0.036-0.276l0.012-0.084c-0.008-0.128-0.012-0.228-0.012-0.3h0.012
				c-0.008-0.024-0.012-0.044-0.012-0.06c0-0.04,0.004-0.072,0.012-0.096c-0.008-0.08-0.012-0.148-0.012-0.204v-0.048
				c0-0.008,0.004-0.012,0.012-0.012c0-0.016-0.004-0.024-0.012-0.024l0.012-0.228v-0.024c-0.024-0.256-0.036-0.4-0.036-0.432
				v-0.096c0-0.016,0.02-0.036,0.06-0.06c0.024,0,0.072,0.052,0.144,0.156l-0.024,0.108c0,0.016,0.008,0.04,0.024,0.072
				c0,0.016-0.008,0.024-0.024,0.024l0.024,0.108c-0.016,0.344-0.024,0.604-0.024,0.78l0.024,0.108l-0.024,0.048
				c0.016,0.024,0.024,0.052,0.024,0.084c0,0.016-0.008,0.024-0.024,0.024l0.024,0.048c0.016,0.416,0.024,0.764,0.024,1.044v0.048
				c0,0.016-0.008,0.024-0.024,0.024l0.024,0.036v0.168c0,0.056,0.004,0.116,0.012,0.18l-0.036,0.264c0,0.072,0.008,0.172,0.024,0.3
				c-0.016,0.304-0.024,0.576-0.024,0.816c0.016,0.104,0.024,0.164,0.024,0.18h-0.024l0.024,0.048v0.084
				c0,0.016-0.008,0.024-0.024,0.024c0,0.016,0.008,0.024,0.024,0.024l-0.024,0.228v0.18c0,0.064,0.008,0.124,0.024,0.18
				l-0.048,0.432l0.024,0.048l-0.024,0.048l0.024,0.132c0,0.016-0.008,0.024-0.024,0.024l0.024,0.048v0.108
				c0,0.016-0.008,0.024-0.024,0.024l0.024,0.048v0.228c0,0.008-0.008,0.012-0.024,0.012l0.024,0.048v0.252
				c0,0.032-0.008,0.06-0.024,0.084c0.016,0.032,0.024,0.064,0.024,0.096v0.048c0,0.016-0.008,0.024-0.024,0.024
				c0,0.016,0.008,0.024,0.024,0.024c-0.032,0.288-0.048,0.544-0.048,0.768l-0.024,0.048c0,0.008,0.008,0.012,0.024,0.012
				c-0.008,0.2-0.041,0.3-0.096,0.3h-0.036c-0.048,0-0.072-0.12-0.072-0.36c0.032,0,0.048-0.016,0.048-0.048v-0.252
				c0-0.016,0.008-0.024,0.024-0.024c0-0.016-0.008-0.024-0.024-0.024c0.016-0.144,0.036-0.256,0.06-0.336
				c-0.016-0.048-0.028-0.072-0.036-0.072l0.012-0.156v-0.024l-0.012-0.156h0.012c0-0.016-0.004-0.024-0.012-0.024l0.012-0.108
				v-0.685c0-0.016,0.008-0.024,0.024-0.024l-0.024-0.036v-1.008c0-0.008,0.008-0.012,0.024-0.012l-0.024-0.048v-0.024
				c0-0.016,0.008-0.024,0.024-0.024l-0.024-0.048V82.6c0-0.016,0.008-0.024,0.024-0.024l-0.024-0.048
				c0.016-0.096,0.024-0.176,0.024-0.24c-0.304-0.456-0.696-1.16-1.176-2.112c-0.208-0.304-0.404-0.72-0.588-1.248h-0.024v0.252
				c0,0.016-0.008,0.024-0.024,0.024l0.024,0.048v0.36c0,0.016-0.008,0.024-0.024,0.024l0.024,0.048v0.108
				c0,0.344,0.016,0.556,0.048,0.636c0,0.016-0.008,0.024-0.024,0.024l0.024,0.108v0.072c0,0.016-0.008,0.024-0.024,0.024
				l0.024,0.048v0.72c0,0.016-0.008,0.024-0.024,0.024c0.032,0.088,0.048,0.284,0.048,0.588v0.276l0.024,0.132l-0.024,0.048
				l0.024,0.132h-0.024c0,0.016,0.008,0.024,0.024,0.024c-0.016,0.136-0.032,0.204-0.048,0.204l0.024,0.048v0.132
				c0,0.064,0.008,0.148,0.024,0.252c0,0.016-0.008,0.024-0.024,0.024l0.024,0.108v0.072c0,0.12-0.008,0.264-0.024,0.432
				l0.024,0.036l-0.024,0.144v0.024l0.024,0.156h-0.024l0.024,0.048v0.132c0,0.104,0.008,0.272,0.024,0.504h-0.024
				c0,0.008,0.008,0.012,0.024,0.012c-0.032,0.112-0.048,0.188-0.048,0.228l0.024,0.324h-0.024l0.024,0.036v0.12
				c0,0.056-0.008,0.124-0.024,0.204c0,0.016,0.008,0.024,0.024,0.024l-0.024,0.156v0.228c0,0.072-0.008,0.148-0.024,0.228
				c0.016,0.056,0.024,0.124,0.024,0.204v0.108c0,0.032-0.016,0.048-0.048,0.048h-0.024c-0.024,0-0.052-0.076-0.084-0.228
				c0.016-0.416,0.024-0.764,0.024-1.044v-0.588c0-0.016,0.004-0.024,0.012-0.024l-0.012-0.036V84.94
				c0-0.016,0.004-0.024,0.012-0.024l-0.012-0.048c0-0.016,0.004-0.024,0.012-0.024l-0.012-0.108v-0.072
				c0-0.032,0.004-0.064,0.012-0.096c-0.008-0.024-0.012-0.044-0.012-0.06h0.012c0-0.016-0.004-0.024-0.012-0.024l0.012-0.228
				v-0.024c0-0.128-0.004-0.264-0.012-0.408c0.008-0.056,0.012-0.116,0.012-0.18l-0.012-0.108h0.012
				c-0.008-0.032-0.012-0.056-0.012-0.072c0-0.016,0.004-0.024,0.012-0.024l-0.012-0.108V83.14l-0.024-0.216h0.024l-0.024-0.048
				v-0.144c0-0.008,0.008-0.012,0.024-0.012c0-0.016-0.008-0.024-0.024-0.024c0.008-0.168,0.02-0.252,0.036-0.252
				c-0.024-0.048-0.036-0.092-0.036-0.132v-0.756c0-0.032-0.008-0.06-0.024-0.084c0.016-0.032,0.024-0.064,0.024-0.096v-0.108
				l-0.024-0.12h0.024c0-0.016-0.008-0.024-0.024-0.024l0.024-0.108v-0.276l-0.024-0.132l0.024-0.048
				c-0.016-0.024-0.024-0.044-0.024-0.06c0-0.016,0.008-0.024,0.024-0.024c-0.048-0.296-0.072-0.5-0.072-0.612v-0.144
				c0-0.032,0.008-0.06,0.024-0.084c-0.016-0.024-0.024-0.056-0.024-0.096l0.024-0.036l-0.024-0.048
				c0.016-0.064,0.024-0.116,0.024-0.156l-0.024-0.048c0.016-0.032,0.024-0.064,0.024-0.096s-0.008-0.06-0.024-0.084
				c0-0.016,0.008-0.024,0.024-0.024l-0.024-0.156v-0.276C155.578,78.591,155.602,78.567,155.65,78.543z"/>
			
				<path style="fill:#FFFFFF;stroke:#FFFFFF;stroke-width:0.2662;stroke-linecap:round;stroke-linejoin:round;stroke-miterlimit:10;" d="
				M159.803,78.543l0.048,0.072v0.036c0,0.032-0.06,0.056-0.18,0.072v-0.024c-0.472,0.08-0.708,0.208-0.708,0.384
				c-0.024,0.041-0.076,0.236-0.156,0.588l0.024,0.048c-0.016,0.088-0.032,0.132-0.048,0.132c0,0.016,0.008,0.024,0.024,0.024
				c-0.072,0.488-0.124,1.228-0.156,2.22h-0.024c0.008,0.016,0.024,0.12,0.048,0.312h-0.024l0.024,0.048v0.468l-0.024,0.132
				c0.072,0.624,0.108,0.948,0.108,0.972l-0.024,0.048l0.096,0.625l-0.024,0.036c0,0.016,0.02,0.208,0.06,0.576h-0.024l0.096,0.492
				c0,0.016-0.008,0.024-0.024,0.024l0.072,0.372h-0.024c0.064,0.272,0.16,0.444,0.288,0.516l0.18,0.108l0.036-0.024l0.048,0.024
				c0.28-0.152,0.42-0.32,0.42-0.504c0.048-0.032,0.092-0.24,0.132-0.624l-0.024-0.108c0-0.104,0.016-0.156,0.048-0.156l-0.024-0.12
				V85.18c0.008-0.072,0.024-0.108,0.048-0.108l-0.024-0.048v-0.396l0.024-0.156c-0.152-0.024-0.228-0.044-0.228-0.06l-0.036,0.012
				h-0.024c-0.016,0-0.024-0.004-0.024-0.012l-0.048,0.012l-0.036-0.012l-0.12,0.012v-0.012l-0.036,0.012h-0.024
				c-0.024,0-0.056-0.028-0.096-0.084v-0.048c0-0.024,0.048-0.044,0.144-0.06c0.096,0.016,0.176,0.024,0.24,0.024h0.156l0.06,0.036
				l0.024-0.036l0.048,0.012l0.108-0.012c0.048,0.056,0.072,0.1,0.072,0.132c-0.032,0.096-0.056,0.212-0.072,0.348
				c0.016,0.136,0.032,0.204,0.048,0.204l-0.048,0.312l0.048,0.024c-0.088,0.953-0.236,1.477-0.444,1.572
				c-0.104,0.08-0.216,0.132-0.336,0.156c-0.192,0-0.392-0.156-0.6-0.468c0-0.016,0.008-0.024,0.024-0.024
				c-0.096-0.312-0.168-0.696-0.216-1.152V85.3c0-0.016,0.004-0.024,0.012-0.024c-0.041-0.168-0.06-0.356-0.06-0.564h0.024
				l-0.048-0.108c0-0.016,0.008-0.024,0.024-0.024c-0.032-0.168-0.048-0.292-0.048-0.372h0.024l-0.024-0.048
				c0-0.016,0.008-0.024,0.024-0.024c-0.024-0.032-0.06-0.26-0.108-0.684v-0.468l-0.024-0.216h0.024l-0.024-0.048v-0.048
				c0-0.144-0.008-0.364-0.024-0.66h0.024l-0.024-0.048v-0.132c0-0.016,0.008-0.024,0.024-0.024
				c-0.016-0.024-0.024-0.044-0.024-0.06l0.024-0.048c0-0.016-0.008-0.024-0.024-0.024c0.032-0.224,0.056-0.336,0.072-0.336
				c0-0.016-0.008-0.024-0.024-0.024l0.024-0.216v-0.18c0-0.016,0.004-0.024,0.012-0.024c0-0.016-0.004-0.024-0.012-0.024
				c0.024-0.592,0.104-1.204,0.24-1.836c0.08-0.2,0.2-0.328,0.36-0.384C159.359,78.579,159.579,78.543,159.803,78.543z"/>
			
				<path style="fill:#FFFFFF;stroke:#FFFFFF;stroke-width:0.2662;stroke-linecap:round;stroke-linejoin:round;stroke-miterlimit:10;" d="
				M161.339,78.747c0,0.016,0.004,0.024,0.012,0.024l-0.012,0.264v0.132c0,0.497-0.024,0.917-0.072,1.26
				c0.008,0.048,0.014,0.098,0.018,0.15c0.004,0.052,0.006,0.106,0.006,0.162v0.024c0,0.016-0.008,0.024-0.024,0.024l0.024,0.048
				v0.732l0.024,0.132c0,0.016-0.008,0.024-0.024,0.024l0.024,0.156v0.24c0,0.016-0.008,0.024-0.024,0.024l0.024,0.048v0.144
				c0,0.016-0.008,0.024-0.024,0.024l0.024,0.048v0.24l0.024,0.156h-0.024l0.024,0.048c0,0.016-0.008,0.024-0.024,0.024l0.024,0.048
				v0.132c0,0.024-0.002,0.052-0.006,0.084c-0.004,0.032-0.01,0.068-0.018,0.108c0,0.016,0.008,0.024,0.024,0.024l-0.024,0.108
				c0,0.048,0.008,0.088,0.024,0.12c-0.008,0.048-0.014,0.092-0.018,0.132c-0.004,0.04-0.006,0.076-0.006,0.108v0.336
				c0,0.024,0.008,0.052,0.024,0.084c-0.016,0.032-0.024,0.064-0.024,0.096v0.264c0,0.024,0.008,0.052,0.024,0.084l-0.024,0.048
				c0.008,0.04,0.014,0.07,0.018,0.09c0.004,0.02,0.006,0.034,0.006,0.042l-0.024,0.084c0.016,0.032,0.024,0.072,0.024,0.12h-0.024
				l0.024,0.036v0.024l-0.048,0.156c0.032,0.008,0.048,0.024,0.048,0.048v0.24c0,0.016-0.008,0.024-0.024,0.024l0.024,0.048v0.024
				c0,0.008-0.008,0.012-0.024,0.012l0.036,0.276l-0.012,0.036c0.008,0.248,0.02,0.384,0.036,0.408
				c-0.016,0.032-0.024,0.052-0.024,0.06c0.008,0.136,0.014,0.242,0.018,0.318c0.004,0.076,0.006,0.126,0.006,0.15l-0.024,0.048
				c0.008,0.016-0.036,0.008-0.132-0.024V86.56c0-0.032-0.002-0.068-0.006-0.108c-0.004-0.04-0.01-0.084-0.018-0.132
				c0-0.016,0.008-0.024,0.024-0.024c-0.024-0.248-0.036-0.508-0.036-0.78l0.012-0.132c-0.008-0.04-0.012-0.078-0.012-0.114
				c0-0.036,0-0.074,0-0.114V84.94l-0.024-0.108h0.024l-0.024-0.048V84.76c0-0.04,0.008-0.06,0.024-0.06l-0.024-0.12v-0.924
				c0-0.032,0.008-0.064,0.024-0.096c-0.016-0.032-0.024-0.052-0.024-0.06h0.024l-0.024-0.048v-0.024
				c0-0.016,0.008-0.024,0.024-0.024l-0.024-0.036c0.008-0.064,0.014-0.12,0.018-0.168c0.004-0.048,0.006-0.088,0.006-0.12
				l-0.024-0.072l0.024-0.048c-0.016-0.256-0.028-0.458-0.036-0.606c-0.008-0.148-0.012-0.242-0.012-0.282
				c0.016-0.088,0.032-0.132,0.048-0.132c-0.04-0.048-0.064-0.256-0.072-0.624c0.008-0.04,0.014-0.076,0.018-0.108
				c0.004-0.032,0.006-0.06,0.006-0.084v-1.116c0-0.016,0.008-0.024,0.024-0.024c0-0.008-0.008-0.012-0.024-0.012l0.024-0.12
				c0-0.016-0.008-0.024-0.024-0.024l0.024-0.108v-0.192c0-0.016,0.008-0.024,0.024-0.024c-0.016-0.528,0.008-0.792,0.072-0.792
				C161.319,78.631,161.347,78.643,161.339,78.747z"/>
			
				<path style="fill:#FFFFFF;stroke:#FFFFFF;stroke-width:0.2662;stroke-linecap:round;stroke-linejoin:round;stroke-miterlimit:10;" d="
				M162.311,78.543h0.036c0.12,0.088,0.244,0.324,0.372,0.708c0.52,1.017,1.008,1.937,1.464,2.761h0.024l-0.024-0.108v-0.408
				c0-0.056-0.008-0.096-0.024-0.12l0.024-0.132V80.92c0-0.008,0.008-0.012,0.024-0.012c-0.032-0.064-0.048-0.148-0.048-0.252
				v-0.048c0-0.016,0.008-0.024,0.024-0.024l-0.036-0.276l0.012-0.084c-0.008-0.128-0.012-0.228-0.012-0.3h0.012
				c-0.008-0.024-0.012-0.044-0.012-0.06c0-0.04,0.004-0.072,0.012-0.096c-0.008-0.08-0.012-0.148-0.012-0.204v-0.048
				c0-0.008,0.004-0.012,0.012-0.012c0-0.016-0.004-0.024-0.012-0.024l0.012-0.228v-0.024c-0.024-0.256-0.036-0.4-0.036-0.432
				v-0.096c0-0.016,0.02-0.036,0.06-0.06c0.024,0,0.072,0.052,0.144,0.156l-0.024,0.108c0,0.016,0.008,0.04,0.024,0.072
				c0,0.016-0.008,0.024-0.024,0.024l0.024,0.108c-0.016,0.344-0.024,0.604-0.024,0.78l0.024,0.108l-0.024,0.048
				c0.016,0.024,0.024,0.052,0.024,0.084c0,0.016-0.008,0.024-0.024,0.024l0.024,0.048c0.016,0.416,0.024,0.764,0.024,1.044v0.048
				c0,0.016-0.008,0.024-0.024,0.024l0.024,0.036v0.168c0,0.056,0.004,0.116,0.012,0.18l-0.036,0.264c0,0.072,0.008,0.172,0.024,0.3
				c-0.016,0.304-0.024,0.576-0.024,0.816c0.016,0.104,0.024,0.164,0.024,0.18h-0.024l0.024,0.048v0.084
				c0,0.016-0.008,0.024-0.024,0.024c0,0.016,0.008,0.024,0.024,0.024l-0.024,0.228v0.18c0,0.064,0.008,0.124,0.024,0.18
				l-0.048,0.432l0.024,0.048l-0.024,0.048l0.024,0.132c0,0.016-0.008,0.024-0.024,0.024l0.024,0.048v0.108
				c0,0.016-0.008,0.024-0.024,0.024l0.024,0.048v0.228c0,0.008-0.008,0.012-0.024,0.012l0.024,0.048v0.252
				c0,0.032-0.008,0.06-0.024,0.084c0.016,0.032,0.024,0.064,0.024,0.096v0.048c0,0.016-0.008,0.024-0.024,0.024
				c0,0.016,0.008,0.024,0.024,0.024c-0.032,0.288-0.048,0.544-0.048,0.768l-0.024,0.048c0,0.008,0.008,0.012,0.024,0.012
				c-0.008,0.2-0.041,0.3-0.096,0.3h-0.036c-0.048,0-0.072-0.12-0.072-0.36c0.032,0,0.048-0.016,0.048-0.048v-0.252
				c0-0.016,0.008-0.024,0.024-0.024c0-0.016-0.008-0.024-0.024-0.024c0.016-0.144,0.036-0.256,0.06-0.336
				c-0.016-0.048-0.028-0.072-0.036-0.072l0.012-0.156v-0.024l-0.012-0.156h0.012c0-0.016-0.004-0.024-0.012-0.024l0.012-0.108
				v-0.685c0-0.016,0.008-0.024,0.024-0.024l-0.024-0.036v-1.008c0-0.008,0.008-0.012,0.024-0.012l-0.024-0.048v-0.024
				c0-0.016,0.008-0.024,0.024-0.024l-0.024-0.048V82.6c0-0.016,0.008-0.024,0.024-0.024l-0.024-0.048
				c0.016-0.096,0.024-0.176,0.024-0.24c-0.304-0.456-0.696-1.16-1.176-2.112c-0.208-0.304-0.404-0.72-0.588-1.248h-0.024v0.252
				c0,0.016-0.008,0.024-0.024,0.024l0.024,0.048v0.36c0,0.016-0.008,0.024-0.024,0.024l0.024,0.048v0.108
				c0,0.344,0.016,0.556,0.048,0.636c0,0.016-0.008,0.024-0.024,0.024l0.024,0.108v0.072c0,0.016-0.008,0.024-0.024,0.024
				l0.024,0.048v0.72c0,0.016-0.008,0.024-0.024,0.024c0.032,0.088,0.048,0.284,0.048,0.588v0.276l0.024,0.132l-0.024,0.048
				l0.024,0.132h-0.024c0,0.016,0.008,0.024,0.024,0.024c-0.016,0.136-0.032,0.204-0.048,0.204l0.024,0.048v0.132
				c0,0.064,0.008,0.148,0.024,0.252c0,0.016-0.008,0.024-0.024,0.024l0.024,0.108v0.072c0,0.12-0.008,0.264-0.024,0.432
				l0.024,0.036l-0.024,0.144v0.024l0.024,0.156h-0.024l0.024,0.048v0.132c0,0.104,0.008,0.272,0.024,0.504h-0.024
				c0,0.008,0.008,0.012,0.024,0.012c-0.032,0.112-0.048,0.188-0.048,0.228l0.024,0.324h-0.024l0.024,0.036v0.12
				c0,0.056-0.008,0.124-0.024,0.204c0,0.016,0.008,0.024,0.024,0.024l-0.024,0.156v0.228c0,0.072-0.008,0.148-0.024,0.228
				c0.016,0.056,0.024,0.124,0.024,0.204v0.108c0,0.032-0.016,0.048-0.048,0.048h-0.024c-0.024,0-0.052-0.076-0.085-0.228
				c0.016-0.416,0.024-0.764,0.024-1.044v-0.588c0-0.016,0.004-0.024,0.012-0.024l-0.012-0.036V84.94
				c0-0.016,0.004-0.024,0.012-0.024l-0.012-0.048c0-0.016,0.004-0.024,0.012-0.024l-0.012-0.108v-0.072
				c0-0.032,0.004-0.064,0.012-0.096c-0.008-0.024-0.012-0.044-0.012-0.06h0.012c0-0.016-0.004-0.024-0.012-0.024l0.012-0.228
				v-0.024c0-0.128-0.004-0.264-0.012-0.408c0.008-0.056,0.012-0.116,0.012-0.18l-0.012-0.108h0.012
				c-0.008-0.032-0.012-0.056-0.012-0.072c0-0.016,0.004-0.024,0.012-0.024l-0.012-0.108V83.14l-0.024-0.216h0.024l-0.024-0.048
				v-0.144c0-0.008,0.008-0.012,0.024-0.012c0-0.016-0.008-0.024-0.024-0.024c0.008-0.168,0.02-0.252,0.036-0.252
				c-0.024-0.048-0.036-0.092-0.036-0.132v-0.756c0-0.032-0.008-0.06-0.024-0.084c0.016-0.032,0.024-0.064,0.024-0.096v-0.108
				l-0.024-0.12h0.024c0-0.016-0.008-0.024-0.024-0.024l0.024-0.108v-0.276l-0.024-0.132l0.024-0.048
				c-0.016-0.024-0.024-0.044-0.024-0.06c0-0.016,0.008-0.024,0.024-0.024c-0.048-0.296-0.072-0.5-0.072-0.612v-0.144
				c0-0.032,0.008-0.06,0.024-0.084c-0.016-0.024-0.024-0.056-0.024-0.096l0.024-0.036l-0.024-0.048
				c0.016-0.064,0.024-0.116,0.024-0.156l-0.024-0.048c0.016-0.032,0.024-0.064,0.024-0.096s-0.008-0.06-0.024-0.084
				c0-0.016,0.008-0.024,0.024-0.024l-0.024-0.156v-0.276C162.239,78.591,162.263,78.567,162.311,78.543z"/>
			
				<path style="fill:#FFFFFF;stroke:#FFFFFF;stroke-width:0.2662;stroke-linecap:round;stroke-linejoin:round;stroke-miterlimit:10;" d="
				M165.335,78.567h0.036l0.072,0.048h0.108c0.048,0,0.072-0.008,0.072-0.024l0.108,0.024h0.516c0.144,0.032,0.216,0.06,0.216,0.084
				v0.048l-0.024,0.048c-0.216-0.016-0.332-0.032-0.348-0.048c-0.032,0.016-0.064,0.024-0.096,0.024h-0.132
				c-0.032,0-0.06-0.008-0.084-0.024c-0.032,0.016-0.064,0.024-0.096,0.024h-0.024c-0.008,0-0.012-0.008-0.012-0.024l-0.048,0.024
				h-0.204c0,0.056-0.008,0.084-0.024,0.084c0,0.016,0.008,0.024,0.024,0.024c0,0.017-0.008,0.041-0.024,0.072l0.024,0.108
				c-0.056,0.432-0.084,0.676-0.084,0.732l0.024,0.048l-0.024,0.156c0.016,0.256,0.024,0.404,0.024,0.444
				c0,0.016-0.008,0.024-0.024,0.024l0.024,0.108v0.396c0,0.032,0.008,0.064,0.024,0.096c-0.016,0.024-0.024,0.052-0.024,0.084
				v0.288l-0.024,0.132c0.016,0.024,0.024,0.06,0.024,0.108v0.048c0,0.032-0.008,0.06-0.024,0.084l0.024,0.048
				c0,0.032-0.016,0.092-0.048,0.18c0.016,0.024,0.024,0.052,0.024,0.084c-0.016,0.112-0.024,0.172-0.024,0.18l0.024,0.048
				l-0.024,0.132v0.18c0,0.016-0.008,0.024-0.024,0.024l0.048,0.084l0.048-0.024h0.744c0.024,0,0.048,0.024,0.072,0.072
				c0,0.064-0.26,0.1-0.78,0.108c-0.024-0.016-0.068-0.024-0.132-0.024v0.024c0.016,0.08,0.024,0.148,0.024,0.204v0.084
				c0,0.12-0.008,0.276-0.024,0.468c0.016,0.024,0.024,0.044,0.024,0.06h-0.024l0.024,0.048c0,0.048-0.008,0.085-0.024,0.108
				c0.016,0.32,0.04,0.616,0.072,0.888h-0.024l0.048,0.12l-0.024,0.132c0.016,0.136,0.024,0.268,0.024,0.396h-0.024
				c0.024,0.056,0.036,0.136,0.036,0.24v0.132c0,0.016-0.004,0.024-0.012,0.024l0.012,0.048V85.9c0,0.017-0.004,0.024-0.012,0.024
				l0.012,0.036c0,0.016-0.004,0.024-0.012,0.024c0,0.016,0.004,0.024,0.012,0.024l-0.012,0.108v0.072l0.036,0.06
				c0,0.04-0.008,0.072-0.024,0.096l0.048,0.372h0.6l0.132-0.024c0.064,0.016,0.096,0.032,0.096,0.048l0.036-0.024h0.156
				c0.024,0,0.048,0.024,0.072,0.072v0.06c-0.048,0-0.072,0.016-0.072,0.048l-0.048-0.024h-0.036c-0.048,0-0.072,0.008-0.072,0.024
				c-0.16-0.016-0.24-0.032-0.24-0.048l-0.048,0.024h-0.108c-0.032,0-0.06-0.008-0.084-0.024c-0.032,0.016-0.144,0.032-0.336,0.048
				c-0.032-0.016-0.056-0.024-0.072-0.024c0,0.032-0.012,0.048-0.036,0.048c-0.056,0-0.104-0.104-0.144-0.312
				c0-0.016,0.008-0.024,0.024-0.024l-0.024-0.108v-0.108c0-0.16-0.004-0.272-0.012-0.336c0.008-0.112,0.012-0.236,0.012-0.372
				v-0.312c0-0.04-0.004-0.072-0.012-0.096c0-0.016,0.004-0.024,0.012-0.024l-0.012-0.156v-0.108c-0.032-0.48-0.048-0.74-0.048-0.78
				v-0.24c0-0.032-0.008-0.06-0.024-0.084c0.016-0.032,0.024-0.064,0.024-0.096v-0.036l-0.024-0.12h0.024
				c-0.016-0.024-0.024-0.044-0.024-0.06l0.024-0.048c-0.016-0.024-0.024-0.044-0.024-0.06h0.024c0-0.016-0.008-0.024-0.024-0.024
				l0.024-0.228v-0.132l-0.024-0.108h0.024l-0.024-0.048v-0.048c0-0.008,0.008-0.012,0.024-0.012c0-0.016-0.008-0.024-0.024-0.024
				l0.024-0.12v-0.42l0.024-0.132c-0.016-0.024-0.024-0.044-0.024-0.06h0.024c0-0.016-0.008-0.024-0.024-0.024
				c0.032-0.144,0.048-0.344,0.048-0.6v-0.288c0-0.016,0.004-0.024,0.012-0.024l-0.012-0.048c-0.016-0.496-0.032-0.76-0.048-0.792
				c0-0.016,0.008-0.024,0.024-0.024l-0.024-0.108c0-0.4,0.028-0.78,0.084-1.14c0-0.016-0.008-0.024-0.024-0.024
				C165.239,78.715,165.279,78.567,165.335,78.567z"/>
			
				<path style="fill:#FFFFFF;stroke:#FFFFFF;stroke-width:0.2662;stroke-linecap:round;stroke-linejoin:round;stroke-miterlimit:10;" d="
				M169.632,78.435c0.328,0,0.58,0.62,0.756,1.86h-0.024c0.024,0.056,0.052,0.332,0.084,0.828h-0.024
				c0,0.016,0.008,0.024,0.024,0.024c-0.016,0.152-0.028,0.248-0.036,0.288l0.036,0.084c0,0.016-0.008,0.024-0.024,0.024
				l0.072,0.348h-0.024l0.024,0.048c0,0.016-0.008,0.024-0.024,0.024l0.024,0.108v0.132l-0.024,0.048
				c0.032,0.008,0.048,0.024,0.048,0.048c-0.016,0.08-0.024,0.124-0.024,0.132l0.024,0.084c-0.016,0.032-0.024,0.056-0.024,0.072
				c0.016,0.024,0.024,0.044,0.024,0.06c0,0.016-0.008,0.024-0.024,0.024l0.024,0.156v0.108c0,0.016-0.008,0.024-0.024,0.024
				l0.024,0.048c0,0.016-0.008,0.024-0.024,0.024l0.024,0.108v0.072c0,0.008-0.008,0.012-0.024,0.012l0.024,0.048v0.024
				c0,0.016-0.008,0.024-0.024,0.024l0.024,0.048v0.264l0.024,0.132c-0.016,0.024-0.024,0.044-0.024,0.06
				c0,0.016,0.008,0.024,0.024,0.024l-0.024,0.156v0.264c0,0.016-0.008,0.024-0.024,0.024l0.024,0.048
				c0,0.016-0.008,0.024-0.024,0.024c0,0.016,0.008,0.024,0.024,0.024l-0.024,0.108v0.216c0,0.016-0.008,0.024-0.024,0.024
				l0.024,0.048c0,0.016-0.008,0.024-0.024,0.024c0,0.016,0.008,0.024,0.024,0.024c-0.024,0.312-0.048,0.468-0.072,0.468
				c0,0.008,0.008,0.012,0.024,0.012l-0.024,0.12v0.132c0,0.521-0.168,0.94-0.504,1.26c-0.192,0.104-0.332,0.164-0.42,0.18
				c-0.304,0-0.496-0.112-0.576-0.336c-0.112-0.12-0.208-0.496-0.288-1.128c0-0.016,0.004-0.024,0.012-0.024l-0.012-0.108
				c-0.016-0.36-0.024-0.56-0.024-0.6h0.024l-0.024-0.048l0.024-0.132c0-0.016-0.008-0.024-0.024-0.024
				c0-0.016,0.008-0.036,0.024-0.06l-0.048-0.672h0.024l-0.024-0.048V83.38c0-0.008,0.008-0.012,0.024-0.012l-0.024-0.048v-0.336
				c0-0.12,0.008-0.26,0.024-0.42c0-0.016-0.008-0.024-0.024-0.024l0.024-0.108V82.36c0-0.048-0.008-0.112-0.024-0.192
				c0.016-0.032,0.024-0.056,0.024-0.072c-0.016-0.024-0.024-0.052-0.024-0.084h0.024c0-0.016-0.008-0.024-0.024-0.024
				c0-0.016,0.008-0.04,0.024-0.072c-0.032-0.192-0.048-0.384-0.048-0.576v-0.132c0-0.016,0.008-0.024,0.024-0.024l-0.024-0.036
				v-0.024c0-0.032,0.008-0.064,0.024-0.096l-0.024-0.036c0.096-1.016,0.2-1.648,0.312-1.896
				C169.083,78.655,169.335,78.435,169.632,78.435z M168.959,79.323l0.024,0.048c-0.048,0.16-0.084,0.24-0.108,0.24l0.024,0.048
				c-0.064,0.392-0.108,0.604-0.132,0.636c0,0.016,0.008,0.024,0.024,0.024l-0.024,0.108v0.024l0.024,0.048
				c-0.032,0-0.056,0.068-0.072,0.204c0,0.008,0.008,0.012,0.024,0.012l-0.024,0.156v0.384c0,0.016-0.008,0.024-0.024,0.024
				l0.024,0.036v0.156l0.024,0.156h-0.024l0.024,0.048v0.156c0,0.056,0.008,0.124,0.024,0.204c-0.016,0.024-0.024,0.044-0.024,0.06
				c0.016,0,0.024,0.008,0.024,0.024l-0.048,0.024l0.024,0.048v0.324c0,0.016-0.008,0.024-0.024,0.024l0.024,0.048v0.156
				c0,0.016-0.008,0.024-0.024,0.024l0.024,0.036v0.384c0,0.016-0.008,0.024-0.024,0.024c0.008,0.056,0.024,0.084,0.048,0.084
				l-0.024,0.108v0.024c0,0.032,0.008,0.064,0.024,0.096l-0.024,0.036c0.016,0.08,0.024,0.148,0.024,0.204v0.024
				c0,0.017-0.008,0.024-0.024,0.024c0.016,0.032,0.032,0.096,0.048,0.192h-0.024c0,0.016,0.008,0.024,0.024,0.024l-0.024,0.084
				l0.024,0.12h-0.024c0,0.016,0.008,0.024,0.024,0.024l-0.024,0.108c0.016,0.024,0.024,0.044,0.024,0.06h-0.024l0.024,0.048
				c0,0.032-0.008,0.06-0.024,0.084c0,0.016,0.008,0.024,0.024,0.024l-0.024,0.156c0,0.424,0.044,0.876,0.132,1.356l-0.024,0.048
				c0.056,0.224,0.16,0.436,0.312,0.636l0.048-0.012c0.104,0.04,0.2,0.06,0.288,0.06c0.248-0.096,0.416-0.228,0.504-0.396
				c0.208-0.408,0.312-1.172,0.312-2.292v-0.132c0-0.016,0.008-0.024,0.024-0.024c0-0.008-0.008-0.012-0.024-0.012l0.024-0.12V83.32
				c0-0.032,0.008-0.064,0.024-0.096c-0.016-0.024-0.024-0.044-0.024-0.06h0.024l-0.024-0.048v-0.024
				c0-0.008,0.008-0.012,0.024-0.012l-0.024-0.048v-0.264c0-0.256-0.016-0.456-0.048-0.6h0.024c-0.016-0.04-0.044-0.328-0.084-0.864
				c0.008-0.032,0.012-0.056,0.012-0.072s-0.004-0.024-0.012-0.024l0.012-0.108v-0.228c0-0.008,0.008-0.012,0.024-0.012
				l-0.024-0.048v-0.024c0-0.16-0.02-0.316-0.06-0.468h0.024c-0.128-0.792-0.276-1.348-0.444-1.668
				c-0.112-0.008-0.188-0.02-0.228-0.036c-0.112,0-0.272,0.148-0.48,0.444C169.079,79.139,169.04,79.227,168.959,79.323z"/>
			
				<path style="fill:#FFFFFF;stroke:#FFFFFF;stroke-width:0.2662;stroke-linecap:round;stroke-linejoin:round;stroke-miterlimit:10;" d="
				M171.66,78.423c0.016,0.032,0.024,0.056,0.024,0.072c0.352,0,0.648,0.22,0.888,0.66c0.176,0.408,0.316,0.904,0.42,1.488
				c0,0.032-0.008,0.048-0.024,0.048l0.024,0.216v0.18c0,0.416-0.024,0.764-0.072,1.044c0,0.016,0.008,0.024,0.024,0.024
				c0,0.184-0.088,0.488-0.264,0.912c-0.256,0.368-0.488,0.552-0.696,0.552l-0.324,0.132v0.18c0,0.016-0.008,0.024-0.024,0.024
				l0.024,0.036v0.276c0,0.048,0.008,0.084,0.024,0.108l-0.024,0.132v0.108c0,0.048,0.008,0.088,0.024,0.12l-0.024,0.132
				c0,0.048,0.008,0.112,0.024,0.192l-0.024,0.048c0,0.016,0.008,0.024,0.024,0.024c-0.016,0.144-0.024,0.256-0.024,0.336v0.288
				c0,0.032-0.008,0.06-0.024,0.084c0.016,0.024,0.024,0.052,0.024,0.084v0.024c0,0.064-0.008,0.096-0.024,0.096l0.024,0.156v0.264
				l-0.024,0.132l0.024,0.048c-0.016,0.16-0.04,0.24-0.072,0.24c0-0.024-0.02-0.048-0.06-0.072l-0.048,0.024
				c0-0.056-0.008-0.084-0.024-0.084l0.024-0.108v-0.072c0-0.168,0.008-0.288,0.024-0.36c-0.016-0.136-0.024-0.276-0.024-0.42
				v-0.084c0.008-0.296,0.024-0.444,0.048-0.444l-0.024-0.108v-0.12c0-0.056,0.008-0.084,0.024-0.084l-0.024-0.156v-1.572
				c0-0.016,0.008-0.024,0.024-0.024c-0.016-0.032-0.024-0.056-0.024-0.072c0-0.04,0.008-0.06,0.024-0.06l-0.024-0.228v-0.324
				c0-0.016,0.008-0.024,0.024-0.024l-0.024-0.048V82.42c0-0.016,0.008-0.024,0.024-0.024l-0.024-0.036v-0.048
				c0-0.032,0.008-0.064,0.024-0.096l-0.024-0.036l0.024-0.048c-0.016-0.056-0.024-0.108-0.024-0.156l0.024-0.048
				c-0.016-0.024-0.024-0.052-0.024-0.084V81.76c0-0.016,0.008-0.024,0.024-0.024l-0.024-0.048v-0.552
				c0-0.152,0.008-0.376,0.024-0.672h0.012l-0.012-0.036v-0.732c0-0.04-0.008-0.072-0.024-0.096c0-0.016,0.008-0.024,0.024-0.024
				c0-0.016-0.008-0.088-0.024-0.216c0.016-0.384,0.036-0.592,0.06-0.624l-0.024-0.048v-0.108c0-0.016,0.008-0.024,0.024-0.024
				l-0.024-0.036C171.548,78.487,171.588,78.455,171.66,78.423z M171.696,78.663v0.024c0,0.184-0.012,0.357-0.036,0.516l0.024,0.048
				l-0.024,0.036c0.016,0.032,0.024,0.056,0.024,0.072l-0.024,0.048l0.024,0.036c0,0.016-0.008,0.024-0.024,0.024l0.024,0.108v0.468
				c0,0.016-0.008,0.024-0.024,0.024l0.024,0.048v0.324c0,0.016-0.008,0.024-0.024,0.024l0.024,0.048v0.084
				c0,0.016-0.008,0.024-0.024,0.024l0.024,0.048v0.072c0,0.032-0.008,0.06-0.024,0.084c0,0.016,0.008,0.024,0.024,0.024
				l-0.024,0.108v0.396c0,0.064,0.008,0.148,0.024,0.252c-0.016,0.024-0.024,0.044-0.024,0.06c0.016,0.096,0.024,0.192,0.024,0.288
				v0.072c0,0.016-0.008,0.024-0.024,0.024l0.024,0.036v0.156c0,0.056-0.008,0.096-0.024,0.12l0.024,0.132v0.24
				c0,0.032-0.008,0.06-0.024,0.084c0.016,0.032,0.024,0.056,0.024,0.072h-0.024l0.024,0.048v0.06c0,0.016-0.008,0.024-0.024,0.024
				l0.024,0.048c0,0.016-0.008,0.024-0.024,0.024l0.024,0.036l-0.024,0.132c0,0.016,0.008,0.024,0.024,0.024l-0.024,0.12v0.144
				h0.024c0.392-0.12,0.588-0.216,0.588-0.288c0.152-0.08,0.288-0.3,0.408-0.66c0.048-0.224,0.076-0.336,0.084-0.336
				c0-0.016-0.008-0.024-0.024-0.024l0.072-0.576c0-0.016-0.008-0.024-0.024-0.024c0.032-0.168,0.048-0.404,0.048-0.708
				l-0.024-0.048c0-0.008,0.008-0.012,0.024-0.012c-0.024-0.216-0.056-0.404-0.096-0.564h0.024c-0.04-0.096-0.092-0.296-0.156-0.6
				c-0.232-0.696-0.512-1.044-0.84-1.044H171.696z"/>
			
				<path style="fill:#FFFFFF;stroke:#FFFFFF;stroke-width:0.2662;stroke-linecap:round;stroke-linejoin:round;stroke-miterlimit:10;" d="
				M173.64,78.603h0.012l0.144,0.024l0.036-0.024c0.152,0.016,0.228,0.028,0.228,0.036c0.016,0,0.024-0.004,0.024-0.012
				c0.176,0.024,0.264,0.044,0.264,0.06l0.036-0.024h0.024c0.016,0,0.024,0.008,0.024,0.024l0.048-0.024h0.06
				c0.016,0,0.024,0.008,0.024,0.024c0.063-0.032,0.108-0.048,0.132-0.048c0.032,0.016,0.056,0.024,0.072,0.024l0.048-0.024
				l0.108,0.024c0.008,0,0.036-0.008,0.084-0.024c0.016,0,0.024,0.008,0.024,0.024l0.108-0.024h0.18
				c0.032,0,0.064,0.008,0.096,0.024c0.024-0.016,0.052-0.024,0.084-0.024c0.032,0,0.06,0.008,0.084,0.024l0.048-0.024
				c0.136,0.04,0.204,0.08,0.204,0.12c-0.04,0.072-0.108,0.108-0.204,0.108c0-0.032-0.016-0.048-0.048-0.048
				c-0.04,0-0.06,0.008-0.06,0.024l-0.108-0.024h-0.492l-0.108,0.024c0-0.016-0.008-0.024-0.024-0.024
				c-0.032,0.08-0.048,0.252-0.048,0.516v0.18c0.048,0.056,0.072,0.144,0.072,0.264h-0.024c0.016,0.104,0.028,0.156,0.036,0.156
				l-0.012,0.108c0,0.064,0.004,0.144,0.012,0.24l-0.012,0.048l0.012,0.132v0.132c0,0.016-0.004,0.024-0.012,0.024
				c0.024,0.032,0.044,0.18,0.06,0.444c-0.016,0.032-0.024,0.056-0.024,0.072c0.016,0.024,0.024,0.052,0.024,0.084h-0.024
				l0.024,0.048v0.024c0,0.008-0.008,0.012-0.024,0.012l0.024,0.048c0,0.016-0.008,0.024-0.024,0.024l0.024,0.048
				c0,0.016-0.008,0.024-0.024,0.024l0.024,0.036c0,0.016-0.008,0.024-0.024,0.024l0.024,0.048c0,0.016-0.008,0.024-0.024,0.024
				c0,0.008,0.008,0.012,0.024,0.012l-0.024,0.156v0.024l0.024,0.228h-0.024l0.024,0.036c-0.04,0.408-0.06,0.692-0.06,0.852v0.156
				l0.012,0.264h-0.012c0,0.016,0.004,0.024,0.012,0.024c-0.008,0.128-0.012,0.2-0.012,0.216c0.008,0.872,0.012,1.42,0.012,1.644
				l0.024,0.048l-0.024,0.048c0,0.016,0.008,0.036,0.024,0.06l-0.024,0.108c0.016,0.088,0.024,0.148,0.024,0.18h-0.024l0.024,0.048
				c0,0.016-0.008,0.024-0.024,0.024c0,0.016,0.008,0.024,0.024,0.024l-0.036,0.888c0.008,0.04,0.012,0.128,0.012,0.264
				c-0.008,0-0.032,0-0.072,0c-0.04,0-0.06-0.036-0.06-0.108c0-0.032-0.004-0.048-0.012-0.048l0.012-0.156v-0.288l-0.012-0.156
				h0.012l-0.012-0.048V85.9c0-0.008,0.004-0.012,0.012-0.012c0-0.016-0.004-0.024-0.012-0.024l0.012-0.12
				c0-0.04-0.004-0.06-0.012-0.06l0.012-0.108v-0.288c0-0.24-0.012-0.396-0.036-0.468l0.024-0.048l-0.024-0.132v-0.024
				c0-0.016,0.008-0.024,0.024-0.024l-0.024-0.036v-0.54l0.024-0.132c-0.032-0.056-0.048-0.108-0.048-0.156h0.024
				c0-0.016-0.008-0.025-0.024-0.025c0.016-0.776,0.036-1.42,0.06-1.932v-0.288c0-0.016,0.008-0.024,0.024-0.024l-0.024-0.036v-0.42
				l-0.012-0.12h0.012l-0.012-0.036v-0.12c0-0.032,0.004-0.06,0.012-0.084c0-0.016-0.004-0.024-0.012-0.024
				c0-0.016,0.004-0.036,0.012-0.06c0-0.04-0.012-0.144-0.036-0.312h0.024l-0.048-0.18l0.024-0.108
				c-0.032-0.36-0.056-0.74-0.072-1.14c-0.024,0-0.112,0.008-0.264,0.024c-0.328-0.024-0.492-0.044-0.492-0.06l-0.036,0.012
				c-0.152-0.024-0.228-0.052-0.228-0.084v-0.048C173.568,78.647,173.592,78.627,173.64,78.603z"/>
			
				<path style="fill:#FFFFFF;stroke:#FFFFFF;stroke-width:0.2662;stroke-linecap:round;stroke-linejoin:round;stroke-miterlimit:10;" d="
				M176.929,78.747c0,0.016,0.004,0.024,0.012,0.024l-0.012,0.264v0.132c0,0.497-0.024,0.917-0.072,1.26
				c0.008,0.048,0.014,0.098,0.018,0.15c0.004,0.052,0.006,0.106,0.006,0.162v0.024c0,0.016-0.008,0.024-0.024,0.024l0.024,0.048
				v0.732l0.024,0.132c0,0.016-0.008,0.024-0.024,0.024l0.024,0.156v0.24c0,0.016-0.008,0.024-0.024,0.024l0.024,0.048v0.144
				c0,0.016-0.008,0.024-0.024,0.024l0.024,0.048v0.24l0.024,0.156h-0.024l0.024,0.048c0,0.016-0.008,0.024-0.024,0.024l0.024,0.048
				v0.132c0,0.024-0.002,0.052-0.006,0.084c-0.004,0.032-0.01,0.068-0.018,0.108c0,0.016,0.008,0.024,0.024,0.024l-0.024,0.108
				c0,0.048,0.008,0.088,0.024,0.12c-0.008,0.048-0.014,0.092-0.018,0.132c-0.004,0.04-0.006,0.076-0.006,0.108v0.336
				c0,0.024,0.008,0.052,0.024,0.084c-0.016,0.032-0.024,0.064-0.024,0.096v0.264c0,0.024,0.008,0.052,0.024,0.084l-0.024,0.048
				c0.008,0.04,0.014,0.07,0.018,0.09c0.004,0.02,0.006,0.034,0.006,0.042l-0.024,0.084c0.016,0.032,0.024,0.072,0.024,0.12h-0.024
				l0.024,0.036v0.024l-0.048,0.156c0.032,0.008,0.048,0.024,0.048,0.048v0.24c0,0.016-0.008,0.024-0.024,0.024l0.024,0.048v0.024
				c0,0.008-0.008,0.012-0.024,0.012l0.036,0.276l-0.012,0.036c0.008,0.248,0.02,0.384,0.036,0.408
				c-0.016,0.032-0.024,0.052-0.024,0.06c0.008,0.136,0.014,0.242,0.018,0.318c0.004,0.076,0.006,0.126,0.006,0.15l-0.024,0.048
				c0.008,0.016-0.036,0.008-0.132-0.024V86.56c0-0.032-0.002-0.068-0.006-0.108c-0.004-0.04-0.01-0.084-0.018-0.132
				c0-0.016,0.008-0.024,0.024-0.024c-0.024-0.248-0.036-0.508-0.036-0.78l0.012-0.132c-0.008-0.04-0.012-0.078-0.012-0.114
				c0-0.036,0-0.074,0-0.114V84.94l-0.024-0.108h0.024l-0.024-0.048V84.76c0-0.04,0.008-0.06,0.024-0.06l-0.024-0.12v-0.924
				c0-0.032,0.008-0.064,0.024-0.096c-0.016-0.032-0.024-0.052-0.024-0.06h0.024l-0.024-0.048v-0.024
				c0-0.016,0.008-0.024,0.024-0.024l-0.024-0.036c0.008-0.064,0.014-0.12,0.018-0.168c0.004-0.048,0.006-0.088,0.006-0.12
				l-0.024-0.072l0.024-0.048c-0.016-0.256-0.028-0.458-0.036-0.606c-0.008-0.148-0.012-0.242-0.012-0.282
				c0.016-0.088,0.032-0.132,0.048-0.132c-0.04-0.048-0.064-0.256-0.072-0.624c0.008-0.04,0.014-0.076,0.018-0.108
				c0.004-0.032,0.006-0.06,0.006-0.084v-1.116c0-0.016,0.008-0.024,0.024-0.024c0-0.008-0.008-0.012-0.024-0.012l0.024-0.12
				c0-0.016-0.008-0.024-0.024-0.024l0.024-0.108v-0.192c0-0.016,0.008-0.024,0.024-0.024c-0.016-0.528,0.008-0.792,0.072-0.792
				C176.909,78.631,176.936,78.643,176.929,78.747z"/>
			
				<path style="fill:#FFFFFF;stroke:#FFFFFF;stroke-width:0.2662;stroke-linecap:round;stroke-linejoin:round;stroke-miterlimit:10;" d="
				M177.913,78.699c0.064,0,0.116,0.096,0.156,0.288c0.04,0.04,0.132,0.256,0.276,0.648c0.2,0.32,0.3,0.532,0.3,0.636v0.072
				c0.064,0,0.096,0.044,0.096,0.132h0.048c0.136-0.12,0.392-0.636,0.768-1.548c0.04-0.136,0.085-0.212,0.132-0.228h0.048
				c0.072,0.064,0.108,0.14,0.108,0.228c-0.024,0-0.036,0.012-0.036,0.036v0.096c0,0.184-0.024,0.532-0.072,1.044
				c0.016,0.096,0.024,0.176,0.024,0.24h-0.024l0.024,0.048c0,0.017-0.008,0.025-0.024,0.025l0.048,0.528
				c-0.016,0.056-0.032,0.084-0.048,0.084c0.016,0.032,0.024,0.056,0.024,0.072c0,0.048-0.008,0.1-0.024,0.156l0.024,0.108
				c-0.016,0.2-0.024,0.364-0.024,0.492c0,0.016,0.008,0.036,0.024,0.06l-0.024,0.048c0.016,0.104,0.024,0.192,0.024,0.264
				l-0.024,0.096c0,0.008,0.008,0.012,0.024,0.012l-0.024,0.12v0.288c0,0.016-0.008,0.024-0.024,0.024l0.024,0.036v0.072
				c0,0.016-0.008,0.024-0.024,0.024c0.016,0.024,0.024,0.044,0.024,0.06l-0.024,0.048c0.032,0.072,0.048,0.124,0.048,0.156
				c-0.016,0.08-0.024,0.148-0.024,0.204l0.024,0.084c0,0.016-0.008,0.024-0.024,0.024l0.024,0.108v0.24
				c0,0.04,0.008,0.072,0.024,0.096l-0.024,0.048c0.016,0.544,0.04,0.928,0.072,1.152h-0.024l0.024,0.036v0.468l0.012,0.228h-0.012
				l0.012,0.036v0.156c0,0.016-0.004,0.024-0.012,0.024l0.036,0.096c0,0.016-0.008,0.036-0.024,0.06
				c0.032,0.296,0.048,0.496,0.048,0.6l-0.06,0.048h-0.024c-0.064,0-0.096-0.096-0.096-0.288h0.024c0-0.016-0.008-0.024-0.024-0.024
				l-0.036-1.2h0.012c-0.008-0.024-0.012-0.044-0.012-0.06c0-0.32-0.016-0.544-0.048-0.672c0.016-0.032,0.024-0.056,0.024-0.072
				c0-0.008-0.008-0.028-0.024-0.06l0.024-0.084c-0.016-0.264-0.032-0.4-0.048-0.408c0.016-0.024,0.024-0.052,0.024-0.084
				c0-0.04-0.008-0.1-0.024-0.18l0.024-0.156c-0.016-0.08-0.024-0.14-0.024-0.18c0-0.016,0.008-0.024,0.024-0.024l-0.024-0.108
				v-1.044c0-0.016,0.008-0.024,0.024-0.024l-0.024-0.036c0-0.016,0.008-0.024,0.024-0.024l-0.024-0.048v-0.084
				c0-0.048,0.008-0.072,0.024-0.072l-0.024-0.108v-0.468c0-0.032,0.008-0.06,0.024-0.084c-0.016-0.032-0.024-0.064-0.024-0.096
				h0.024l-0.024-0.036v-0.096c0-0.016,0.008-0.024,0.024-0.024l-0.024-0.036l0.024-0.048c-0.016-0.024-0.024-0.052-0.024-0.084
				h0.024l-0.024-0.048v-0.072c0-0.12-0.008-0.216-0.024-0.288c0.016-0.088,0.024-0.192,0.024-0.312v-0.06
				c0-0.032,0.008-0.064,0.024-0.096l-0.024-0.036l0.024-0.12l-0.024-0.108c0.032-0.168,0.048-0.344,0.048-0.528v-0.024h-0.024
				c-0.12,0.312-0.24,0.564-0.36,0.756c0,0.16-0.156,0.44-0.468,0.84h-0.036c-0.048-0.056-0.152-0.264-0.312-0.624
				c-0.28-0.608-0.436-0.932-0.468-0.972h-0.024l0.024,0.048v0.264c0,0.016-0.008,0.024-0.024,0.024
				c0.016,0.024,0.024,0.044,0.024,0.06l0.024,0.36l-0.024,0.048l0.024,0.036c0,0.016-0.008,0.024-0.024,0.024l0.024,0.108v0.156
				c0,0.016,0.008,0.024,0.024,0.024c-0.016,0.16-0.032,0.24-0.048,0.24c0.016,0.032,0.024,0.056,0.024,0.072l-0.024,0.048
				c0,0.016,0.008,0.024,0.024,0.024l-0.024,0.156v0.444c0,0.032,0.008,0.06,0.024,0.084l-0.024,0.048
				c0.016,0.272,0.032,0.412,0.048,0.42c-0.016,0.128-0.024,0.232-0.024,0.312v0.372c0,0.016-0.008,0.024-0.024,0.024l0.024,0.048
				v0.06c0,0.032-0.008,0.064-0.024,0.096c0.016,0.024,0.024,0.052,0.024,0.084v0.072l-0.024,0.036l0.048,0.024
				c0,0.016-0.008,0.04-0.024,0.072c0.008,0.112,0.024,0.168,0.048,0.168l-0.024,0.12v0.06l0.024,0.132
				c0,0.016-0.008,0.024-0.024,0.024l0.024,0.156v0.132c0,0.016-0.008,0.024-0.024,0.024l0.036,0.132l-0.012,0.108
				c0,0.096,0.012,0.24,0.036,0.432c0,0.008-0.008,0.012-0.024,0.012l0.024,0.12v0.312c0,0.032,0.008,0.06,0.024,0.084
				c0,0.017-0.008,0.024-0.024,0.024c0.048,0.192,0.072,0.472,0.072,0.84h-0.024c0.032,0.064,0.048,0.116,0.048,0.156h-0.024
				l0.024,0.048c0,0.096,0.012,0.376,0.036,0.84l-0.036,0.024h-0.024c-0.056,0-0.092-0.096-0.108-0.288l0.012-0.048
				c-0.016-0.136-0.028-0.224-0.036-0.264c0-0.016,0.008-0.024,0.024-0.024l-0.024-0.108V86.2c-0.032-0.88-0.064-1.432-0.096-1.656
				h0.024l-0.024-0.048v-0.18c0-0.032-0.008-0.06-0.024-0.084c0.016-0.032,0.024-0.056,0.024-0.072l-0.024-0.156h0.024l-0.036-0.216
				l0.012-0.048c-0.008-0.032-0.012-0.056-0.012-0.072h0.012l-0.012-0.036v-0.408l-0.024-0.144h0.024l-0.024-0.048V82.9
				c0-0.104-0.008-0.164-0.024-0.18c0.016-0.104,0.024-0.184,0.024-0.24v-0.588c0-0.032,0.008-0.06,0.024-0.084l-0.024-0.048
				c-0.016-0.456-0.024-0.752-0.024-0.888c0-0.12,0.016-0.296,0.048-0.528l-0.072-1.152h0.024l-0.024-0.048v-0.048
				c0-0.048,0.008-0.112,0.024-0.192l-0.024-0.048C177.836,78.752,177.865,78.699,177.913,78.699z"/>
			
				<path style="fill:#FFFFFF;stroke:#FFFFFF;stroke-width:0.2662;stroke-linecap:round;stroke-linejoin:round;stroke-miterlimit:10;" d="
				M181.153,78.747c0,0.016,0.004,0.024,0.012,0.024l-0.012,0.264v0.132c0,0.497-0.024,0.917-0.072,1.26
				c0.008,0.048,0.014,0.098,0.018,0.15c0.004,0.052,0.006,0.106,0.006,0.162v0.024c0,0.016-0.008,0.024-0.024,0.024l0.024,0.048
				v0.732l0.024,0.132c0,0.016-0.008,0.024-0.024,0.024l0.024,0.156v0.24c0,0.016-0.008,0.024-0.024,0.024l0.024,0.048v0.144
				c0,0.016-0.008,0.024-0.024,0.024l0.024,0.048v0.24l0.024,0.156h-0.024l0.024,0.048c0,0.016-0.008,0.024-0.024,0.024l0.024,0.048
				v0.132c0,0.024-0.002,0.052-0.006,0.084c-0.004,0.032-0.01,0.068-0.018,0.108c0,0.016,0.008,0.024,0.024,0.024l-0.024,0.108
				c0,0.048,0.008,0.088,0.024,0.12c-0.008,0.048-0.014,0.092-0.018,0.132c-0.004,0.04-0.006,0.076-0.006,0.108v0.336
				c0,0.024,0.008,0.052,0.024,0.084c-0.016,0.032-0.024,0.064-0.024,0.096v0.264c0,0.024,0.008,0.052,0.024,0.084l-0.024,0.048
				c0.008,0.04,0.014,0.07,0.018,0.09c0.004,0.02,0.006,0.034,0.006,0.042l-0.024,0.084c0.016,0.032,0.024,0.072,0.024,0.12h-0.024
				l0.024,0.036v0.024l-0.048,0.156c0.032,0.008,0.048,0.024,0.048,0.048v0.24c0,0.016-0.008,0.024-0.024,0.024l0.024,0.048v0.024
				c0,0.008-0.008,0.012-0.024,0.012l0.036,0.276l-0.012,0.036c0.008,0.248,0.02,0.384,0.036,0.408
				c-0.016,0.032-0.024,0.052-0.024,0.06c0.008,0.136,0.014,0.242,0.018,0.318c0.004,0.076,0.006,0.126,0.006,0.15l-0.024,0.048
				c0.008,0.016-0.036,0.008-0.132-0.024V86.56c0-0.032-0.002-0.068-0.006-0.108c-0.004-0.04-0.01-0.084-0.018-0.132
				c0-0.016,0.008-0.024,0.024-0.024c-0.024-0.248-0.036-0.508-0.036-0.78l0.012-0.132c-0.008-0.04-0.012-0.078-0.012-0.114
				c0-0.036,0-0.074,0-0.114V84.94l-0.024-0.108h0.024l-0.024-0.048V84.76c0-0.04,0.008-0.06,0.024-0.06l-0.024-0.12v-0.924
				c0-0.032,0.008-0.064,0.024-0.096c-0.016-0.032-0.024-0.052-0.024-0.06h0.024l-0.024-0.048v-0.024
				c0-0.016,0.008-0.024,0.024-0.024l-0.024-0.036c0.008-0.064,0.014-0.12,0.018-0.168c0.004-0.048,0.006-0.088,0.006-0.12
				l-0.024-0.072l0.024-0.048c-0.016-0.256-0.028-0.458-0.036-0.606c-0.008-0.148-0.012-0.242-0.012-0.282
				c0.016-0.088,0.032-0.132,0.048-0.132c-0.04-0.048-0.064-0.256-0.072-0.624c0.008-0.04,0.014-0.076,0.018-0.108
				c0.004-0.032,0.006-0.06,0.006-0.084v-1.116c0-0.016,0.008-0.024,0.024-0.024c0-0.008-0.008-0.012-0.024-0.012l0.024-0.12
				c0-0.016-0.008-0.024-0.024-0.024l0.024-0.108v-0.192c0-0.016,0.008-0.024,0.024-0.024c-0.016-0.528,0.008-0.792,0.072-0.792
				C181.133,78.631,181.161,78.643,181.153,78.747z"/>
			
				<path style="fill:#FFFFFF;stroke:#FFFFFF;stroke-width:0.2662;stroke-linecap:round;stroke-linejoin:round;stroke-miterlimit:10;" d="
				M182.125,78.627c0.12,0.032,0.252,0.048,0.396,0.048c0.032,0,0.092-0.008,0.18-0.024c0.144,0.016,0.216,0.032,0.216,0.048
				l0.048-0.024h0.78c0.024,0,0.036,0.02,0.036,0.06c-0.016,0.032-0.024,0.056-0.024,0.072c0.032,0.016,0.056,0.024,0.072,0.024
				c-0.144,0.672-0.292,1.508-0.444,2.508c-0.312,1.528-0.504,2.533-0.576,3.013c-0.28,1-0.456,1.676-0.528,2.028
				c0,0.016,0.004,0.024,0.012,0.024c-0.016,0.136-0.036,0.224-0.06,0.264c0.016,0,0.024,0.008,0.024,0.024l0.036-0.024
				c0.12,0.04,0.432,0.06,0.936,0.06h0.648c0.088,0.016,0.132,0.04,0.132,0.072v0.048l-0.096,0.084
				c-0.152-0.016-0.248-0.032-0.288-0.048l-0.036,0.024l-0.048-0.024l-0.108,0.024v-0.024l-0.048,0.024h-0.156
				c-0.032,0-0.06-0.008-0.084-0.024c-0.032,0.016-0.064,0.024-0.096,0.024c-0.016,0-0.036-0.008-0.06-0.024
				c-0.016,0-0.024,0.008-0.024,0.024l-0.108-0.024l-0.756-0.024c-0.016-0.024-0.032-0.088-0.048-0.192
				c0.024-0.056,0.06-0.264,0.108-0.625l0.312-0.972c0-0.016,0.008-0.024,0.024-0.024c0-0.016-0.008-0.024-0.024-0.024
				c0.208-0.92,0.312-1.44,0.312-1.56l0.384-1.813c0.024-0.168,0.044-0.252,0.06-0.252c0-0.016-0.008-0.024-0.024-0.024
				c0.032-0.16,0.064-0.248,0.096-0.264l-0.024-0.036c0.072-0.344,0.176-1.004,0.312-1.98c0.04-0.08,0.06-0.16,0.06-0.24v-0.024
				h-0.336c-0.008,0-0.012-0.008-0.012-0.024c-0.016,0-0.024,0.008-0.024,0.024c-0.016,0-0.06-0.008-0.132-0.024
				c-0.024,0-0.128,0.008-0.312,0.024c-0.136-0.032-0.22-0.048-0.253-0.048l-0.084,0.024c-0.024-0.016-0.052-0.024-0.084-0.024
				c-0.032,0.016-0.056,0.024-0.072,0.024v-0.024c-0.032,0.016-0.052,0.024-0.06,0.024c-0.152-0.016-0.228-0.048-0.228-0.096v-0.012
				C182.053,78.683,182.077,78.659,182.125,78.627z"/>
			
				<path style="fill:#FFFFFF;stroke:#FFFFFF;stroke-width:0.2662;stroke-linecap:round;stroke-linejoin:round;stroke-miterlimit:10;" d="
				M185.954,78.627l0.084,0.156c0,0.104,0.024,0.268,0.072,0.492v0.204c0,0.032,0.008,0.065,0.024,0.096l-0.024,0.036
				c0.016,0.032,0.024,0.056,0.024,0.072c0,0.032-0.008,0.048-0.024,0.048c0.096,0.944,0.196,1.792,0.3,2.544
				c0,0.017-0.008,0.024-0.024,0.024c0.144,0.992,0.216,1.556,0.216,1.692h-0.024l0.432,2.641c-0.016,0.104-0.036,0.156-0.06,0.156
				h-0.024c-0.056,0-0.12-0.292-0.192-0.876l-0.204-1.176h0.024l-0.024-0.048c0-0.016,0.008-0.024,0.024-0.024
				c-0.016-0.152-0.064-0.408-0.144-0.768c0.016-0.032,0.024-0.056,0.024-0.072c-0.016-0.168-0.041-0.296-0.072-0.384
				c0-0.016,0.008-0.024,0.024-0.024l-0.084-0.625h-0.168c-0.232,0-0.432,0.02-0.6,0.06v0.024c-0.08,1.017-0.164,1.705-0.252,2.064
				l0.024,0.048c-0.072,0.4-0.12,0.6-0.144,0.6l0.024,0.048c-0.008,0.2-0.032,0.3-0.072,0.3l0.024,0.048
				c-0.016,0.32-0.04,0.512-0.072,0.576l0.024,0.096c-0.024,0.152-0.052,0.228-0.084,0.228h-0.024c-0.024,0-0.048-0.024-0.072-0.072
				v-0.18c0-0.016,0.008-0.024,0.024-0.024c0-0.016-0.008-0.024-0.024-0.024l0.144-0.816l-0.024-0.036
				c0.04-0.2,0.076-0.416,0.108-0.648h0.024l-0.024-0.048c0.08-0.448,0.164-1.08,0.252-1.896c0-0.016-0.004-0.024-0.012-0.024
				c0.008-0.248,0.028-0.372,0.06-0.372l-0.024-0.048l0.024-0.048c0-0.016-0.008-0.024-0.024-0.024l0.024-0.228v-0.168
				c0-0.016,0.008-0.024,0.024-0.024l-0.024-0.036v-0.024c0-0.016,0.008-0.024,0.024-0.024c0-0.016-0.008-0.024-0.024-0.024
				c0.024-0.296,0.048-0.444,0.072-0.444c0-0.016-0.008-0.024-0.024-0.024c0.048-0.448,0.088-0.724,0.12-0.828
				c0-0.016-0.008-0.024-0.024-0.024c0.048-0.368,0.092-0.652,0.132-0.852l-0.012-0.048c0-0.048,0.012-0.112,0.036-0.192
				c0-0.016-0.008-0.024-0.024-0.024c0.064-0.68,0.12-1.02,0.168-1.02C185.913,78.631,185.938,78.627,185.954,78.627z
				 M185.858,79.551l0.024,0.048c-0.064,0.496-0.112,0.804-0.144,0.924c0,0.016,0.008,0.024,0.024,0.024
				c-0.032,0.216-0.052,0.324-0.06,0.324l0.012,0.036c-0.016,0.312-0.036,0.468-0.06,0.468c0,0.016,0.008,0.024,0.024,0.024
				c-0.016,0.104-0.032,0.156-0.048,0.156c0,0.016,0.008,0.024,0.024,0.024c-0.032,0.24-0.064,0.612-0.096,1.116
				c0.12-0.048,0.252-0.072,0.396-0.072h0.3l0.048-0.024l-0.072-0.396l0.024-0.084c-0.032-0.072-0.08-0.328-0.144-0.768
				c0.016-0.024,0.024-0.056,0.024-0.096l-0.048-0.06v-0.192c0-0.056-0.02-0.24-0.06-0.552h0.012
				c-0.056-0.271-0.084-0.66-0.084-1.164C185.93,79.287,185.898,79.376,185.858,79.551z"/>
			
				<path style="fill:#FFFFFF;stroke:#FFFFFF;stroke-width:0.2662;stroke-linecap:round;stroke-linejoin:round;stroke-miterlimit:10;" d="
				M187.634,78.603h0.012l0.144,0.024l0.036-0.024c0.152,0.016,0.228,0.028,0.228,0.036c0.016,0,0.024-0.004,0.024-0.012
				c0.176,0.024,0.264,0.044,0.264,0.06l0.036-0.024h0.024c0.016,0,0.024,0.008,0.024,0.024l0.048-0.024h0.06
				c0.016,0,0.025,0.008,0.025,0.024c0.063-0.032,0.108-0.048,0.132-0.048c0.032,0.016,0.056,0.024,0.072,0.024l0.048-0.024
				l0.108,0.024c0.008,0,0.036-0.008,0.084-0.024c0.016,0,0.024,0.008,0.024,0.024l0.108-0.024h0.18
				c0.032,0,0.064,0.008,0.096,0.024c0.024-0.016,0.052-0.024,0.084-0.024c0.032,0,0.06,0.008,0.084,0.024l0.048-0.024
				c0.136,0.04,0.204,0.08,0.204,0.12c-0.04,0.072-0.108,0.108-0.204,0.108c0-0.032-0.016-0.048-0.048-0.048
				c-0.04,0-0.06,0.008-0.06,0.024l-0.108-0.024h-0.492l-0.108,0.024c0-0.016-0.008-0.024-0.024-0.024
				c-0.032,0.08-0.048,0.252-0.048,0.516v0.18c0.048,0.056,0.072,0.144,0.072,0.264h-0.024c0.016,0.104,0.028,0.156,0.036,0.156
				l-0.012,0.108c0,0.064,0.004,0.144,0.012,0.24l-0.012,0.048l0.012,0.132v0.132c0,0.016-0.004,0.024-0.012,0.024
				c0.024,0.032,0.044,0.18,0.06,0.444c-0.016,0.032-0.024,0.056-0.024,0.072c0.016,0.024,0.024,0.052,0.024,0.084h-0.024
				l0.024,0.048v0.024c0,0.008-0.008,0.012-0.024,0.012l0.024,0.048c0,0.016-0.008,0.024-0.024,0.024l0.024,0.048
				c0,0.016-0.008,0.024-0.024,0.024l0.024,0.036c0,0.016-0.008,0.024-0.024,0.024l0.024,0.048c0,0.016-0.008,0.024-0.024,0.024
				c0,0.008,0.008,0.012,0.024,0.012l-0.024,0.156v0.024l0.024,0.228h-0.024l0.024,0.036c-0.041,0.408-0.06,0.692-0.06,0.852v0.156
				l0.012,0.264h-0.012c0,0.016,0.004,0.024,0.012,0.024c-0.008,0.128-0.012,0.2-0.012,0.216c0.008,0.872,0.012,1.42,0.012,1.644
				l0.024,0.048l-0.024,0.048c0,0.016,0.008,0.036,0.024,0.06l-0.024,0.108c0.016,0.088,0.024,0.148,0.024,0.18h-0.024l0.024,0.048
				c0,0.016-0.008,0.024-0.024,0.024c0,0.016,0.008,0.024,0.024,0.024l-0.036,0.888c0.008,0.04,0.012,0.128,0.012,0.264
				c-0.008,0-0.032,0-0.072,0c-0.04,0-0.06-0.036-0.06-0.108c0-0.032-0.004-0.048-0.012-0.048l0.012-0.156v-0.288l-0.012-0.156
				h0.012l-0.012-0.048V85.9c0-0.008,0.004-0.012,0.012-0.012c0-0.016-0.004-0.024-0.012-0.024l0.012-0.12
				c0-0.04-0.004-0.06-0.012-0.06l0.012-0.108v-0.288c0-0.24-0.012-0.396-0.036-0.468l0.024-0.048l-0.024-0.132v-0.024
				c0-0.016,0.008-0.024,0.024-0.024l-0.024-0.036v-0.54l0.024-0.132c-0.032-0.056-0.048-0.108-0.048-0.156h0.024
				c0-0.016-0.008-0.025-0.024-0.025c0.016-0.776,0.036-1.42,0.06-1.932v-0.288c0-0.016,0.008-0.024,0.024-0.024l-0.024-0.036v-0.42
				l-0.012-0.12h0.012l-0.012-0.036v-0.12c0-0.032,0.004-0.06,0.012-0.084c0-0.016-0.004-0.024-0.012-0.024
				c0-0.016,0.004-0.036,0.012-0.06c0-0.04-0.012-0.144-0.036-0.312h0.024l-0.048-0.18l0.024-0.108
				c-0.032-0.36-0.056-0.74-0.072-1.14c-0.024,0-0.112,0.008-0.264,0.024c-0.328-0.024-0.492-0.044-0.492-0.06l-0.036,0.012
				c-0.152-0.024-0.228-0.052-0.228-0.084v-0.048C187.561,78.647,187.586,78.627,187.634,78.603z"/>
			
				<path style="fill:#FFFFFF;stroke:#FFFFFF;stroke-width:0.2662;stroke-linecap:round;stroke-linejoin:round;stroke-miterlimit:10;" d="
				M190.922,78.747c0,0.016,0.004,0.024,0.012,0.024l-0.012,0.264v0.132c0,0.497-0.024,0.917-0.072,1.26
				c0.008,0.048,0.014,0.098,0.018,0.15c0.004,0.052,0.006,0.106,0.006,0.162v0.024c0,0.016-0.008,0.024-0.024,0.024l0.024,0.048
				v0.732l0.024,0.132c0,0.016-0.008,0.024-0.024,0.024l0.024,0.156v0.24c0,0.016-0.008,0.024-0.024,0.024l0.024,0.048v0.144
				c0,0.016-0.008,0.024-0.024,0.024l0.024,0.048v0.24l0.024,0.156h-0.024l0.024,0.048c0,0.016-0.008,0.024-0.024,0.024l0.024,0.048
				v0.132c0,0.024-0.002,0.052-0.006,0.084c-0.004,0.032-0.01,0.068-0.018,0.108c0,0.016,0.008,0.024,0.024,0.024l-0.024,0.108
				c0,0.048,0.008,0.088,0.024,0.12c-0.008,0.048-0.014,0.092-0.018,0.132c-0.004,0.04-0.006,0.076-0.006,0.108v0.336
				c0,0.024,0.008,0.052,0.024,0.084c-0.016,0.032-0.024,0.064-0.024,0.096v0.264c0,0.024,0.008,0.052,0.024,0.084l-0.024,0.048
				c0.008,0.04,0.014,0.07,0.018,0.09c0.004,0.02,0.006,0.034,0.006,0.042l-0.024,0.084c0.016,0.032,0.024,0.072,0.024,0.12h-0.024
				l0.024,0.036v0.024l-0.048,0.156c0.032,0.008,0.048,0.024,0.048,0.048v0.24c0,0.016-0.008,0.024-0.024,0.024l0.024,0.048v0.024
				c0,0.008-0.008,0.012-0.024,0.012l0.036,0.276l-0.012,0.036c0.008,0.248,0.02,0.384,0.036,0.408
				c-0.016,0.032-0.024,0.052-0.024,0.06c0.008,0.136,0.014,0.242,0.018,0.318c0.004,0.076,0.006,0.126,0.006,0.15l-0.024,0.048
				c0.008,0.016-0.036,0.008-0.132-0.024V86.56c0-0.032-0.002-0.068-0.006-0.108c-0.004-0.04-0.01-0.084-0.018-0.132
				c0-0.016,0.008-0.024,0.024-0.024c-0.024-0.248-0.036-0.508-0.036-0.78l0.012-0.132c-0.008-0.04-0.012-0.078-0.012-0.114
				c0-0.036,0-0.074,0-0.114V84.94l-0.024-0.108h0.024l-0.024-0.048V84.76c0-0.04,0.008-0.06,0.024-0.06l-0.024-0.12v-0.924
				c0-0.032,0.008-0.064,0.024-0.096c-0.016-0.032-0.024-0.052-0.024-0.06h0.024l-0.024-0.048v-0.024
				c0-0.016,0.008-0.024,0.024-0.024l-0.024-0.036c0.008-0.064,0.014-0.12,0.018-0.168c0.004-0.048,0.006-0.088,0.006-0.12
				l-0.024-0.072l0.024-0.048c-0.016-0.256-0.028-0.458-0.036-0.606c-0.008-0.148-0.012-0.242-0.012-0.282
				c0.016-0.088,0.032-0.132,0.048-0.132c-0.04-0.048-0.064-0.256-0.072-0.624c0.008-0.04,0.014-0.076,0.018-0.108
				c0.004-0.032,0.006-0.06,0.006-0.084v-1.116c0-0.016,0.008-0.024,0.024-0.024c0-0.008-0.008-0.012-0.024-0.012l0.024-0.12
				c0-0.016-0.008-0.024-0.024-0.024l0.024-0.108v-0.192c0-0.016,0.008-0.024,0.024-0.024c-0.016-0.528,0.008-0.792,0.072-0.792
				C190.902,78.631,190.93,78.643,190.922,78.747z"/>
			
				<path style="fill:#FFFFFF;stroke:#FFFFFF;stroke-width:0.2662;stroke-linecap:round;stroke-linejoin:round;stroke-miterlimit:10;" d="
				M192.891,78.435c0.328,0,0.58,0.62,0.756,1.86h-0.024c0.024,0.056,0.052,0.332,0.084,0.828h-0.024
				c0,0.016,0.008,0.024,0.024,0.024c-0.016,0.152-0.028,0.248-0.036,0.288l0.036,0.084c0,0.016-0.008,0.024-0.024,0.024
				l0.072,0.348h-0.024l0.024,0.048c0,0.016-0.008,0.024-0.024,0.024l0.024,0.108v0.132l-0.024,0.048
				c0.032,0.008,0.048,0.024,0.048,0.048c-0.016,0.08-0.024,0.124-0.024,0.132l0.024,0.084c-0.016,0.032-0.024,0.056-0.024,0.072
				c0.016,0.024,0.024,0.044,0.024,0.06c0,0.016-0.008,0.024-0.024,0.024l0.024,0.156v0.108c0,0.016-0.008,0.024-0.024,0.024
				l0.024,0.048c0,0.016-0.008,0.024-0.024,0.024l0.024,0.108v0.072c0,0.008-0.008,0.012-0.024,0.012l0.024,0.048v0.024
				c0,0.016-0.008,0.024-0.024,0.024l0.024,0.048v0.264l0.024,0.132c-0.016,0.024-0.024,0.044-0.024,0.06
				c0,0.016,0.008,0.024,0.024,0.024l-0.024,0.156v0.264c0,0.016-0.008,0.024-0.024,0.024l0.024,0.048
				c0,0.016-0.008,0.024-0.024,0.024c0,0.016,0.008,0.024,0.024,0.024l-0.024,0.108v0.216c0,0.016-0.008,0.024-0.024,0.024
				l0.024,0.048c0,0.016-0.008,0.024-0.024,0.024c0,0.016,0.008,0.024,0.024,0.024c-0.024,0.312-0.048,0.468-0.072,0.468
				c0,0.008,0.008,0.012,0.024,0.012l-0.024,0.12v0.132c0,0.521-0.168,0.94-0.504,1.26c-0.192,0.104-0.332,0.164-0.42,0.18
				c-0.304,0-0.496-0.112-0.576-0.336c-0.112-0.12-0.208-0.496-0.288-1.128c0-0.016,0.004-0.024,0.012-0.024l-0.012-0.108
				c-0.016-0.36-0.024-0.56-0.024-0.6h0.024l-0.024-0.048l0.024-0.132c0-0.016-0.008-0.024-0.024-0.024
				c0-0.016,0.008-0.036,0.024-0.06l-0.048-0.672h0.024l-0.024-0.048V83.38c0-0.008,0.008-0.012,0.024-0.012l-0.024-0.048v-0.336
				c0-0.12,0.008-0.26,0.024-0.42c0-0.016-0.008-0.024-0.024-0.024l0.024-0.108V82.36c0-0.048-0.008-0.112-0.024-0.192
				c0.016-0.032,0.024-0.056,0.024-0.072c-0.016-0.024-0.024-0.052-0.024-0.084h0.024c0-0.016-0.008-0.024-0.024-0.024
				c0-0.016,0.008-0.04,0.024-0.072c-0.032-0.192-0.048-0.384-0.048-0.576v-0.132c0-0.016,0.008-0.024,0.024-0.024l-0.024-0.036
				v-0.024c0-0.032,0.008-0.064,0.024-0.096l-0.024-0.036c0.096-1.016,0.2-1.648,0.312-1.896
				C192.342,78.655,192.594,78.435,192.891,78.435z M192.218,79.323l0.024,0.048c-0.048,0.16-0.084,0.24-0.108,0.24l0.024,0.048
				c-0.064,0.392-0.108,0.604-0.132,0.636c0,0.016,0.008,0.024,0.024,0.024l-0.024,0.108v0.024l0.024,0.048
				c-0.032,0-0.056,0.068-0.072,0.204c0,0.008,0.008,0.012,0.024,0.012l-0.024,0.156v0.384c0,0.016-0.008,0.024-0.024,0.024
				l0.024,0.036v0.156l0.024,0.156h-0.024l0.024,0.048v0.156c0,0.056,0.008,0.124,0.024,0.204c-0.016,0.024-0.024,0.044-0.024,0.06
				c0.016,0,0.024,0.008,0.024,0.024l-0.048,0.024l0.024,0.048v0.324c0,0.016-0.008,0.024-0.024,0.024l0.024,0.048v0.156
				c0,0.016-0.008,0.024-0.024,0.024l0.024,0.036v0.384c0,0.016-0.008,0.024-0.024,0.024c0.008,0.056,0.024,0.084,0.048,0.084
				l-0.024,0.108v0.024c0,0.032,0.008,0.064,0.024,0.096l-0.024,0.036c0.016,0.08,0.024,0.148,0.024,0.204v0.024
				c0,0.017-0.008,0.024-0.024,0.024c0.016,0.032,0.032,0.096,0.048,0.192h-0.024c0,0.016,0.008,0.024,0.024,0.024l-0.024,0.084
				l0.024,0.12h-0.024c0,0.016,0.008,0.024,0.024,0.024l-0.024,0.108c0.016,0.024,0.024,0.044,0.024,0.06h-0.024l0.024,0.048
				c0,0.032-0.008,0.06-0.024,0.084c0,0.016,0.008,0.024,0.024,0.024l-0.024,0.156c0,0.424,0.044,0.876,0.132,1.356l-0.024,0.048
				c0.056,0.224,0.16,0.436,0.312,0.636l0.048-0.012c0.104,0.04,0.2,0.06,0.288,0.06c0.248-0.096,0.416-0.228,0.504-0.396
				c0.208-0.408,0.312-1.172,0.312-2.292v-0.132c0-0.016,0.008-0.024,0.024-0.024c0-0.008-0.008-0.012-0.024-0.012l0.024-0.12V83.32
				c0-0.032,0.008-0.064,0.024-0.096c-0.016-0.024-0.024-0.044-0.024-0.06h0.024l-0.024-0.048v-0.024
				c0-0.008,0.008-0.012,0.024-0.012l-0.024-0.048v-0.264c0-0.256-0.016-0.456-0.048-0.6h0.024c-0.016-0.04-0.044-0.328-0.084-0.864
				c0.008-0.032,0.012-0.056,0.012-0.072s-0.004-0.024-0.012-0.024l0.012-0.108v-0.228c0-0.008,0.008-0.012,0.024-0.012
				l-0.024-0.048v-0.024c0-0.16-0.02-0.316-0.06-0.468h0.024c-0.128-0.792-0.276-1.348-0.444-1.668
				c-0.112-0.008-0.188-0.02-0.228-0.036c-0.112,0-0.272,0.148-0.48,0.444C192.338,79.139,192.298,79.227,192.218,79.323z"/>
			
				<path style="fill:#FFFFFF;stroke:#FFFFFF;stroke-width:0.2662;stroke-linecap:round;stroke-linejoin:round;stroke-miterlimit:10;" d="
				M194.787,78.543h0.036c0.12,0.088,0.244,0.324,0.372,0.708c0.52,1.017,1.008,1.937,1.464,2.761h0.024l-0.024-0.108v-0.408
				c0-0.056-0.008-0.096-0.024-0.12l0.024-0.132V80.92c0-0.008,0.008-0.012,0.024-0.012c-0.032-0.064-0.048-0.148-0.048-0.252
				v-0.048c0-0.016,0.008-0.024,0.024-0.024l-0.036-0.276l0.012-0.084c-0.008-0.128-0.012-0.228-0.012-0.3h0.012
				c-0.008-0.024-0.012-0.044-0.012-0.06c0-0.04,0.004-0.072,0.012-0.096c-0.008-0.08-0.012-0.148-0.012-0.204v-0.048
				c0-0.008,0.004-0.012,0.012-0.012c0-0.016-0.004-0.024-0.012-0.024l0.012-0.228v-0.024c-0.024-0.256-0.036-0.4-0.036-0.432
				v-0.096c0-0.016,0.02-0.036,0.06-0.06c0.024,0,0.072,0.052,0.144,0.156l-0.024,0.108c0,0.016,0.008,0.04,0.024,0.072
				c0,0.016-0.008,0.024-0.024,0.024l0.024,0.108c-0.016,0.344-0.024,0.604-0.024,0.78l0.024,0.108l-0.024,0.048
				c0.016,0.024,0.024,0.052,0.024,0.084c0,0.016-0.008,0.024-0.024,0.024l0.024,0.048c0.016,0.416,0.024,0.764,0.024,1.044v0.048
				c0,0.016-0.008,0.024-0.024,0.024l0.024,0.036v0.168c0,0.056,0.004,0.116,0.012,0.18l-0.036,0.264c0,0.072,0.008,0.172,0.024,0.3
				c-0.016,0.304-0.024,0.576-0.024,0.816c0.016,0.104,0.024,0.164,0.024,0.18h-0.024l0.024,0.048v0.084
				c0,0.016-0.008,0.024-0.024,0.024c0,0.016,0.008,0.024,0.024,0.024l-0.024,0.228v0.18c0,0.064,0.008,0.124,0.024,0.18
				l-0.048,0.432l0.024,0.048l-0.024,0.048l0.024,0.132c0,0.016-0.008,0.024-0.024,0.024l0.024,0.048v0.108
				c0,0.016-0.008,0.024-0.024,0.024l0.024,0.048v0.228c0,0.008-0.008,0.012-0.024,0.012l0.024,0.048v0.252
				c0,0.032-0.008,0.06-0.024,0.084c0.016,0.032,0.024,0.064,0.024,0.096v0.048c0,0.016-0.008,0.024-0.024,0.024
				c0,0.016,0.008,0.024,0.024,0.024c-0.032,0.288-0.048,0.544-0.048,0.768l-0.024,0.048c0,0.008,0.008,0.012,0.024,0.012
				c-0.008,0.2-0.04,0.3-0.096,0.3h-0.036c-0.048,0-0.072-0.12-0.072-0.36c0.032,0,0.048-0.016,0.048-0.048v-0.252
				c0-0.016,0.008-0.024,0.024-0.024c0-0.016-0.008-0.024-0.024-0.024c0.016-0.144,0.036-0.256,0.06-0.336
				c-0.016-0.048-0.028-0.072-0.036-0.072l0.012-0.156v-0.024l-0.012-0.156h0.012c0-0.016-0.004-0.024-0.012-0.024l0.012-0.108
				v-0.685c0-0.016,0.008-0.024,0.024-0.024l-0.024-0.036v-1.008c0-0.008,0.008-0.012,0.024-0.012l-0.024-0.048v-0.024
				c0-0.016,0.008-0.024,0.024-0.024l-0.024-0.048V82.6c0-0.016,0.008-0.024,0.024-0.024l-0.024-0.048
				c0.016-0.096,0.024-0.176,0.024-0.24c-0.304-0.456-0.696-1.16-1.176-2.112c-0.208-0.304-0.404-0.72-0.588-1.248h-0.024v0.252
				c0,0.016-0.008,0.024-0.024,0.024l0.024,0.048v0.36c0,0.016-0.008,0.024-0.024,0.024l0.024,0.048v0.108
				c0,0.344,0.016,0.556,0.048,0.636c0,0.016-0.008,0.024-0.024,0.024l0.024,0.108v0.072c0,0.016-0.008,0.024-0.024,0.024
				l0.024,0.048v0.72c0,0.016-0.008,0.024-0.024,0.024c0.032,0.088,0.048,0.284,0.048,0.588v0.276l0.024,0.132l-0.024,0.048
				l0.024,0.132h-0.024c0,0.016,0.008,0.024,0.024,0.024c-0.016,0.136-0.032,0.204-0.048,0.204l0.024,0.048v0.132
				c0,0.064,0.008,0.148,0.024,0.252c0,0.016-0.008,0.024-0.024,0.024l0.024,0.108v0.072c0,0.12-0.008,0.264-0.024,0.432
				l0.024,0.036l-0.024,0.144v0.024l0.024,0.156h-0.024l0.024,0.048v0.132c0,0.104,0.008,0.272,0.024,0.504h-0.024
				c0,0.008,0.008,0.012,0.024,0.012c-0.032,0.112-0.048,0.188-0.048,0.228l0.024,0.324h-0.024l0.024,0.036v0.12
				c0,0.056-0.008,0.124-0.024,0.204c0,0.016,0.008,0.024,0.024,0.024l-0.024,0.156v0.228c0,0.072-0.008,0.148-0.024,0.228
				c0.016,0.056,0.024,0.124,0.024,0.204v0.108c0,0.032-0.016,0.048-0.048,0.048h-0.024c-0.024,0-0.052-0.076-0.084-0.228
				c0.016-0.416,0.024-0.764,0.024-1.044v-0.588c0-0.016,0.004-0.024,0.012-0.024l-0.012-0.036V84.94
				c0-0.016,0.004-0.024,0.012-0.024l-0.012-0.048c0-0.016,0.004-0.024,0.012-0.024l-0.012-0.108v-0.072
				c0-0.032,0.004-0.064,0.012-0.096c-0.008-0.024-0.012-0.044-0.012-0.06h0.012c0-0.016-0.004-0.024-0.012-0.024l0.012-0.228
				v-0.024c0-0.128-0.004-0.264-0.012-0.408c0.008-0.056,0.012-0.116,0.012-0.18l-0.012-0.108h0.012
				c-0.008-0.032-0.012-0.056-0.012-0.072c0-0.016,0.004-0.024,0.012-0.024l-0.012-0.108V83.14l-0.024-0.216h0.024l-0.024-0.048
				v-0.144c0-0.008,0.008-0.012,0.024-0.012c0-0.016-0.008-0.024-0.024-0.024c0.008-0.168,0.02-0.252,0.036-0.252
				c-0.024-0.048-0.036-0.092-0.036-0.132v-0.756c0-0.032-0.008-0.06-0.024-0.084c0.016-0.032,0.024-0.064,0.024-0.096v-0.108
				l-0.024-0.12h0.024c0-0.016-0.008-0.024-0.024-0.024l0.024-0.108v-0.276l-0.024-0.132l0.024-0.048
				c-0.016-0.024-0.024-0.044-0.024-0.06c0-0.016,0.008-0.024,0.024-0.024c-0.048-0.296-0.072-0.5-0.072-0.612v-0.144
				c0-0.032,0.008-0.06,0.024-0.084c-0.016-0.024-0.024-0.056-0.024-0.096l0.024-0.036l-0.024-0.048
				c0.016-0.064,0.024-0.116,0.024-0.156l-0.024-0.048c0.016-0.032,0.024-0.064,0.024-0.096s-0.008-0.06-0.024-0.084
				c0-0.016,0.008-0.024,0.024-0.024l-0.024-0.156v-0.276C194.715,78.591,194.739,78.567,194.787,78.543z"/>
		</g>
	</g>
</g>
</svg>
