<?xml version="1.0" encoding="utf-8"?>
<!-- Generator: Adobe Illustrator 27.5.0, SVG Export Plug-In . SVG Version: 6.00 Build 0)  -->
<svg version="1.1" xmlns="http://www.w3.org/2000/svg" xmlns:xlink="http://www.w3.org/1999/xlink" x="0px" y="0px"
	 viewBox="0 0 600 500" style="enable-background:new 0 0 600 500;" xml:space="preserve">
<g id="BACKGROUND">
	<g>
		<g>
			<rect style="fill:#FFFFFF;" width="600" height="500"/>
		</g>
	</g>
</g>
<g id="OBJECTS">
	<g>
		<g>
			<g>
				<path style="fill:#7ABDE9;" d="M369.366,414.271H254.745c-11.633,0-21.063-9.43-21.063-21.063V145.112
					c0-11.632,9.43-21.063,21.063-21.063h114.621c11.633,0,21.063,9.43,21.063,21.063v248.097
					C390.428,404.841,380.998,414.271,369.366,414.271z"/>
				<g>
					<path style="fill:none;stroke:#000000;stroke-width:0.75;stroke-miterlimit:10;" d="M330.524,136.88h-47.512
						c-1.89,0-3.422-1.532-3.422-3.422l0,0c0-1.89,1.532-3.422,3.422-3.422h47.512c1.89,0,3.421,1.532,3.421,3.422l0,0
						C333.946,135.348,332.414,136.88,330.524,136.88z"/>
					<path style="fill:none;stroke:#000000;stroke-width:0.75;stroke-miterlimit:10;" d="M344.519,133.458
						c0,1.89-1.532,3.422-3.422,3.422c-1.89,0-3.422-1.532-3.422-3.422c0-1.89,1.532-3.422,3.422-3.422
						C342.987,130.037,344.519,131.569,344.519,133.458z"/>
				</g>
			</g>
			<path style="fill:#FFFFFF;" d="M372.804,390.5H251.307c-3.88,0-7.026-3.146-7.026-7.026V150.749c0-3.88,3.145-7.026,7.026-7.026
				h121.497c3.88,0,7.026,3.146,7.026,7.026v232.725C379.829,387.354,376.684,390.5,372.804,390.5z"/>
		</g>
		<g>
			<g>
				<path d="M278.699,206.091h46.316c0.175-0.977-0.37-1.979-1.056-2.73c-6.655-4.787-0.918-8.11-2.301-12.274
					c-0.261-0.787-0.803-1.455-1.476-1.94c-3.063-2.211-1.932-6.052-2.593-9.459c-1.337-6.902-9.485-10.925-15.718-6.982
					c-2.275,1.439-3.909,3.527-3.909,3.527c-2.629-2.967-6.551-2.222-7.963-1.382c-6.338,3.771-0.265,13.766-4.23,15.919
					c-4.752,2.748-3.652,2.836-4.167,10.343C281.258,203.631,278.602,203.31,278.699,206.091z"/>
				<path style="fill:#802223;" d="M290.146,186.77c2.395-9.801,12.329-9.801,12.329-9.801s9.935,0,12.329,9.801
					c1.977,8.093-4.742,17.458-12.329,17.298C294.888,204.228,288.169,194.862,290.146,186.77z"/>
				<path d="M289.828,188.899c3.474-0.418,6.663-2.864,7.874-6.162c3.215,6.171,10.22,10.12,17.159,9.794
					c0.392-1.895,0.409-3.866-0.058-5.761c-2.388-9.803-12.324-9.803-12.324-9.803s-9.936,0-12.332,9.803
					C289.979,187.471,289.87,188.181,289.828,188.899z"/>
			</g>
			<path style="fill:#5463C7;" d="M297.575,390.5h-43.227c0,0,10.183-49.353,14.277-70.425c3.734-19.22,8.725-23.953,8.725-23.953
				h61.151l33.55,94.378h-48.54l-11.713-39.853l-3.284-1.516L297.575,390.5z"/>
			<path d="M255.34,385.72h43.5l-1.26,4.78h-43.23C254.35,390.5,254.72,388.73,255.34,385.72z"/>
			<polygon points="372.05,390.5 323.51,390.5 322.11,385.72 370.35,385.72 			"/>
			<path d="M265.229,337.174l12.954,8.083c10.708-7.971,16.063-34.772,16.063-34.772l25.819-6.513l1.839,12.973l21.497-7.033v-0.012
				l-4.896-13.78h-61.16c0,0-4.983,4.734-8.723,23.957C267.726,324.686,266.546,330.663,265.229,337.174z"/>
			<path style="fill:#D390BB;" d="M242.491,262.333l-21.772-19.987c0,0,24.746-36.802,38.706-36.802
				c7.114,0,15.465,4.284,24.504,8.444l0-0.005c0.001,0.002,0.002,0.004,0.002,0.006c8.698,4.003,18.033,7.891,27.523,7.735
				c19.353-0.317,41.204-28.276,41.204-28.276l23.915,29.288c0,0-19.275,18.42-33.076,25.003c0,0-8.249,30.825,6.345,59.353
				l-25.857,5.685c0,0-0.98-4.693-2.08-12.891c-9.113,2.152-20.247,4.784-30.468,7.206l0,0c0,0-3.917,20.973-14.256,29.243
				l-30.408-16.658c0,0,14.918-9.836,19.035-20.939c4.578-12.346,3.587-31.072-5.433-50.365L242.491,262.333z"/>
			<path style="fill:#CE623A;" d="M291.435,307.091l30.469-7.207c-2.15-16.092-4.772-45.703-1.379-80.085
				c-3.02,1.168-6.076,1.876-9.071,1.926c-9.493,0.162-18.825-3.728-27.523-7.741C300.183,257.002,291.435,307.091,291.435,307.091z
				"/>
			<g>
				<defs>
					<path id="SVGID_1_" d="M289.745,233.989c7.965,37.154,1.69,73.102,1.69,73.102l3.082-0.733l25.2-5.952l2.187-0.522
						c-1.814-13.582-3.964-36.781-2.547-64.342v-0.025c0.249-5.107,0.634-10.351,1.168-15.719c-3.02,1.168-6.076,1.876-9.071,1.926
						c-9.493,0.162-18.825-3.728-27.523-7.741C286.415,220.557,288.316,227.292,289.745,233.989z"/>
				</defs>
				<clipPath id="SVGID_00000079470797645408784530000014562043059416839840_">
					<use xlink:href="#SVGID_1_"  style="overflow:visible;"/>
				</clipPath>
				<g style="clip-path:url(#SVGID_00000079470797645408784530000014562043059416839840_);">
					<g>
						
							<line style="fill:none;stroke:#FFFFFF;stroke-width:0.5;stroke-miterlimit:10;" x1="328.984" y1="223.311" x2="278.302" y2="223.311"/>
						
							<line style="fill:none;stroke:#FFFFFF;stroke-width:0.5;stroke-miterlimit:10;" x1="328.984" y1="230.092" x2="278.302" y2="230.092"/>
						
							<line style="fill:none;stroke:#FFFFFF;stroke-width:0.5;stroke-miterlimit:10;" x1="328.984" y1="236.874" x2="278.302" y2="236.874"/>
						
							<line style="fill:none;stroke:#FFFFFF;stroke-width:0.5;stroke-miterlimit:10;" x1="328.984" y1="243.655" x2="278.302" y2="243.655"/>
						
							<line style="fill:none;stroke:#FFFFFF;stroke-width:0.5;stroke-miterlimit:10;" x1="328.984" y1="250.436" x2="278.302" y2="250.436"/>
						
							<line style="fill:none;stroke:#FFFFFF;stroke-width:0.5;stroke-miterlimit:10;" x1="328.984" y1="257.218" x2="278.302" y2="257.218"/>
						
							<line style="fill:none;stroke:#FFFFFF;stroke-width:0.5;stroke-miterlimit:10;" x1="328.984" y1="263.999" x2="278.302" y2="263.999"/>
						
							<line style="fill:none;stroke:#FFFFFF;stroke-width:0.5;stroke-miterlimit:10;" x1="328.984" y1="270.781" x2="278.302" y2="270.781"/>
						
							<line style="fill:none;stroke:#FFFFFF;stroke-width:0.5;stroke-miterlimit:10;" x1="328.984" y1="277.562" x2="278.302" y2="277.562"/>
						
							<line style="fill:none;stroke:#FFFFFF;stroke-width:0.5;stroke-miterlimit:10;" x1="328.984" y1="284.343" x2="278.302" y2="284.343"/>
						
							<line style="fill:none;stroke:#FFFFFF;stroke-width:0.5;stroke-miterlimit:10;" x1="328.984" y1="291.125" x2="278.302" y2="291.125"/>
						
							<line style="fill:none;stroke:#FFFFFF;stroke-width:0.5;stroke-miterlimit:10;" x1="328.984" y1="297.906" x2="278.302" y2="297.906"/>
						
							<line style="fill:none;stroke:#FFFFFF;stroke-width:0.5;stroke-miterlimit:10;" x1="328.984" y1="304.688" x2="278.302" y2="304.688"/>
					</g>
					<g>
						
							<line style="fill:none;stroke:#FFFFFF;stroke-width:0.5;stroke-miterlimit:10;" x1="290.08" y1="215.221" x2="290.08" y2="308.536"/>
						
							<line style="fill:none;stroke:#FFFFFF;stroke-width:0.5;stroke-miterlimit:10;" x1="296.861" y1="215.221" x2="296.861" y2="308.536"/>
						
							<line style="fill:none;stroke:#FFFFFF;stroke-width:0.5;stroke-miterlimit:10;" x1="303.643" y1="215.221" x2="303.643" y2="308.536"/>
						
							<line style="fill:none;stroke:#FFFFFF;stroke-width:0.5;stroke-miterlimit:10;" x1="310.424" y1="215.221" x2="310.424" y2="308.536"/>
						
							<line style="fill:none;stroke:#FFFFFF;stroke-width:0.5;stroke-miterlimit:10;" x1="317.206" y1="215.221" x2="317.206" y2="308.536"/>
					</g>
				</g>
			</g>
			<path d="M261.933,296.928l-3.887-0.806c0,0-7.062,2.206-7.454,4.58c-0.229,1.388,0.51,2.36,1.98,2.58
				c-1.402,0.763-2.617,1.678-2.773,2.623c-0.392,2.375,2.033,3.55,6.144,1.778c4.11-1.772,5.198-5.552,5.198-5.552l-2.754-0.571
				C261.14,299.652,261.933,296.928,261.933,296.928z"/>
			<path style="fill:#802223;" d="M221.512,242.981l15.335,14.169l-3.636,3.697l22.237,20.321c0,0,1.45,0.985,3.739,2.185
				c2.294,1.203,5.753,3.12,7.535,7.297c3.629,8.506-4.64,18.326-10.668,21.177c-3.447,1.63-5.77-1.576-3.45-3.45
				c2.02-1.631,6.097-4.134,4.74-4.788c0,0-4.219-3.531-5.871-10.797c-0.268-1.181-1.19-1.963-2.792-2.961
				c0,0-39.11-13.695-39.11-27.193C209.572,257.232,221.512,242.981,221.512,242.981z"/>
			<path d="M236.85,257.15l-2.34,2.38l-13.98-15.34c0.61-0.76,0.98-1.21,0.98-1.21L236.85,257.15z"/>
			<path style="fill:none;stroke:#000000;stroke-width:0.5;stroke-linecap:round;stroke-miterlimit:10;" d="M232.616,260.311
				c0,0-7.852-5.949-15.645-1.309"/>
			<path d="M264.993,260.307c-2.098-8.865,7.728-15.102,5.814-17.327c-1.901-2.212-10.424,5.398-10.424,5.398
				C262.259,252.404,263.787,256.393,264.993,260.307z"/>
			<path style="fill:#802223;" d="M353.375,194.326c0,0,10.184-10.514,10.861-13.052c0.677-2.538-18.519-46.689-18.519-46.689
				l12.216-7.244c0,0,26.469,33.568,30.593,58.693c1.879,11.446-18.297,28.934-18.297,28.934L353.375,194.326z"/>
			<path d="M374.61,210.81c-2.53,2.55-4.38,4.16-4.38,4.16l-12.25-15L374.61,210.81z"/>
			<g>
				
					<rect x="346.528" y="89.131" transform="matrix(0.9804 -0.1968 0.1968 0.9804 -15.8298 71.5454)" style="fill:#5463C7;" width="11.145" height="52.593"/>
				
					<rect x="342.362" y="89.548" transform="matrix(0.9804 -0.1968 0.1968 0.9804 -11.8285 70.3216)" width="11.152" height="10.265"/>
				<path style="fill:#FFFFFF;stroke:#000000;stroke-linecap:round;stroke-linejoin:round;stroke-miterlimit:10;" d="
					M363.771,76.731c-0.269-2.731-2.725-2.639-2.725-2.639s1.546-1.416,1.107-3.94c-0.58-3.336-3.858-2.522-3.858-2.522
					l-11.646,2.338c-1.327-0.884-1.798-6.895-3.544-9.638c-1.746-2.743-5.691-4.208-7.686-2.31
					c-2.038,1.939,2.399,8.054,2.842,10.265c0.315,1.568-0.527,4.774-1.043,6.507c-0.001,0.005-0.003,0.011-0.005,0.016
					c-0.291,0.988-1.035,1.775-2.045,1.978l-3.375,0.677l3.799,18.927l3.968-0.797c0.703-0.141,1.4,0.07,2.012,0.446
					c0.19,0.117,0.402,0.203,0.629,0.25c0.095,0.02,0.193,0.041,0.294,0.063c1.998,0.449,4.073,0.466,6.08,0.063l12.022-2.413
					c1.484-0.298,3.08-1.457,3.182-3.434c0.102-1.975-2.181-2.673-2.181-2.673s2.657-0.739,2.698-4.092
					c0.029-2.414-2.233-2.786-2.233-2.786S364.072,79.788,363.771,76.731z"/>
				<path style="fill:#7ABDE9;stroke:#000000;stroke-miterlimit:10;" d="M336.225,98.894l-4.316,0.866
					c-1.525,0.306-3.009-0.682-3.315-2.207l-3.706-18.464c-0.306-1.525,0.682-3.009,2.207-3.315l4.316-0.866
					c1.525-0.306,3.009,0.682,3.315,2.207l3.706,18.464C338.738,97.103,337.75,98.588,336.225,98.894z"/>
			</g>
			<path style="fill:#802223;" d="M345.717,134.585c0,0-7.833-7.839-8.389-11.21c-1.158-7.033,5.324-11.879,6.811-15.092
				c1.487-3.212,4.432-2.04,5.205,1.529c0.773,3.569-2.359,8.451-2.359,8.451l2.793,13.914L345.717,134.585z"/>
			<path style="fill:#802223;" d="M363.731,122.768l0.005,0.005c0.75-2.585-1.493-5.214-1.493-5.214l-0.003-0.003
				c0.024-0.038,0.054-0.077,0.074-0.115c1.61-3.044-1.526-6.198-4.049-4.987c0,0-4.622,2.501-5.542,4.769
				c-0.872,2.148,0.893,4.155,2.424,4.182c-1.27,0.955-2.427,2.01-2.789,2.901c-0.92,2.268,1.101,4.407,2.681,4.192
				c0.03-0.004,0.073-0.016,0.106-0.022c-0.179,0.241-0.325,0.484-0.422,0.724c-0.806,1.986,0.588,3.364,2.502,2.968
				c1.367-0.283,5.176-1.414,5.897-2.777c0.235-0.444,0.352-0.89,0.378-1.321c0.095-1.106-0.329-2.947-0.557-3.832
				c0.197-0.197,0.358-0.385,0.447-0.553C363.554,123.379,363.66,123.072,363.731,122.768z"/>
			<path style="fill:none;stroke:#000000;stroke-width:0.5;stroke-linecap:round;stroke-miterlimit:10;" d="M355.918,128.044
				c0,0,3.867-1.487,6.543-3.629"/>
			<path style="fill:none;stroke:#000000;stroke-width:0.5;stroke-linecap:round;stroke-miterlimit:10;" d="M355.918,121.193
				c0,0,3.51-1.656,5.711-3.351"/>
			<polyline style="fill:none;stroke:#000000;stroke-width:0.75;stroke-miterlimit:10;" points="302.026,307.091 305.305,341.036 
				313.2,345.257 			"/>
			<path d="M357.161,239.109c-4.59,3.417-9.381,6.589-13.658,8.633c0,0,1.288-6.288,3.287-8.567
				C348.79,236.885,349.499,242.275,357.161,239.109z"/>
			<g>
				<circle cx="286.059" cy="237.678" r="2.352"/>
				<circle cx="289.587" cy="261.124" r="2.352"/>
				<path d="M291.939,284.57c0,1.299-1.053,2.352-2.352,2.352c-1.299,0-2.352-1.053-2.352-2.352c0-1.299,1.053-2.352,2.352-2.352
					C290.886,282.218,291.939,283.271,291.939,284.57z"/>
				<circle cx="286.059" cy="307.091" r="2.352"/>
			</g>
		</g>
	</g>
	<g>
		<g>
			<g>
				<path style="fill:#7ABDE9;" d="M187.816,338.887h-4.235c-1.496,0-2.71-1.213-2.71-2.71v-18.12c0-1.497,1.213-2.71,2.71-2.71
					h4.235c1.497,0,2.71,1.213,2.71,2.71v18.12C190.526,337.673,189.313,338.887,187.816,338.887z"/>
				<path style="fill:#7ABDE9;" d="M217.155,329.966c-0.673,3.156-3.32,3.349-3.32,3.349s2.022,1.09,1.552,2.935
					c-0.471,1.846-2.196,2.637-3.652,2.637l-11.798,0c-1.946,0-3.88-0.378-5.653-1.179c-0.115-0.052-0.227-0.101-0.336-0.147
					c-0.733-0.311-1.2-1.038-1.2-1.834v-17.109c0-0.796,0.197-1.576,0.57-2.28c0.815-1.536,2.216-4.402,2.216-5.941
					c0-2.17-3.027-8.778-0.738-10.221c2.24-1.413,5.685,0.716,6.813,3.634c1.128,2.918,0.434,8.678,1.519,9.763h11.429
					c0,0,3.246-0.147,3.162,3.11c-0.064,2.465-1.791,3.507-1.791,3.507s2.335,0.379,2.071,3.006c-0.295,2.941-2.421,3.72-2.421,3.72
					S217.64,327.694,217.155,329.966z"/>
			</g>
			<g>
				<path style="fill:#7ABDE9;" d="M260.109,89.562h-2.732c-0.965,0-1.748-0.782-1.748-1.748V76.126
					c0-0.965,0.783-1.748,1.748-1.748h2.732c0.965,0,1.748,0.783,1.748,1.748v11.688C261.857,88.779,261.075,89.562,260.109,89.562z
					"/>
				<path style="fill:#7ABDE9;" d="M279.034,83.808c-0.434,2.035-2.142,2.16-2.142,2.16s1.304,0.703,1.001,1.893
					c-0.303,1.191-1.417,1.701-2.356,1.701l-7.61,0c-1.255,0-2.503-0.244-3.647-0.76c-0.074-0.034-0.147-0.065-0.217-0.095
					c-0.473-0.201-0.774-0.669-0.774-1.183V76.487c0-0.514,0.127-1.017,0.367-1.471c0.526-0.991,1.429-2.839,1.429-3.832
					c0-1.399-1.953-5.662-0.476-6.593c1.445-0.911,3.667,0.462,4.394,2.344c0.727,1.882,0.28,5.598,0.98,6.298h7.372
					c0,0,2.094-0.095,2.04,2.006c-0.041,1.59-1.155,2.262-1.155,2.262s1.506,0.244,1.336,1.939c-0.19,1.897-1.562,2.399-1.562,2.399
					S279.347,82.342,279.034,83.808z"/>
			</g>
			<g style="opacity:0.5;">
				<path style="fill:#7ABDE9;" d="M117.258,269.862h-2.732c-0.965,0-1.748-0.783-1.748-1.748v-11.688
					c0-0.965,0.783-1.748,1.748-1.748h2.732c0.965,0,1.748,0.783,1.748,1.748v11.688
					C119.006,269.079,118.223,269.862,117.258,269.862z"/>
				<path style="fill:#7ABDE9;" d="M136.183,264.108c-0.434,2.035-2.142,2.16-2.142,2.16s1.304,0.703,1.001,1.893
					c-0.303,1.191-1.417,1.701-2.356,1.701l-7.61,0c-1.255,0-2.503-0.244-3.647-0.76c-0.074-0.034-0.146-0.065-0.217-0.095
					c-0.473-0.201-0.774-0.669-0.774-1.183v-11.036c0-0.514,0.127-1.017,0.367-1.471c0.526-0.991,1.429-2.84,1.429-3.832
					c0-1.4-1.953-5.662-0.476-6.593c1.445-0.911,3.667,0.462,4.394,2.344c0.727,1.882,0.28,5.598,0.98,6.298h7.372
					c0,0,2.094-0.095,2.04,2.006c-0.041,1.59-1.155,2.262-1.155,2.262s1.506,0.244,1.336,1.939c-0.19,1.897-1.562,2.399-1.562,2.399
					S136.496,262.642,136.183,264.108z"/>
			</g>
			<g>
				<path style="fill:#7ABDE9;" d="M416.109,185.645h-2.855c-1.009,0-1.826-0.818-1.826-1.826v-12.213
					c0-1.009,0.818-1.826,1.826-1.826h2.855c1.009,0,1.826,0.818,1.826,1.826v12.213
					C417.935,184.827,417.118,185.645,416.109,185.645z"/>
				<path style="fill:#7ABDE9;" d="M435.883,179.633c-0.454,2.127-2.238,2.257-2.238,2.257s1.363,0.735,1.046,1.978
					c-0.317,1.244-1.48,1.777-2.461,1.777l-7.952,0c-1.311,0-2.615-0.255-3.81-0.795c-0.078-0.035-0.153-0.068-0.226-0.099
					c-0.494-0.21-0.809-0.699-0.809-1.236v-11.532c0-0.537,0.132-1.063,0.384-1.537c0.549-1.036,1.493-2.967,1.493-4.004
					c0-1.462-2.04-5.916-0.497-6.889c1.51-0.952,3.832,0.482,4.592,2.45c0.76,1.967,0.293,5.849,1.023,6.58h7.703
					c0,0,2.188-0.099,2.131,2.096c-0.043,1.661-1.207,2.364-1.207,2.364s1.574,0.255,1.396,2.026
					c-0.199,1.982-1.632,2.507-1.632,2.507S436.21,178.102,435.883,179.633z"/>
			</g>
			<g style="opacity:0.3;">
				<path style="fill:#7ABDE9;" d="M468.205,361.231h-4.385c-1.549,0-2.805-1.256-2.805-2.805v-18.76
					c0-1.549,1.256-2.805,2.805-2.805h4.385c1.549,0,2.806,1.256,2.806,2.805v18.76C471.01,359.975,469.754,361.231,468.205,361.231
					z"/>
				<path style="fill:#7ABDE9;" d="M498.581,351.995c-0.697,3.267-3.437,3.468-3.437,3.468s2.093,1.129,1.607,3.038
					c-0.487,1.911-2.274,2.73-3.781,2.73l-12.215,0c-2.014,0-4.018-0.391-5.853-1.221c-0.119-0.054-0.235-0.104-0.348-0.152
					c-0.759-0.322-1.242-1.074-1.242-1.899v-17.714c0-0.824,0.203-1.632,0.59-2.361c0.844-1.591,2.294-4.557,2.294-6.15
					c0-2.246-3.134-9.088-0.764-10.582c2.32-1.463,5.886,0.741,7.053,3.763c1.167,3.021,0.449,8.985,1.572,10.108h11.833
					c0,0,3.361-0.152,3.274,3.22c-0.066,2.552-1.854,3.631-1.854,3.631s2.417,0.392,2.145,3.112
					c-0.305,3.045-2.507,3.851-2.507,3.851S499.083,349.643,498.581,351.995z"/>
			</g>
			<g style="opacity:0.3;">
				<path style="fill:#7ABDE9;" d="M158.549,215.973h-3.425c-1.21,0-2.191-0.981-2.191-2.191v-14.654
					c0-1.21,0.981-2.192,2.191-2.192h3.425c1.21,0,2.191,0.981,2.191,2.192v14.654C160.741,214.992,159.76,215.973,158.549,215.973z
					"/>
				<path style="fill:#7ABDE9;" d="M182.277,208.759c-0.544,2.552-2.685,2.709-2.685,2.709s1.635,0.882,1.255,2.373
					c-0.381,1.493-1.776,2.133-2.953,2.133l-9.541,0c-1.573,0-3.138-0.306-4.572-0.953c-0.093-0.042-0.184-0.082-0.272-0.119
					c-0.593-0.251-0.971-0.839-0.971-1.483v-13.837c0-0.644,0.159-1.275,0.461-1.844c0.659-1.243,1.792-3.56,1.792-4.804
					c0-1.755-2.448-7.099-0.597-8.266c1.812-1.142,4.597,0.579,5.51,2.939c0.912,2.36,0.351,7.018,1.228,7.895h9.243
					c0,0,2.625-0.119,2.557,2.515c-0.052,1.993-1.448,2.836-1.448,2.836s1.888,0.306,1.675,2.431
					c-0.238,2.378-1.958,3.008-1.958,3.008S182.669,206.922,182.277,208.759z"/>
			</g>
		</g>
		<g>
			<circle style="fill:#D390BB;" cx="454.815" cy="90.821" r="23.376"/>
			<path style="fill:#D390BB;" d="M132.8,432.06c0,1.7-0.18,3.35-0.54,4.95H86.59c-0.36-1.6-0.54-3.25-0.54-4.95
				c0-12.91,10.47-23.37,23.38-23.37S132.8,419.15,132.8,432.06z"/>
			
				<ellipse transform="matrix(0.2288 -0.9735 0.9735 0.2288 -122.6804 374.9326)" cx="175.287" cy="264.892" rx="10.062" ry="10.062"/>
			
				<ellipse transform="matrix(0.7071 -0.7071 0.7071 0.7071 -123.1285 483.7412)" style="fill:none;stroke:#000000;stroke-width:2;stroke-miterlimit:10;" cx="522.363" cy="390.5" rx="10.062" ry="10.062"/>
			
				<ellipse transform="matrix(0.1831 -0.9831 0.9831 0.1831 283.416 489.8417)" style="fill:none;stroke:#000000;stroke-width:2;stroke-miterlimit:10;" cx="436.465" cy="74.378" rx="10.062" ry="10.062"/>
		</g>
		<g>
			<path style="fill:none;stroke:#CE623A;stroke-width:4;stroke-linecap:round;stroke-miterlimit:10;" d="M158.311,52.776
				c7.813,1.797,6.019,9.594,13.832,11.391c7.815,1.798,9.609-5.999,17.424-4.201c7.816,1.798,6.022,9.594,13.838,11.392
				c7.817,1.798,9.61-5.998,17.427-4.2c7.817,1.798,6.023,9.595,13.84,11.393"/>
			<path style="fill:none;stroke:#000000;stroke-width:4;stroke-linecap:round;stroke-miterlimit:10;" d="M470.041,298.082
				c4.211,0.969,3.245,5.171,7.456,6.14c4.213,0.969,5.179-3.233,9.392-2.264c4.213,0.969,3.246,5.172,7.459,6.141
				c4.213,0.969,5.18-3.233,9.394-2.264c4.213,0.969,3.247,5.172,7.46,6.141"/>
			<path style="fill:none;stroke:#CE623A;stroke-width:4;stroke-linecap:round;stroke-miterlimit:10;" d="M65.47,372.319
				c4.211,0.969,3.244,5.171,7.456,6.14c4.213,0.969,5.179-3.233,9.392-2.264c4.213,0.969,3.246,5.171,7.459,6.141
				c4.213,0.969,5.18-3.233,9.394-2.264c4.213,0.969,3.247,5.172,7.46,6.141"/>
		</g>
		<g>
			<g>
				<path style="fill:#FFFFFF;stroke:#000000;stroke-linecap:round;stroke-linejoin:round;stroke-miterlimit:10;" d="
					M191.209,153.798h73.915c4.548,0,8.234,3.686,8.234,8.234v38.106l-12.436-12.436h-69.713c-4.548,0-8.234-3.687-8.234-8.234
					v-17.436C182.975,157.485,186.661,153.798,191.209,153.798z"/>
				
					<line style="fill:none;stroke:#000000;stroke-width:0.75;stroke-linecap:round;stroke-linejoin:round;stroke-miterlimit:10;" x1="262.826" y1="161.665" x2="193.507" y2="161.665"/>
				
					<line style="fill:none;stroke:#000000;stroke-width:0.75;stroke-linecap:round;stroke-linejoin:round;stroke-miterlimit:10;" x1="262.826" y1="170.09" x2="242.551" y2="170.09"/>
				
					<line style="fill:none;stroke:#000000;stroke-width:0.75;stroke-linecap:round;stroke-linejoin:round;stroke-miterlimit:10;" x1="236.806" y1="170.09" x2="193.507" y2="170.09"/>
				
					<line style="fill:none;stroke:#000000;stroke-width:0.75;stroke-linecap:round;stroke-linejoin:round;stroke-miterlimit:10;" x1="262.826" y1="178.516" x2="232.21" y2="178.516"/>
			</g>
			<g>
				<circle style="fill:#EEBD56;" cx="385.017" cy="305.606" r="23.388"/>
				
					<polyline style="fill:none;stroke:#FFFFFF;stroke-width:4;stroke-linecap:round;stroke-linejoin:round;stroke-miterlimit:10;" points="
					367.292,305.636 379.566,317.91 401.204,296.272 				"/>
			</g>
			<g>
				<path style="fill:#5463C7;" d="M211.353,372.319h-86.798c-6.504,0-11.777-5.272-11.777-11.776v0
					c0-6.504,5.273-11.777,11.777-11.777h86.798c6.504,0,11.777,5.273,11.777,11.777v0
					C223.129,367.047,217.857,372.319,211.353,372.319z"/>
				<g>
					
						<ellipse transform="matrix(0.1797 -0.9837 0.9837 0.1797 -252.3057 418.5092)" style="fill:#FFFFFF;" cx="124.794" cy="360.543" rx="8.902" ry="8.902"/>
					<path d="M127.808,355.819c0,1.745-1.415,3.16-3.16,3.16c-1.745,0-3.16-1.415-3.16-3.16c0-1.745,1.415-3.159,3.16-3.159
						C126.394,352.66,127.808,354.074,127.808,355.819z"/>
					<path d="M131.06,365.32c-1.43,1.89-3.71,3.11-6.27,3.11c-2.68,0-5.06-1.34-6.48-3.4c0.75-2.8,3.31-4.87,6.34-4.87
						c1.81,0,3.45,0.74,4.64,1.92C130.16,362.95,130.79,364.07,131.06,365.32z"/>
				</g>
				<path style="fill:#FFFFFF;" d="M211.202,354.511h-71.83c-0.511,0-0.925-0.414-0.925-0.925l0,0c0-0.511,0.414-0.926,0.925-0.926
					h71.83c0.511,0,0.926,0.414,0.926,0.926l0,0C212.128,354.096,211.713,354.511,211.202,354.511z"/>
				<path style="fill:#FFFFFF;" d="M211.202,361.086h-71.83c-0.511,0-0.925-0.414-0.925-0.926l0,0c0-0.511,0.414-0.926,0.925-0.926
					h71.83c0.511,0,0.926,0.414,0.926,0.926l0,0C212.128,360.671,211.713,361.086,211.202,361.086z"/>
				<path style="fill:#FFFFFF;" d="M174.362,367.66h-34.99c-0.511,0-0.925-0.414-0.925-0.926l0,0c0-0.511,0.414-0.926,0.925-0.926
					h34.99c0.511,0,0.926,0.414,0.926,0.926l0,0C175.287,367.246,174.873,367.66,174.362,367.66z"/>
			</g>
			<g>
				<path style="fill:#5463C7;" d="M489.34,151.878h-66.727c-6.504,0-11.777-5.273-11.777-11.777l0,0
					c0-6.504,5.273-11.777,11.777-11.777h66.727c6.504,0,11.777,5.273,11.777,11.777l0,0
					C501.117,146.605,495.844,151.878,489.34,151.878z"/>
				<g>
					<circle style="fill:#FFFFFF;" cx="422.853" cy="140.101" r="8.902"/>
					<circle cx="422.707" cy="135.378" r="3.16"/>
					<path d="M429.118,144.879c-1.43,1.89-3.71,3.11-6.27,3.11c-2.68,0-5.06-1.34-6.48-3.4c0.75-2.8,3.31-4.87,6.34-4.87
						c1.81,0,3.45,0.74,4.64,1.92C428.218,142.509,428.848,143.629,429.118,144.879z"/>
				</g>
				<path style="fill:#FFFFFF;" d="M489.19,134.069h-51.759c-0.511,0-0.926-0.414-0.926-0.925l0,0c0-0.511,0.414-0.926,0.926-0.926
					h51.759c0.511,0,0.926,0.414,0.926,0.926l0,0C490.115,133.655,489.701,134.069,489.19,134.069z"/>
				<path style="fill:#FFFFFF;" d="M449.351,140.644h-11.921c-0.511,0-0.926-0.414-0.926-0.926l0,0c0-0.511,0.414-0.926,0.926-0.926
					h11.921c0.511,0,0.926,0.414,0.926,0.926l0,0C450.277,140.23,449.862,140.644,449.351,140.644z"/>
				<path style="fill:#FFFFFF;" d="M489.652,140.644h-35.083c-0.511,0-0.926-0.414-0.926-0.926l0,0c0-0.511,0.414-0.926,0.926-0.926
					h35.083c0.511,0,0.926,0.414,0.926,0.926l0,0C490.578,140.23,490.163,140.644,489.652,140.644z"/>
				<path style="fill:#FFFFFF;" d="M457.777,147.219h-20.346c-0.511,0-0.926-0.414-0.926-0.926l0,0c0-0.511,0.414-0.925,0.926-0.925
					h20.346c0.511,0,0.926,0.414,0.926,0.925l0,0C458.702,146.805,458.288,147.219,457.777,147.219z"/>
			</g>
			<g>
				<path style="opacity:0.3;fill:#5463C7;" d="M165.46,169.78h-48.695c-4.054,0-7.34-3.286-7.34-7.34v-48.695
					c0-4.054,3.286-7.34,7.34-7.34h48.695c4.054,0,7.34,3.286,7.34,7.34v48.695C172.8,166.493,169.514,169.78,165.46,169.78z"/>
				<path style="fill:#7ABDE9;" d="M172.8,144.5v17.94c0,4.054-3.286,7.34-7.34,7.34h-48.69c-4.06,0-7.34-3.29-7.34-7.34v-11.61
					l14.453-14.76c3.867-3.95,10.282-3.76,13.909,0.411l20.078,23.089L172.8,144.5z"/>
				<circle style="fill:#FFFFFF;" cx="157.091" cy="121.292" r="7.305"/>
			</g>
		</g>
	</g>
	<g>
		<path style="fill:#7ABDE9;" d="M448.23,257.252h-15.055c-2.254,0-4.081-1.827-4.081-4.081v-33.154
			c0-2.254,1.827-4.081,4.081-4.081h15.055c2.254,0,4.081,1.827,4.081,4.081v33.154C452.31,255.425,450.483,257.252,448.23,257.252z
			"/>
		<rect x="438.021" y="230.106" width="5.362" height="206.904"/>
		<polygon points="476.894,437.011 471.532,437.011 438.021,367.723 443.383,367.723 		"/>
		<polygon points="404.511,437.011 409.872,437.011 443.383,367.723 438.021,367.723 		"/>
		<rect x="427.362" y="233.043" width="26.681" height="3.957"/>
		<circle cx="433.952" cy="220.372" r="2.513"/>
		<path d="M435.328,225.459c0,0.76-0.616,1.376-1.376,1.376c-0.76,0-1.376-0.616-1.376-1.376s0.616-1.376,1.376-1.376
			C434.712,224.082,435.328,224.699,435.328,225.459z"/>
	</g>
	<g>
		<path style="fill:none;stroke:#000000;stroke-width:0.75;stroke-linecap:round;stroke-linejoin:round;stroke-miterlimit:10;" d="
			M139.808,437.011c0,0-8.066-30.632,15.064-44.787c22.723-13.906,42.383,4.085,42.383,4.085s-3.096-11.681,6.766-16.085
			c11.997-5.358,18.255,6.638,18.255,6.638s12.411-17.187,35.164-11.402c19.749,5.021,19.474,25.444,19.474,25.444"/>
		<path style="fill:none;stroke:#FFFFFF;stroke-width:4;stroke-linecap:round;stroke-linejoin:round;stroke-miterlimit:10;" d="
			M322.11,437.011"/>
		<g>
			<path d="M339.193,437.011c-23.253-3.577-31.581-19.112-31.581-19.112c22.311-1.146,34.566,7.134,34.566,7.134l5.028,11.978"/>
			<path style="fill:#51AD9B;" d="M344.103,437.011c0,0-20.268-13.193-22.978-35.349c0,0,19.011,2.946,27.888,22.663
				c0,0-2.907-15.632,6.285-27.848c0,0,10.222,9.421,8.442,27.334c0,0,8.762-25.331,32.644-35.701c0,0-2.33,29.789-25.885,48.901"/>
		</g>
		
			<line style="fill:none;stroke:#000000;stroke-width:0.75;stroke-linecap:round;stroke-linejoin:round;stroke-miterlimit:10;" x1="79.34" y1="437.011" x2="529.17" y2="437.011"/>
		<path style="fill:none;stroke:#000000;stroke-width:0.75;stroke-linecap:round;stroke-linejoin:round;stroke-miterlimit:10;" d="
			M476.894,409.085c0,0,37.532-10.149,41.936,27.925"/>
		<g>
			<path style="fill:#51AD9B;" d="M207.681,453.894c0,0-12.979-6.638-40.809-10.213c0,0,17.995-6.128,42.699,2.042
				c0,0-19.944-17.25-25.561-33.287c0,0,17.713,1.053,33.415,23.17c0,0,1.915-14.936,10.532-21.335c0,0,3.638,11.282,0.766,26.984
				c0,0,8.617-17.058,22.787-22.021c0,0-14.362,18.574-15.894,34.66"/>
			
				<line style="fill:none;stroke:#000000;stroke-width:0.75;stroke-linecap:round;stroke-linejoin:round;stroke-miterlimit:10;" x1="162.021" y1="453.894" x2="298.647" y2="453.894"/>
			<path d="M240.915,453.894c0,0,6.191-14.936,22.085-21.83c0,0-8.426,9.383-12.638,21.83"/>
		</g>
	</g>
</g>
</svg>
