<?xml version="1.0" encoding="utf-8"?>
<!-- Generator: Adobe Illustrator 27.5.0, SVG Export Plug-In . SVG Version: 6.00 Build 0)  -->
<svg version="1.1" xmlns="http://www.w3.org/2000/svg" xmlns:xlink="http://www.w3.org/1999/xlink" x="0px" y="0px"
	 viewBox="0 0 3710 3710" style="enable-background:new 0 0 3710 3710;" xml:space="preserve">
<g id="Background">
	<g>
		<g>
			<rect style="fill:transparent;" width="3710" height="3710"/>
		</g>
	</g>
</g>
<g id="Illustration">
	<g>
		
			<linearGradient id="SVGID_1_" gradientUnits="userSpaceOnUse" x1="3356.3792" y1="3416.0225" x2="1400.2344" y2="1304.6281" gradientTransform="matrix(0.9998 0.021 -0.021 0.9998 11.7168 6.4391)">
			<stop  offset="0" style="stop-color:#B37CFF"/>
			<stop  offset="1" style="stop-color:#F895E7"/>
		</linearGradient>
		<path style="opacity:0.3;fill:url(#SVGID_1_);" d="M3048.413,2283.564c-281.923,622.494-996.961,877.399-1551.8,819.728
			c-151.494-15.747-456.302-47.429-689.98-277.893C357.871,2382.81,447.387,1479.247,896.87,955.611
			c57.884-67.433,458.231-518.968,1066.924-500.032c445.652,13.865,753.231,272.23,790.616,304.398
			c47.227,40.636,151.248,137.03,243.641,288.426C3215.144,1404.132,3224.586,1894.568,3048.413,2283.564z"/>
		<g>
			<g>
				<g style="opacity:0.3;">
					
						<linearGradient id="SVGID_00000078045088488839427770000009460817425562300573_" gradientUnits="userSpaceOnUse" x1="3272.5786" y1="1634.6375" x2="3815.7009" y2="1634.6375" gradientTransform="matrix(-0.6678 0.7444 0.7444 0.6678 2122.3171 -2777.2317)">
						<stop  offset="0" style="stop-color:#B37CFF"/>
						<stop  offset="1" style="stop-color:#F895E7"/>
					</linearGradient>
					<path style="fill:url(#SVGID_00000078045088488839427770000009460817425562300573_);" d="M1304.969,902.92
						c-3.901,3.529-9.924,3.225-13.451-0.676c-6.854-7.578-14.138-14.972-21.652-21.975c-3.802-3.543-4.052-9.47-0.597-13.321
						c0.041-0.046,0.082-0.091,0.124-0.138c3.586-3.847,9.611-4.057,13.459-0.471c7.908,7.372,15.578,15.154,22.792,23.133
						c3.3,3.647,3.246,9.154,0.032,12.736C1305.456,902.455,1305.221,902.694,1304.969,902.92z M1230.955,848.691
						c-8.394-5.911-17.12-11.518-25.945-16.672c-4.538-2.65-6.073-8.482-3.422-13.024c2.677-4.549,8.485-6.072,13.027-3.42
						c9.284,5.42,18.47,11.323,27.304,17.541c4.3,3.028,5.331,8.97,2.303,13.269c-0.22,0.312-0.456,0.608-0.704,0.885
						C1240.34,850.813,1234.943,851.499,1230.955,848.691z M1160.106,809.835c-9.473-3.883-19.23-7.402-29.006-10.458
						c-5.018-1.569-7.816-6.912-6.247-11.93c1.573-5.012,6.909-7.813,11.931-6.247c10.294,3.219,20.572,6.924,30.545,11.014
						c4.866,1.995,7.192,7.557,5.2,12.423c-0.426,1.037-1.013,1.959-1.721,2.748
						C1168.195,810.299,1163.934,811.405,1160.106,809.835z M1082.346,787.801c-10.114-1.671-20.418-2.919-30.626-3.716
						c-5.243-0.411-9.162-4.994-8.752-10.235c0.415-5.242,4.996-9.157,10.235-8.752c10.749,0.841,21.596,2.157,32.241,3.911
						c5.188,0.857,8.702,5.757,7.845,10.945c-0.306,1.856-1.13,3.499-2.3,4.803C1088.889,787.097,1085.677,788.349,1082.346,787.801
						z M1001.615,783.64c-10.207,0.617-20.535,1.679-30.69,3.162c-5.206,0.757-10.039-2.847-10.798-8.05
						c-0.76-5.207,2.846-10.04,8.05-10.795c10.684-1.559,21.55-2.677,32.291-3.326c5.248-0.319,9.761,3.68,10.078,8.931
						c0.16,2.645-0.775,5.104-2.416,6.932C1006.515,782.294,1004.219,783.482,1001.615,783.64z M921.975,797.444
						c-9.833,2.862-19.664,6.183-29.223,9.871c-4.906,1.893-10.42-0.551-12.311-5.455c-1.894-4.907,0.546-10.419,5.455-12.314
						c10.058-3.882,20.409-7.376,30.757-10.389c5.05-1.468,10.333,1.432,11.804,6.482c0.955,3.28,0.064,6.658-2.061,9.027
						C925.25,795.945,923.747,796.93,921.975,797.444z M666.562,1041.99c-5.016-1.577-7.806-6.923-6.228-11.941
						c3.233-10.277,6.96-20.553,11.075-30.538c2.004-4.863,7.571-7.18,12.433-5.174c4.861,2.001,7.177,7.568,5.174,12.43
						c-3.908,9.481-7.444,19.239-10.513,28.998c-0.421,1.339-1.109,2.518-1.99,3.499
						C674.096,1041.958,670.24,1043.148,666.562,1041.99z M847.423,828.54c-8.945,4.975-17.784,10.398-26.268,16.124
						c-4.362,2.94-10.281,1.79-13.221-2.569c-2.943-4.362-1.775-10.26,2.57-13.22c8.936-6.028,18.243-11.74,27.664-16.978
						c4.596-2.555,10.394-0.902,12.95,3.695c2.027,3.645,1.406,8.047-1.232,10.988C849.199,827.346,848.372,828.01,847.423,828.54z
						 M698.261,965.29c-4.535-2.659-6.056-8.495-3.395-13.032c5.452-9.291,11.377-18.469,17.605-27.283
						c3.019-4.312,8.978-5.313,13.273-2.28c4.293,3.035,5.314,8.977,2.279,13.273c-5.92,8.376-11.551,17.099-16.73,25.929
						c-0.33,0.563-0.712,1.078-1.132,1.546C707.201,966.743,702.232,967.62,698.261,965.29z M781.701,875.509
						c-7.602,6.847-15.008,14.112-22.013,21.597c-3.592,3.843-9.617,4.042-13.459,0.448c-3.789-3.547-4.034-9.463-0.584-13.308
						c0.045-0.05,0.091-0.101,0.138-0.148c7.372-7.883,15.169-15.533,23.168-22.74c3.91-3.518,9.93-3.204,13.451,0.703
						c3.288,3.649,3.229,9.146,0.02,12.723C782.197,875.034,781.955,875.276,781.701,875.509z"/>
					
						<linearGradient id="SVGID_00000067924034057406243100000004156233508440028348_" gradientUnits="userSpaceOnUse" x1="3842.1035" y1="1491.582" x2="3873.8235" y2="1491.582" gradientTransform="matrix(-0.6678 0.7444 0.7444 0.6678 2122.3171 -2777.2317)">
						<stop  offset="0" style="stop-color:#B37CFF"/>
						<stop  offset="1" style="stop-color:#F895E7"/>
					</linearGradient>
					<path style="fill:url(#SVGID_00000067924034057406243100000004156233508440028348_);" d="M662.306,1104.602
						c1.252-1.396,2.108-3.174,2.356-5.177c0.604-4.873,1.322-9.812,2.127-14.687c0.86-5.187-2.649-10.092-7.836-10.95
						c-5.188-0.862-10.099,2.646-10.95,7.839c-0.851,5.126-1.604,10.321-2.241,15.449c-0.648,5.218,3.058,9.977,8.274,10.623
						C657.255,1108.1,660.294,1106.845,662.306,1104.602z"/>
				</g>
				<g style="opacity:0.3;">
					
						<linearGradient id="SVGID_00000167395509748132629800000005373726771351695010_" gradientUnits="userSpaceOnUse" x1="4006.7478" y1="1733.9637" x2="4028.5146" y2="1733.9637" gradientTransform="matrix(-0.6678 0.7444 0.7444 0.6678 2122.3171 -2777.2317)">
						<stop  offset="0" style="stop-color:#B37CFF"/>
						<stop  offset="1" style="stop-color:#F895E7"/>
					</linearGradient>
					<path style="fill:url(#SVGID_00000167395509748132629800000005373726771351695010_);" d="M741.872,1383.801
						c3.069-3.421,3.289-8.657,0.305-12.344c-3.09-3.814-6.152-7.758-9.099-11.72c-3.14-4.221-9.105-5.097-13.324-1.959
						c-4.237,3.152-5.096,9.106-1.959,13.324c3.104,4.171,6.328,8.325,9.58,12.342c3.31,4.086,9.306,4.716,13.394,1.407
						C741.171,1384.526,741.538,1384.173,741.872,1383.801z"/>
					
						<linearGradient id="SVGID_00000061465343773679666450000007179840469572159617_" gradientUnits="userSpaceOnUse" x1="3473.7378" y1="1981.5541" x2="4033.167" y2="1981.5541" gradientTransform="matrix(-0.6678 0.7444 0.7444 0.6678 2122.3171 -2777.2317)">
						<stop  offset="0" style="stop-color:#B37CFF"/>
						<stop  offset="1" style="stop-color:#F895E7"/>
					</linearGradient>
					<path style="fill:url(#SVGID_00000061465343773679666450000007179840469572159617_);" d="M1293.218,1412.193
						c-3.698,3.738-9.729,3.77-13.469,0.068c-3.737-3.7-3.764-9.718-0.068-13.466c7.043-7.116,13.892-14.644,20.439-22.455
						c3.349-4.022,9.386-4.558,13.416-1.18c4.03,3.378,4.559,9.384,1.182,13.416c-2.836,3.384-5.718,6.708-8.644,9.97
						C1301.9,1403.2,1297.575,1407.792,1293.218,1412.193z M1332.147,1349.619c-4.448-2.801-5.785-8.68-2.983-13.129
						c5.377-8.546,10.454-17.408,15.085-26.346c2.402-4.671,8.165-6.495,12.836-4.076c4.667,2.418,6.492,8.165,4.073,12.833
						c-4.875,9.411-10.217,18.742-15.879,27.733c-0.294,0.466-0.622,0.899-0.977,1.295
						C1341.261,1351.319,1336.133,1352.128,1332.147,1349.619z M1254.277,1446.488c-8.411,6.441-17.214,12.611-26.167,18.334
						c-4.431,2.833-10.32,1.538-13.155-2.894c-2.832-4.43-1.533-10.312,2.894-13.152c8.503-5.434,16.861-11.291,24.847-17.409
						c4.177-3.196,10.153-2.405,13.352,1.772c2.828,3.694,2.532,8.797-0.466,12.139
						C1255.192,1445.713,1254.757,1446.119,1254.277,1446.488z M1369.661,1277.077c-4.956-1.755-7.554-7.199-5.796-12.155
						c3.367-9.502,6.366-19.262,8.917-29.007c1.33-5.093,6.532-8.134,11.623-6.801c5.087,1.331,8.131,6.533,6.801,11.62
						c-2.686,10.263-5.845,20.541-9.389,30.547c-0.43,1.208-1.074,2.279-1.882,3.179
						C1377.434,1277.246,1373.408,1278.404,1369.661,1277.077z M1182.609,1489.686c-9.616,4.43-19.557,8.51-29.548,12.127
						c-4.944,1.791-10.402-0.764-12.194-5.708c-1.794-4.947,0.765-10.406,5.71-12.197c9.49-3.438,18.932-7.312,28.064-11.52
						c4.777-2.2,10.434-0.111,12.634,4.666c1.639,3.559,0.897,7.606-1.562,10.347
						C1184.871,1488.339,1183.825,1489.126,1182.609,1489.686z M1103.204,1516.119c-10.377,2.226-20.969,4.04-31.482,5.393
						c-5.217,0.669-9.989-3.014-10.66-8.231c-0.671-5.224,3.014-9.994,8.231-10.657c9.988-1.286,20.054-3.009,29.916-5.123
						c5.142-1.104,10.205,2.171,11.308,7.314c0.663,3.099-0.262,6.169-2.228,8.36
						C1106.993,1514.619,1105.245,1515.682,1103.204,1516.119z M1019.922,1524.62c-10.621-0.086-21.358-0.623-31.907-1.592
						c-5.239-0.482-9.091-5.117-8.611-10.354c0.482-5.244,5.119-9.092,10.354-8.611c10.025,0.923,20.224,1.43,30.319,1.512
						c5.259,0.043,9.488,4.341,9.444,9.599c-0.019,2.416-0.935,4.613-2.43,6.279
						C1025.329,1523.417,1022.766,1524.643,1019.922,1524.62z M936.771,1514.752c-10.344-2.406-20.706-5.283-30.796-8.551
						c-5.003-1.62-7.747-6.989-6.125-11.994c1.617-4.995,6.991-7.742,11.994-6.123c9.58,3.102,19.417,5.833,29.245,8.119
						c5.122,1.192,8.308,6.308,7.115,11.43c-0.377,1.618-1.144,3.041-2.18,4.196
						C943.779,1514.331,940.277,1515.566,936.771,1514.752z M857.779,1486.838c-9.536-4.615-19.001-9.701-28.135-15.116
						c-4.525-2.682-6.019-8.525-3.336-13.049c2.675-4.508,8.522-6.017,13.046-3.335c8.676,5.145,17.666,9.974,26.724,14.36
						c4.732,2.289,6.713,7.986,4.421,12.718c-0.399,0.824-0.9,1.566-1.482,2.216
						C866.255,1487.711,861.688,1488.731,857.779,1486.838z M786.918,1442.308c-6.119-4.849-12.163-9.948-17.964-15.151
						c-2.102-1.885-4.173-3.786-6.223-5.708c-3.835-3.595-4.151-9.643-0.435-13.457c3.594-3.839,9.621-4.034,13.46-0.438
						c1.947,1.824,3.919,3.636,5.916,5.426c5.516,4.948,11.258,9.793,17.076,14.404c4.121,3.265,4.814,9.256,1.547,13.376
						c-0.123,0.154-0.249,0.306-0.38,0.451C796.579,1444.929,790.883,1445.453,786.918,1442.308z"/>
					
						<linearGradient id="SVGID_00000079455340622653410920000011483854440829198740_" gradientUnits="userSpaceOnUse" x1="3417.9746" y1="2099.4724" x2="3449.29" y2="2099.4724" gradientTransform="matrix(-0.6678 0.7444 0.7444 0.6678 2122.3171 -2777.2317)">
						<stop  offset="0" style="stop-color:#B37CFF"/>
						<stop  offset="1" style="stop-color:#F895E7"/>
					</linearGradient>
					<path style="fill:url(#SVGID_00000079455340622653410920000011483854440829198740_);" d="M1398.534,1194.72
						c1.264-1.409,2.122-3.206,2.364-5.225c0.61-5.119,1.123-10.348,1.525-15.541c0.407-5.244-3.514-9.824-8.757-10.23
						c-5.244-0.404-9.824,3.509-10.23,8.757c-0.383,4.933-0.871,9.9-1.449,14.761c-0.624,5.219,3.104,9.958,8.327,10.581
						C1393.516,1198.203,1396.535,1196.949,1398.534,1194.72z"/>
				</g>
				<g>
					
						<linearGradient id="SVGID_00000014617784802744028760000014217109398340754847_" gradientUnits="userSpaceOnUse" x1="-3152.5447" y1="766.1064" x2="-1070.9277" y2="3566.5544" gradientTransform="matrix(0.7136 -0.7006 0.7006 0.7136 1234.278 -1847.7384)">
						<stop  offset="0" style="stop-color:#A737D5"/>
						<stop  offset="1" style="stop-color:#EF497A"/>
					</linearGradient>
					<path style="fill:url(#SVGID_00000014617784802744028760000014217109398340754847_);" d="M1297.7,1066.338
						c-0.294-1.876-1.745-3.359-3.614-3.693l-53.322-9.533c-9.505-23.443-22.817-45.538-39.795-65.273l15.904-51.744
						c0.557-1.815-0.098-3.784-1.632-4.903l-52.49-38.292c-1.534-1.12-3.61-1.142-5.167-0.057l-44.417,30.944
						c-23.976-10.141-49.081-16.072-74.307-17.965l-25.359-47.864c-0.889-1.677-2.745-2.607-4.62-2.313l-64.193,10.039
						c-1.875,0.293-3.36,1.745-3.693,3.614l-9.533,53.322c-23.443,9.505-45.539,22.816-65.273,39.795l-51.744-15.904
						c-1.815-0.558-3.784,0.097-4.903,1.631l-38.293,52.491c-1.119,1.534-1.141,3.609-0.056,5.167l30.944,44.418
						c-10.142,23.976-16.072,49.081-17.965,74.307l-47.865,25.358c-1.677,0.889-2.607,2.744-2.313,4.62l10.039,64.193
						c0.293,1.875,1.745,3.359,3.613,3.693l53.323,9.533c9.504,23.443,22.817,45.538,39.795,65.272l-15.904,51.744
						c-0.559,1.815,0.097,3.784,1.631,4.903l52.491,38.292c1.534,1.119,3.609,1.142,5.166,0.056l44.418-30.944
						c23.976,10.141,49.081,16.072,74.307,17.965l25.359,47.864c0.888,1.678,2.743,2.607,4.62,2.314l64.193-10.04
						c1.876-0.294,3.359-1.745,3.693-3.614l9.533-53.323c23.443-9.505,45.538-22.817,65.273-39.794l51.744,15.904
						c1.814,0.557,3.783-0.098,4.903-1.632l38.292-52.491c1.119-1.534,1.142-3.609,0.056-5.167l-30.943-44.417
						c10.141-23.976,16.071-49.081,17.965-74.307l47.865-25.359c1.678-0.889,2.607-2.745,2.313-4.62L1297.7,1066.338z"/>
					<path style="opacity:0.56;fill:#FFFFFF;" d="M1062.603,1192.75c-27.7,23.012-68.955,19.202-91.971-8.499
						c-11.15-13.417-16.405-30.375-14.799-47.745c1.604-17.368,9.874-33.077,23.297-44.223c27.7-23.012,68.955-19.202,91.971,8.498
						c20.937,25.201,19.671,61.62-1.588,85.318C1067.406,1188.449,1065.1,1190.675,1062.603,1192.75z M971.005,1137.909
						c-1.231,13.32,2.799,26.319,11.347,36.609c17.644,21.235,49.279,24.16,70.515,6.515c21.249-17.643,24.16-49.279,6.515-70.517
						c-17.644-21.234-49.279-24.16-70.515-6.515c-1.926,1.601-3.709,3.321-5.351,5.151
						C976.386,1117.099,972.006,1127.085,971.005,1137.909z"/>
					<path style="opacity:0.56;fill:#FFFFFF;" d="M1138.838,1250.084c3.651-4.07,7.119-8.347,10.386-12.824l0,0
						c1.029-1.409,2.034-2.835,3.017-4.277c4.844-7.11,9.115-14.594,12.748-22.337c0.049-0.105,0.099-0.211,0.149-0.316
						c0.139-0.3,0.278-0.6,0.414-0.902c0.27-0.585,0.533-1.173,0.795-1.76c0.688-1.547,0.262-3.306-0.933-4.38
						c-0.291-0.261-0.628-0.481-1.003-0.648c-1.922-0.854-4.169,0.018-5.025,1.936c-4.393,9.893-9.883,19.378-16.316,28.192
						c-31.939,43.797-82.95,65.633-133.412,62.461c-28.068-1.761-55.967-11.263-80.322-29.032
						c-4.272-3.115-8.355-6.423-12.235-9.907c-26.123-23.44-43.248-54.89-48.743-90.034c-6.315-40.369,3.47-80.782,27.55-113.79
						c49.739-68.167,145.595-83.138,213.734-33.429c4.202,3.065,8.232,6.331,12.077,9.782
						c16.663,14.953,29.869,33.386,38.605,54.023c0.226,0.533,0.558,0.988,0.963,1.349c1.063,0.954,2.625,1.268,4.028,0.673
						c1.936-0.827,2.848-3.052,2.022-4.994c-9.172-21.665-23.036-41.02-40.529-56.718c-4.036-3.623-8.266-7.05-12.675-10.269
						c-71.54-52.19-172.209-36.422-224.38,35.091c-25.281,34.654-35.551,77.078-28.922,119.458
						c5.768,36.896,23.747,69.911,51.17,94.521c4.076,3.656,8.361,7.128,12.843,10.399c34.657,25.281,77.081,35.553,119.46,28.925
						C1081.206,1295.505,1114.228,1277.517,1138.838,1250.084z"/>
				</g>
			</g>
			<g>
				<g style="opacity:0.3;">
					
						<linearGradient id="SVGID_00000068648811943478469090000002641045154166749329_" gradientUnits="userSpaceOnUse" x1="2949.5044" y1="2086.9954" x2="2964.9856" y2="2086.9954" gradientTransform="matrix(-0.6678 0.7444 0.7444 0.6678 2122.3171 -2777.2317)">
						<stop  offset="0" style="stop-color:#B37CFF"/>
						<stop  offset="1" style="stop-color:#F895E7"/>
					</linearGradient>
					<path style="fill:url(#SVGID_00000068648811943478469090000002641045154166749329_);" d="M1709.462,827.895
						c1.699-1.894,2.029-4.747,0.62-7.021c-2.626-4.246-5.418-8.471-8.297-12.555c-1.871-2.654-5.537-3.289-8.195-1.418
						c-2.667,1.863-3.289,5.541-1.418,8.195c2.743,3.892,5.404,7.918,7.911,11.97c1.706,2.76,5.331,3.613,8.096,1.907
						C1708.668,828.668,1709.096,828.303,1709.462,827.895z"/>
					
						<linearGradient id="SVGID_00000052094225336924866130000018232389640150383002_" gradientUnits="userSpaceOnUse" x1="2943.2371" y1="1913.0786" x2="3246.6492" y2="1913.0786" gradientTransform="matrix(-0.6678 0.7444 0.7444 0.6678 2122.3171 -2777.2317)">
						<stop  offset="0" style="stop-color:#B37CFF"/>
						<stop  offset="1" style="stop-color:#F895E7"/>
					</linearGradient>
					<path style="fill:url(#SVGID_00000052094225336924866130000018232389640150383002_);" d="M1681.803,792.199
						c-2.405,2.182-6.122,2.008-8.308-0.398c-5.517-6.064-11.408-11.916-17.509-17.389c-1.287-1.154-2.592-2.297-3.912-3.432
						c-2.459-2.118-2.74-5.83-0.623-8.294c2.095-2.249,5.83-2.74,8.298-0.623c1.38,1.188,2.745,2.385,4.091,3.593
						c6.396,5.737,12.573,11.873,18.356,18.235c2.048,2.249,2.021,5.659,0.031,7.878
						C1682.095,791.916,1681.952,792.058,1681.803,792.199z M1628.283,752.92c-8.269-5.516-16.952-10.57-25.81-15.017
						c-2.904-1.459-4.073-4.989-2.616-7.895c1.454-2.885,4.991-4.076,7.895-2.617c9.284,4.66,18.389,9.958,27.057,15.743
						c2.703,1.803,3.432,5.455,1.63,8.16c-0.158,0.236-0.335,0.459-0.521,0.666C1633.996,754.103,1630.746,754.562,1628.283,752.92z
						 M1574.994,726.192c-9.353-3.318-19.013-6.08-28.717-8.216c-3.169-0.698-5.176-3.837-4.478-7.007
						c0.702-3.182,3.831-5.182,7.007-4.482c10.175,2.238,20.31,5.141,30.117,8.616c3.061,1.086,4.667,4.448,3.58,7.509
						c-0.267,0.745-0.666,1.405-1.165,1.961C1579.795,726.294,1577.308,727.01,1574.994,726.192z M1516.766,713.372
						c-9.897-0.923-19.943-1.24-29.845-0.937c-3.25,0.097-5.961-2.455-6.058-5.701c-0.096-3.238,2.451-5.957,5.697-6.058
						c10.391-0.315,20.918,0.016,31.3,0.984c3.234,0.301,5.612,3.171,5.311,6.405c-0.126,1.302-0.663,2.468-1.476,3.374
						C1520.492,712.779,1518.696,713.552,1516.766,713.372z M1457.172,715.157c-9.82,1.511-19.634,3.643-29.18,6.337
						c-3.122,0.883-6.373-0.937-7.257-4.064c-0.883-3.126,0.931-6.379,4.064-7.257c10.003-2.825,20.293-5.058,30.583-6.646
						c3.211-0.491,6.214,1.709,6.707,4.917c0.279,1.813-0.301,3.561-1.437,4.827C1459.777,714.249,1458.57,714.94,1457.172,715.157z
						 M1399.818,731.354c-9.148,3.85-18.138,8.307-26.727,13.253c-2.812,1.621-6.411,0.653-8.03-2.161
						c-1.619-2.814-0.656-6.399,2.161-8.034c9.004-5.186,18.439-9.863,28.034-13.901c2.994-1.256,6.442,0.147,7.701,3.139
						c0.911,2.167,0.427,4.573-1.044,6.213C1401.352,730.488,1400.648,731.006,1399.818,731.354z M1348.189,761.074
						c-7.899,5.958-15.528,12.493-22.675,19.426c-2.334,2.258-6.057,2.202-8.316-0.131c-2.262-2.329-2.173-6.015,0.126-8.32
						c7.497-7.264,15.495-14.116,23.779-20.365c2.594-1.955,6.283-1.439,8.239,1.154c1.72,2.28,1.526,5.412-0.315,7.464
						C1348.778,760.58,1348.499,760.839,1348.189,761.074z M1280.021,828.838c-2.761-1.713-3.608-5.336-1.895-8.097
						c4.74-7.641,9.983-15.153,15.561-22.309c0.842-1.093,1.697-2.166,2.558-3.238c1.955-2.574,5.742-2.927,8.272-0.878
						c2.528,2.041,2.92,5.741,0.881,8.271c-0.812,1-1.613,2.014-2.417,3.056c-5.341,6.848-10.342,14.013-14.863,21.299
						c-0.185,0.301-0.396,0.579-0.622,0.831C1285.626,829.858,1282.479,830.365,1280.021,828.838z"/>
				</g>
				<g style="opacity:0.3;">
					
						<linearGradient id="SVGID_00000117647547687546683070000012630930801846064539_" gradientUnits="userSpaceOnUse" x1="3078.6462" y1="2203.9424" x2="3424.9451" y2="2203.9424" gradientTransform="matrix(-0.6678 0.7444 0.7444 0.6678 2122.3171 -2777.2317)">
						<stop  offset="0" style="stop-color:#B37CFF"/>
						<stop  offset="1" style="stop-color:#F895E7"/>
					</linearGradient>
					<path style="fill:url(#SVGID_00000117647547687546683070000012630930801846064539_);" d="M1680.739,1126.828
						c-6.943,7.541-14.409,14.72-22.184,21.348c-2.473,2.103-6.184,1.81-8.292-0.665c-2.109-2.474-1.773-6.177,0.665-8.292
						c7.417-6.316,14.536-13.167,21.16-20.361c2.198-2.391,5.922-2.542,8.309-0.343c2.37,2.183,2.541,5.863,0.397,8.253
						C1680.776,1126.787,1680.756,1126.809,1680.739,1126.828z M1691.996,1104.285c-2.634-1.897-3.233-5.574-1.333-8.207
						c5.709-7.929,10.997-16.283,15.713-24.834c1.567-2.823,5.146-3.879,7.993-2.304c2.845,1.568,3.874,5.142,2.308,7.989
						c-4.944,8.96-10.484,17.716-16.47,26.023c-0.127,0.176-0.258,0.339-0.4,0.498
						C1697.828,1105.654,1694.462,1106.061,1691.996,1104.285z M1633.921,1166.682c-8.565,5.642-17.545,10.81-26.694,15.358
						c-2.909,1.445-6.442,0.258-7.885-2.649c-1.449-2.909-0.263-6.424,2.645-7.885c8.729-4.337,17.294-9.265,25.468-14.644
						c2.714-1.786,6.36-1.035,8.144,1.673c1.502,2.282,1.211,5.222-0.531,7.163
						C1634.738,1166.064,1634.355,1166.396,1633.921,1166.682z M1722.229,1052.349c-3.014-1.208-4.477-4.634-3.27-7.648
						c3.636-9.068,6.749-18.448,9.252-27.884c0.837-3.135,4.058-5.005,7.19-4.179c3.141,0.834,5.013,4.054,4.179,7.194
						c-2.621,9.898-5.887,19.739-9.702,29.247c-0.265,0.657-0.635,1.24-1.081,1.738
						C1727.193,1052.605,1724.585,1053.293,1722.229,1052.349z M1578.879,1194.031c-9.648,3.409-19.606,6.262-29.601,8.484
						c-3.171,0.705-6.313-1.297-7.018-4.468c-0.705-3.171,1.29-6.316,4.467-7.019c9.535-2.113,19.03-4.837,28.231-8.092
						c3.061-1.081,6.422,0.522,7.505,3.589c0.743,2.097,0.219,4.34-1.171,5.89C1580.657,1193.123,1579.84,1193.69,1578.879,1194.031
						z M1518.873,1207.378c-10.204,1.001-20.56,1.39-30.777,1.159c-3.245-0.073-5.817-2.761-5.744-6.009
						c0.07-3.244,2.761-5.821,6.013-5.748c9.743,0.218,19.622-0.156,29.36-1.11c3.232-0.318,6.11,2.047,6.427,5.28
						c0.166,1.707-0.414,3.317-1.478,4.504C1521.728,1206.51,1520.396,1207.229,1518.873,1207.378z M1457.394,1205.975
						c-10.154-1.47-20.306-3.58-30.169-6.262c-3.137-0.855-4.984-4.086-4.131-7.22c0.851-3.134,4.088-4.979,7.217-4.131
						c9.406,2.562,19.086,4.571,28.766,5.968c3.216,0.466,5.446,3.45,4.977,6.665c-0.169,1.194-0.69,2.248-1.438,3.081
						C1461.347,1205.49,1459.417,1206.266,1457.394,1205.975z"/>
					
						<linearGradient id="SVGID_00000037660120388600882980000012446177465158326200_" gradientUnits="userSpaceOnUse" x1="3040.5776" y1="2225.6045" x2="3064.2612" y2="2225.6045" gradientTransform="matrix(-0.6678 0.7444 0.7444 0.6678 2122.3171 -2777.2317)">
						<stop  offset="0" style="stop-color:#B37CFF"/>
						<stop  offset="1" style="stop-color:#F895E7"/>
					</linearGradient>
					<path style="fill:url(#SVGID_00000037660120388600882980000012446177465158326200_);" d="M1744.247,992.474
						c0.758-0.844,1.279-1.916,1.445-3.125c0.685-4.987,1.224-10.017,1.607-14.951c0.249-3.237-2.172-6.069-5.411-6.32
						c-3.232-0.241-6.062,2.174-6.32,5.411c-0.363,4.705-0.879,9.504-1.53,14.263c-0.442,3.218,1.812,6.185,5.028,6.625
						C1741.075,994.651,1742.987,993.878,1744.247,992.474z"/>
				</g>
				<g>
					
						<linearGradient id="SVGID_00000124862553835351184060000006013880722672680086_" gradientUnits="userSpaceOnUse" x1="-2944.0247" y1="611.111" x2="-862.4066" y2="3411.5608" gradientTransform="matrix(0.7136 -0.7006 0.7006 0.7136 1234.278 -1847.7384)">
						<stop  offset="0" style="stop-color:#A737D5"/>
						<stop  offset="1" style="stop-color:#EF497A"/>
					</linearGradient>
					<path style="fill:url(#SVGID_00000124862553835351184060000006013880722672680086_);" d="M1677.709,902.422
						c-0.197-1.255-1.168-2.248-2.418-2.471l-35.681-6.38c-6.361-15.687-15.269-30.471-26.629-43.677l10.642-34.625
						c0.373-1.215-0.065-2.532-1.092-3.281l-35.124-25.623c-1.026-0.75-2.415-0.764-3.457-0.039l-29.722,20.707
						c-16.044-6.786-32.843-10.755-49.723-12.022l-16.969-32.028c-0.595-1.123-1.837-1.744-3.092-1.548l-42.955,6.718
						c-1.255,0.196-2.248,1.167-2.471,2.419l-6.379,35.68c-15.687,6.36-30.473,15.268-43.678,26.629l-34.624-10.643
						c-1.215-0.373-2.532,0.065-3.281,1.091l-25.624,35.125c-0.749,1.027-0.763,2.415-0.037,3.457l20.706,29.722
						c-6.786,16.044-10.755,32.843-12.021,49.722l-32.03,16.969c-1.122,0.595-1.745,1.836-1.548,3.091l6.718,42.956
						c0.196,1.255,1.168,2.247,2.418,2.471l35.682,6.38c6.36,15.687,15.267,30.472,26.629,43.677l-10.642,34.625
						c-0.374,1.214,0.064,2.531,1.091,3.28l35.125,25.624c1.026,0.749,2.415,0.764,3.457,0.037l29.722-20.706
						c16.044,6.786,32.843,10.755,49.723,12.021l16.969,32.029c0.594,1.123,1.836,1.744,3.092,1.548l42.955-6.718
						c1.255-0.196,2.248-1.168,2.472-2.418l6.379-35.681c15.687-6.36,30.472-15.268,43.678-26.629l34.624,10.642
						c1.214,0.373,2.532-0.065,3.281-1.092l25.623-35.125c0.748-1.026,0.764-2.415,0.037-3.457l-20.705-29.722
						c6.786-16.044,10.754-32.843,12.021-49.723l32.029-16.969c1.123-0.594,1.744-1.837,1.548-3.091L1677.709,902.422z"/>
					<path style="opacity:0.56;fill:#FFFFFF;" d="M1520.896,987.612c-9.14,7.599-20.692,11.179-32.526,10.083
						c-11.83-1.091-22.529-6.727-30.123-15.869c-15.675-18.865-13.077-46.92,5.788-62.65c18.873-15.672,46.974-13.074,62.644,5.79
						c7.595,9.14,11.177,20.69,10.084,32.522c-0.889,9.618-4.781,18.488-11.116,25.551
						C1524.191,984.662,1522.603,986.192,1520.896,987.612z M1467.292,974.308c5.587,6.725,13.456,10.872,22.163,11.677
						c8.701,0.803,17.199-1.832,23.922-7.417l0,0c6.716-5.595,10.868-13.456,11.673-22.163c0.807-8.7-1.832-17.198-7.415-23.919
						c-11.531-13.879-32.201-15.789-46.083-4.262c-1.251,1.042-2.405,2.156-3.462,3.334
						C1457.438,943.431,1456.804,961.685,1467.292,974.308z"/>
					<path style="opacity:0.56;fill:#FFFFFF;" d="M1573.958,1027.513c2.485-2.77,4.848-5.689,7.09-8.755
						c4.447-6.092,8.278-12.642,11.395-19.488c0.138-0.309,0.275-0.617,0.413-0.926c1.063-2.388,0.405-5.104-1.441-6.763
						c-0.449-0.403-0.969-0.742-1.548-1c-2.968-1.319-6.433,0.032-7.759,2.989c-2.849,6.419-6.404,12.557-10.561,18.249
						l-0.002,0.002c-0.227,0.313-0.46,0.624-0.69,0.932c-9.961,13.383-22.88,23.775-37.634,30.589
						c-8.009,3.698-16.566,6.338-25.492,7.817c-0.073,0.012-0.145,0.024-0.218,0.036c-0.224,0.034-0.444,0.073-0.666,0.105
						c-26.134,4.085-52.296-2.247-73.665-17.837c-2.767-2.016-5.407-4.156-7.921-6.411c-16.911-15.175-27.996-35.536-31.557-58.29
						c-4.086-26.134,2.251-52.293,17.839-73.659c15.587-21.349,38.568-35.388,64.7-39.48c26.133-4.086,52.296,2.247,73.665,17.837
						c2.72,1.981,5.329,4.098,7.817,6.33c10.789,9.683,19.337,21.614,24.991,34.973c0.349,0.823,0.861,1.525,1.487,2.083
						c1.642,1.473,4.054,1.958,6.22,1.039c2.987-1.274,4.391-4.715,3.122-7.712c-6.328-14.947-15.893-28.3-27.958-39.131
						c-2.787-2.501-5.704-4.866-8.745-7.085c-23.911-17.443-53.179-24.528-82.42-19.955c-29.235,4.575-54.949,20.234-72.382,44.165
						c-17.443,23.907-24.531,53.173-19.953,82.414c3.978,25.455,16.382,48.233,35.302,65.211c2.809,2.52,5.766,4.918,8.857,7.174
						C1472.535,1076.733,1536.491,1069.278,1573.958,1027.513z"/>
				</g>
			</g>
		</g>
		<g>
			
				<linearGradient id="SVGID_00000134936428022013265030000012022303077231596168_" gradientUnits="userSpaceOnUse" x1="2558.0342" y1="873.7799" x2="1547.1757" y2="2628.6748">
				<stop  offset="0" style="stop-color:#2B3582"/>
				<stop  offset="1" style="stop-color:#150E42"/>
			</linearGradient>
			<path style="fill:url(#SVGID_00000134936428022013265030000012022303077231596168_);" d="M621.862,2811.142
				c0,24.38,19.966,44.326,44.369,44.326H3065.53c24.403,0,44.369-19.947,44.369-44.326l19.964-1378.811
				c0-24.379-28.723-71.974-81.364-68.398L703.641,1303.26c-30.619-0.792-60.223,10.993-81.906,32.604
				c-21.682,21.612-33.546,51.16-32.823,81.751L621.862,2811.142z"/>
			
				<linearGradient id="SVGID_00000020373421539414377130000016154388911633770895_" gradientUnits="userSpaceOnUse" x1="2315.4094" y1="1676.6001" x2="248.6476" y2="3491.1702">
				<stop  offset="0" style="stop-color:#53D8FF"/>
				<stop  offset="1" style="stop-color:#3840F7"/>
			</linearGradient>
			<path style="fill:url(#SVGID_00000020373421539414377130000016154388911633770895_);" d="M665.666,2768.616
				c0,23.086,18.889,41.976,41.976,41.976H3007.67c23.087,0,41.976-18.89,41.976-41.976l18.84-1251.697
				c-2.219-75.324-68.257-102.396-108.288-100.798l-2247.334-60.292c-21.511-0.577-42.309,7.711-57.544,22.907
				c-15.235,15.196-23.615,35.994-23.075,57.505L665.666,2768.616z"/>
			
				<linearGradient id="SVGID_00000148640424650984330370000004959870814557800323_" gradientUnits="userSpaceOnUse" x1="1864.7153" y1="3077.6758" x2="1730.3759" y2="2101.1318">
				<stop  offset="0" style="stop-color:#2B3582"/>
				<stop  offset="1" style="stop-color:#150E42"/>
			</linearGradient>
			<path style="fill:url(#SVGID_00000148640424650984330370000004959870814557800323_);" d="M432.875,2969.927h2817.371
				c3.109,0,5.654-2.544,5.654-5.654v-109.84c0-3.11-2.544-5.654-5.654-5.654H432.875c-3.109,0-5.654,2.544-5.654,5.654v109.84
				C427.221,2967.382,429.765,2969.927,432.875,2969.927z"/>
		</g>
		<g>
			<g>
				
					<linearGradient id="SVGID_00000054262702062676424900000003528834194211351705_" gradientUnits="userSpaceOnUse" x1="869.6707" y1="2783.2134" x2="1350.1715" y2="2138.6401">
					<stop  offset="0" style="stop-color:#2B3582"/>
					<stop  offset="1" style="stop-color:#150E42"/>
				</linearGradient>
				<path style="fill:url(#SVGID_00000054262702062676424900000003528834194211351705_);" d="M915.072,1987.262
					c0,0,219.897,579.94,289.371,700.583c80.645,140.043,316.17,50.805,304.45-66.397
					c-11.72-117.201-286.896-601.634-286.896-601.634L915.072,1987.262z"/>
				
					<linearGradient id="SVGID_00000139295820304574674490000007179974435496411048_" gradientUnits="userSpaceOnUse" x1="1678.8862" y1="1224.4312" x2="2553.5046" y2="2782.1482">
					<stop  offset="0" style="stop-color:#CB236D"/>
					<stop  offset="1" style="stop-color:#4C246D"/>
				</linearGradient>
				<polygon style="fill:url(#SVGID_00000139295820304574674490000007179974435496411048_);" points="1212.193,1564.806 
					2578.934,1090.935 2564.581,2373.304 1174.842,2063.219 				"/>
				
					<linearGradient id="SVGID_00000098934016450372005440000014203071486983429291_" gradientUnits="userSpaceOnUse" x1="3329.2661" y1="1423.7388" x2="2438.5361" y2="1794.877">
					<stop  offset="0" style="stop-color:#A737D5"/>
					<stop  offset="1" style="stop-color:#EF497A"/>
				</linearGradient>
				
					<ellipse style="fill:url(#SVGID_00000098934016450372005440000014203071486983429291_);" cx="2580.223" cy="1735.841" rx="134.277" ry="659.019"/>
				
					<linearGradient id="SVGID_00000119114418628675955510000005108042747150210741_" gradientUnits="userSpaceOnUse" x1="2431.7817" y1="1746.5406" x2="2785.2283" y2="1714.4092">
					<stop  offset="0" style="stop-color:#A737D5"/>
					<stop  offset="1" style="stop-color:#EF497A"/>
				</linearGradient>
				<path style="fill:url(#SVGID_00000119114418628675955510000005108042747150210741_);" d="M2590.414,2349.792
					c-12.136-12.344-38.575-59.958-61.24-183.087c-21.907-118.991-33.97-273.329-33.97-434.584
					c0-161.255,12.063-315.594,33.97-434.584c22.666-123.13,49.105-170.745,61.24-183.089
					c12.136,12.344,38.575,59.959,61.241,183.089c21.907,118.991,33.97,273.329,33.97,434.584
					c0,161.255-12.063,315.593-33.97,434.584C2628.989,2289.833,2602.55,2337.448,2590.414,2349.792z"/>
				<g>
					<defs>
						<path id="SVGID_00000152981871290603574970000008183624570762096061_" d="M2590.414,2349.792
							c-12.136-12.344-38.575-59.958-61.24-183.087c-21.907-118.991-33.97-273.329-33.97-434.584
							c0-161.255,12.063-315.594,33.97-434.584c22.666-123.13,49.105-170.745,61.24-183.089
							c12.136,12.344,38.575,59.959,61.241,183.089c21.907,118.991,194.769,273.329,194.769,434.584
							c0,161.255-172.862,315.593-194.769,434.584C2628.989,2289.833,2602.55,2337.448,2590.414,2349.792z"/>
					</defs>
					<clipPath id="SVGID_00000096754211757589442000000006212777995479295620_">
						<use xlink:href="#SVGID_00000152981871290603574970000008183624570762096061_"  style="overflow:visible;"/>
					</clipPath>
					
						<linearGradient id="SVGID_00000121251822641482024420000007501243030222928811_" gradientUnits="userSpaceOnUse" x1="2877.7112" y1="1710.2876" x2="1924.4731" y2="1764.9823">
						<stop  offset="0" style="stop-color:#2B3582"/>
						<stop  offset="1" style="stop-color:#150E42"/>
					</linearGradient>
					
						<path style="clip-path:url(#SVGID_00000096754211757589442000000006212777995479295620_);fill:url(#SVGID_00000121251822641482024420000007501243030222928811_);" d="
						M2762.521,1727.212c0,111.974-60.321,202.748-179.709,202.748c-119.388,0-216.172-90.774-216.172-202.748
						c0-111.974,96.783-202.748,216.172-202.748C2702.2,1524.465,2762.521,1615.238,2762.521,1727.212z"/>
				</g>
				
					<linearGradient id="SVGID_00000081623756171300335180000009469789259120672954_" gradientUnits="userSpaceOnUse" x1="1072.0179" y1="2048.9636" x2="1036.8586" y2="1164.1378">
					<stop  offset="0" style="stop-color:#2B3582"/>
					<stop  offset="1" style="stop-color:#150E42"/>
				</linearGradient>
				<path style="fill:url(#SVGID_00000081623756171300335180000009469789259120672954_);" d="M991.758,1537.24
					c64.294-7.467,156.49-10.153,256.174,12.676c-32.843,171.559-27.886,350.375,10.098,535.532l-281.161,0
					c-44.827,0-83.051-32.561-90.041-76.839c-14.012-88.754-31.143-237.927-12.877-357.736
					C883.117,1590.747,931.343,1544.256,991.758,1537.24z"/>
				<path style="fill:#FFFFFF;" d="M1160.497,1668.633H941.439c-7.435,0-13.996-3.898-17.55-10.43
					c-3.552-6.531-3.262-14.159,0.778-20.401c1.691-2.611,5.178-3.344,7.789-1.669c2.611,1.691,3.359,5.178,1.668,7.793
					c-1.76,2.721-1.887,6.043-0.339,8.893c1.549,2.846,4.412,4.548,7.654,4.548h219.058c4.804,0,8.711-3.906,8.711-8.71v-15.589
					c0-4.804-3.907-8.71-8.711-8.71H939.815c-3.112,0-5.633-2.523-5.633-5.633c0-3.11,2.521-5.633,5.633-5.633h220.683
					c11.016,0,19.977,8.963,19.977,19.976v15.589C1180.474,1659.671,1171.514,1668.633,1160.497,1668.633z"/>
				<path style="fill:#FFFFFF;" d="M1140.964,1765.65H921.905c-7.435,0-13.996-3.898-17.549-10.429
					c-3.552-6.531-3.262-14.159,0.777-20.401c1.69-2.608,5.18-3.345,7.789-1.669c2.611,1.691,3.359,5.178,1.669,7.793
					c-1.76,2.721-1.887,6.044-0.34,8.893c1.549,2.846,4.412,4.547,7.654,4.547h219.058c4.804,0,8.711-3.906,8.711-8.709v-15.586
					c0-4.804-3.907-8.713-8.711-8.713H920.281c-3.112,0-5.633-2.523-5.633-5.633c0-3.11,2.521-5.633,5.633-5.633h220.683
					c11.016,0,19.977,8.963,19.977,19.979v15.586C1160.941,1756.687,1151.98,1765.65,1140.964,1765.65z"/>
				<path style="fill:#FFFFFF;" d="M1410.789,1530.096c-2.387,0-4.602-1.53-5.365-3.924c-0.944-2.967,0.695-6.131,3.658-7.078
					l1035.154-329.405c2.963-0.942,6.132,0.697,7.076,3.66c0.944,2.967-0.695,6.132-3.658,7.078L1412.5,1529.832
					C1411.931,1530.012,1411.356,1530.096,1410.789,1530.096z"/>
				<path style="fill:#FFFFFF;" d="M1270.807,1587.32c-2.22,0-4.324-1.32-5.217-3.503c-1.177-2.879,0.204-6.168,3.084-7.345
					l53.276-21.776c2.877-1.185,6.168,0.205,7.346,3.084c1.177,2.879-0.203,6.168-3.084,7.346l-53.276,21.776
					C1272.239,1587.188,1271.517,1587.32,1270.807,1587.32z"/>
				<path style="fill:#FFFFFF;" d="M1160.497,1879.271H941.439c-7.435,0-13.994-3.898-17.548-10.43
					c-3.554-6.531-3.264-14.159,0.776-20.401c1.691-2.615,5.178-3.352,7.789-1.672c2.611,1.691,3.359,5.178,1.668,7.789
					c-1.762,2.725-1.888,6.051-0.337,8.9c1.549,2.846,4.41,4.548,7.652,4.548h219.058c4.804,0,8.711-3.909,8.711-8.713v-15.586
					c0-4.804-3.907-8.71-8.711-8.71H939.815c-3.112,0-5.633-2.523-5.633-5.633c0-3.11,2.521-5.633,5.633-5.633h220.683
					c11.016,0,19.977,8.963,19.977,19.976v15.586C1180.474,1870.308,1171.514,1879.271,1160.497,1879.271z"/>
				<path style="fill:#FFFFFF;" d="M1181.008,2005.387H961.95c-7.435,0-13.994-3.898-17.548-10.43
					c-3.553-6.531-3.264-14.159,0.776-20.401c1.693-2.615,5.18-3.352,7.789-1.672c2.611,1.691,3.359,5.178,1.669,7.789
					c-1.762,2.725-1.888,6.051-0.337,8.9c1.549,2.846,4.41,4.548,7.652,4.548h219.058c4.804,0,8.711-3.906,8.711-8.71v-15.589
					c0-4.804-3.907-8.71-8.711-8.71H960.325c-3.112,0-5.633-2.523-5.633-5.633s2.521-5.633,5.633-5.633h220.683
					c11.016,0,19.977,8.963,19.977,19.975v15.589C1200.985,1996.425,1192.024,2005.387,1181.008,2005.387z"/>
				<path style="fill:#FFFFFF;" d="M1376.655,2691.079c-10.094,0-20.296-1.09-30.474-3.308
					c-44.537-9.704-80.795-39.071-99.476-80.573l-175.015-388.814c-1.278-2.835-0.013-6.168,2.824-7.448
					c2.837-1.28,6.172-0.008,7.448,2.827l175.015,388.814c17.201,38.209,50.589,65.251,91.602,74.185
					c40.308,8.79,81.095-1.643,111.911-28.612c1.652-1.445,3.311-2.93,4.978-4.452c2.296-2.098,5.858-1.94,7.958,0.359
					c2.098,2.296,1.938,5.86-0.359,7.958c-1.729,1.581-3.447,3.117-5.16,4.613
					C1442.164,2679.153,1410.026,2691.079,1376.655,2691.079z"/>
				<path style="fill:#FFFFFF;" d="M1050.952,2164.215c-2.149,0-4.201-1.236-5.14-3.319l-19.524-43.376
					c-1.278-2.835-0.013-6.168,2.824-7.448c2.835-1.276,6.172-0.007,7.448,2.824l19.524,43.372c1.278,2.838,0.013,6.172-2.824,7.451
					C1052.51,2164.057,1051.723,2164.215,1050.952,2164.215z"/>
				<path style="fill:#FFFFFF;" d="M2730.518,1721.375c-2.93,0-5.402-2.266-5.613-5.233c-3.893-54.865-22.909-95.769-56.521-121.576
					c-58.126-44.627-141.066-29.29-141.898-29.125c-3.071,0.583-6.007-1.408-6.595-4.463c-0.591-3.055,1.41-6.011,4.465-6.597
					c3.594-0.693,88.787-16.426,150.89,31.248c36.278,27.852,56.767,71.496,60.896,129.713c0.22,3.103-2.116,5.798-5.22,6.018
					C2730.786,1721.371,2730.652,1721.375,2730.518,1721.375z"/>
			</g>
			<g>
				
					<linearGradient id="SVGID_00000080921700630398118390000003592682312059506878_" gradientUnits="userSpaceOnUse" x1="-468.6581" y1="2890.5906" x2="-463.5268" y2="2356.938" gradientTransform="matrix(1 0 0 1 1001.2734 0)">
					<stop  offset="0" style="stop-color:#CB236D"/>
					<stop  offset="1" style="stop-color:#4C246D"/>
				</linearGradient>
				<path style="fill:url(#SVGID_00000080921700630398118390000003592682312059506878_);" d="M505.936,2814.947
					c0,0-8.289,13.067-10.375,49.651c-0.195,3.409,2.506,6.313,5.92,6.313h64.835c2.608,0,4.47-2.558,3.635-5.03
					c-3.799-11.244-15.287-38.659-40.918-54.325L505.936,2814.947z"/>
				
					<linearGradient id="SVGID_00000054230536196369823880000005721354518441375420_" gradientUnits="userSpaceOnUse" x1="-498.1551" y1="2806.5681" x2="-467.8992" y2="2806.5681" gradientTransform="matrix(1 0 0 1 1001.2734 0)">
					<stop  offset="0" style="stop-color:#F9B776"/>
					<stop  offset="1" style="stop-color:#F47960"/>
				</linearGradient>
				<path style="fill:url(#SVGID_00000054230536196369823880000005721354518441375420_);" d="M503.118,2790.157l3.668,30.748
					c0.316,2.653,2.395,4.777,5.049,5.083c3.546,0.409,8.701,0.696,13.709-0.13c4.553-0.75,7.83-4.806,7.83-9.421v-29.687
					L503.118,2790.157z"/>
				
					<linearGradient id="SVGID_00000107570889629637444360000004463668449614393253_" gradientUnits="userSpaceOnUse" x1="-288.8601" y1="2892.3193" x2="-283.7288" y2="2358.6665" gradientTransform="matrix(1 0 0 1 1001.2734 0)">
					<stop  offset="0" style="stop-color:#CB236D"/>
					<stop  offset="1" style="stop-color:#4C246D"/>
				</linearGradient>
				<path style="fill:url(#SVGID_00000107570889629637444360000004463668449614393253_);" d="M666.347,2811.557
					c0,0-12.409,19.289-12.144,45.765c0.063,6.236,5.284,11.204,11.52,11.204h100.694c4.715,0,6.629-6.059,2.771-8.768
					c-19.054-13.381-56.505-38.376-83.592-48.2H666.347z"/>
				
					<linearGradient id="SVGID_00000127038808588576049060000004532964078913705348_" gradientUnits="userSpaceOnUse" x1="-345.2958" y1="2793.1335" x2="-315.207" y2="2793.1335" gradientTransform="matrix(1 0 0 1 1001.2734 0)">
					<stop  offset="0" style="stop-color:#F9B776"/>
					<stop  offset="1" style="stop-color:#F47960"/>
				</linearGradient>
				<path style="fill:url(#SVGID_00000127038808588576049060000004532964078913705348_);" d="M655.978,2778.351l7.821,37.975
					c0.875,4.248,5.03,7.104,9.262,6.159c2.573-0.574,5.609-1.674,8.852-3.702c3.083-1.927,4.645-5.594,4.015-9.175l-8.091-46.006
					L655.978,2778.351z"/>
				
					<linearGradient id="SVGID_00000181797650179519122370000001201623117573623936_" gradientUnits="userSpaceOnUse" x1="-516.954" y1="2526.2356" x2="-311.8269" y2="2526.2356" gradientTransform="matrix(1 0 0 1 1001.2734 0)">
					<stop  offset="0" style="stop-color:#CB236D"/>
					<stop  offset="1" style="stop-color:#4C246D"/>
				</linearGradient>
				<path style="fill:url(#SVGID_00000181797650179519122370000001201623117573623936_);" d="M517.486,2250.368
					c0,0-27.196,23.977-32.314,52.824c-5.118,28.847,14.501,497.708,14.501,497.708s27.195,4.524,41.215-3.971
					c0,0,16.627-304.287,29.265-374.6c0,0,66.281,315.201,84.646,372.155c0,0,26.2,3.187,34.649-1.798
					c0,0-17.362-408.59-39.178-481.231L517.486,2250.368z"/>
				
					<linearGradient id="SVGID_00000119076954364154630140000014203170465378487952_" gradientUnits="userSpaceOnUse" x1="956.079" y1="1302.8546" x2="355.7205" y2="2898.6785">
					<stop  offset="0" style="stop-color:#CB236D"/>
					<stop  offset="1" style="stop-color:#4C246D"/>
				</linearGradient>
				<path style="fill:url(#SVGID_00000119076954364154630140000014203170465378487952_);" d="M569.358,2412.853
					c-1.496,0-2.862-1.004-3.257-2.518l-11.221-43.04l-23.847-15.3c-1.566-1.005-2.022-3.088-1.018-4.654
					c1.004-1.561,3.093-2.026,4.654-1.013l24.957,16.011c0.713,0.456,1.228,1.163,1.441,1.983l11.552,44.312
					c0.469,1.803-0.61,3.641-2.411,4.11C569.927,2412.817,569.639,2412.853,569.358,2412.853z"/>
				
					<linearGradient id="SVGID_00000015333179596387471610000014779740084243140542_" gradientUnits="userSpaceOnUse" x1="950.3668" y1="743.7344" x2="606.5695" y2="2811.6421">
					<stop  offset="0" style="stop-color:#FDF53F"/>
					<stop  offset="0.6645" style="stop-color:#E57A58"/>
					<stop  offset="1" style="stop-color:#D93C65"/>
				</linearGradient>
				<path style="fill:url(#SVGID_00000015333179596387471610000014779740084243140542_);" d="M754.273,1959.14
					c-111.442,27.895-132.134,59.966-132.134,59.966l80.073,64.496c0,0,105.777-38.355,162.064-123.143
					c-19.517-10.519-35.22-24.14-46.086-35.209C801.295,1940.125,780.268,1952.632,754.273,1959.14z"/>
				
					<linearGradient id="SVGID_00000097465432334048385110000002771456078569074341_" gradientUnits="userSpaceOnUse" x1="662.7669" y1="2077.0198" x2="774.5855" y2="2077.0198" gradientTransform="matrix(0.9467 -0.3222 0.3222 0.9467 -496.472 119.5798)">
					<stop  offset="0" style="stop-color:#F9B776"/>
					<stop  offset="1" style="stop-color:#F47960"/>
				</linearGradient>
				<path style="fill:url(#SVGID_00000097465432334048385110000002771456078569074341_);" d="M869.84,1742.281
					c-1.328-3.424-6.357-2.766-6.76,0.884l-3.784,34.218c-0.731,6.612,0.586,13.288,3.773,19.127l10.698,15.525
					c4.302,7.883,5.036,17.21,1.986,25.656c-7.299,20.211-24.486,58.437-57.563,87.56c10.866,11.069,26.569,24.69,46.086,35.209
					c20.653-31.11,34.652-68.464,34.306-112.48c5.627-4.069,7.812-11.416,5.326-17.9L869.84,1742.281z"/>
				
					<linearGradient id="SVGID_00000137130048734503037260000004630663667088860045_" gradientUnits="userSpaceOnUse" x1="-246.8641" y1="1882.0391" x2="-308.0769" y2="2461.7632" gradientTransform="matrix(1 0 0 1 1001.2734 0)">
					<stop  offset="0" style="stop-color:#FDF53F"/>
					<stop  offset="0.6645" style="stop-color:#E57A58"/>
					<stop  offset="1" style="stop-color:#D93C65"/>
				</linearGradient>
				<path style="fill:url(#SVGID_00000137130048734503037260000004630663667088860045_);" d="M823.55,2029.808
					c-40.304-43.429-117.073-63.05-161.52-71.11c-19.473-3.531-38.667,7.305-45.566,25.853
					c-20.002,53.768-74.403,193.656-84.947,217.698c-8.65,19.724-17.683,38.987-23.422,51.031
					c-3.429,7.195-0.433,15.805,6.747,19.265c37.395,18.025,104.684,38.418,131.964,46.374c6,1.75,11.975-2.755,11.975-9.005
					c0-5.301,1.441-10.503,4.168-15.048L766.265,2122.7c64.395,71.401,120.788,77.929,164.109,62.302
					c-7.284-22.512-12.05-45.066-14.337-67.663C852.037,2106.375,823.55,2029.808,823.55,2029.808z"/>
				
					<linearGradient id="SVGID_00000043455855893899145440000013346734075728426387_" gradientUnits="userSpaceOnUse" x1="109.23" y1="1936.4697" x2="-132.3949" y2="2237.0742" gradientTransform="matrix(1 0 0 1 1001.2734 0)">
					<stop  offset="0" style="stop-color:#F9B776"/>
					<stop  offset="1" style="stop-color:#F47960"/>
				</linearGradient>
				<path style="fill:url(#SVGID_00000043455855893899145440000013346734075728426387_);" d="M1021.819,2105.356l-11.55-15.4
					c-37.391,25.68-68.647,31.766-94.232,27.382c2.286,22.597,7.053,45.151,14.337,67.663
					C987.445,2164.413,1021.819,2105.356,1021.819,2105.356z"/>
				
					<linearGradient id="SVGID_00000131356186884819586680000001659660822217585059_" gradientUnits="userSpaceOnUse" x1="155.04" y1="1973.2927" x2="-86.5841" y2="2273.8962" gradientTransform="matrix(1 0 0 1 1001.2734 0)">
					<stop  offset="0" style="stop-color:#F9B776"/>
					<stop  offset="1" style="stop-color:#F47960"/>
				</linearGradient>
				<path style="fill:url(#SVGID_00000131356186884819586680000001659660822217585059_);" d="M1013.675,2105.635l65.07,2.537
					l59.909-33.46c-8.599-5.391-57.229,5.628-57.229,5.628s-50.837-7.688-64.596-7.706c-11.428-0.015-9.796,16.418-8.914,21.987
					c0.18,1.136,0.328,1.82,0.328,1.82L1013.675,2105.635z"/>
				
					<linearGradient id="SVGID_00000183966668944240696690000017075850626958590375_" gradientUnits="userSpaceOnUse" x1="-162.5991" y1="1754.8015" x2="-396.6128" y2="2184.7786" gradientTransform="matrix(1 0 0 1 1001.2734 0)">
					<stop  offset="0" style="stop-color:#F9B776"/>
					<stop  offset="1" style="stop-color:#F47960"/>
				</linearGradient>
				<path style="fill:url(#SVGID_00000183966668944240696690000017075850626958590375_);" d="M723.166,1878.939l-34.332,83.777
					c0,0,39.447,27.304,71.184,24.705l17.134-75.331L723.166,1878.939z"/>
				<g>
					
						<linearGradient id="SVGID_00000034780520821355754620000008425045367633818243_" gradientUnits="userSpaceOnUse" x1="-421.4198" y1="3695.8164" x2="-524.8407" y2="3832.6338" gradientTransform="matrix(0.817 -0.5767 0.5767 0.817 -1022.1546 -1428.4956)">
						<stop  offset="0" style="stop-color:#F9B776"/>
						<stop  offset="1" style="stop-color:#F47960"/>
					</linearGradient>
					<path style="fill:url(#SVGID_00000034780520821355754620000008425045367633818243_);" d="M781.16,1821.826
						c0.786,1.114,24.837,88,24.837,88l-49.902,12.678l-35.029-78.963C721.065,1843.541,767.996,1803.177,781.16,1821.826z"/>
					
						<linearGradient id="SVGID_00000023282982888658076220000001283992468157905811_" gradientUnits="userSpaceOnUse" x1="481.0065" y1="1709.9646" x2="492.552" y2="2137.1377" gradientTransform="matrix(-1 0 0 1 1240.6851 0)">
						<stop  offset="0" style="stop-color:#2B3582"/>
						<stop  offset="1" style="stop-color:#150E42"/>
					</linearGradient>
					<path style="fill:url(#SVGID_00000023282982888658076220000001283992468157905811_);" d="M739.856,1855.538l15.186,43.011
						c0.195,0.551,0.455,1.062,0.792,1.54c2.061,2.928,9.889,12.481,19.175,3.875c8.426-7.808,16.231-14.809,23.441-16.08
						c3.236-0.57,6.372,1.405,7.247,4.573c2.183,7.895,6.773,25.775,8.392,41.919c0.328,3.276-1.933,6.237-5.168,6.851
						c-9.747,1.851-30.411,5.18-47.664,3.963c-2.338-0.164-4.395-1.567-5.37-3.698c-4.754-10.389-19.322-41.911-24.74-50.066
						c-5.086-7.655-17.552-7.441-22.78-6.977c-1.714,0.152-3.399-0.4-4.693-1.535c-4.573-4.009-13.279-14.245-1.034-26.498
						c2.563-2.564,2.494-6.702-0.147-9.185c-5.258-4.944-10.882-13.713-2.121-24.589c8.905-11.054,20.66-9.295,27.862-6.667
						c2.912,1.063,6.089-0.168,7.672-2.834c0.901-1.517,2.473-2.665,5.199-2.431c3.673,0.316,6.761-2.749,6.695-6.435
						c-0.127-7.082,2.409-16.029,14.693-19.853c21.799-6.785,35.393,14.275,36.74,29.99c1.346,15.715-22.706,21.727-36.85,20.667
						c-10.754-0.806-18.738,9.853-21.948,15.008C739.419,1851.722,739.216,1853.724,739.856,1855.538z"/>
					
						<linearGradient id="SVGID_00000091015537300674092260000009905492286910228633_" gradientUnits="userSpaceOnUse" x1="-572.8906" y1="3804.1646" x2="-489.9387" y2="3719.0581" gradientTransform="matrix(0.817 -0.5767 0.5767 0.817 -1022.1546 -1428.4956)">
						<stop  offset="0" style="stop-color:#F9B776"/>
						<stop  offset="1" style="stop-color:#F47960"/>
					</linearGradient>
					<path style="fill:url(#SVGID_00000091015537300674092260000009905492286910228633_);" d="M736.832,1907.032
						c0,0-3.522-27.281-14.87-28.618c-11.349-1.337-22.395,7.99-11.112,23.303C724.884,1920.764,736.832,1907.032,736.832,1907.032z
						"/>
				</g>
			</g>
			<g>
				
					<linearGradient id="SVGID_00000034811923991510384510000012244549445787187081_" gradientUnits="userSpaceOnUse" x1="1487.333" y1="2195.335" x2="2568.9998" y2="-113.2201">
					<stop  offset="0" style="stop-color:#FDF53F"/>
					<stop  offset="0.6645" style="stop-color:#E57A58"/>
					<stop  offset="1" style="stop-color:#D93C65"/>
				</linearGradient>
				<path style="fill:url(#SVGID_00000034811923991510384510000012244549445787187081_);" d="M1877.615,1701.711
					c0,52.718-13.294,93.151-39.876,121.319c-26.586,28.164-64.985,42.248-115.209,42.248h-23.075v179.857h-92.305v-496.135h125.899
					C1829.426,1549.001,1877.615,1599.904,1877.615,1701.711z M1699.455,1785.189h17.644c22.62,0,39.477-6.216,50.564-18.662
					c11.084-12.441,16.63-32.8,16.63-61.085c0-26.012-5.091-45.304-15.27-57.858c-10.182-12.558-25.909-18.833-47.172-18.833
					h-22.395V1785.189z"/>
				
					<linearGradient id="SVGID_00000060009929117177646160000001406748027200515755_" gradientUnits="userSpaceOnUse" x1="1829.5093" y1="2355.6606" x2="2911.1743" y2="47.1091">
					<stop  offset="0" style="stop-color:#FDF53F"/>
					<stop  offset="0.6645" style="stop-color:#E57A58"/>
					<stop  offset="1" style="stop-color:#D93C65"/>
				</linearGradient>
				<path style="fill:url(#SVGID_00000060009929117177646160000001406748027200515755_);" d="M2032.36,1852.045v193.09h-92.305
					v-496.135h120.811c51.124,0,88.85,12.108,113.172,36.311c24.317,24.212,36.482,61.203,36.482,110.972
					c0,62.665-21.158,106.443-63.459,131.33l95.357,217.522h-98.751l-78.39-193.09H2032.36z M2032.36,1772.636h23.755
					c21.718,0,37.328-6.162,46.83-18.495c9.502-12.328,14.253-30.711,14.253-55.144c0-25.337-5.037-43.377-15.102-54.126
					c-10.069-10.744-25.62-16.119-46.661-16.119h-23.075V1772.636z"/>
			</g>
		</g>
		<g>
			<path style="fill:#FFFFFF;" d="M3205.093,2785.587c-0.741,0-1.394-0.542-1.513-1.298c-0.072-0.449-7.239-44.976-20.87-52.741
				c-2.163-1.229-4.316-1.386-6.583-0.486c-18.277,7.276-8.922,49.157-8.824,49.579c0.188,0.825-0.326,1.648-1.155,1.84
				c-0.802,0.194-1.646-0.327-1.84-1.155c-0.419-1.829-10.026-44.873,10.682-53.115c3.143-1.258,6.257-1.03,9.238,0.669
				c14.908,8.492,22.086,53.038,22.383,54.931c0.133,0.839-0.438,1.625-1.277,1.755
				C3205.255,2785.579,3205.172,2785.587,3205.093,2785.587z"/>
			
				<linearGradient id="SVGID_00000106134274544302699030000000578604334070866084_" gradientUnits="userSpaceOnUse" x1="3218.9807" y1="2655.3171" x2="3135.3403" y2="2739.6377" gradientTransform="matrix(0.997 0.0777 -0.0777 0.997 229.9389 -157.9383)">
				<stop  offset="0" style="stop-color:#C32B78"/>
				<stop  offset="1" style="stop-color:#593092"/>
			</linearGradient>
			<polygon style="fill:url(#SVGID_00000106134274544302699030000000578604334070866084_);" points="3224.08,2780.909 
				3152.974,2774.338 3137.145,2783.115 3150.71,2800.088 3215.656,2793.472 			"/>
			
				<linearGradient id="SVGID_00000008122699911653378190000003423030082620788663_" gradientUnits="userSpaceOnUse" x1="2971.6919" y1="2137.9119" x2="3141.0244" y2="2609.9897">
				<stop  offset="0" style="stop-color:#CB236D"/>
				<stop  offset="1" style="stop-color:#4C246D"/>
			</linearGradient>
			<path style="fill:url(#SVGID_00000008122699911653378190000003423030082620788663_);" d="M3044.337,2175.868
				c16.552-4.074,89.218,40.952,84.164,105.759c-5.053,64.807,29.354,84.432,42.706,117.303
				c13.352,32.871,64.845,129.66-5.721,145.795c-70.566,16.135-80.919-28.31-105.583-18.426
				c-24.665,9.885-75.676-2.307-71.465-35.862C2992.649,2456.882,2990.075,2189.224,3044.337,2175.868z"/>
			
				<linearGradient id="SVGID_00000112611227614139431680000004769688997367035279_" gradientUnits="userSpaceOnUse" x1="2913.3438" y1="2473.7888" x2="3120.1191" y2="2575.1292" gradientTransform="matrix(0.9735 -0.2288 0.2288 0.9735 -561.0512 567.7313)">
				<stop  offset="0" style="stop-color:#F9B776"/>
				<stop  offset="1" style="stop-color:#F47960"/>
			</linearGradient>
			<path style="fill:url(#SVGID_00000112611227614139431680000004769688997367035279_);" d="M2807.368,2191.545
				c0,0,104.419,158.547,225.611,187.289c0,0-22.256,67.376-40.253,75.375c0,0-150.695-121.05-191.053-239.752L2807.368,2191.545z"
				/>
			
				<linearGradient id="SVGID_00000109740001600168679100000009717825705125156520_" gradientUnits="userSpaceOnUse" x1="3333.4446" y1="2499.918" x2="3280.9888" y2="2997.1062" gradientTransform="matrix(0.997 0.0777 -0.0777 0.997 229.9389 -157.9383)">
				<stop  offset="0" style="stop-color:#53D8FF"/>
				<stop  offset="1" style="stop-color:#3840F7"/>
			</linearGradient>
			<path style="fill:url(#SVGID_00000109740001600168679100000009717825705125156520_);" d="M3213.806,3213.875l1.177,27.204
				c0.224,5.16,3.933,9.517,9.004,10.5c8.562,1.66,22.346,3.753,36.022,3.376c6.002-0.165,10.337-5.892,8.969-11.739
				c-2.495-10.661-7.327-26.749-15.332-36.619l-29.894-2.331C3218.225,3203.836,3213.566,3208.337,3213.806,3213.875z"/>
			
				<linearGradient id="SVGID_00000134224347878429969880000017835802761922336162_" gradientUnits="userSpaceOnUse" x1="2992.438" y1="3371.511" x2="3075.623" y2="2399.2842" gradientTransform="matrix(0.997 0.0777 -0.0777 0.997 229.9389 -157.9383)">
				<stop  offset="0" style="stop-color:#F9B776"/>
				<stop  offset="1" style="stop-color:#F47960"/>
			</linearGradient>
			<path style="fill:url(#SVGID_00000134224347878429969880000017835802761922336162_);" d="M3004.283,2879.942l-7.36,29.288
				c0,0,3.552,172.466,1.219,241.159c-0.365,10.77-3.969,21.16-10.316,29.869l-33.101,45.42l78.105-38.24l2.197-8.996l-10.913-17.76
				l30.961-190.48c1.818-11.189,0.375-22.667-4.158-33.058l-13.182-30.219L3004.283,2879.942z"/>
			
				<linearGradient id="SVGID_00000083792354966641094420000016647062991582693025_" gradientUnits="userSpaceOnUse" x1="3085.3821" y1="2473.7454" x2="3032.9265" y2="2970.9333" gradientTransform="matrix(0.997 0.0777 -0.0777 0.997 229.9389 -157.9383)">
				<stop  offset="0" style="stop-color:#53D8FF"/>
				<stop  offset="1" style="stop-color:#3840F7"/>
			</linearGradient>
			<path style="fill:url(#SVGID_00000083792354966641094420000016647062991582693025_);" d="M2949.27,3232.206l23.828,1.858
				c4.46,0.348,8.826-1.372,11.822-4.695c8.181-9.073,25.04-26.705,32.438-26.623c9.958,0.111,5.945,35.232,5.945,35.232
				l5.553,0.433l10.447-43.217c2.628-10.873-1.997-22.209-11.483-28.139c0,0-3.571,16.571-16.428,23.022
				c-12.857,6.45-52.616,30.042-52.616,30.042s-4.565-1.018-9.705-0.498C2941.448,3220.395,2941.63,3231.611,2949.27,3232.206z"/>
			
				<linearGradient id="SVGID_00000097494262136976709400000000771568817159445641_" gradientUnits="userSpaceOnUse" x1="3159.7688" y1="3385.9922" x2="3242.9773" y2="2413.4929" gradientTransform="matrix(0.997 0.0777 -0.0777 0.997 229.9389 -157.9383)">
				<stop  offset="0" style="stop-color:#F9B776"/>
				<stop  offset="1" style="stop-color:#F47960"/>
			</linearGradient>
			<path style="fill:url(#SVGID_00000097494262136976709400000000771568817159445641_);" d="M3105.457,2902.014
				c0,0,84.345,195.484,96.737,239.58c12.392,44.097,15.116,80.29,15.063,83.693c-0.083,5.318,6.104,10.906,24.246,12.321
				c9.363,0.73,14.241-2.666,16.77-6.124c2.158-2.95,2.559-6.821,1.199-10.213c-4.822-12.034-20.105-50.483-25.526-67.804
				c-6.471-20.68-16.669-112.908-23.683-145.245c-7.015-32.337-15.057-67.448-53.873-102.238
				C3156.39,2905.985,3130.219,2876.023,3105.457,2902.014z"/>
			
				<linearGradient id="SVGID_00000175305583144374418370000001858736300319682460_" gradientUnits="userSpaceOnUse" x1="2992.4336" y1="2393.0193" x2="3266.7734" y2="1713.3109" gradientTransform="matrix(0.997 0.0777 -0.0777 0.997 229.9389 -157.9383)">
				<stop  offset="0" style="stop-color:#FDF53F"/>
				<stop  offset="1" style="stop-color:#D93C65"/>
			</linearGradient>
			<path style="fill:url(#SVGID_00000175305583144374418370000001858736300319682460_);" d="M3066.915,2589.475
				c-17.097-110.188,52.359-166.339,52.359-166.339c-37.76-42.36-110.734-65.986-110.734-65.986s-75.004,46.345-69.753,87.607
				c3.078,24.184,38.763,146.441,38.763,146.441S3017.575,2614.108,3066.915,2589.475z"/>
			
				<linearGradient id="SVGID_00000158736857903287999920000003333079320398205579_" gradientUnits="userSpaceOnUse" x1="3223.6296" y1="2410.0239" x2="3015.6526" y2="2742.7871" gradientTransform="matrix(0.997 0.0777 -0.0777 0.997 229.9389 -157.9383)">
				<stop  offset="0" style="stop-color:#CB236D"/>
				<stop  offset="1" style="stop-color:#4C246D"/>
			</linearGradient>
			<path style="fill:url(#SVGID_00000158736857903287999920000003333079320398205579_);" d="M3119.351,2647.454
				c-7.951-32.115-52.436-57.979-52.436-57.979c-49.34,24.633-89.365,1.724-89.365,1.724s-12.098,34.898-8.246,68.506
				c3.851,33.609,27.62,249.524,27.62,249.524c62.587,17.844,162.406-0.379,162.406-0.379
				C3124.431,2833.777,3127.301,2679.569,3119.351,2647.454z"/>
			
				<linearGradient id="SVGID_00000132059170319556043320000016090970393261567934_" gradientUnits="userSpaceOnUse" x1="3006.7546" y1="2356.7107" x2="2995.4946" y2="2133.5532" gradientTransform="matrix(0.997 0.0777 -0.0777 0.997 229.9389 -157.9383)">
				<stop  offset="0" style="stop-color:#F9B776"/>
				<stop  offset="1" style="stop-color:#F47960"/>
			</linearGradient>
			<path style="fill:url(#SVGID_00000132059170319556043320000016090970393261567934_);" d="M3060.504,2289.268l13.489,94.866
				c1.347,8.368-6.036,6.441-14.218,4.228c-13.399-3.624-30.514-10.271-35.549-21.31c-0.512-1.124-0.715-2.365-0.789-3.597
				l-3.877-65.355c-0.307-5.185,2.854-9.948,7.752-11.678l17.805-6.289C3051.974,2277.711,3059.349,2282.09,3060.504,2289.268z"/>
			
				<linearGradient id="SVGID_00000015341109248234709140000010063228700570329240_" gradientUnits="userSpaceOnUse" x1="3015.4688" y1="2406.7051" x2="3151.8154" y2="2164.054" gradientTransform="matrix(0.9967 -0.0807 0.0807 0.9967 -208.6027 192.5722)">
				<stop  offset="0" style="stop-color:#F9B776"/>
				<stop  offset="1" style="stop-color:#F47960"/>
			</linearGradient>
			<path style="fill:url(#SVGID_00000015341109248234709140000010063228700570329240_);" d="M3023.844,2209.868
				c0,0-23.74,12.371-37.576,49.243c-13.836,36.873-0.027,52.262,15.833,53.244c15.859,0.982,39.277-1.26,62.218-26.214
				C3087.26,2261.188,3054.801,2194.977,3023.844,2209.868z"/>
			
				<linearGradient id="SVGID_00000021081097961322072130000014917079300052034974_" gradientUnits="userSpaceOnUse" x1="3021.3357" y1="2120.105" x2="3190.6677" y2="2592.1819">
				<stop  offset="0" style="stop-color:#CB236D"/>
				<stop  offset="1" style="stop-color:#4C246D"/>
			</linearGradient>
			<path style="fill:url(#SVGID_00000021081097961322072130000014917079300052034974_);" d="M3046.113,2268.528
				c0,0,14.336-53.468-31.787-50.351l-10.227,8.456c0,0-19.238-27.443,7.394-43.443c26.632-16.001,57.799-7.111,84.798,21.488
				c29.222,30.953,41.835,70.838,23.64,90.313c-18.195,19.476-58.033,3.005-58.033,3.005s-4.49-11.017,1.468-31.231
				c2.823-9.578-14.249,3.018-14.249,3.018L3046.113,2268.528z"/>
			
				<linearGradient id="SVGID_00000155865656885727775180000002667394088257414553_" gradientUnits="userSpaceOnUse" x1="3044.4919" y1="2423.0122" x2="3180.8384" y2="2180.3616" gradientTransform="matrix(0.9967 -0.0807 0.0807 0.9967 -208.6027 192.5722)">
				<stop  offset="0" style="stop-color:#F9B776"/>
				<stop  offset="1" style="stop-color:#F47960"/>
			</linearGradient>
			<path style="fill:url(#SVGID_00000155865656885727775180000002667394088257414553_);" d="M3051.749,2273.898
				c0,0,7.208-27.528,20.58-17.881c13.372,9.647-8.163,25.551-16.671,30.826L3051.749,2273.898z"/>
			<g>
				
					<linearGradient id="SVGID_00000150095382025263383440000011439225461243764130_" gradientUnits="userSpaceOnUse" x1="2893.699" y1="2358.0146" x2="3019.6399" y2="2644.5586" gradientTransform="matrix(0.994 -0.1095 0.1095 0.994 -279.2107 263.9404)">
					<stop  offset="0" style="stop-color:#F9B776"/>
					<stop  offset="1" style="stop-color:#F47960"/>
				</linearGradient>
				<path style="fill:url(#SVGID_00000150095382025263383440000011439225461243764130_);" d="M2808.572,2227.2
					c-0.644,3.261,11.366,6.796,16.706-6.841c-0.444-6.204,0.397-33.087-3.85-37.714c-22.616-24.641-64.441-54.044-64.441-54.044
					c-5.742,7.067,0.254,12.728,0.254,12.728l20.615,17.228c-3.097,7.416-7.166,13.836-8.445,22.535
					c-0.969,6.588,0.809,13.317,4.685,18.788c3.891,5.49,9.157,12.605,14,18.093C2797.262,2228.361,2808.572,2227.2,2808.572,2227.2
					z"/>
				<g>
					
						<linearGradient id="SVGID_00000074414388653385210140000016672208161200901300_" gradientUnits="userSpaceOnUse" x1="2888.5647" y1="2340.3811" x2="2840.9639" y2="2238.0142" gradientTransform="matrix(0.994 -0.1095 0.1095 0.994 -279.2107 263.9404)">
						<stop  offset="0" style="stop-color:#F9B776"/>
						<stop  offset="1" style="stop-color:#F47960"/>
					</linearGradient>
					<path style="fill:url(#SVGID_00000074414388653385210140000016672208161200901300_);" d="M2799.015,2216.568
						c-0.718-0.145-1.337-0.673-1.56-1.428c-2.239-7.59-8.804-28.265-12.242-32.682c-2.468-3.177-3.465-5.96-3.042-8.506
						c0.355-2.148,1.672-3.946,4.029-5.499c0.684-0.457,1.578-0.444,2.27,0.013l18.425,12.431c0.291,0.197,0.526,0.465,0.684,0.778
						l6.861,13.641c0.506,1.012,0.1,2.239-0.909,2.75c-1.006,0.499-2.24,0.104-2.75-0.909l-6.619-13.164l-16.766-11.309
						c-0.685,0.625-1.076,1.268-1.186,1.935c-0.218,1.323,0.554,3.163,2.235,5.325c4.536,5.83,12.091,31.166,12.94,34.038
						c0.32,1.084-0.302,2.223-1.386,2.543C2799.669,2216.623,2799.333,2216.632,2799.015,2216.568z"/>
				</g>
			</g>
			
				<linearGradient id="SVGID_00000075128484731898213760000010649357045922601866_" gradientUnits="userSpaceOnUse" x1="3249.4485" y1="2727.2849" x2="3217.7148" y2="2944.3022" gradientTransform="matrix(0.997 0.0777 -0.0777 0.997 229.9389 -157.9383)">
				<stop  offset="0" style="stop-color:#C32B78"/>
				<stop  offset="1" style="stop-color:#593092"/>
			</linearGradient>
			<polygon style="fill:url(#SVGID_00000075128484731898213760000010649357045922601866_);" points="3258.396,2950.95 
				3282.779,2936.936 3224.08,2780.909 3209.99,2790.42 			"/>
			<path style="fill:#FFFFFF;" d="M3192.223,2802.55c-0.04,0-0.082,0-0.122-0.003c-0.844-0.066-1.479-0.804-1.412-1.651
				c0.037-0.451,3.169-45.605-9.617-60.232c-2.379-2.724-5.081-4.133-8.261-4.311c-3.042-0.178-5.827,0.886-8.367,3.254
				c-13.793,12.848-14.605,57.553-14.614,58.002c-0.01,0.842-0.695,1.513-1.534,1.513c-0.008,0-0.016,0-0.021,0
				c-0.849-0.01-1.526-0.709-1.513-1.556c0.026-1.893,0.841-46.468,15.587-60.205c3.135-2.928,6.721-4.285,10.634-4.077
				c3.99,0.226,7.491,2.028,10.4,5.359c13.835,15.824,10.403,62.026,10.369,62.491
				C3193.689,2801.939,3193.017,2802.55,3192.223,2802.55z"/>
			
				<linearGradient id="SVGID_00000155866076075566121930000009793499688536849574_" gradientUnits="userSpaceOnUse" x1="3117.6899" y1="2547.6897" x2="3087.3247" y2="2235.363" gradientTransform="matrix(0.997 0.0777 -0.0777 0.997 229.9389 -157.9383)">
				<stop  offset="0" style="stop-color:#F9B776"/>
				<stop  offset="1" style="stop-color:#F47960"/>
			</linearGradient>
			<path style="fill:url(#SVGID_00000155866076075566121930000009793499688536849574_);" d="M3085.265,2466.049
				c3.487,4.623,56.323,67.481,71.454,137.624s10.043,116.978,10.043,116.978s-15.373,11.465-9.846,19.597
				c5.527,8.132,4.069,13.665,11.133,15.243c7.064,1.578,15.824,3.801,14.755-10.144c-1.069-13.945,15.579-16.754,12.813-25.184
				c-2.752-8.39,16.088-234.765-75.045-296.168c-0.43-0.29-0.863-0.576-1.298-0.859
				C3080.747,2437.055,3079.66,2458.617,3085.265,2466.049z"/>
			
				<linearGradient id="SVGID_00000051348221896901216190000004454014351354656156_" gradientUnits="userSpaceOnUse" x1="3195.5459" y1="2803.1741" x2="3180.0842" y2="2644.1404" gradientTransform="matrix(0.997 0.0777 -0.0777 0.997 229.9389 -157.9383)">
				<stop  offset="0" style="stop-color:#A737D5"/>
				<stop  offset="1" style="stop-color:#EF497A"/>
			</linearGradient>
			<polygon style="fill:url(#SVGID_00000051348221896901216190000004454014351354656156_);" points="3137.105,2783.625 
				3209.99,2790.42 3258.396,2950.95 3153.76,2953.685 			"/>
			
				<linearGradient id="SVGID_00000168100544067509756330000000614258986458072246_" gradientUnits="userSpaceOnUse" x1="3249.8308" y1="2862.7446" x2="3236.7136" y2="2727.8254" gradientTransform="matrix(0.997 0.0777 -0.0777 0.997 229.9389 -157.9383)">
				<stop  offset="0" style="stop-color:#B37CFF"/>
				<stop  offset="1" style="stop-color:#F895E7"/>
			</linearGradient>
			<path style="fill:url(#SVGID_00000168100544067509756330000000614258986458072246_);" d="M3259.864,2948.495
				c-0.085,0-0.173-0.011-0.26-0.034c-0.547-0.144-0.873-0.704-0.73-1.25l4.672-17.823l-36.904-114.52
				c-0.172-0.536,0.122-1.115,0.661-1.287c0.539-0.175,1.11,0.119,1.287,0.661l36.997,114.804c0.061,0.186,0.066,0.385,0.016,0.573
				l-4.749,18.112C3260.735,2948.189,3260.318,2948.495,3259.864,2948.495z"/>
			
				<linearGradient id="SVGID_00000052787923183864626460000004526598297338580891_" gradientUnits="userSpaceOnUse" x1="3276.0706" y1="2849.366" x2="3275.2649" y2="2841.0791" gradientTransform="matrix(0.997 0.0777 -0.0777 0.997 229.9389 -157.9383)">
				<stop  offset="0" style="stop-color:#B37CFF"/>
				<stop  offset="1" style="stop-color:#F895E7"/>
			</linearGradient>
			<path style="fill:url(#SVGID_00000052787923183864626460000004526598297338580891_);" d="M3281.016,2937.311
				c-0.149,0-0.3-0.032-0.441-0.101l-12.62-6.034c-0.51-0.244-0.727-0.855-0.483-1.365c0.241-0.515,0.857-0.733,1.364-0.483
				l12.62,6.034c0.51,0.244,0.727,0.855,0.483,1.364C3281.764,2937.096,3281.398,2937.311,3281.016,2937.311z"/>
		</g>
		<g>
			
				<linearGradient id="SVGID_00000011019865666783335020000012047653021568468906_" gradientUnits="userSpaceOnUse" x1="3414.1831" y1="1168.2161" x2="2598.3115" y2="2204.7324">
				<stop  offset="0" style="stop-color:#FDF53F"/>
				<stop  offset="0.6645" style="stop-color:#E57A58"/>
				<stop  offset="1" style="stop-color:#D93C65"/>
			</linearGradient>
			<path style="fill:url(#SVGID_00000011019865666783335020000012047653021568468906_);" d="M2891.967,1819.102
				c23.534-3.871,62.801-14.801,85.085-45.508c4.887-6.735,2.002-16.272-5.701-19.419
				c-38.141-15.579-139.103-67.971-113.338-178.313c31.595-135.312,186.65-122.451,280.84-81.173
				c94.191,41.278,134.31,115.664,96.899,215.503c-35.273,94.134-232.447,140.275-343.927,116.173
				C2887.821,1825.5,2887.925,1819.767,2891.967,1819.102z"/>
			<path style="fill:#FFFFFF;" d="M3056.01,1774.022c-0.135,0-0.269-0.003-0.406-0.01c-14.899-0.872-24.589-2.793-24.993-2.873
				c-3.703-0.745-6.102-4.346-5.36-8.051c0.74-3.705,4.36-6.094,8.048-5.366c0.092,0.017,9.238,1.818,23.104,2.626
				c3.772,0.22,6.652,3.458,6.431,7.229C3062.621,1771.215,3059.606,1774.022,3056.01,1774.022z"/>
			<path style="fill:#FFFFFF;" d="M3102.69,1771.957c-3.311,0-6.221-2.406-6.75-5.78c-0.586-3.735,1.964-7.236,5.698-7.821
				c43.523-6.835,73.963-27.305,90.475-60.837c40.707-82.666-7.347-130.146-9.413-132.127c-2.721-2.613-2.826-6.939-0.224-9.669
				c2.599-2.726,6.914-2.843,9.65-0.254c0.604,0.575,14.933,14.342,23.538,39.609c7.861,23.082,12.285,60.643-11.273,108.487
				c-18.333,37.227-53.131,60.847-100.631,68.307C3103.399,1771.93,3103.042,1771.957,3102.69,1771.957z"/>
			<g>
				<path style="fill:#FFFFFF;" d="M3051.128,1593.244c0,0-7.943-60.359-67.789-46.865c-56.694,12.783-33.864,90.042,49.65,135.242
					c9.054,4.9,19.928,5.071,29.156,0.505c34.542-17.092,114.534-64.956,65.602-122.221
					C3096.146,1522.925,3051.128,1593.244,3051.128,1593.244z"/>
			</g>
		</g>
	</g>
</g>
</svg>
